<svg width="119" height="119" viewBox="0 0 119 119" fill="none" xmlns="http://www.w3.org/2000/svg">
<g clip-path="url(#clip0_1375_1378)">
<path d="M65.02 5.17188H72.3413L73.6196 5.34619L74.6074 5.57861L75.8857 6.04346L76.8154 6.5083L77.6289 6.97314L78.5586 7.67041L79.314 8.30957L79.895 8.89062L80.418 9.52979L80.4761 9.7041L80.8247 9.646L82.0449 9.18115L83.1489 8.89062L84.3691 8.71631H86.4028L87.9136 8.94873L89.1338 9.29736L90.2959 9.76221L91.2837 10.2852L92.2715 10.9824L92.9106 11.5054L93.666 12.2026L94.3633 13.0161L94.9443 13.8296L95.5254 14.8174L96.0483 15.9795L96.397 17.0254L96.6875 18.478L96.8037 20.0469L96.8618 33.0044L97.0942 33.353L97.6753 34.1084L98.1982 35.0381L98.6631 36.1421L98.9536 37.3042L99.0698 38.2339V39.5122L98.8955 40.7324L98.5469 41.8945L98.1401 42.8242L97.6172 43.6958L97.0361 44.4512L96.2808 45.2646L95.4673 45.9038L94.7119 46.3687L93.7822 46.8335L92.7363 47.1821L91.5742 47.4146L90.2959 47.5308L90.2378 48.1118L89.8892 49.7969L89.3662 51.4819L88.8433 52.7603L88.2622 53.9805L87.5068 55.2588L86.8677 56.1885L86.2866 56.9438L85.5894 57.7573L84.7759 58.6289L83.9624 59.3843L83.3232 59.9072L82.3936 60.6045L81.4058 61.2437L81.1152 61.3599V63.626L81.2314 64.7881L81.522 65.7759L81.9287 66.5312L82.3936 67.1123L82.8584 67.5771L83.73 68.1582L87.4487 70.0176L88.7271 70.5986L101.626 73.8525L103.253 74.3174L104.299 74.7822L105.229 75.3633L106.159 76.1187L106.856 76.874L107.495 77.8037L107.96 78.6753L108.309 79.605L108.541 80.5928L108.657 81.5806L109.413 94.5381L110.458 112.609L110.575 114.526V116.502L110.284 117.315L109.819 117.955L109.413 118.361L108.541 118.826L107.96 119H47.9951L47.1235 118.652L46.5425 118.187L46.0776 117.548L45.8452 116.967L45.7871 116.676L45.729 114.759V93.376L45.6128 92.7368L45.2642 92.1558L44.7412 91.8071L44.3926 91.6909L25.915 91.6328L23.9395 91.5747L22.4287 91.4004L21.1504 91.1099L19.9883 90.7612L18.5938 90.1802L17.3735 89.541L16.3276 88.8438L15.5723 88.2627L14.9912 87.7397L14.5264 87.333L13.7129 86.5195L13.0737 85.7061L12.3765 84.7764L11.8535 83.9048L11.3306 82.917L10.7495 81.4644L10.4009 80.3604L10.1104 78.9658L9.93604 77.5132L9.87793 76.1187V57.9316L9.5293 57.2344L9.47119 56.9438V52.2954L9.64551 51.8306L9.99414 51.3076L10.5171 50.9009L11.2144 50.6685H11.3306L11.0981 49.7388L10.6914 48.751L9.81982 47.0659L9.29688 46.1362L8.94824 45.1484L8.71582 44.2188L8.59961 43.4053L8.5415 42.5918L8.36719 33.876V31.4937L8.5415 30.7964L8.89014 30.0991L9.5293 29.4019L10.1104 28.9951L10.8076 28.7627L11.2144 28.7046H11.7373L12.3765 28.8208L12.667 28.8789L13.1318 28.2979L13.6548 27.833L14.3521 27.4844L14.8169 27.3682H15.8047L16.502 27.5425L16.6763 27.6006L17.1992 27.0195L17.7222 26.6128L18.4194 26.3223L18.71 26.2642H19.6978L20.395 26.4385L20.6855 26.6128L20.918 26.6709L20.9761 26.4966L21.6152 26.0317L22.3125 25.7412L22.603 25.6831H23.5908L24.4043 25.9155L25.0435 26.3223L25.5664 26.8452L25.915 27.3682L26.1475 28.0073L26.2056 28.2979L26.2637 29.6343L26.3218 33.0625L26.9028 32.8882H27.8325L28.4717 33.0625L29.1689 33.4111L29.8081 33.9341L30.3311 34.6895L30.6216 35.4448L30.7378 36.3745L30.7959 38.6987V40.3838L30.6216 41.8945L30.3311 43.0566L29.9824 44.0444L29.3433 45.3809L28.7622 46.3105L28.1812 47.0659L27.7163 47.647L27.1353 48.4023L26.6123 49.332L26.2637 50.3779V50.6685L27.019 50.9009L27.4258 51.1914V51.3076H27.542L27.8906 51.8306L28.0649 52.4116V56.6533L27.9487 57.3506L27.6582 57.8735L27.6001 72.5742L42.998 72.5161L44.7412 72.458L46.9492 72.2837L49.1572 71.9351L51.249 71.4702L54.2705 70.7148L55.2002 70.3662L58.1055 68.9136L59.4419 68.2744L60.1973 67.8096L60.8364 67.2866L61.2432 66.8218L61.5337 66.415L61.9404 65.5435L62.1729 64.6138L62.231 64.207V61.7085L61.2432 61.1274L60.3135 60.4883L59.5581 59.9072L58.7446 59.21L58.0474 58.5708L57.4663 57.9897L57.0596 57.5249L56.4204 56.7695L55.665 55.7236L55.0259 54.7358L54.3286 53.4575L53.8057 52.2954L53.2827 50.8428L52.9341 49.6807L52.5273 47.5889V47.4727H51.6558L50.4937 47.2983L49.5059 47.0078L48.46 46.543L47.6465 46.0781L46.8911 45.4971L46.1938 44.8579L45.6709 44.2769L45.0317 43.3472L44.625 42.6499L44.2764 41.7783L44.0439 41.0229L43.8115 39.8608L43.7534 38.5825L43.8696 37.4785L44.1602 36.2583L44.625 35.0962L44.9736 34.457L45.4385 33.7598L45.9614 33.1206L46.4263 32.6558L46.5425 32.3652L46.6006 23.4751L46.7749 21.8481L47.0654 20.3374L47.4141 19.0591L47.8208 17.8389L48.3438 16.6187L48.8086 15.6309L49.6221 14.2363L50.3193 13.2485L51.0166 12.3188L51.249 12.0283H51.3652L51.4814 11.7959L52.1787 11.0405L52.9922 10.2271L53.6313 9.7041L54.3286 9.12305L55.3164 8.42578L56.5366 7.67041L58.1055 6.85693L59.5581 6.27588L60.8364 5.86914L62.2891 5.52051L63.6836 5.28809L65.02 5.17188Z" fill="#020102"/>
<path d="M12.2021 58.6289H25.2759L25.334 74.1431L25.6826 74.6079L26.0312 74.7822H45.0317L47.1235 74.6079L49.0991 74.3174L49.5059 74.2012L50.3193 74.085L52.2949 73.6201L53.0503 73.3877L53.9219 73.2134L55.084 72.9229L55.4326 72.8066L55.7812 73.1553L55.9556 73.4458L56.3623 73.7944L56.7109 74.2593L57.0015 74.4917L57.1758 74.7822L57.6406 75.189L57.8149 75.4795L58.1636 75.77L58.3379 76.0605L58.8027 76.4673L58.9771 76.7578L59.3257 77.0483L59.5 77.3389L59.8486 77.6294L60.0811 77.978L60.4878 78.3267L60.6621 78.6172L61.0107 78.9077L61.1851 79.1982L61.5918 79.5469L61.7661 79.8374L62.1147 80.1279L62.2891 80.4185L62.6958 80.7671L62.8701 81.0576L63.2188 81.3481L63.335 81.5806L63.5674 81.6968L63.7998 81.9292L64.2065 82.1035L64.4971 82.1616H65.1943L65.8335 81.9873L65.8916 81.813L66.4146 81.4644L66.8213 80.9414H66.9375L66.9956 80.7671L67.1699 80.8252L67.5186 81.6968L67.8091 82.4521V82.6265H67.9253L67.9834 82.8589V83.4399L67.9253 83.8467H67.8091V84.5439L67.1699 90.1802L66.5308 95.9907L66.0078 100.581L65.3687 106.45L64.8457 111.04L64.2646 116.328L64.2065 116.618L63.2188 116.676L48.1694 116.618L48.1113 115.398L48.0532 92.9111L47.937 92.3301L47.7627 91.8071L47.356 91.0518L47.0654 90.7612L46.8911 90.4707L46.5425 90.2383L46.4844 90.1221L46.3101 90.064V89.9478H46.1357V89.8315L45.6128 89.6572L45.0317 89.4248L44.7412 89.3667L24.5205 89.3086L23.6489 89.2505L23.5908 89.1924L22.1963 88.96L21.3247 88.7856V88.6694L20.8018 88.6113L20.5112 88.4951V88.3789L20.2207 88.3208L19.814 88.1465L19.4653 88.0303L19.0005 87.7979V87.6816L18.5938 87.5654L17.8384 87.1006V86.9844L17.606 86.9263V86.8101L17.3735 86.752L17.1411 86.5776V86.4614L16.9087 86.4033L16.6763 86.1709L16.3276 85.8804L15.9209 85.4155L15.3979 84.9507L15.2817 84.7183L15.1074 84.6021L15.0493 84.4277L14.875 84.3115L14.7007 83.9629L14.4102 83.6724L14.1777 83.2075L13.5967 82.2197L13.0737 80.9995L12.7251 79.9536L12.4346 78.6172L12.3184 77.6294L12.2603 77.5713L12.2021 76.6997V58.6289Z" fill="#05568D"/>
<path d="M87.9717 72.8643L89.0176 73.0967L98.0239 75.3628L102.149 76.4087L103.021 76.7573L103.834 77.2222L104.241 77.5708L104.474 77.687L104.938 78.1519L105.055 78.3843L105.171 78.4424V78.6167H105.287V78.791H105.403L105.81 79.5464L106.101 80.418L106.217 80.7085L106.333 81.7544L106.972 92.9106L108.134 112.957L108.25 114.816V116.153L107.902 116.56L107.786 116.618L106.333 116.676L97.6753 116.618L97.6172 116.385L97.5591 89.8892L97.3267 89.4243L96.978 89.1338L96.6294 89.0176L96.0483 89.0757L95.6997 89.3081L95.4673 89.5986L95.4092 89.7148L95.3511 90.354V110.4L95.293 116.618H79.1978L79.0815 115.92L77.106 98.1982L76.583 93.4917L75.5371 84.0205V83.5557H75.4209V82.8003L75.5371 82.3936H75.6533L75.7114 82.103L76.0601 81.1152L76.2344 80.7085L76.4668 80.7666V80.9409L76.6411 80.999L76.8154 81.2896L77.2222 81.6963L77.9775 82.0449V82.1611H78.9653L79.4883 82.0449V81.9287L79.895 81.6382L80.1274 81.522L80.3599 81.1733L80.5923 80.999L80.7666 80.7085L81.1152 80.418L81.3477 80.0693L81.7544 79.7207L81.9287 79.4302L82.3354 79.0815L82.5098 78.791L82.8584 78.5005L83.0908 78.1519L83.3813 77.9194L83.5557 77.6289L84.0205 77.2222L84.1367 76.9897L84.5435 76.6411L84.7759 76.2925L85.0664 76.0601L85.2988 75.7114L85.7056 75.3628L85.8799 75.0723L86.2285 74.7817L86.4609 74.4331L86.8677 74.0845L87.042 73.7939L87.3906 73.5034L87.623 73.1548L87.9717 72.8643Z" fill="#05568D"/>
<path d="M74.8398 24.2305L75.0723 24.2886L75.479 24.7534L75.7114 24.8696L75.7695 24.9858L75.9438 25.0439L76.002 25.1602L76.1763 25.2183L76.2344 25.3345L76.4087 25.3926V25.5088L76.6411 25.5669V25.6831H76.8154V25.7993H76.9897V25.9155H77.1641V26.0317L77.4546 26.0898V26.2061L77.8613 26.3223V26.4385L78.3843 26.6128L78.6167 26.729V26.8452L78.9653 26.9033L79.4883 27.1938L79.895 27.3682L80.3018 27.4844L80.6504 27.6006V27.7168L81.2896 27.833L82.6841 28.2397L83.73 28.4722L84.0786 28.5884L86.6353 28.8789L87.3325 28.937V29.0532H88.146L88.2041 29.8667V45.6133L88.0298 47.4727L87.6812 49.1577L87.2163 50.6685L86.8096 51.7144H86.6934L86.5771 52.1792L86.1123 53.1089H85.9961L85.938 53.3994L85.5312 54.0967H85.415L85.3569 54.3291L85.0083 54.8521H84.8921L84.834 55.0845L84.2529 55.8398L84.0205 56.0142L83.8462 56.3047L83.1489 56.9438L82.7422 57.4087L82.3936 57.6411L82.2192 57.8735L82.0449 57.9316L81.9287 58.106L81.6963 58.2222L81.6382 58.3384L81.4639 58.3965L81.4058 58.5127H81.2314V58.6289H81.0571V58.7451L80.8828 58.8032L80.8247 58.9194H80.6504V59.0356L80.3599 59.0938V59.21H80.1855V59.3262L79.895 59.3843V59.5005L79.3721 59.6748V59.791L78.6748 60.1396L78.0938 60.3721L77.8032 60.4302V60.5464L76.2925 61.0693H75.8857V61.1855L75.479 61.3018H74.9561V61.418L73.2129 61.7085L72.6318 61.7666H70.2495L68.7969 61.5923L67.4023 61.3018L66.1821 60.9531L64.7876 60.4302V60.314L64.439 60.2559L63.1606 59.6167V59.5005L62.8701 59.4424V59.3262L62.5796 59.2681V59.1519H62.4053V59.0356H62.231V58.9194H62.0566V58.8032H61.8823V58.687H61.708V58.5708L61.4756 58.5127L61.4175 58.3965L61.2432 58.3384V58.2222L61.0107 58.106L60.6621 57.8735L60.0811 57.2925L59.7905 57.0601V56.9438L59.5581 56.8276L59.1514 56.3628L58.5703 55.7236L58.2798 55.375L58.1055 55.2007L58.0474 55.0264L57.9312 54.9683L57.7568 54.6777V54.5615H57.6406V54.3872H57.5244L57.4082 54.0386H57.292L57.2339 53.748H57.1177L57.0596 53.4575H56.9434L56.7109 52.9346V52.8184H56.5947L56.3623 52.3535L56.188 51.8887L55.8394 51.1914L55.2583 49.4482L54.9097 47.9375L54.6772 46.1362V30.9126H55.1421L56.9434 31.145L58.6284 31.2612H59.9648L61.6499 31.145L63.335 30.9126L64.9619 30.564L66.2983 30.1572L66.7632 30.0991V29.9829L67.1118 29.8667L67.6929 29.6343H67.9253V29.5181L69.2617 28.8789L69.7266 28.6465H69.8428V28.5303L70.1333 28.4722V28.356H70.3076V28.2397H70.4819V28.1235H70.6562V28.0073H70.8306V27.8911L71.1792 27.7749L71.2373 27.6006H71.4116L71.4697 27.4263L71.7021 27.3101L71.7603 27.1938L71.9346 27.1357L72.0508 26.9614L72.2832 26.8452L72.8062 26.3223L73.271 25.9736L73.9102 25.3345L74.1426 24.9858L74.4331 24.7534L74.6655 24.4048L74.8398 24.2305Z" fill="#F7CDB2"/>
<path d="M66.2983 7.4375H70.9468L72.3994 7.49561L73.4453 7.66992L74.4331 7.96045L75.5952 8.4834L76.4668 9.00635L77.1641 9.5293L77.8613 10.1685L78.3262 10.6333L79.0234 11.563L79.4302 12.0859L79.8369 12.3765L80.2437 12.4346L80.7666 12.2603L82.103 11.6211L83.1489 11.2725L84.311 11.04L85.0664 10.9819H85.7637L86.8096 11.0981L87.8555 11.3306L88.7271 11.6211L89.8311 12.144L90.877 12.8413L91.6323 13.4805L92.2715 14.1196L92.7363 14.7007L93.2593 15.5142L93.7241 16.3857L94.1309 17.5479L94.3633 18.5938L94.4795 20.2207V31.2026L93.9565 31.0283L92.8525 30.6216L91.8066 30.3892L90.4702 30.2148L90.4121 28.646L90.1797 27.8906L89.8311 27.3677L89.4824 27.0771L89.0757 26.9028L88.4365 26.7866L86.3447 26.6123L84.1367 26.2637L82.5098 25.8569L80.999 25.334L79.6626 24.7529L78.5005 24.1138L77.5708 23.4746L76.7573 22.8354L76.0601 22.2544L75.479 21.9639L74.9561 21.8477L74.3169 21.9058L73.7358 22.1963L73.1548 22.7192L72.3994 23.5908L71.5859 24.4624L71.1211 24.8691L70.3657 25.5083L69.3198 26.2637L67.8091 27.1353L66.7051 27.6582L65.2524 28.1812L63.7998 28.5879L62.5215 28.8203L61.127 28.9946L60.1973 29.0527H58.6284L57.0015 28.9365L54.5029 28.5879H54.0381L53.5151 28.8203L52.9922 29.2271L52.5854 29.8081L52.4111 30.2148L50.7261 30.4473L49.6221 30.7378L48.9829 30.9702H48.8667V25.1597L48.9248 23.4165L49.1572 21.6733L49.5059 20.1045L50.0869 18.3613L50.6099 17.1992L51.249 15.979L52.0044 14.8169L52.5854 14.0615L53.2246 13.3062L53.6313 12.8413L54.561 11.9116L55.2002 11.3887L56.0137 10.7495L57.2339 9.93604L58.1636 9.41309L59.6162 8.71582L61.708 8.01855L63.335 7.66992L64.1484 7.55371L66.2983 7.4375Z" fill="#5B5E5F"/>
<path d="M22.8354 28.0068H23.3003L23.5908 28.123L23.8813 28.4717L23.9395 31.3188L23.9976 31.6675L24.0557 34.2822V36.4902L24.1138 39.1631L24.1719 39.6279H24.2881L24.4624 39.9185L24.811 40.1509L25.5664 40.2671V40.1509L25.915 40.0928L25.9731 39.9185H26.0894V39.8022L26.2056 39.7441L26.3218 39.3955V36.7227L26.438 35.793L26.7285 35.3862L27.0771 35.2119H27.6582L28.123 35.5024L28.3555 35.9092L28.4136 37.6523V40.6738L28.3555 41.5454L28.0068 42.7656L27.7744 43.3467L27.6582 43.4629L27.4839 43.9858H27.3677L27.1934 44.5088H27.0771V44.6831H26.9609V44.8574L26.7866 45.0317L26.7285 45.2061H26.6123L26.3799 45.6709L26.2637 45.729L26.1475 45.9614L25.7407 46.3682L25.6826 46.5425L25.5083 46.7168L25.2178 47.0654L25.1597 47.2397H25.0435V47.4141H24.9272L24.811 47.8208H24.6948L24.6367 48.1113L24.5786 48.2856H24.4624L24.4043 48.6343L24.23 49.1572L24.1138 49.564H23.9976L23.9395 50.0869L23.8813 50.668H13.6548L13.5386 49.7383L13.3643 49.2153L13.0156 48.2856L12.7832 47.7627L12.2603 46.6587V46.5425H12.144L11.9697 46.0195H11.8535L11.563 45.3804V45.2642H11.4468L11.1562 44.5088L10.9819 43.8115L10.8657 42.8818L10.8076 41.4873L10.7495 39.0469L10.6914 35.2119V31.6094L11.04 31.1445L11.2725 31.0283H11.6792L12.0278 31.2607V31.377H12.144L12.2603 31.6094L12.3184 35.0957L12.4346 35.5024L12.6089 35.9092L12.7832 36.0835L13.3062 36.2578H14.0034V36.1416L14.2939 35.9673L14.5264 35.5024H14.6426L14.5845 30.2148L14.8169 29.8662L15.1074 29.6919H15.5723L15.979 29.9243L16.0952 30.2148L16.2114 31.7256L16.2695 35.3862L16.3276 35.6768H16.4438L16.5601 35.9092L16.7925 36.0254V36.1416L17.4897 36.2578L17.7803 36.1416H17.9546V36.0254L18.2451 35.8511L18.4775 35.4443V29.0527H18.5938V28.8784L18.7681 28.7041L19.0005 28.5879H19.4653L19.9883 29.0527L20.0464 29.5176L20.1626 34.3403L20.2207 35.3281L20.4531 35.793L20.6274 35.9092V36.0254L21.5571 36.0835H21.8477V35.9673L22.1382 35.793L22.3706 35.2119V28.4717L22.7192 28.0649L22.8354 28.0068Z" fill="#F6CDB2"/>
<path d="M78.6167 62.6377H78.7329L78.791 64.3809L78.8491 64.439L78.9653 65.7173H79.0815L79.1978 66.124V66.4146H79.314L79.7207 67.3442L79.895 67.6348L79.7788 67.8672L79.3721 68.332L79.0815 68.6226L78.5586 69.2617L78.0938 69.6685L77.687 70.1914L77.2222 70.5981L76.9897 70.9468L76.5249 71.3535L76.3506 71.644L75.8857 72.0508L75.4209 72.6318L74.9561 73.0386L74.6655 73.3872L74.375 73.6777L73.9683 74.1426L73.7358 74.4331L73.4453 74.6655L73.3291 74.8979L73.1548 75.0142H70.1914L69.7847 74.5493L69.5522 74.2588L69.2617 73.9683L68.9131 73.5615L68.6226 73.271L68.0996 72.6899L67.8091 72.3994L67.1118 71.644L66.8213 71.3535L66.2983 70.7725L66.0078 70.4819L65.7754 70.1914L65.4849 69.9009L64.9619 69.3198L64.6714 69.0293L64.1484 68.4482L63.8579 68.2158L63.5093 67.8091L63.5674 67.5767L63.9741 66.7632L64.3228 65.6011L64.4971 64.6133L64.5552 64.0903L64.6133 62.812L64.9619 62.8701V62.9863L65.6592 63.1025L67.4023 63.5674L69.2036 63.8579L71.0049 63.9741H71.8184L73.6196 63.8579L75.1304 63.6255L76.4087 63.335H76.8154V63.2188L77.687 62.9282L78.4424 62.6958L78.6167 62.6377Z" fill="#F6CDB2"/>
<path d="M85.938 89.0176H86.6934L87.7974 89.1919L88.6108 89.4824L89.1919 89.7729V89.8892L89.4824 89.9473V90.0635H89.6567V90.1797L89.8892 90.2378L89.9473 90.354L90.2378 90.5283L90.7026 90.9932L90.7607 91.1675L90.9351 91.2837L91.1094 91.6323L91.3418 91.9229L91.7485 92.7944L91.981 93.6079L92.0972 94.3052V95.2349L91.8647 96.397L91.6323 97.0361L91.1675 97.7915L91.0513 98.082L90.7607 98.3726L90.5864 98.6631L90.1216 99.1279L89.9473 99.186L89.8311 99.3604L89.4824 99.4766V99.5928L88.7852 99.9414L88.4946 100.116L88.0298 100.232H87.7974V100.348L87.2744 100.464L86.6353 100.522H85.938L85.1245 100.406L84.1948 100.116L83.2651 99.6509L83.0327 99.4185L82.7422 99.2441L82.6841 99.1279L82.3936 98.9536L82.0449 98.605L81.8706 98.3145L81.7544 98.2563V98.082H81.6382L81.5801 97.9077L81.4639 97.8496L81.4058 97.6172L81.2314 97.4429L80.999 96.8037V96.6294H80.8828L80.6504 95.6416L80.5923 95.293V94.3052L80.8247 93.085L81.1733 92.2134L81.7544 91.2837L82.3936 90.5864L83.207 89.9473L84.1948 89.4243L85.1245 89.1338L85.938 89.0176Z" fill="#020204"/>
<path d="M51.8301 32.5391H52.4111L52.4692 33.2944V45.0317L52.4111 45.2061H51.8301L50.668 44.9736L49.7383 44.625L49.2734 44.3926V44.2764L48.9829 44.1602L48.4019 43.7534L47.356 42.7075L47.1235 42.3008V42.1846H47.0073V42.0103H46.8911L46.6587 41.5454V41.313H46.5425L46.252 40.4414L46.0776 39.5698V38.1753L46.3101 37.1294L46.6006 36.3159L46.9492 35.6187H47.0654L47.1235 35.3281H47.2397V35.1538L47.356 35.0957L47.4141 34.9214L47.7046 34.6309L48.0532 34.2241L48.4019 33.9917L48.46 33.8755L48.6343 33.8174L48.6924 33.7012H48.8667V33.585H49.041V33.4688L49.3315 33.4106V33.2944L50.2612 32.8877L51.3652 32.5972L51.8301 32.5391Z" fill="#F7CDB2"/>
<path d="M90.5864 32.4805L91.7485 32.6548L91.8066 32.7129L92.4458 32.8291L93.4917 33.2939V33.4102L93.8403 33.5264L94.1309 33.7007V33.8169H94.3052L95.4673 34.979L95.5254 35.1533L95.6416 35.2114V35.3857H95.7578V35.5601H95.874L96.3389 36.4897L96.6294 37.3613L96.8037 38.3491V39.395L96.6294 40.3828L96.3389 41.2544L95.874 42.1841L95.4673 42.7651L95.3511 42.8232L95.1768 43.1138L94.8862 43.3462L94.5957 43.6948L94.4214 43.7529L94.3052 43.9272H94.1309L94.0728 44.1016L93.5498 44.3921H93.3755V44.5083L92.3877 44.915L91.3418 45.1475L90.9932 45.2056H90.4702L90.4121 45.1475V32.7129L90.4702 32.5386L90.5864 32.4805Z" fill="#F6CCB2"/>
<path d="M61.7661 69.4941L62.0566 69.5522L62.231 69.7266L62.6377 70.1914L62.9282 70.4238L63.335 70.9468L63.6836 71.2373L64.1484 71.8184L64.4971 72.1089L64.8457 72.5737L65.3105 72.9805L65.7754 73.5615L66.2402 73.9683L66.4727 74.3169L66.9375 74.7236L67.1699 75.0723L67.6348 75.479L67.8672 75.8276L68.0996 76.002L68.0415 76.2344L67.1118 77.2222L66.0659 78.4424L65.3687 79.1396L65.1943 79.4302L64.9038 79.6626H64.6714L64.3809 79.3721L64.0322 78.9072L63.7417 78.6167L63.4512 78.2681L63.1025 77.9775L62.9282 77.687L62.5215 77.3384L62.3472 77.0479L61.9985 76.7573L61.8242 76.4668L61.5337 76.2344L61.3013 75.8857L60.8364 75.479L60.6621 75.1885L60.1973 74.7817L60.0229 74.4912L59.5 73.9102L59.4419 73.7358L59.2095 73.6196L58.9189 73.271L58.6284 72.9805L58.2798 72.5737V72.4575L58.0474 72.3413L57.6987 71.9346L57.5825 71.8765V71.7603L60.604 70.2495L61.0107 70.1333V70.0171L61.3013 69.959L61.3594 69.7847L61.708 69.6104L61.7661 69.4941Z" fill="#FBFBFA"/>
<path d="M81.4058 69.4941L81.6963 69.6104L82.2773 70.0171L83.9624 70.8887L85.2988 71.5278L85.7056 71.7603L85.6475 71.9927L84.7759 72.9224L84.3691 73.3872L84.1367 73.6777L83.8462 73.9683L83.1489 74.7236L82.9165 75.0723L82.626 75.3047L82.2192 75.7695L81.8706 76.1763L81.5801 76.4668L80.8828 77.2222L80.4761 77.687L79.7788 78.4424L79.6045 78.6167L79.4883 78.8491L79.0234 79.2559L78.6748 79.6626H78.4424L78.1519 79.314V79.1978L77.9775 79.1396L77.6289 78.7329L77.3384 78.5005L77.106 78.1519L76.8735 77.9194V77.8032L76.6992 77.7451L76.2925 77.2803L75.5952 76.5249L75.3047 76.2344V75.9438L75.7695 75.5371L76.1763 75.0723L76.4668 74.7817L76.9897 74.2007L77.2803 73.9102L77.8613 73.271L78.1519 72.9805L78.5005 72.5737L78.7329 72.2832L79.1978 71.8765L79.4302 71.5278L79.895 71.1211L80.418 70.54L80.8247 70.1333L81.1152 69.7266L81.4058 69.4941Z" fill="#FBFBFB"/>
<path d="M11.7954 53.0508H25.7407V56.2466H11.7954V53.0508Z" fill="#FCFCFC"/>
<path d="M85.8799 91.3418H86.7515L87.1582 91.458L87.7974 91.6904L88.6689 92.2134V92.3296L88.9014 92.4458L89.1338 92.8525L89.1919 93.0269H89.3081L89.6567 93.9565L89.7148 94.2471V95.293L89.5405 95.9902L89.1338 96.7456L88.5527 97.3848L87.8555 97.8496L87.1582 98.082H86.8677V98.1982H85.7637L85.1826 98.0239L84.4854 97.6753V97.5591L84.1367 97.4429L83.5557 96.7456L83.0908 95.8159L82.9746 95.293V94.3052L83.207 93.3174L83.4395 92.9106H83.5557L83.6138 92.6782L83.8462 92.3877H83.9624L84.0205 92.2134L84.2529 92.0972L84.311 91.981H84.4854V91.8647L84.7759 91.6904L85.3569 91.5161H85.5312V91.3999L85.8799 91.3418Z" fill="white"/>
<path d="M103.137 46.1357H103.66L104.125 46.3101L104.474 46.5425L104.764 47.0073L104.88 47.4141V48.6924H106.217L106.798 48.9248L107.205 49.3315L107.437 49.9126V50.3774L107.263 50.8423L106.972 51.249L106.507 51.5396L106.217 51.5977L104.938 51.6558L104.88 52.9922L104.648 53.5151L104.357 53.8638L103.893 54.0962L103.602 54.1543H103.137L102.672 53.98L102.208 53.5732L101.975 53.1084L101.917 52.876V51.5977L101.336 51.6558L100.522 51.5977L99.9414 51.3071L99.5928 50.9004L99.4185 50.4937L99.3604 50.0288L99.5928 49.3896L99.9995 48.9248L100.522 48.6924H101.917V47.4141L102.091 46.8911L102.556 46.3682L103.137 46.1357Z" fill="#AEE297"/>
<path d="M68.1577 101.627L68.4482 101.685L69.8428 102.382L70.9468 102.963L72.6318 103.835L73.7358 104.416L75.4209 105.288L75.6533 105.52L75.9438 107.96L76.1182 109.762L76.002 109.82L72.3994 107.96L71.2954 107.379L70.3076 106.856L69.3779 106.392L68.2739 105.811L67.751 105.52L67.8091 104.648L68.1577 101.627Z" fill="#4C93D7"/>
<path d="M67.4604 107.96L67.8091 108.076L72.748 110.633L73.8521 111.214L75.6533 112.144L76.4087 112.608L76.5249 113.364L76.8154 115.92V116.153L76.5249 116.095L75.1304 115.397L74.0264 114.816L71.9927 113.771L70.8887 113.189L69.7266 112.608L68.6226 112.027L67.3442 111.388L67.1699 111.272V110.458L67.4604 107.96Z" fill="#26569A"/>
<path d="M66.7051 49.1572H67.0537L67.4023 49.2734V49.3896L67.6348 49.4478V49.564L67.8672 49.6802L68.332 50.0869V50.2031L68.5645 50.3193L68.855 50.4355V50.5518L69.2036 50.668L69.9009 50.9585L70.9468 51.1909H72.3994L73.4453 50.9585L74.2007 50.668L74.4331 50.6099V50.4937L74.7236 50.4355V50.3193H74.8979V50.2031L75.0723 50.145L75.479 49.6802H75.5952L75.6533 49.5059L75.8276 49.4478L75.8857 49.3315L76.1763 49.2153H76.8735L77.106 49.2734V49.3896L77.3384 49.4478L77.4546 49.564V49.7383L77.6289 49.7964L77.687 50.4355L77.6289 50.7842H77.5127L77.3965 51.1328L76.9897 51.4814L76.7573 51.772L76.5249 51.8882L76.4087 52.0625H76.2344V52.1787H76.0601V52.2949H75.8857V52.4111H75.7114V52.5273L75.3047 52.7017L74.9561 52.8179V52.9341L74.4912 53.0503L73.9102 53.2246H73.7358V53.3408L72.2832 53.5151H71.2373L70.1333 53.3989L68.855 53.0503L68.332 52.876V52.7598H68.0996V52.6436H67.8672L67.6929 52.4692L67.1118 52.1787L66.9956 52.0044L66.7632 51.8882L66.7051 51.772L66.4146 51.5977L66.1821 51.3071L65.9497 51.0747V50.9004L65.7754 50.8423L65.7173 50.7261V50.145L65.7754 49.7383L66.0659 49.3896L66.3564 49.3315V49.2153L66.7051 49.1572Z" fill="#020102"/>
<path d="M40.6157 6.27539H40.7319L41.0806 7.32129L41.4873 8.07666L42.0684 8.83203L42.6494 9.35498L43.521 9.87793L44.3926 10.2266L44.9155 10.4009L44.8574 10.5752L43.9277 10.8657L42.998 11.3306L42.1846 11.9697L41.6035 12.667L41.1387 13.4805L40.8481 14.2939L40.7319 14.6426L40.5576 14.5845L40.209 13.5967L39.7441 12.7251L39.2212 12.0859L38.8145 11.6792L38.001 11.1562L37.2456 10.8076L36.3159 10.5171L36.4902 10.3428L37.5361 9.99414L38.4077 9.5293L39.0469 9.00635L39.5698 8.42529L39.9766 7.78613L40.2671 7.20508L40.5576 6.3335L40.6157 6.27539Z" fill="#BD7F80"/>
<path d="M68.7969 95.9902L69.1455 96.0483L70.4819 96.7456L73.0967 98.082L74.7236 98.9536L74.9561 99.2441L75.3047 102.266V102.672L74.9561 102.556L72.0508 101.045L70.0171 99.9995L68.6807 99.3022L68.4482 99.0698L68.6226 97.5591L68.7969 95.9902Z" fill="#275699"/>
<path d="M69.5522 89.541L70.4819 90.0059L71.3535 90.4707L72.2832 90.9355L73.8521 91.749L74.1426 92.0396L74.4331 94.3638L74.6074 95.9326V96.2812L74.3169 96.2231L72.748 95.4097L71.7603 94.8867L69.6685 93.8408L69.1455 93.4922L69.0874 93.4341L69.1455 92.6206L69.4941 89.5991L69.5522 89.541Z" fill="#4C94D8"/>
<path d="M72.8062 77.2227L73.2129 77.2808L73.8521 77.9199L74.2588 78.3848L74.5493 78.7334L74.4912 79.082L73.6196 81.2319L73.3872 81.5806H70.0171L69.7266 81.1157L68.7969 78.8496L68.9712 78.5591L69.7847 77.6875L70.1333 77.2808L72.8062 77.2227Z" fill="#26569A"/>
<path d="M63.0444 37.8848H63.916L64.6714 38.1172L64.9619 38.2334V38.3496L65.2524 38.4658L65.4849 38.6982V38.8726H65.6011V39.0469H65.7173L66.0078 39.7441V40.5576L65.7754 41.3711L65.7173 41.4873H65.6011L65.543 41.7197H65.4268L65.3105 42.0103L65.0781 42.0684L65.02 42.2427H64.8457V42.3589L64.3228 42.5332H64.1484V42.6494H63.1025L62.6958 42.5332V42.417L62.2891 42.3008V42.1846L62.0566 42.1265L61.708 41.7778V41.6035H61.5918L61.3013 40.8481L61.2432 40.5576V39.6279L61.3594 39.2793H61.4756V39.105H61.5918L61.6499 38.8145L62.1729 38.2915L62.4634 38.2334V38.1172L63.0444 37.8848Z" fill="#030102"/>
<path d="M79.3721 37.8848H80.1274L80.6504 38.001L81.1733 38.2915L81.6382 38.6982V38.8726L81.8125 38.9307L82.0449 39.3955V39.7441H82.1611V40.6738L81.9868 41.1387L81.8125 41.5454H81.6963L81.6382 41.7778L81.2314 42.1846H81.0571V42.3008H80.8828V42.417L80.3018 42.5913H79.0234V42.4751L78.6167 42.417V42.3008L78.2681 42.1846L77.9775 41.8359L77.8032 41.7197V41.5454H77.687L77.5127 41.1968V40.9062H77.3965V39.6279L77.4546 39.3955H77.5708L77.7451 38.8726L77.9194 38.8145L78.0356 38.582L78.3262 38.2915H78.5005V38.1753L79.3721 37.8848Z" fill="#020102"/>
<path d="M70.2495 83.8457H73.1548L73.271 84.1943L73.7939 88.6685V89.1333L73.5034 89.0752L71.8184 88.2036L70.7144 87.6226L69.8428 87.1577L69.7847 86.8672L70.1333 84.1943L70.2495 83.8457Z" fill="#275698"/>
<path d="M27.0771 35.2119H27.6582L28.123 35.5024L28.3555 35.9092L28.4136 37.6523V40.6738L28.3555 41.5454L28.0068 42.7656L27.7744 43.3467L27.6582 43.4629L27.4839 43.9858H27.3677L27.1934 44.5088H27.0771V44.6831H26.9609V44.8574L26.7866 45.0317L26.7285 45.2061H26.6123L26.3799 45.6709L26.2637 45.729L26.1475 45.9614L25.7407 46.3682L25.6826 46.5425L25.5083 46.7168L25.2178 47.0654L25.1597 47.2397H25.0435V47.4141H24.9272L24.811 47.8208H24.6948L24.6367 48.1113L24.5786 48.2856H24.4624L24.4043 48.6343L24.23 49.1572L24.1138 49.564H23.9976L23.9395 50.0869L23.8813 50.668H13.6548L13.5386 49.7383L13.3643 49.2153L13.0156 48.2856L12.7832 47.7627L12.2603 46.6587V46.5425H12.144L11.9697 46.0195H11.8535L11.563 45.3804V45.2642H11.4468L11.2725 44.8574V44.4507L11.3306 44.5669L11.563 44.625V45.0317L11.7373 45.0898L12.144 45.9033L12.2603 46.0195L12.3184 46.3682H12.4346L12.6089 46.7168L12.7251 46.7749L12.7832 47.1235L12.9575 47.2397L13.248 47.8208V47.9951H13.3643L13.6548 48.6924L13.8291 49.2153L14.0034 49.9707L14.1196 50.2612L14.4683 50.3193L15.979 50.2612L17.7222 50.2031H19.8721L21.5571 50.3193L21.9639 50.4355L22.022 50.5518H23.0098L23.2422 50.2612L23.4165 50.0869L23.5908 49.6221L23.7651 48.9248L24.1138 48.0532L24.5205 47.4141L24.7529 47.0654L24.9272 46.7749H25.0435L25.1597 46.4844L25.5664 46.0195L25.6245 45.8452L25.915 45.5547L26.0312 45.3804H26.1475L26.2637 45.0898L26.5542 44.625H26.6704L26.7285 44.3926L26.9609 43.9858L27.3677 43.2886L27.6582 42.5913L27.8325 41.8359L28.123 41.4873L28.0068 41.2549L28.0649 39.686L27.8906 38.1172V36.9551L27.7744 36.1416L27.7163 35.9092H27.6001L27.4258 35.7349H27.0771L26.6123 36.0835H26.5542L26.4961 36.7227H26.438V35.793L26.7285 35.3862L27.0771 35.2119Z" fill="#F8D5B6"/>
<path d="M26.2056 96.9199L26.3218 96.978L26.6704 97.9077L27.0771 98.4888L27.6001 99.0117L28.123 99.3604L28.8203 99.6509L29.1689 99.7671V99.8833L28.2974 100.174L27.6001 100.581L27.019 101.162L26.5542 101.975L26.3218 102.614H26.1475L25.7988 101.685L25.3921 101.104L25.1597 100.813L24.5205 100.348L23.8813 100.058L23.3003 99.8833V99.7671L24.3462 99.3604L25.1016 98.8374L25.6245 98.1982L26.0312 97.3848L26.2056 96.9199Z" fill="#FFDCBB"/>
<path d="M66.8794 113.654L69.2036 114.816L70.3076 115.397L71.2954 115.92L71.9346 116.269L72.5156 116.56L72.5737 116.676H66.5308L66.4727 116.501L66.7051 114.758L66.8213 113.712L66.8794 113.654Z" fill="#4A90D3"/>
<path d="M49.9126 0H50.9004L51.4814 0.406738L51.8301 0.813477L52.0044 1.27832V1.85938L51.772 2.44043L51.3652 2.84717L50.9004 3.07959L50.6099 3.1377H50.2031L49.564 2.90527L49.2734 2.67285L48.9248 2.0918L48.8667 1.85938V1.22021L49.0991 0.697266L49.3896 0.348633L49.9126 0Z" fill="#FFDCBB"/>
<path d="M95.6997 58.1055H96.2227L96.7456 58.2798L97.2104 58.6284L97.501 59.1514L97.5591 59.3838V59.9648L97.3267 60.5459L96.9199 60.9526L96.4551 61.1851L96.1646 61.2432H95.7578L95.2349 61.0688L94.8281 60.7783L94.4795 60.1973L94.4214 59.9648V59.3257L94.5957 58.9189L94.9443 58.4541L95.4673 58.1636L95.6997 58.1055Z" fill="#6FD4FC"/>
<path d="M74.8398 24.2305L75.0723 24.2886L75.479 24.7534L75.7114 24.8696L75.7695 24.9858L75.9438 25.0439L76.002 25.1602L76.1763 25.2183L76.2344 25.3345L76.4087 25.3926V25.5088L76.6411 25.5669V25.6831H76.8154V25.7993H76.9897V25.9155H77.1641V26.0317L77.4546 26.0898V26.2061L77.8613 26.3223V26.4385L78.3843 26.6128L78.6167 26.729V26.8452L78.9653 26.9033L79.4883 27.1938L79.895 27.3682L80.3018 27.4844L80.6504 27.6006V27.7168L81.2896 27.833L82.6841 28.2397L83.73 28.4722L84.0786 28.5884L86.6353 28.8789V28.937H85.9961L85.2988 28.8789L84.6597 28.937H84.1367L83.6138 28.7627L82.9165 28.7046L81.8706 28.4722L80.4761 28.0654L79.8369 27.7749L78.791 27.3101L77.8032 26.7871L76.6411 26.0898L76.1763 25.7412L75.9438 25.5088L75.5952 25.3345V25.2183L75.3628 25.1021L75.1304 24.7534L74.8398 24.8115L74.5493 24.9277L74.3169 25.3926H74.2007L74.0845 25.625L73.7939 25.9736L73.5034 26.0898V26.2061H73.3872V26.3223L73.0386 26.6128H72.9224V26.729L72.6318 26.8452L72.5737 27.0195L72.0508 27.3101L71.9927 27.4263H71.8765L71.7603 27.7168H71.644V27.833L70.54 28.5884L69.959 28.9951L69.6104 29.1694L68.5063 29.7505L67.5186 30.1572L66.7632 30.3896L66.647 30.4478H66.124V30.564H65.6592L65.6011 30.5059L65.3687 30.4478L66.4727 30.0991H66.7632V29.9829L67.1118 29.8667L67.6929 29.6343H67.9253V29.5181L69.2617 28.8789L69.7266 28.6465H69.8428V28.5303L70.1333 28.4722V28.356H70.3076V28.2397H70.4819V28.1235H70.6562V28.0073H70.8306V27.8911L71.1792 27.7749L71.2373 27.6006H71.4116L71.4697 27.4263L71.7021 27.3101L71.7603 27.1938L71.9346 27.1357L72.0508 26.9614L72.2832 26.8452L72.8062 26.3223L73.271 25.9736L73.9102 25.3345L74.1426 24.9858L74.4331 24.7534L74.6655 24.4048L74.8398 24.2305Z" fill="#EFCDB1"/>
<path d="M87.2163 28.9941L88.0879 29.0522V46.1934H88.0298L87.9717 42.5327H87.9136L87.7974 41.603L87.7393 39.2207L87.6812 34.979V33.9912L87.623 30.6792V29.5752L87.5649 29.4009L87.2744 29.2847L87.2163 28.9941Z" fill="#FEDBBA"/>
<path d="M51.8301 32.5391H52.4111L52.4692 33.2944V45.0317L52.4111 45.2061H51.8301L51.1328 45.0898V45.0317L52.2368 45.0898L52.2949 41.1387V33.0039L52.2368 33.1782L52.0044 33.1201L51.8882 33.0039L51.0747 32.9458L50.4355 33.2944L49.8545 33.5269L49.041 33.9917L48.6924 34.2822H48.5762V34.3984L48.1113 34.8052L47.6465 35.27L47.4141 35.6187L47.0073 36.4902L46.833 36.897L46.5425 37.8267L46.3682 37.9429L46.252 37.8848V37.3037L46.6006 36.3159L46.9492 35.6187H47.0654L47.1235 35.3281H47.2397V35.1538L47.356 35.0957L47.4141 34.9214L47.7046 34.6309L48.0532 34.2241L48.4019 33.9917L48.46 33.8755L48.6343 33.8174L48.6924 33.7012H48.8667V33.585H49.041V33.4688L49.3315 33.4106V33.2944L50.2612 32.8877L51.3652 32.5972L51.8301 32.5391Z" fill="#F3D0B3"/>
<path d="M90.5283 32.5977L91.7485 32.6558L91.8066 32.7139L92.4458 32.8301L93.4917 33.2949V33.4111L93.8403 33.5273L94.1309 33.7017V33.8179H94.3052L95.4673 34.98L95.5254 35.1543L95.6416 35.2124V35.3867H95.7578V35.561H95.874L96.3389 36.4907L96.4551 36.7812L96.6875 38.0015V39.6865L96.3389 39.5703L96.2227 38.1758L96.0483 37.4785L95.8159 36.7812L95.5835 36.3164L94.9443 35.3867L94.3052 34.6313L93.8984 34.2246L93.7241 34.1084V33.9922L93.4336 33.876L92.5039 33.353L91.6904 33.0044L91.2837 32.8882V32.772L90.7026 32.8301L90.5283 32.772V32.5977Z" fill="#F9D6B7"/>
<path d="M11.2725 31.0283H11.6792L12.0278 31.2607V31.377H12.144L12.2603 31.6094L12.3184 35.0957L12.4346 35.5024L12.6089 35.9092L12.7832 36.0835L13.3062 36.2578H14.0034V36.1416L14.2939 35.9673L14.5264 35.5024H14.6426V31.1445L14.7588 31.2607L14.8169 32.0742L14.9331 32.3066V33.2944L14.875 33.585L14.9331 34.166V34.689L14.9912 34.8633V35.3281L14.875 35.9092L14.8169 36.0254H14.7007L14.5845 36.2578L14.1196 36.4902L13.6548 36.6646H13.1899L12.7251 36.4321L12.4346 36.1416L12.2021 35.8511L12.0859 35.3862V32.3647L11.7954 31.8999L11.6792 31.6675L11.3306 31.6094L11.04 31.6675L10.9238 31.8999V32.0742L10.9819 32.3066L10.9238 32.7134L10.9819 33.2363L11.04 33.8174L10.9819 34.1079L10.8657 34.2241L10.8076 34.8633H10.7495V31.5513L11.04 31.1445L11.2725 31.0283Z" fill="#F7D4B5"/>
<path d="M22.8354 28.0068H23.3003L23.5908 28.123L23.8813 28.4717L23.9976 34.3403V36.7808L23.8232 36.7227L23.6489 36.1416V35.1538L23.5327 31.3188V30.6216L23.4746 29.4014L23.4165 28.8203H23.3003V28.7041L22.8354 28.646L22.6611 29.0527L22.603 29.6338L22.4868 29.6919V31.4351H22.4287L22.3706 31.0283V28.4717L22.7192 28.0649L22.8354 28.0068Z" fill="#FDDABA"/>
<path d="M52.2949 33.0039H52.353V41.1387L52.2949 45.0898L52.0625 45.1479L50.9004 45.0317V44.9155L50.7842 44.8574L50.668 44.7412L49.9126 44.4507L49.3896 43.9858L49.564 43.8696L49.7964 44.0439L50.2031 44.2183L50.6099 44.5088L51.249 44.6831L51.1909 44.7993H51.3652L51.7139 44.5669H51.8301L51.772 44.2764L51.8882 43.8696L52.1787 43.8115V40.0347L52.0625 39.9766L52.0044 39.5117V38.6982L51.9463 37.7104L51.8882 36.6064V35.0957L51.9463 34.5146H52.0625L52.1206 34.1079H52.2368V33.2944L52.2949 33.0039Z" fill="#FEDBBA"/>
<path d="M65.8335 63.5674L66.3564 63.6255L66.9375 63.7998L67.3442 63.6836L67.9253 63.7417L69.5522 63.9741L70.3076 64.0322H72.3994L73.5034 63.9741L73.5615 64.0903L73.7939 64.2065L73.3291 64.3228L72.748 64.439L71.7603 64.4971L71.4697 64.5552H70.3657L68.9131 64.439L67.9834 64.2646L66.9375 64.0322L66.2983 63.7998L65.8335 63.6836V63.5674Z" fill="#FEDBBA"/>
<path d="M60.0811 56.7695L60.4297 57.002L60.4878 57.1763L60.7202 57.2925L61.4756 57.8735L62.5215 58.6289L62.9863 58.8613L63.3931 59.1519L63.916 59.3843L64.4971 59.7329L65.0781 60.1396L65.543 60.3721L65.3687 60.5464L64.9619 60.4883L64.7876 60.4302V60.314L64.439 60.2559L63.1606 59.6167V59.5005L62.8701 59.4424V59.3262L62.5796 59.2681V59.1519H62.4053V59.0356H62.231V58.9194H62.0566V58.8032H61.8823V58.687H61.708V58.5708L61.4756 58.5127L61.4175 58.3965L61.2432 58.3384V58.2222L61.0107 58.106L60.6621 57.8735L60.5459 57.6411L60.7202 57.583L60.4878 57.3506L60.1392 56.9438L60.0811 56.7695Z" fill="#FBD8B8"/>
<path d="M54.6772 30.9121H55.1421L56.9434 31.1445L58.6284 31.2607H59.9648L61.6499 31.1445L62.5796 31.0864V31.1445L61.127 31.3188L60.0229 31.377H58.4541L56.769 31.2607L54.7354 30.9702L54.7935 31.1445L54.8516 46.0195L54.9678 47.4141L55.1421 48.46V48.7505L55.0259 48.5181L54.7935 47.1235L54.6772 46.1357V30.9121Z" fill="#886D6E"/>
<path d="M19.0005 28.5879H19.4653L19.9883 29.0527L20.0464 29.5176V33.5269L19.9302 33.7012L19.814 33.062L19.7559 32.5391L19.6978 31.6675L19.6396 30.2148L19.5234 29.4595L19.3491 29.1689H18.9424L18.8262 29.3433L18.71 29.75L18.6519 29.9824L18.71 30.4473L18.6519 31.4351H18.5938L18.5356 31.1445L18.4775 29.9824V29.0527H18.5938V28.8784L18.7681 28.7041L19.0005 28.5879Z" fill="#F6D3B6"/>
<path d="M22.8936 28.8789H23.2422L23.4165 29.2275L23.4746 31.2031L23.4165 32.0166H23.2422V31.8423L23.126 32.0747L23.0679 32.5396L22.8936 32.772L22.7773 33.0044L22.7192 32.4233V29.2856L22.8354 28.937L22.8936 28.8789Z" fill="#FFDCBB"/>
<path d="M65.6592 50.7266H65.7754L65.9497 50.9009L66.0078 51.0752L66.2402 51.3076L66.5308 51.6562L66.7632 51.7725L66.8213 51.8887L67.0537 52.0049L67.2861 52.2373L67.8672 52.5278V52.644H68.0996L68.1577 52.9346L68.332 53.1089L68.7969 53.2251L69.0874 53.3994L69.4941 53.5156L70.4238 53.4575L70.4819 53.8062L70.7725 53.8643V53.9224H70.0752L69.3198 53.6899L69.0874 53.5737L69.0293 53.4575L68.7969 53.5156L68.5063 53.3994V53.2832H68.2158L67.9253 53.1089L67.5186 52.9346L66.9375 52.5859L66.4727 52.2373L66.3564 52.1792V52.063L66.124 51.9468L65.7754 51.4819L65.6592 51.1333L65.7173 50.9009L65.6592 50.7266Z" fill="#F7D4B5"/>
<path d="M18.5356 32.1904L18.6519 32.2485L18.71 33.3525L18.8262 33.5269L18.8843 33.9336V34.8633L18.8262 35.1538L18.8843 35.5024L18.71 35.9092L18.2451 36.3159L17.8384 36.5483L17.3735 36.6064L16.6763 36.4321L16.5601 36.374V36.2578H16.4438V36.1416L16.2695 36.0835L16.0952 35.793L16.0371 35.1538L16.0952 33.2944H16.1533L16.2114 34.8052L16.2695 35.3862L16.3276 35.6768H16.4438L16.5601 35.9092L16.7925 36.0254V36.1416L17.4897 36.2578L17.7803 36.1416H17.9546V36.0254L18.2451 35.8511L18.4775 35.4443L18.5356 35.2119V32.1904Z" fill="#FCD9B9"/>
<path d="M22.3706 31.0283H22.4287L22.4868 33.7012H22.603V35.0376H22.7192V35.5605L22.5449 35.9092L22.022 36.3159L21.7314 36.4321H20.8599L20.4531 36.2578L20.1626 36.0254L19.9883 35.793V35.2119L20.0464 35.0376V31.5513H20.1045L20.1626 34.3403L20.2207 35.3281L20.4531 35.793L20.6274 35.9092V36.0254L21.5571 36.0835H21.8477V35.9673L22.1382 35.793L22.3706 35.2119V31.0283Z" fill="#D4B5A0"/>
<path d="M51.8301 32.5391H52.4111L52.4692 33.2944V45.0317L52.4111 45.2061H51.8301L51.1328 45.0898V45.0317L52.2368 45.0898L52.2949 41.1387L52.353 32.5972H51.8301V32.5391Z" fill="#796768"/>
<path d="M65.6592 38.9307L65.8916 39.105L66.0659 39.4536L66.2983 39.686L66.4727 40.2671L66.4146 41.0225L66.1821 41.6035L65.7754 42.1265L65.0781 42.5913L64.3228 42.8237L64.1484 42.7656L63.5674 42.7075V42.6494H64.1484V42.5332L64.8457 42.3589V42.2427L65.02 42.1846L65.0781 42.0684L65.3105 41.9521L65.4268 41.7197L65.543 41.6616L65.6011 41.4873H65.7173L65.9497 40.5576V39.7441L65.6592 39.0469V38.9307Z" fill="#F7D4B6"/>
<path d="M90.5864 32.4805L91.458 32.5967V32.6548H90.9351L90.5283 32.5967L90.5864 45.0312L90.877 45.0894L91.8647 44.915H92.1553L91.981 45.0312L90.9932 45.2056H90.4702L90.4121 45.1475V32.7129L90.4702 32.5386L90.5864 32.4805Z" fill="#8A6D6E"/>
<path d="M15.2236 30.3311L15.4561 30.4473L15.6885 30.9121L15.7466 31.3188L15.8628 33.5269L15.8047 34.2822H15.7466L15.6885 33.6431L15.6304 33.062L15.5723 32.9458H15.6885L15.5142 32.7134L15.4561 32.3066L15.3979 32.0742L15.3398 32.1323L15.2236 32.481L14.9912 32.2485L14.9331 31.6675L14.9912 31.377L14.9331 30.6797L15.1074 30.3892L15.2236 30.3311Z" fill="#FEDBBA"/>
<path d="M46.3682 40.4414L46.6587 40.4995L46.7168 40.8481L46.6587 41.0806L46.8911 41.1387L47.1235 41.7778L47.356 42.0684L47.5303 42.4751L47.8208 42.7075V42.8237H47.937V42.9399H48.0532L48.46 43.4048L48.7505 43.6953L48.9248 43.7534L49.0991 43.9277L49.6802 44.2764L50.4937 44.625L50.8423 44.7993L50.9004 44.9736L50.4937 44.9155L49.7383 44.625L49.2734 44.3926V44.2764L48.9829 44.1602L48.4019 43.7534L47.356 42.7075L47.1235 42.3008V42.1846H47.0073V42.0103H46.8911L46.6587 41.5454V41.313H46.5425L46.3682 40.8481V40.4414Z" fill="#F2D0B3"/>
<path d="M69.5522 78.8496H69.6685L69.7266 78.9658L69.9009 79.0239L70.1333 79.9536L70.2495 80.6509L70.1914 80.9414L70.3076 81.2319V81.4062H70.1914L70.2495 81.5225H69.959L69.5522 80.709L69.2617 80.0117L69.2036 79.4888L69.436 79.1401V78.9658H69.5522V78.8496Z" fill="#4B91D4"/>
<path d="M11.2725 31.0283H11.6792L12.0278 31.2607V31.377H12.144L12.2603 31.6094V33.4688L12.144 33.7012L12.0859 32.3647L11.7954 31.8999L11.6792 31.6675L11.3306 31.6094L11.04 31.6675L10.9238 31.8999V32.0742L10.9819 32.3066L10.9238 32.7134L10.9819 33.2363L11.04 33.8174L10.9819 34.1079L10.8657 34.2241L10.8076 34.8633H10.7495V31.5513L11.04 31.1445L11.2725 31.0283Z" fill="#F9D6B7"/>
<path d="M81.8125 38.8145L81.9868 39.0469L82.2192 39.2793L82.3936 39.9766L82.4517 40.2671L82.5098 40.6738L82.3936 41.4292L82.0449 41.894L81.6382 42.3008L81.1733 42.6494L80.6504 42.8237H80.2437L79.9531 42.7656L80.1274 42.6494H80.3018V42.5332L80.8828 42.417V42.3008H81.0571V42.1846L81.3477 42.0103L81.6382 41.7197L81.6963 41.5454H81.8125L81.8706 41.2549L81.9868 41.0806L82.103 40.6738L82.1611 39.7441H82.0449L81.9287 39.2793L81.8125 39.0469V38.8145Z" fill="#F8D5B6"/>
<path d="M26.4961 36.9551H26.5542L26.6704 37.3618L26.6123 37.5942L26.5542 38.0591V38.6401L26.6123 39.1631L26.6704 39.2793V39.686L26.438 40.0347L26.0312 40.3252H25.915L25.8569 40.4414L25.4502 40.5576L25.1597 40.6157L24.7529 40.5576L24.1138 40.1509L23.8813 39.6279V39.2793L23.9395 39.1631L23.9976 38.5239H24.0557L24.1719 39.6279H24.2881L24.4624 39.9185L24.811 40.1509L25.5664 40.2671V40.1509L25.915 40.0928L25.9731 39.9185H26.0894V39.8022L26.2056 39.7441L26.3218 39.3955H26.438V37.0713L26.4961 36.9551Z" fill="#F9D6B7"/>
<path d="M19.0005 29.2852H19.291L19.4653 29.4595L19.5815 31.958L19.4653 32.0742L19.4072 31.6094L19.3491 31.377L19.2329 31.4351V31.5513L18.9424 31.6094L18.8262 29.75L18.8843 29.3433L19.0005 29.2852Z" fill="#FFDCBB"/>
<path d="M15.1074 29.6914H15.5723L15.979 29.9238L16.0952 30.2144L16.1533 30.6792V31.5508L15.9209 31.3765L15.7466 30.8535L15.5142 30.3306L15.1074 30.2725H14.9912L14.875 30.8535L14.6426 31.144L14.5845 31.0859V30.2144L14.8169 29.8657L15.1074 29.6914Z" fill="#F1D0B4"/>
<path d="M90.5283 32.8301H90.5864L90.6445 39.6284L90.7026 44.3931V44.9741L90.877 45.1484L90.5864 45.0903L90.5283 45.0322V32.8301Z" fill="#FFDCBB"/>
<path d="M78.8491 59.6162H78.9653V59.7905L79.0815 59.8486L78.9072 60.0229L78.0938 60.3716L77.8032 60.4297V60.5459L76.2925 61.0688L75.9438 61.0107L76.002 60.8364L76.9897 60.4297L77.8032 60.1392L78.4424 59.8486L78.6167 59.7324H78.8491V59.6162Z" fill="#EECBAF"/>
<path d="M77.6289 49.9121H77.7451L77.8032 50.1445L78.0356 50.2607V50.6675L77.8032 51.1904L77.3384 51.5972H77.2222V51.7134H77.106V51.8296L76.8154 51.9458V52.062L76.4087 52.1782L76.1182 52.4106L76.0601 52.5269L75.7114 52.4688L75.8857 52.4106V52.2944H76.0601V52.1782H76.2344V52.062L76.4087 52.0039L76.9316 51.481L77.3384 51.1323L77.5127 50.7837H77.6289V49.9121Z" fill="#F2CFB2"/>
<path d="M78.6167 62.6377H78.7329L78.791 64.3809L78.8491 64.439L78.9072 65.3105L78.7329 65.2524L78.5005 64.8457L78.4424 64.5552L78.3843 63.335L78.2681 62.9863L77.9194 63.0444L77.687 63.1025L77.8613 62.9282L78.21 62.7539L78.6167 62.6377Z" fill="#F6D4B5"/>
<path d="M55.7231 31.0859L57.4663 31.2603L58.4541 31.3184L58.3379 31.6089L57.7568 31.7251L56.8271 31.5508L56.6528 31.4927H56.2461L55.7812 31.4346L55.2583 31.4927L55.1421 31.5508L55.2002 31.3184L55.7231 31.2021V31.0859Z" fill="#FEDBBA"/>
<path d="M77.5708 39.0469H77.687L77.5708 39.3955H77.4546L77.3965 40.9062H77.5127L77.6289 41.2549L77.687 41.5454H77.8032L77.8613 41.7197L78.0938 41.894V42.0103L78.2681 42.0684L78.3843 42.3589L78.0356 42.3008L77.7451 41.9521V41.7778L77.4546 41.6616L77.2803 41.4292L77.2222 40.9644L77.106 40.5576L77.1641 39.4536L77.5708 39.0469Z" fill="#EDCBAF"/>
<path d="M68.0996 52.7598H68.332V52.876L68.7388 52.9341L69.6685 53.2246L70.54 53.3989L71.2373 53.457H72.2832L73.2129 53.3989V53.457L72.4575 53.5732H71.0049L70.1914 53.5151L69.4941 53.5732L68.855 53.3408L68.6807 53.2246L68.2739 53.1084V52.9922L68.0996 52.9341V52.7598Z" fill="#C5A595"/>
<path d="M74.2007 50.2617L74.7236 50.3198V50.436L74.4331 50.4941V50.6104L73.7939 50.9009L73.0386 51.1333L72.3994 51.1914L72.4575 51.0171L72.3413 50.959L72.6899 50.8428L73.0967 50.7847L73.3872 50.6104L73.9683 50.436L74.2007 50.2617Z" fill="#E9C7AC"/>
<path d="M84.0786 55.7812V55.9556L83.8462 56.3042L83.1489 56.9434L82.7422 57.4082L82.3936 57.6406L82.2773 57.6987L82.2192 57.4663L83.0908 56.5947L83.4395 56.188L83.6719 55.9556H83.7881L83.8462 55.8394L84.0786 55.7812Z" fill="#F3D0B3"/>
<path d="M85.5894 28.8789L86.6353 28.937L87.1582 29.0532L87.2744 29.46L87.3906 29.6924L86.7515 29.5181L86.0542 29.4019L85.3569 29.3438V29.2856L86.2866 29.2275L86.6353 29.1694L86.6934 29.0532L85.938 29.1113L85.5312 29.0532L85.4731 28.937L85.5894 28.8789Z" fill="#FFDCBB"/>
<path d="M69.6104 74.084L70.1333 74.2583V74.3745L70.3657 74.4326L70.4819 74.4907V74.8394L70.4238 74.8975L73.1548 74.9556V75.0137H70.1914L69.9009 74.7231L69.7847 74.3164L69.6104 74.084Z" fill="#CFAD9B"/>
<path d="M68.3901 53.166L68.7969 53.2241L69.0874 53.3984L69.4941 53.5146L70.4238 53.4565L70.4819 53.8052L70.7725 53.8633V53.9214H70.0752L69.3198 53.689L69.0874 53.5728L69.0293 53.4565L68.7969 53.5146L68.5063 53.3984V53.2822H68.3901V53.166Z" fill="#FEDBBA"/>
<path d="M78.9072 68.623V68.7974L78.5586 69.2622L78.0938 69.6689L77.687 70.1919L77.2222 70.5986L76.9897 70.9473L76.8735 71.0054L76.9897 70.5986L77.3384 70.1919L77.7451 69.7271L78.21 69.2622H78.3262V69.146L78.791 68.7393L78.9072 68.623Z" fill="#EDC9AE"/>
<path d="M78.0938 63.2188L78.2681 63.335V64.0903L78.1519 64.1484L77.9775 63.6255L77.4546 63.6836L77.2222 63.6255H77.0479L76.8735 63.7998H76.4668V63.6836L76.9316 63.5093L77.3965 63.4512L77.687 63.2769L78.0938 63.2188Z" fill="#FFDCBB"/>
<path d="M64.3228 65.6016L64.439 65.7759V65.8921H64.5552L64.6133 66.1245L64.3809 66.8218L64.1484 67.1123L63.7998 67.1704L64.0903 66.3569L64.3228 65.6016Z" fill="#ECCAAF"/>
<path d="M65.6592 63.1602L66.2402 63.2764V63.3926L66.8794 63.5088L67.3442 63.625V63.7412L66.9375 63.8574L66.1821 63.625L65.7754 63.5088L65.6592 63.4507V63.3345L65.3687 63.2764L65.543 63.2183L65.6592 63.1602Z" fill="#EFC8AE"/>
<path d="M11.2725 31.7256H11.563L11.7954 32.0742L11.9116 32.7715V33.7593L11.7954 33.7012L11.7373 33.5269L11.6792 32.6553L11.7373 32.5972L11.6211 32.481L11.4468 32.1904L11.5049 32.1323L11.1562 32.1904L11.2725 31.8999V31.7256Z" fill="#FEDBBA"/>
<path d="M73.9102 91.8652L74.0845 91.9233L74.2007 92.3882L74.5493 95.2935L74.6074 96.2812L74.3169 96.2231L74.5493 96.165L74.375 95.4097L74.0845 92.5625L73.9683 91.9814L73.9102 91.8652Z" fill="#385885"/>
<path d="M67.9834 49.7383L68.332 49.7964L69.1455 50.3774L69.2617 50.5518L69.4941 50.668V50.7842H69.8428L69.9009 50.9585L69.5522 50.9004L68.855 50.5518V50.4355L68.5063 50.3193L67.9834 49.8545V49.7383Z" fill="#F1CBB0"/>
<path d="M73.0967 74.4912H73.2129V74.6074H73.0967L73.2129 74.9561H70.4238L70.5981 74.8398L72.1089 74.7817H72.4575L72.8062 74.8398L72.9224 74.6074L73.0967 74.4912Z" fill="#FFDCBB"/>
<path d="M63.2769 59.3838L63.5674 59.5L64.4971 60.0229L64.9038 60.1973L65.2524 60.3716V60.5459L64.9619 60.4878L64.7876 60.4297V60.3135L64.439 60.2554L63.5093 59.7905L63.3931 59.6743V59.5581L63.2769 59.3838Z" fill="#EAC3AB"/>
<path d="M81.8706 57.9893L81.9868 58.0474L81.6963 58.2217L81.6382 58.3379L81.4639 58.396L81.4058 58.5122H81.2314V58.6284H81.0571V58.7446L80.8828 58.8027L80.8247 58.9189H80.6504V59.0352L80.3599 59.0933V59.2095H80.1855V59.3257L79.895 59.3838V59.5L79.6626 59.5581L79.8369 59.2676L80.0112 59.0933L80.3599 58.9189H80.4761L80.5342 58.8027L80.8247 58.6865L81.4639 58.1055L81.6963 58.0474L81.8706 57.9893Z" fill="#E5C2A9"/>
<path d="M57.4663 31.3184H58.4541L58.3379 31.6089L57.7568 31.7251L56.8271 31.5508L56.7109 31.3765L57.292 31.4346L57.4663 31.3184Z" fill="#FEDBBA"/>
<path d="M61.1851 39.918H61.2432L61.3594 40.8477L61.5918 41.4287V41.603H61.708L61.8823 41.8936V42.0679L61.4175 41.7192L61.3013 41.4287L61.127 41.1382L61.0688 40.3828L61.1851 39.918Z" fill="#E0BFA7"/>
<path d="M51.1909 33.1201H51.7139L51.8301 33.2363V33.8174L51.7139 35.0957L51.5396 34.9214L51.5977 34.0498L51.6558 33.6431L51.5396 33.585L51.4814 33.4106L51.1909 33.2363V33.1201Z" fill="#FEDBBA"/>
<path d="M75.2466 72.5156H75.3628L75.2466 72.748L74.7236 73.271L74.4912 73.6196L74.0264 74.0264L73.9102 73.9102L74.375 73.271L74.8398 72.8643H74.9561V72.748L75.2466 72.5156Z" fill="#F8D4B6"/>
<path d="M72.167 53.5732H72.2832L72.3413 53.8057H72.748V53.8638H72.2832V53.98L71.644 54.0381L71.063 53.98V53.9219L71.3535 53.8638L71.4697 53.6313L72.167 53.5732Z" fill="#FFDCBB"/>
<path d="M56.3623 52.0039L56.5947 52.1201L56.6528 52.3525L56.8271 52.585L56.8853 52.8174L57.0596 52.9917L57.1177 53.3984L57.3501 53.5146L57.2339 53.7471H57.1177L57.0596 53.4565H56.9434L56.7109 52.9336V52.8174H56.5947L56.3623 52.3525L56.3042 52.062L56.3623 52.0039Z" fill="#EDCEB6"/>
<path d="M75.5371 105.461L75.6533 105.519L75.9438 107.959L76.1182 109.761L76.002 109.819L75.8857 109.703H76.002L75.5371 105.635V105.461Z" fill="#3C5981"/>
<path d="M95.2349 42.5332L95.293 42.6494H95.4092L95.293 42.998L94.5376 43.6372L94.3633 43.5791L94.4795 43.2886L94.8281 42.8818L95.2349 42.5332Z" fill="#F8D5B6"/>
<path d="M61.5918 58.1055L61.8823 58.2217L62.231 58.4541L62.5215 58.5703L62.5796 58.6865L62.9863 58.8608L63.1606 59.0352L62.8701 59.1514V59.0352L62.5796 58.9771V58.8608H62.4053V58.7446H62.231V58.6284H62.0566V58.5122H61.8823V58.396H61.708V58.2798L61.4756 58.1636L61.5918 58.1055Z" fill="#E6C3AA"/>
<path d="M69.5522 89.541L69.7847 89.6572L69.6104 89.7153L69.3198 92.272L69.2036 93.376L69.1455 93.4922L69.0874 93.4341L69.1455 92.6206L69.4941 89.5991L69.5522 89.541Z" fill="#3E597F"/>
<path d="M65.1362 63.0449L65.6592 63.103L65.7173 63.2773H65.4849L65.6592 63.3354V63.4517L65.7754 63.5098L65.4849 63.626H65.2524V63.7422H65.1362L65.02 63.4517L65.1362 63.2192V63.0449Z" fill="#F6D4B5"/>
<path d="M71.063 61.5332L73.0967 61.5913V61.6494L72.2832 61.7075H70.7144L69.8428 61.6494V61.5913L71.063 61.5332Z" fill="#FFDCBB"/>
<path d="M78.7329 37.9434H79.1396L78.9653 38.0596L78.6748 38.1758H78.5005V38.292L78.3262 38.3501L77.8032 38.873L77.687 39.0474L77.6289 38.8149L77.8032 38.5825L77.8613 38.4082H77.9775V38.292L78.7329 37.9434Z" fill="#E9C6AC"/>
<path d="M80.0693 37.7109L80.5923 37.769L80.999 38.0596V38.1758L80.7085 38.1177L80.4761 38.0015L80.1274 37.9434L79.0815 37.8853L79.1978 37.769L80.0693 37.7109Z" fill="#ECCAAE"/>
<path d="M69.2036 63.9746L69.8428 64.0327L70.0171 64.0908L69.959 64.3232H69.436L69.0293 64.2651L68.9712 64.0327L69.2036 63.9746Z" fill="#F8CEB3"/>
<path d="M68.3901 49.7383L68.4482 49.8545L68.7969 49.9707L69.1455 50.145L69.7847 50.4937L69.8428 50.7261L69.1455 50.4355L68.332 49.8545L68.3901 49.7383Z" fill="#FFDCBB"/>
<path d="M27.0771 35.8516L27.4839 35.9097L27.6001 36.1421H27.4839L27.4258 36.4326L27.1934 36.5488L27.1353 36.3164L27.019 36.4326L26.9609 35.9678L27.0771 35.8516Z" fill="#FEDBBA"/>
<path d="M64.6714 62.8125L64.9619 62.8706L65.02 63.2192L64.7876 63.2773V64.207L64.6714 64.3813L64.6133 64.1489L64.6714 62.8125Z" fill="#F6D5B8"/>
<path d="M23.4165 29.2266L23.5327 29.4009L23.5908 31.144H23.4165L23.3584 29.2847L23.4165 29.2266Z" fill="#F8CEB3"/>
<path d="M91.0513 32.9453L91.3418 33.0034L92.0972 33.2939L91.9229 33.3521L91.7485 33.2939H90.9932V33.4683H90.877L90.8188 33.1777L91.0513 32.9453Z" fill="#FEDBBA"/>
<path d="M58.1055 55.2002L58.1636 55.3164H58.2798V55.4907L58.3379 55.3745L58.5122 55.4326L58.8027 55.665V55.8394H58.6865V55.7231H58.5122L58.6284 55.7812V55.9556L58.396 55.8394L58.1636 55.5488L58.0474 55.4907L58.1055 55.2002Z" fill="#FAD6B7"/>
<path d="M74.7236 63.916L75.3047 63.9741L75.1885 64.0903L74.2588 64.2646L73.8521 64.2065V64.1484L74.4331 64.0322H74.7236V63.916Z" fill="#FFDCBB"/>
<path d="M80.4761 58.8027H80.7085L80.6504 59.0352L80.3599 59.0933V59.2095H80.1855V59.3257L79.895 59.3838V59.5L79.6626 59.5581L79.8369 59.2676L80.0112 59.0933L80.3599 58.9189H80.4761V58.8027Z" fill="#E7C5AB"/>
<path d="M80.999 38.0586L81.3477 38.2329H81.522L81.6963 38.3491L81.7544 38.6396H81.8706L81.8125 38.7559H81.6382L81.1152 38.291L80.999 38.2329V38.0586Z" fill="#FCD7B8"/>
<path d="M74.375 94.3633H74.4331L74.6074 95.9321V96.2808L74.3169 96.2227L74.5493 96.1646L74.375 95.4092V94.3633Z" fill="#3B5982"/>
<path d="M87.4487 49.5645L87.5068 49.7969L87.1001 50.959L86.9839 50.7266L87.042 50.3198L87.2163 50.0874H87.3325L87.4487 49.5645Z" fill="#BFA293"/>
<path d="M50.0288 44.5664L50.668 44.6826L50.9004 44.915L50.668 44.9731L49.8545 44.6826L50.0288 44.5664Z" fill="#DFB7A3"/>
<path d="M57.6406 54.4453L57.873 54.5615L58.1636 54.7358V54.8521L58.3379 54.9102L58.2217 55.0264L58.3379 55.1426L58.2798 55.375L58.1055 55.2007L58.0474 55.0264L57.9312 54.9683L57.7568 54.6777V54.5615H57.6406V54.4453Z" fill="#EECAAF"/>
<path d="M26.4961 36.9551H26.5542L26.6704 37.3618L26.6123 37.5942L26.4961 38.6401H26.438V37.0713L26.4961 36.9551Z" fill="#FFDCBB"/>
<path d="M18.5356 29.8662L18.6519 29.9824L18.71 30.4473L18.6519 31.4351H18.5938L18.5356 31.1445L18.4775 29.9243L18.5356 29.8662Z" fill="#FFDCBB"/>
<path d="M75.479 52.5273L75.7114 52.5854L75.5371 52.876L74.9561 52.9922V52.8179L75.479 52.5273Z" fill="#E0BFA7"/>
<path d="M56.4204 31.2031L57.4663 31.2612V31.3774L57.292 31.4937L56.6528 31.3774L56.3623 31.3193L56.4204 31.2031Z" fill="#F9D1B5"/>
<path d="M57.2339 53.6309L57.3501 53.689V53.8052L57.5244 53.8633L57.5825 54.0957L57.7568 54.1538L57.6987 54.3281L57.8149 54.3862L57.6406 54.4443L57.5244 54.3862L57.4082 54.0376H57.292L57.2339 53.6309Z" fill="#F3D0B3"/>
<path d="M69.2617 73.7939L69.4941 73.8521V73.9683H69.6104L69.7847 74.2588L69.9009 74.375L69.8428 74.6074L69.5522 74.2588L69.2617 73.9683V73.7939Z" fill="#E8C2AA"/>
<path d="M78.791 65.3105H78.9072L78.9653 65.7173H79.0815L79.1978 66.2983L79.1396 66.1821H79.0234L78.791 65.7173V65.3105Z" fill="#E4C2A9"/>
<path d="M68.855 50.377L69.2036 50.4932L69.4941 50.6675V50.7837H69.8428L69.9009 50.958L69.5522 50.8999L68.855 50.5513V50.377Z" fill="#CAAB99"/>
<path d="M64.0903 37.7686H64.3809L64.7295 38.001V38.1172L64.2065 38.001L63.916 37.9429L64.0903 37.7686Z" fill="#D8B9A3"/>
<path d="M78.9653 42.5332L79.895 42.6494V42.7075L79.3721 42.7656V42.8818L79.0815 42.8237L78.9072 42.5913L78.9653 42.5332Z" fill="#FEDABA"/>
<path d="M61.3594 39.1631L61.4175 39.2793L61.127 40.3833H61.0688L61.0107 39.9766L61.2432 39.2793L61.3594 39.1631Z" fill="#FEDBBA"/>
<path d="M11.0981 32.5391L11.2725 32.5972V33.2363L11.0981 33.4688L11.04 32.8296L11.0981 32.5391Z" fill="#FFDCBB"/>
<path d="M85.5894 28.8789L86.4609 28.937L86.4028 29.0532L85.938 29.1113L85.5312 29.0532L85.4731 28.937L85.5894 28.8789Z" fill="#FEDABA"/>
<path d="M55.6069 50.1445L55.7812 50.377V50.4932L55.8975 50.5513L55.8394 51.0161L55.7231 50.8418L55.5488 50.377L55.6069 50.1445Z" fill="#D3B49F"/>
<path d="M65.1943 38.4082L65.4268 38.4663H65.6011L65.7173 38.8149L65.6011 39.0474V38.873H65.4849L65.3105 38.5825L65.1943 38.4082Z" fill="#F1CEB2"/>
<path d="M80.0693 37.7109L80.1855 37.8271L80.1274 37.8853H79.0815L79.1978 37.769L80.0693 37.7109Z" fill="#DCBAA4"/>
<path d="M66.4727 30.6211L66.647 30.6792V30.7373H66.3564V30.8535L65.8916 30.9116L65.6592 30.9697V30.7954L66.4727 30.6211Z" fill="#FFDCBB"/>
<path d="M73.0967 74.4912H73.2129V74.6074H73.0967L73.2129 74.9561H72.8643L72.8062 74.7236L73.0967 74.4912Z" fill="#FCD8B9"/>
<path d="M67.6348 63.7998H68.2739V63.9741L68.1577 64.0322H67.8091L67.6348 63.7998Z" fill="#F8CEB3"/>
<path d="M62.5215 42.4746L63.1025 42.5908L63.3931 42.707L63.1606 42.8232L62.7539 42.707V42.5908L62.5215 42.4746Z" fill="#FEDABA"/>
<path d="M73.9102 73.9688L73.9683 74.1431L73.7358 74.4336L73.4453 74.666L73.3291 74.6079L73.8521 74.0269L73.9102 73.9688Z" fill="#E1BEA6"/>
<path d="M74.4331 50.2617L74.7236 50.3198V50.436L74.4331 50.4941V50.6104L74.0845 50.7266V50.5522L74.3169 50.436V50.3198L74.4331 50.2617Z" fill="#E0BAA4"/>
<path d="M63.4512 31.1445H63.7998L63.916 31.2026L63.8579 31.3188H63.4512L63.3931 31.377H62.8701L63.0444 31.2607L63.4512 31.1445Z" fill="#FEDBBA"/>
<path d="M65.8335 63.5674L66.3564 63.6255L66.7051 63.7998L66.4727 63.8579L65.9497 63.7417L65.8335 63.6836V63.5674Z" fill="#FFDCBB"/>
<path d="M56.9434 53.166L57.1177 53.2241V53.3984L57.3501 53.5146L57.2339 53.7471H57.1177L57.0596 53.4565H56.9434V53.166Z" fill="#E9C7AE"/>
<path d="M86.9258 50.959H87.042L86.9839 51.2495L86.8096 51.7144H86.7515V51.1333L86.9258 50.959Z" fill="#CCAE9B"/>
<path d="M91.7485 44.7412L91.9229 44.7993L92.0391 44.7412L92.3296 44.7993L92.1553 44.9155L91.6323 45.0317L91.3999 44.9736H91.5161V44.8574L91.7485 44.7412Z" fill="#FEDABA"/>
<path d="M64.7295 60.1387L64.9619 60.2549L65.2524 60.3711V60.5454L64.9619 60.4873L64.7876 60.4292V60.313H64.6714L64.7295 60.1387Z" fill="#DBB8A3"/>
<path d="M78.7329 37.9434H79.1396L78.9653 38.0596L78.6748 38.1758H78.5005V38.292L78.2681 38.3501L78.3843 38.1177L78.7329 37.9434Z" fill="#D0B09C"/>
<path d="M63.2769 59.3838L63.5674 59.5L63.7998 59.7324L63.8579 59.9067L63.5093 59.7905L63.3931 59.6743V59.5581L63.2769 59.3838Z" fill="#DDB7A3"/>
<path d="M62.6377 59.0352L62.8701 59.0933L63.1606 59.2676L62.9863 59.4419H62.8701V59.3257H62.6958L62.6377 59.0352Z" fill="#EBC3AB"/>
<path d="M55.9556 51.3066L56.188 51.4229L56.3623 51.5972L56.2461 51.8877L56.0718 51.7134L55.9556 51.481V51.3066Z" fill="#DBBAA3"/>
<path d="M69.1455 50.4355L69.6685 50.6099L69.8428 50.7842L69.6104 50.8423L69.436 50.668L69.1455 50.4937V50.4355ZM69.8428 50.668H70.0171L69.959 50.7842L69.8428 50.668Z" fill="#FAD2B5"/>
<path d="M55.8394 50.8418L56.1299 51.1323L56.0718 51.4229L56.0137 51.3066H55.8975L55.8394 51.1904V50.8418Z" fill="#E9C9AF"/>
<path d="M67.2861 71.5859H67.4023L67.5186 71.7603L67.6929 71.8765L67.5767 72.1089L67.228 71.7021L67.2861 71.5859Z" fill="#FCD6B8"/>
<path d="M74.6074 52.9336L74.7817 52.9917L74.6074 53.2241L74.1426 53.166L74.3169 53.0498L74.6074 52.9336Z" fill="#C3A796"/>
<path d="M76.2344 52.0625L76.3506 52.1206L76.2344 52.1787V52.0625ZM76.0601 52.1787L76.2344 52.2368L76.0601 52.5273L75.7114 52.4692L75.8857 52.4111V52.2949H76.0601V52.1787Z" fill="#DCBAA3"/>
<path d="M56.3623 52.0039L56.5947 52.1201L56.5366 52.585L56.3623 52.3525L56.3042 52.062L56.3623 52.0039Z" fill="#E4C5AE"/>
<path d="M56.769 52.7598L57.0596 52.9922L56.9434 53.3408L56.8271 53.2246L56.7109 52.8179L56.769 52.7598Z" fill="#EDCCB1"/>
<path d="M50.0288 44.5664L50.3774 44.6245L50.4937 44.8569L49.9707 44.7407L49.8545 44.6245L50.0288 44.5664Z" fill="#C5A796"/>
</g>
<defs>
<clipPath id="clip0_1375_1378">
<rect width="119" height="119" fill="white"/>
</clipPath>
</defs>
</svg>
