<svg width="47" height="39" viewBox="0 0 47 39" fill="none" xmlns="http://www.w3.org/2000/svg">
<path d="M19.0441 27.357C19.0456 27.6077 18.9803 27.8544 18.8549 28.0716C18.7296 28.2888 18.5486 28.4686 18.3307 28.5928L13.0185 31.6597C12.8016 31.7849 12.5556 31.8509 12.3051 31.8508C12.0547 31.8508 11.8086 31.7849 11.5917 31.6597C11.3748 31.5344 11.1947 31.3543 11.0695 31.1374C10.9442 30.9205 10.8783 30.6745 10.8783 30.424V24.29C10.8783 24.0395 10.9442 23.7935 11.0695 23.5766C11.1947 23.3597 11.3748 23.1796 11.5917 23.0544C11.8086 22.9291 12.0547 22.8632 12.3051 22.8632C12.5556 22.8632 12.8016 22.9291 13.0185 23.0543L18.3307 26.1213C18.5486 26.2454 18.7295 26.4253 18.8549 26.6424C18.9803 26.8596 19.0456 27.1062 19.0441 27.357ZM46.778 17.6558C46.7772 18.37 46.4931 19.0547 45.9881 19.5597C45.4831 20.0647 44.7984 20.3488 44.0842 20.3496H36.9679C36.544 20.3487 36.1309 20.4836 35.7893 20.7346L29.9629 24.9959V35.7231C29.9621 36.4373 29.6781 37.1221 29.173 37.6272C28.668 38.1322 27.9833 38.4163 27.269 38.4171H2.69385C1.97962 38.4163 1.29488 38.1322 0.789854 37.6272C0.284832 37.1221 0.000773789 36.4373 0 35.7231L0 18.9908C0.00082219 18.2766 0.284904 17.5919 0.789924 17.0869C1.29494 16.5819 1.97966 16.2979 2.69385 16.2971H20.6938V2.90302C20.6946 2.18881 20.9786 1.50408 21.4836 0.999032C21.9886 0.493981 22.6733 0.209855 23.3875 0.208984H44.0842C44.7984 0.209782 45.4832 0.493879 45.9882 0.99894C46.4932 1.504 46.7773 2.18878 46.778 2.90302V17.6558ZM29.421 25.3917L29.0493 25.6635C29.0399 25.6705 29.03 25.6768 29.0197 25.6824C28.8151 25.7948 28.5845 25.8517 28.351 25.8474C28.1175 25.8431 27.8892 25.7779 27.6888 25.658C27.4883 25.5382 27.3227 25.368 27.2084 25.1644C27.0941 24.9607 27.0351 24.7307 27.0372 24.4972L27.0714 20.6782C27.0718 20.6352 27.0636 20.5925 27.0474 20.5526C27.0312 20.5127 27.0072 20.4764 26.9769 20.4458C26.9466 20.4153 26.9105 20.391 26.8708 20.3744C26.831 20.3579 26.7884 20.3493 26.7453 20.3493H23.3875C22.6734 20.3485 21.9887 20.0644 21.4838 19.5595C20.9788 19.0545 20.6947 18.3699 20.6938 17.6558V16.8389H2.69385C2.12331 16.8396 1.57632 17.0665 1.17287 17.4699C0.76942 17.8733 0.542462 18.4203 0.541785 18.9908V35.7231C0.542438 36.2937 0.769385 36.8407 1.17284 37.2441C1.57629 37.6475 2.12329 37.8745 2.69385 37.8751H27.269C27.8396 37.8745 28.3866 37.6475 28.79 37.2441C29.1935 36.8407 29.4204 36.2937 29.421 35.7231V25.3917ZM42.7164 14.4294C42.7164 14.3576 42.6879 14.2887 42.6371 14.2379C42.5863 14.1871 42.5173 14.1585 42.4455 14.1585H25.0261C24.9542 14.1585 24.8853 14.1871 24.8345 14.2379C24.7837 14.2887 24.7552 14.3576 24.7552 14.4294C24.7552 14.5013 24.7837 14.5702 24.8345 14.621C24.8853 14.6718 24.9542 14.7003 25.0261 14.7003H42.4455C42.4811 14.7003 42.5163 14.6933 42.5492 14.6797C42.5821 14.6661 42.6119 14.6462 42.6371 14.621C42.6622 14.5958 42.6822 14.566 42.6958 14.5331C42.7094 14.5002 42.7164 14.465 42.7164 14.4294ZM42.7164 10.2779C42.7164 10.2423 42.7094 10.2071 42.6958 10.1742C42.6822 10.1413 42.6622 10.1114 42.6371 10.0863C42.6119 10.0611 42.5821 10.0412 42.5492 10.0276C42.5163 10.014 42.4811 10.007 42.4455 10.007H25.0261C24.9542 10.007 24.8853 10.0355 24.8345 10.0863C24.7837 10.1371 24.7552 10.206 24.7552 10.2779C24.7552 10.3497 24.7837 10.4186 24.8345 10.4694C24.8853 10.5202 24.9542 10.5488 25.0261 10.5488H42.4455C42.4811 10.5488 42.5163 10.5418 42.5492 10.5282C42.5821 10.5146 42.6119 10.4946 42.6371 10.4694C42.6622 10.4443 42.6822 10.4144 42.6958 10.3815C42.7094 10.3487 42.7164 10.3134 42.7164 10.2779ZM42.7164 6.12632C42.7164 6.09074 42.7094 6.05551 42.6958 6.02263C42.6822 5.98976 42.6622 5.9599 42.6371 5.93474C42.6119 5.90958 42.5821 5.88963 42.5492 5.87602C42.5163 5.86241 42.4811 5.85541 42.4455 5.85542H25.0261C24.9542 5.85542 24.8853 5.88396 24.8345 5.93477C24.7837 5.98557 24.7552 6.05447 24.7552 6.12632C24.7552 6.19816 24.7837 6.26706 24.8345 6.31786C24.8853 6.36867 24.9542 6.39721 25.0261 6.39721H42.4455C42.5173 6.39721 42.5863 6.36867 42.6371 6.31786C42.6879 6.26706 42.7164 6.19816 42.7164 6.12632Z" fill="#05568D"/>
</svg>
