<svg width="47" height="47" viewBox="0 0 47 47" fill="none" xmlns="http://www.w3.org/2000/svg">
<g clip-path="url(#clip0_2307_2105)">
<path d="M41.5301 14.7153H37.4955C37.1258 14.7068 36.7641 14.6084 36.443 14.4291L32.5984 12.3541C32.3657 12.2622 32.1183 12.2113 31.8675 12.2038L27.7744 12.1036C27.2835 12.0874 26.815 11.8983 26.4551 11.5709C26.0952 11.2436 25.8681 10.8001 25.8156 10.322C25.7902 10.156 25.7902 9.98715 25.8156 9.82112C25.8165 9.80444 25.8165 9.78772 25.8156 9.77103C25.908 9.31435 26.1583 8.90279 26.5244 8.60565C26.8905 8.30851 27.35 8.14394 27.8256 8.13965H31.7505C31.8475 8.13965 31.9404 8.17734 32.009 8.24443C32.0775 8.31153 32.116 8.40252 32.116 8.49741C32.116 8.59229 32.0775 8.68329 32.009 8.75038C31.9404 8.81748 31.8475 8.85517 31.7505 8.85517H27.8475C27.6615 8.85332 27.4772 8.8899 27.3066 8.9625C27.1143 9.05582 26.9476 9.19286 26.8205 9.36215C26.6933 9.53144 26.6094 9.72807 26.5757 9.9356C26.5798 9.95929 26.5798 9.98347 26.5757 10.0072C26.5684 10.0881 26.5684 10.1695 26.5757 10.2504C26.6045 10.5494 26.7408 10.8286 26.9603 11.0383C27.1799 11.248 27.4684 11.3745 27.7744 11.3953L31.8894 11.5241C32.2363 11.5343 32.5782 11.607 32.8981 11.7387L36.7792 13.828C37.002 13.9516 37.254 14.0158 37.5101 14.0141H41.5447C41.6416 14.0141 41.7346 14.0518 41.8031 14.1188C41.8717 14.1859 41.9102 14.2769 41.9102 14.3718C41.9102 14.4667 41.8717 14.5577 41.8031 14.6248C41.7346 14.6919 41.6416 14.7296 41.5447 14.7296L41.5301 14.7153Z" fill="#05568D"/>
<path d="M17.9073 11.8386C17.5792 11.8395 17.256 11.7609 16.9665 11.6099C16.677 11.4588 16.4302 11.24 16.2481 10.9728C16.0753 10.7174 15.9643 10.4267 15.9238 10.1229C15.8833 9.81903 15.9142 9.51016 16.0142 9.21982C16.0975 8.98744 16.2278 8.77389 16.3974 8.59194C16.5669 8.40998 16.7722 8.26337 17.001 8.16086L29.0975 2.90894C29.8294 2.5925 30.64 2.49299 31.4291 2.62274L39.7614 5.29878C39.9106 5.34401 40.0657 5.36811 40.2219 5.37033H41.5521C41.649 5.37033 41.742 5.40802 41.8105 5.47512C41.8791 5.54221 41.9176 5.63321 41.9176 5.72809C41.9176 5.82297 41.8791 5.91397 41.8105 5.98106C41.742 6.04816 41.649 6.08585 41.5521 6.08585H40.1999C39.9689 6.08684 39.7392 6.05058 39.5202 5.97852L31.239 3.30248C30.6108 3.21535 29.9703 3.3021 29.3898 3.55291L17.2933 8.80482C17.1539 8.8685 17.0291 8.95895 16.9261 9.0708C16.8231 9.18266 16.7442 9.31363 16.694 9.45595C16.6303 9.64344 16.611 9.84266 16.6376 10.0385C16.6642 10.2344 16.7359 10.4218 16.8475 10.5865C16.9889 10.7917 17.1896 10.951 17.4239 11.0441C17.6582 11.1371 17.9156 11.1596 18.1631 11.1088L26.0934 9.54896C26.1714 9.5241 26.2559 9.52678 26.3321 9.55654C26.4082 9.58629 26.4714 9.64124 26.5105 9.71184C26.5496 9.78244 26.5622 9.86421 26.5461 9.94295C26.53 10.0217 26.4862 10.0924 26.4223 10.1428C26.3736 10.1889 26.3129 10.221 26.2469 10.2359L18.2727 11.8028C18.152 11.8239 18.0298 11.8358 17.9073 11.8386Z" fill="#05568D"/>
<path d="M46.4199 15.5804H41.5374C41.4898 15.5814 41.4424 15.573 41.3981 15.5558C41.3538 15.5386 41.3135 15.513 41.2794 15.4803C41.2454 15.4476 41.2184 15.4087 41.1999 15.3657C41.1815 15.3227 41.172 15.2765 41.172 15.2298V4.71884C41.172 4.67219 41.1815 4.62601 41.1999 4.583C41.2184 4.53999 41.2454 4.50101 41.2794 4.46836C41.3135 4.43571 41.3538 4.41004 41.3981 4.39284C41.4424 4.37565 41.4898 4.36729 41.5374 4.36824H45.689C45.7798 4.36973 45.8668 4.40427 45.933 4.46511C45.9992 4.52596 46.0399 4.60876 46.0471 4.69738L46.778 15.2012C46.7812 15.2493 46.7745 15.2976 46.7581 15.3431C46.7418 15.3886 46.7163 15.4304 46.683 15.4659C46.614 15.5364 46.5195 15.5775 46.4199 15.5804ZM41.8956 14.8649H46.0471L45.3674 5.06229H41.8956V14.8649ZM18.9305 39.3142H15.0055C14.9086 39.3142 14.8156 39.2765 14.7471 39.2094C14.6786 39.1423 14.6401 39.0513 14.6401 38.9564C14.6401 38.8616 14.6786 38.7706 14.7471 38.7035C14.8156 38.6364 14.9086 38.5987 15.0055 38.5987H18.9305C19.1164 38.5997 19.3005 38.5632 19.4713 38.4914C19.6722 38.4029 19.8474 38.267 19.9813 38.096C20.1153 37.9249 20.2037 37.7239 20.2388 37.5111C20.2354 37.4898 20.2354 37.468 20.2388 37.4467C20.253 37.3662 20.253 37.2839 20.2388 37.2034C20.2074 36.9 20.0651 36.6178 19.8382 36.4088C19.6113 36.1998 19.3149 36.078 19.0036 36.0657L14.8886 35.937C14.5417 35.9267 14.1998 35.854 13.8799 35.7223L9.9988 33.6258C9.7747 33.5062 9.52311 33.4447 9.26789 33.4469H5.2479C5.15098 33.4469 5.05802 33.4093 4.98949 33.3422C4.92095 33.2751 4.88245 33.1841 4.88245 33.0892C4.88245 32.9943 4.92095 32.9033 4.98949 32.8362C5.05802 32.7691 5.15098 32.7314 5.2479 32.7314H9.28251C9.65028 32.7333 10.0119 32.8243 10.335 32.9962L14.1796 35.0712C14.4123 35.1631 14.6597 35.2139 14.9105 35.2214L19.0328 35.3431C19.5238 35.3593 19.9922 35.5484 20.3521 35.8757C20.712 36.2031 20.9391 36.6466 20.9916 37.1247C21.0171 37.2907 21.0171 37.4595 20.9916 37.6256V37.6685C20.9286 37.9825 20.7886 38.2769 20.5836 38.5261C20.3786 38.7754 20.1148 38.9722 19.8149 39.0995C19.5411 39.2374 19.2383 39.3109 18.9305 39.3142Z" fill="#05568D"/>
<path d="M16.0288 44.889C15.8085 44.8901 15.5884 44.8733 15.371 44.8389L7.03862 42.1628C6.8894 42.1176 6.73434 42.0935 6.57815 42.0913H5.2479C5.15098 42.0913 5.05802 42.0536 4.98949 41.9865C4.92095 41.9194 4.88245 41.8284 4.88245 41.7335C4.88245 41.6386 4.92095 41.5477 4.98949 41.4806C5.05802 41.4135 5.15098 41.3758 5.2479 41.3758H6.57815C6.80921 41.3748 7.03887 41.411 7.25789 41.4831L15.5391 44.1448C16.1673 44.232 16.8078 44.1452 17.3883 43.8944L29.4848 38.6425C29.6241 38.5788 29.749 38.4884 29.852 38.3765C29.9549 38.2647 30.0339 38.1337 30.0841 37.9914C30.1509 37.8085 30.175 37.6134 30.1547 37.4203C30.1345 37.2272 30.0704 37.0409 29.9672 36.8752C29.8258 36.6699 29.6251 36.5106 29.3907 36.4175C29.1564 36.3245 28.899 36.302 28.6515 36.3528L20.692 37.9127C20.6168 37.9318 20.5373 37.9264 20.4655 37.8974C20.3937 37.8685 20.3335 37.8174 20.2939 37.752C20.2543 37.6866 20.2375 37.6104 20.246 37.5348C20.2545 37.4593 20.2879 37.3885 20.3411 37.3331C20.3926 37.2801 20.4586 37.2429 20.5312 37.2258L28.5054 35.6659C28.8925 35.5857 29.2954 35.6212 29.6616 35.768C30.0279 35.9147 30.3406 36.1658 30.5592 36.4888C30.7321 36.7442 30.843 37.0349 30.8835 37.3388C30.9241 37.6426 30.8931 37.9515 30.7931 38.2418C30.7098 38.4742 30.5795 38.6877 30.4099 38.8697C30.2404 39.0516 30.0351 39.1983 29.8064 39.3008L17.6806 44.5527C17.1595 44.7749 16.5972 44.8894 16.0288 44.889Z" fill="#05568D"/>
<path d="M5.24064 43.0927H1.0964C1.00434 43.093 0.915553 43.0592 0.847799 42.9982C0.780045 42.9372 0.738314 42.8534 0.730949 42.7636L4.20829e-05 32.2597C-0.00316312 32.2116 0.00360178 32.1634 0.0199303 32.1179C0.0362588 32.0724 0.0618139 32.0306 0.09506 31.995C0.164036 31.9245 0.258534 31.8834 0.358187 31.8805H5.24064C5.28829 31.8796 5.33565 31.8879 5.37995 31.9051C5.42425 31.9223 5.46459 31.948 5.49863 31.9806C5.53266 32.0133 5.5597 32.0523 5.57815 32.0953C5.59661 32.1383 5.60611 32.1845 5.6061 32.2311V42.7421C5.60611 42.7887 5.59661 42.8349 5.57815 42.8779C5.5597 42.9209 5.53266 42.9599 5.49863 42.9926C5.46459 43.0252 5.42425 43.0509 5.37995 43.0681C5.33565 43.0853 5.28829 43.0937 5.24064 43.0927ZM1.46186 42.3915H4.8825V32.5889H0.730949L1.46186 42.3915ZM23.3891 25.9345C23.1404 25.9316 22.8938 25.8905 22.6582 25.8129C22.094 25.6166 21.6317 25.2104 21.3718 24.6824C21.2439 24.4212 21.1699 24.1379 21.154 23.8487C21.1381 23.5595 21.1806 23.2701 21.279 22.9969C21.3774 22.7238 21.5299 22.4724 21.7277 22.257C21.9254 22.0416 22.1646 21.8664 22.4316 21.7416C22.6984 21.6165 22.9878 21.544 23.2832 21.5284C23.5786 21.5129 23.8743 21.5544 24.1533 21.6508C24.4323 21.7472 24.6891 21.8964 24.9091 22.09C25.1292 22.2836 25.3081 22.5178 25.4356 22.7791C25.5634 23.0403 25.6374 23.3236 25.6533 23.6128C25.6693 23.902 25.6268 24.1914 25.5284 24.4645C25.4299 24.7377 25.2775 24.9891 25.0797 25.2045C24.8819 25.4199 24.6427 25.595 24.3758 25.7199C24.0678 25.8637 23.7303 25.9371 23.3891 25.9345ZM22.0077 24.3819C22.0926 24.5618 22.2132 24.7234 22.3625 24.8573C22.5119 24.9912 22.6869 25.0947 22.8774 25.1618C23.2139 25.2795 23.5816 25.2793 23.9179 25.1611C24.2542 25.0429 24.5381 24.814 24.7211 24.5136C24.9042 24.2133 24.975 23.86 24.9215 23.5141C24.868 23.1683 24.6935 22.8514 24.4278 22.6175C24.1621 22.3837 23.8218 22.2474 23.4648 22.2319C23.1079 22.2165 22.7565 22.3228 22.4708 22.5328C22.185 22.7428 21.9826 23.0434 21.8982 23.3833C21.8137 23.7231 21.8524 24.0811 22.0077 24.3962V24.3819ZM23.3891 19.5378C23.3414 19.5378 23.2942 19.5285 23.2503 19.5104C23.2064 19.4924 23.1666 19.4659 23.1332 19.4326C23.0998 19.3993 23.0736 19.3598 23.0561 19.3164C23.0385 19.273 23.0299 19.2267 23.0309 19.18V14.3646C23.0309 14.2697 23.0694 14.1787 23.138 14.1116C23.2065 14.0445 23.2994 14.0068 23.3964 14.0068C23.4933 14.0068 23.5863 14.0445 23.6548 14.1116C23.7233 14.1787 23.7618 14.2697 23.7618 14.3646V19.18C23.7629 19.2279 23.7539 19.2755 23.7354 19.3198C23.717 19.3642 23.6894 19.4043 23.6545 19.4378C23.6196 19.4714 23.578 19.4975 23.5323 19.5147C23.4867 19.5319 23.4379 19.5398 23.3891 19.5378ZM20.1073 20.8687C20.0594 20.8692 20.0118 20.86 19.9678 20.8415C19.9237 20.823 19.8841 20.7957 19.8515 20.7613L16.3724 17.3555C16.334 17.3243 16.3028 17.2857 16.2805 17.242C16.2583 17.1984 16.2457 17.1506 16.2434 17.1019C16.2411 17.0532 16.2492 17.0045 16.2672 16.9591C16.2852 16.9136 16.3126 16.8723 16.3479 16.8378C16.3831 16.8033 16.4253 16.7764 16.4718 16.7588C16.5182 16.7412 16.5679 16.7332 16.6177 16.7355C16.6675 16.7377 16.7162 16.7501 16.7608 16.7719C16.8054 16.7936 16.8449 16.8242 16.8767 16.8618L20.3558 20.2676C20.3906 20.2991 20.4183 20.3373 20.4373 20.3798C20.4562 20.4223 20.466 20.4681 20.466 20.5145C20.466 20.5608 20.4562 20.6067 20.4373 20.6492C20.4183 20.6917 20.3906 20.7299 20.3558 20.7613C20.3243 20.7952 20.2859 20.8222 20.2431 20.8407C20.2003 20.8591 20.1541 20.8687 20.1073 20.8687ZM18.7405 24.0814H13.8215C13.7246 24.0814 13.6316 24.0437 13.5631 23.9766C13.4945 23.9095 13.456 23.8185 13.456 23.7236C13.456 23.6287 13.4945 23.5377 13.5631 23.4706C13.6316 23.4035 13.7246 23.3658 13.8215 23.3658H18.7405C18.8374 23.3658 18.9304 23.4035 18.9989 23.4706C19.0674 23.5377 19.1059 23.6287 19.1059 23.7236C19.1059 23.8185 19.0674 23.9095 18.9989 23.9766C18.9304 24.0437 18.8374 24.0814 18.7405 24.0814ZM16.6282 30.7071C16.5581 30.7048 16.4902 30.6829 16.4325 30.6439C16.3748 30.6049 16.3298 30.5504 16.3028 30.4871C16.2758 30.4237 16.268 30.3541 16.2804 30.2866C16.2927 30.219 16.3246 30.1563 16.3724 30.106L19.8515 26.7002C19.9202 26.6443 20.0076 26.6156 20.0968 26.6197C20.186 26.6237 20.2704 26.6602 20.3335 26.722C20.3966 26.7838 20.4339 26.8664 20.438 26.9537C20.4421 27.041 20.4128 27.1266 20.3558 27.1939L16.8767 30.5997C16.8452 30.6336 16.8068 30.6606 16.764 30.6791C16.7212 30.6975 16.6749 30.7071 16.6282 30.7071ZM23.3891 33.4475C23.2941 33.4475 23.203 33.4106 23.1358 33.3448C23.0687 33.2791 23.0309 33.1899 23.0309 33.0969V28.2814C23.0309 28.1866 23.0694 28.0956 23.138 28.0285C23.2065 27.9614 23.2994 27.9237 23.3964 27.9237C23.4933 27.9237 23.5863 27.9614 23.6548 28.0285C23.7233 28.0956 23.7618 28.1866 23.7618 28.2814V33.0969C23.7619 33.1442 23.7521 33.191 23.7332 33.2345C23.7143 33.278 23.6866 33.3173 23.6518 33.35C23.617 33.3828 23.5758 33.4083 23.5306 33.425C23.4855 33.4418 23.4373 33.4494 23.3891 33.4475ZM30.1573 30.7071C30.1093 30.7076 30.0618 30.6984 30.0178 30.6799C29.9737 30.6614 29.9341 30.6341 29.9014 30.5997L26.4223 27.1939C26.3653 27.1266 26.336 27.041 26.3401 26.9537C26.3443 26.8664 26.3815 26.7838 26.4446 26.722C26.5078 26.6602 26.5922 26.6237 26.6813 26.6197C26.7705 26.6156 26.858 26.6443 26.9267 26.7002L30.4058 30.106C30.4405 30.1375 30.4683 30.1757 30.4872 30.2182C30.5062 30.2607 30.516 30.3065 30.516 30.3529C30.516 30.3992 30.5062 30.4451 30.4872 30.4876C30.4683 30.5301 30.4405 30.5682 30.4058 30.5997C30.3743 30.6336 30.3359 30.6606 30.2931 30.6791C30.2503 30.6975 30.204 30.7071 30.1573 30.7071ZM32.9566 24.0814H28.0376C27.9407 24.0814 27.8478 24.0437 27.7792 23.9766C27.7107 23.9095 27.6722 23.8185 27.6722 23.7236C27.6722 23.6287 27.7107 23.5377 27.7792 23.4706C27.8478 23.4035 27.9407 23.3658 28.0376 23.3658H32.9566C33.0536 23.3658 33.1465 23.4035 33.2151 23.4706C33.2836 23.5377 33.3221 23.6287 33.3221 23.7236C33.3221 23.8185 33.2836 23.9095 33.2151 23.9766C33.1465 24.0437 33.0536 24.0814 32.9566 24.0814ZM26.6708 20.8687C26.6241 20.8687 26.5778 20.8591 26.535 20.8407C26.4922 20.8222 26.4538 20.7952 26.4223 20.7613C26.3876 20.7299 26.3598 20.6917 26.3409 20.6492C26.3219 20.6067 26.3121 20.5608 26.3121 20.5145C26.3121 20.4681 26.3219 20.4223 26.3409 20.3798C26.3598 20.3373 26.3876 20.2991 26.4223 20.2676L29.9014 16.8618C29.9701 16.8059 30.0576 16.7773 30.1468 16.7813C30.2359 16.7853 30.3203 16.8218 30.3835 16.8836C30.4466 16.9454 30.4838 17.028 30.488 17.1153C30.4921 17.2026 30.4628 17.2882 30.4058 17.3555L26.9267 20.7613C26.894 20.7957 26.8544 20.823 26.8103 20.8415C26.7663 20.86 26.7188 20.8692 26.6708 20.8687Z" fill="#05568D"/>
</g>
<defs>
<clipPath id="clip0_2307_2105">
<rect width="46.778" height="45.7932" fill="white" transform="translate(0 0.833984)"/>
</clipPath>
</defs>
</svg>
