<svg width="47" height="48" viewBox="0 0 47 48" fill="none" xmlns="http://www.w3.org/2000/svg">
<path fill-rule="evenodd" clip-rule="evenodd" d="M12.3102 3.81118C11.4311 3.81118 10.7159 4.52588 10.7159 5.40522V26.5063C10.7159 27.3846 11.4311 28.1003 12.3102 28.1003H34.4654C35.3445 28.1003 36.0596 27.3846 36.0596 26.5063L36.0597 5.40511C36.0597 4.52583 35.3445 3.81118 34.4654 3.81118H12.3102ZM34.4654 29.1966H12.3102C10.8266 29.1966 9.61963 27.9899 9.61963 26.5063V5.40508C9.61963 3.92154 10.8266 2.71484 12.3102 2.71484H34.4654C35.949 2.71484 37.1559 3.92156 37.1559 5.40519L37.156 26.5062C37.156 27.9899 35.9489 29.1966 34.4654 29.1966Z" fill="#05568D"/>
<path fill-rule="evenodd" clip-rule="evenodd" d="M36.6079 10.1716H10.1678C9.86503 10.1716 9.61963 9.92613 9.61963 9.62351C9.61963 9.32079 9.865 9.07536 10.1678 9.07536L36.6079 9.07531C36.9106 9.07531 37.156 9.3209 37.156 9.62351C37.156 9.92613 36.9106 10.1717 36.6079 10.1716ZM13.9138 5.9986C13.6686 5.9986 13.4689 6.19852 13.4689 6.44311C13.4689 6.68862 13.6686 6.88846 13.9138 6.88846C14.1591 6.88837 14.3586 6.68862 14.3586 6.44311C14.3586 6.19849 14.1591 5.99868 13.9138 5.9986ZM13.9138 7.98468C13.064 7.98468 12.3727 7.29293 12.3727 6.44311C12.3727 5.59326 13.064 4.90234 13.9138 4.90234C14.7636 4.90229 15.4549 5.59326 15.4549 6.44311C15.4549 7.29285 14.7636 7.98476 13.9138 7.98468ZM17.5748 5.9986C17.3296 5.9986 17.13 6.19852 17.13 6.44311C17.13 6.68862 17.3296 6.88846 17.5748 6.88846C17.8201 6.88837 18.0196 6.68862 18.0196 6.44311C18.0196 6.19849 17.8201 5.99868 17.5748 5.9986ZM17.5748 7.98468C16.725 7.98468 16.0337 7.29293 16.0337 6.44311C16.0337 5.59326 16.725 4.90234 17.5748 4.90234C18.4246 4.90229 19.1159 5.59326 19.1159 6.44311C19.1159 7.29285 18.4246 7.98476 17.5748 7.98468ZM21.2359 5.9986C20.9907 5.9986 20.7911 6.19852 20.7911 6.44311C20.7911 6.68862 20.9907 6.88846 21.2359 6.88846C21.4812 6.88837 21.6807 6.68862 21.6807 6.44311C21.6807 6.19849 21.4812 5.99868 21.2359 5.9986ZM21.2359 7.98468C20.3862 7.98468 19.6948 7.29293 19.6948 6.44311C19.6948 5.59326 20.3862 4.90234 21.2359 4.90234C22.0857 4.90229 22.777 5.59326 22.777 6.44311C22.777 7.29285 22.0857 7.98476 21.2359 7.98468Z" fill="#05568D"/>
<path fill-rule="evenodd" clip-rule="evenodd" d="M40.4045 32.0945H6.37079C5.99553 32.0945 5.69019 31.7891 5.69019 31.4142V8.47933C5.69019 8.10333 5.99553 7.79888 6.37079 7.79888L10.1676 7.79883C10.4703 7.79883 10.7158 8.04347 10.7158 8.34703C10.7158 8.64965 10.4703 8.89424 10.1676 8.89424L6.78649 8.89419V30.9983H39.9888V8.89419H36.6077C36.305 8.89419 36.0595 8.64968 36.0595 8.34704C36.0596 8.04337 36.305 7.79888 36.6077 7.79888L40.4045 7.79883C40.7797 7.79883 41.0851 8.10342 41.0851 8.47933L41.0851 31.4142C41.0851 31.7891 40.7798 32.0946 40.4045 32.0945ZM17.2888 41.6539C17.241 41.6539 17.1923 41.6473 17.144 41.635C16.8519 41.555 16.6799 41.2534 16.7597 40.9612L18.6126 34.1816C18.6924 33.8894 18.994 33.7172 19.2859 33.7971C19.5778 33.877 19.7499 34.1787 19.6702 34.4709L17.8172 41.2504C17.7507 41.4941 17.5298 41.654 17.2888 41.6539ZM29.4865 41.6539C29.2455 41.6539 29.0246 41.4941 28.9581 41.2505L27.1052 34.4709C27.0254 34.1787 27.1975 33.8771 27.4894 33.7971C27.7816 33.7172 28.0829 33.8895 28.1627 34.1816L30.0156 40.9611C30.0954 41.2533 29.9234 41.555 29.6313 41.635C29.583 41.6473 29.5343 41.654 29.4865 41.6539Z" fill="#05568D"/>
<path fill-rule="evenodd" clip-rule="evenodd" d="M15.6629 43.6462H31.1129V41.6543H15.6629V43.6462ZM31.661 44.7425H15.1147C14.812 44.7425 14.5667 44.497 14.5667 44.1944V41.1062C14.5667 40.8036 14.812 40.5581 15.1147 40.5581L31.661 40.558C31.9637 40.558 32.209 40.8036 32.209 41.1063L32.2091 44.1944C32.2091 44.4969 31.9637 44.7426 31.661 44.7425ZM25.6799 38.2646H21.0958C20.7931 38.2646 20.5476 38.0191 20.5476 37.7165C20.5476 37.4138 20.7931 37.1683 21.0958 37.1683L25.6799 37.1683C25.9826 37.1683 26.228 37.4139 26.228 37.7165C26.228 38.0191 25.9826 38.2646 25.6799 38.2646ZM40.4213 34.8748H6.35441C4.45576 34.8748 2.91113 33.3303 2.91113 31.4318V8.46262C2.91113 7.54328 3.27161 6.67732 3.92629 6.02447C4.57642 5.37637 5.43574 5.01953 6.34675 5.01953C6.34982 5.01953 6.35279 5.01953 6.35586 5.01953H10.1678C10.4706 5.01953 10.716 5.26507 10.716 5.56768C10.716 5.87022 10.4706 6.11584 10.1678 6.11584H6.35441C6.35242 6.11584 6.35641 6.11584 6.35441 6.11584C5.73415 6.11584 5.14365 6.35851 4.70048 6.80103C4.25357 7.2464 4.00738 7.8374 4.00738 8.46262V31.4318C4.00738 32.7251 5.06028 33.7786 6.35441 33.7786L40.4213 33.7785C41.7154 33.7785 42.7683 32.7251 42.7683 31.4318V8.46265C42.7683 7.8374 42.5221 7.24643 42.0752 6.80106C41.632 6.35846 41.0476 6.11587 40.4289 6.11587C40.4268 6.11587 40.431 6.11587 40.4289 6.11587H36.6079C36.3052 6.11587 36.0597 5.87033 36.0597 5.56771C36.0597 5.26504 36.3051 5.01956 36.6079 5.01956H40.4212C40.4243 5.01956 40.4273 5.01956 40.4304 5.01956C41.34 5.01956 42.1992 5.37645 42.8494 6.0245C43.504 6.67729 43.8646 7.54335 43.8646 8.46265V31.4318C43.8646 33.3303 42.32 34.8748 40.4213 34.8748Z" fill="#05568D"/>
<path fill-rule="evenodd" clip-rule="evenodd" d="M22.3617 23.0155C22.3148 23.0155 22.267 23.0098 22.2196 22.9965C21.9271 22.9184 21.7535 22.6177 21.8318 22.3256L23.8848 14.6638C23.9632 14.3707 24.2636 14.1975 24.5561 14.2755C24.8486 14.3545 25.0222 14.6553 24.9438 14.9474L22.8909 22.6092C22.8252 22.8537 22.6037 23.0155 22.3617 23.0155ZM19.9792 22.6186C19.8715 22.6186 19.763 22.5872 19.6678 22.5216L14.9121 19.2326C14.764 19.1298 14.6758 18.9614 14.6758 18.7815C14.6758 18.6016 14.764 18.4332 14.9121 18.3305L19.6678 15.0415C19.9167 14.8693 20.2582 14.9311 20.4304 15.1805C20.6026 15.4297 20.5404 15.7705 20.2914 15.9427L16.1875 18.7815L20.2914 21.6202C20.5404 21.7925 20.6026 22.1333 20.4304 22.3826C20.3241 22.5367 20.153 22.6186 19.9792 22.6186ZM26.7966 22.6186C26.6228 22.6186 26.4517 22.5368 26.3453 22.3826C26.1731 22.1333 26.2353 21.7926 26.4844 21.6203L30.5882 18.7815L26.4844 15.9427C26.2353 15.7704 26.1731 15.4298 26.3453 15.1805C26.5176 14.9311 26.859 14.8693 27.1079 15.0415L31.8636 18.3305C32.0117 18.4332 32.0999 18.6017 32.0999 18.7815C32.0999 18.9614 32.0117 19.1299 31.8636 19.2326L27.1079 22.5215C27.0128 22.5872 26.9041 22.6186 26.7966 22.6186Z" fill="#05568D"/>
</svg>
