<svg width="88" height="88" viewBox="0 0 88 88" fill="none" xmlns="http://www.w3.org/2000/svg">
<path d="M27.1562 0.154686C25.5063 0.670311 23.9594 2.13125 23.4781 3.64375C23.2203 4.48594 23.2031 5.86094 23.2375 18.8203L23.2891 33.0859L23.6844 33.8937C24.2 34.925 25.2313 35.9562 26.2625 36.4719C27.0359 36.85 27.2422 36.8672 32.1063 36.9188C35.2859 36.9531 37.125 37.0391 37.125 37.1422C37.125 37.2453 36.9188 38.0016 36.6609 38.8609L36.1969 40.3906H29.4422H22.6875V39.1359C22.6875 37.5719 22.2406 36.5922 21.1578 35.8359L20.4188 35.3203L15.8469 35.2687C10.9141 35.2 10.3641 35.2687 9.45312 36.0422C8.57656 36.7812 8.25 37.6063 8.25 39.1531V40.4937L7.27031 40.9062C5.9125 41.4734 4.64062 42.7625 4.14219 44.0687L3.78125 45.0656L3.81563 64.5047L3.86719 83.9609L4.33125 84.8203C4.88125 85.8859 6.10156 87.0375 7.18438 87.5359L7.99219 87.9141H44H80.0078L80.9703 87.4328C82.2422 86.8141 83.3766 85.5766 83.8578 84.3391L84.2188 83.3422V64.1953C84.2188 45.3578 84.2188 45.0312 83.875 44.1031C83.3766 42.7969 82.3625 41.7141 80.9875 41.0438L79.8359 40.4766L73.7516 40.3906L67.65 40.3047L67.1688 38.7578C66.9109 37.8984 66.6875 37.1594 66.6875 37.0734C66.6875 37.0047 68.8531 36.9531 71.5 36.9531C75.8828 36.9531 76.3812 36.9188 77.2234 36.6094C78.5125 36.1281 79.4578 35.2516 80.0938 33.9797L80.6094 32.9141L80.575 18.3047L80.5234 3.69531L80.1281 2.97343C79.5266 1.83906 78.7703 1.08281 77.7219 0.567184L76.7422 0.0859375L52.1641 0.0515594C38.6547 0.0343704 27.3969 0.0859375 27.1562 0.154686ZM76.5531 2.92188C76.9484 3.11094 77.4125 3.48906 77.6016 3.74687C77.9453 4.19375 77.9453 4.52031 77.9969 18.3734L78.0312 32.5359L77.6188 33.1719C76.7594 34.4781 78.8047 34.375 51.8547 34.375H27.7234L27.1391 33.9797C26.8297 33.7734 26.3828 33.3266 26.1766 33.0172L25.7812 32.4328V18.6312C25.7812 9.28125 25.8328 4.675 25.9703 4.34843C26.2109 3.7125 26.7781 3.09375 27.4141 2.81875C27.8438 2.62968 32.3125 2.59531 51.8891 2.57812C75.5734 2.57812 75.8656 2.57812 76.5531 2.92188ZM64.5391 38.9297C64.8656 40.0125 65.4156 41.8172 65.7594 42.9172C66.0859 44.0344 66.3953 45.0484 66.4297 45.1688C66.4813 45.3062 66.4297 45.3406 66.2922 45.2547C66.1891 45.1859 65.5531 44.7562 64.8828 44.3266C62.4078 42.6766 59.6063 41.5422 56.4953 40.8891C54.2266 40.4078 50.1875 40.3734 47.8156 40.8031C44.6531 41.3875 41.4391 42.6594 38.8953 44.3781C38.1047 44.9109 37.4688 45.2891 37.4688 45.2203C37.4688 45.1688 38.0187 43.2781 38.6891 41.0266L39.9266 36.9531H51.9234H63.9203L64.5391 38.9297ZM19.8 38.1047C20.0234 38.3109 20.1094 38.6375 20.1094 39.3937V40.3906H15.4688H10.8281V39.2734C10.8281 38.4141 10.8969 38.1391 11.1375 38.0016C11.3094 37.8984 13.0453 37.8125 15.4516 37.8125C18.9578 37.8125 19.525 37.8469 19.8 38.1047ZM35.4062 43.0031C35.4062 43.0375 35.0281 44.2578 34.5813 45.7188L33.7734 48.3828L26.1766 48.4688C19.0266 48.5547 18.5797 48.5719 18.2359 48.8812C17.7719 49.3109 17.7547 50.2391 18.2188 50.7031C18.5453 51.0297 18.7859 51.0469 25.2656 51.0469C28.9609 51.0469 31.9688 51.0812 31.9688 51.1156C31.9688 51.1672 31.5391 51.9922 31.0234 52.9719C29.2016 56.4266 28.4109 59.3141 28.2391 63.0953C27.9984 68.7672 29.5625 73.9578 32.9313 78.4781C34.65 80.7812 37.7953 83.5656 40.2531 84.9062L41.1641 85.4219H25.0078C9.65938 85.4219 8.81719 85.4047 8.16406 85.0953C7.37344 84.7344 6.80625 84.1672 6.54844 83.4797C6.41094 83.1531 6.35938 77.9109 6.35938 67.0141V51.0469H9.95156C13.1828 51.0469 13.5781 51.0125 13.9391 50.7375C14.5063 50.2734 14.4547 49.3969 13.8531 48.8641C13.3891 48.4859 13.3031 48.4688 9.86562 48.4688H6.35938V46.9219C6.35938 45.7016 6.42813 45.2203 6.70312 44.6875C7.06406 43.9828 7.80312 43.3641 8.55938 43.1406C8.95469 43.0203 35.4062 42.9 35.4062 43.0031ZM56.2891 43.5016C64.3844 45.1344 70.8297 51.5969 72.7031 59.9156C73.0297 61.3594 73.1672 64.075 73.0125 66.0344C72.4453 73.3906 67.9078 79.9734 61.1188 83.2734C55.3953 86.0578 48.9156 86.1266 43.0203 83.4453C38.8781 81.5547 35.0109 77.7562 32.8625 73.4766C30.3016 68.3719 30.0953 61.8062 32.2953 56.2891C34.6328 50.4797 39.5141 45.9594 45.5469 44.0344C46.9734 43.5875 47.8672 43.3984 50.2734 43.0719C51.3219 42.9172 54.6219 43.1578 56.2891 43.5016ZM80.2313 43.5359C81.3141 44.2406 81.6406 45.0484 81.6406 46.9219V48.4688H75.9H70.1422L69.5234 46.4406C69.1797 45.3406 68.8359 44.2062 68.7328 43.9312C68.4062 42.8828 68.0797 42.9516 74.0438 43.0031L79.5266 43.0547L80.2313 43.5359ZM81.6063 67.2547L81.5547 83.4797L81.0563 84.1156C80.0594 85.4219 80.1797 85.4219 70.9844 85.4047H62.8203L63.4906 85.0266C67.5469 82.7062 71.1391 78.925 73.2016 74.8C75.8656 69.4891 76.3984 62.9922 74.6625 57.2344C74.1813 55.6703 73.0469 53.1437 72.3078 51.9578C72.05 51.5453 71.8438 51.1844 71.8438 51.1328C71.8438 51.0812 74.0438 51.0469 76.7422 51.0469H81.6406L81.6063 67.2547Z" fill="#05568D"/>
<path d="M29.9922 5.01863C29.2531 5.27645 28.3766 6.1702 28.1875 6.87488C28.1016 7.20145 28.0156 9.45301 28.0156 11.8764C28.0156 16.0702 28.0328 16.3108 28.3766 16.7405C28.8234 17.3077 29.7688 17.3593 30.2156 16.8436C30.4734 16.5343 30.525 15.9327 30.5938 11.9796L30.6797 7.47645H51.9062H73.1328L73.2188 11.9968C73.3047 16.4999 73.3047 16.5343 73.7172 16.8608C74.2672 17.3077 74.9719 17.2733 75.4188 16.7921C75.7797 16.3968 75.7969 16.2764 75.7969 11.7046C75.7969 7.18426 75.7797 6.97801 75.4188 6.32488C75.2125 5.96395 74.7656 5.4827 74.4219 5.27645L73.8203 4.89832L52.1641 4.86395C37.3828 4.84676 30.3359 4.89832 29.9922 5.01863Z" fill="#05568D"/>
<path d="M28.9438 20.7969C28.0672 21.1406 28.0156 21.45 28.0156 25.6094C28.0156 27.7406 28.1016 29.7516 28.1875 30.0781C28.3766 30.7828 29.2359 31.6937 29.9578 31.9516C30.2844 32.0891 37.2109 32.1406 51.975 32.1406H73.4938L74.25 31.7453C74.7656 31.5047 75.1609 31.1266 75.4016 30.6797C75.7797 30.0266 75.7969 29.8203 75.7969 25.8156C75.7969 23.1859 75.7281 21.5016 75.6078 21.2953C75.2125 20.5391 73.8203 20.5391 73.4422 21.2781C73.3734 21.45 73.2703 23.3406 73.2188 25.5234L73.1328 29.4766H51.9062H30.6797L30.5938 25.4031C30.525 22.0859 30.4562 21.2781 30.25 21.0719C29.8891 20.7281 29.3734 20.625 28.9438 20.7969Z" fill="#05568D"/>
<path d="M50.4459 48.1418C46.785 48.434 43.1928 50.1183 40.5115 52.8168C34.1694 59.1761 34.1865 69.2824 40.5459 75.6246C44.86 79.9387 51.0131 81.4512 56.7709 79.6465C61.7209 78.0824 65.5881 74.2668 67.3069 69.2308C68.2522 66.4637 68.3209 62.5793 67.4615 59.7262C65.2444 52.2152 58.3522 47.523 50.4459 48.1418ZM55.2584 51.0637C61.2225 52.5074 65.485 57.9558 65.485 64.1262C65.485 66.1371 65.2615 67.409 64.6084 69.1105C62.0131 75.8652 54.4506 79.4058 47.61 77.0855C43.2959 75.6246 40.0819 72.2215 38.81 67.7871C38.3115 66.0168 38.26 62.5621 38.7412 60.8605C39.3944 58.4543 40.6147 56.3574 42.3162 54.6386C45.7537 51.2183 50.4975 49.8949 55.2584 51.0637Z" fill="#05568D"/>
<path d="M50.2392 54.3299C46.4235 54.9659 43.0892 58.094 42.1954 61.9096C41.8001 63.5768 41.8517 64.6596 42.3329 65.1065C43.2439 65.9659 44.5157 65.244 44.5157 63.8862C44.5157 62.8034 45.0829 61.0846 45.7876 60.0534C46.9735 58.3002 48.7954 57.2002 51.1329 56.8221C52.7142 56.5815 53.0235 56.4096 53.1954 55.6534C53.2985 55.2752 53.2126 55.0862 52.8001 54.6565C52.2329 54.1065 51.8892 54.0549 50.2392 54.3299Z" fill="#05568D"/>
</svg>
