<svg width="88" height="88" viewBox="0 0 88 88" fill="none" xmlns="http://www.w3.org/2000/svg">
<g clip-path="url(#clip0_1430_3847)">
<path d="M26.3137 0.447174C24.7152 1.25498 24.0621 2.61279 24.0621 5.17374C24.0621 6.32529 24.0449 6.37686 23.5981 6.54874C22.9965 6.77217 22.2231 7.49405 21.8621 8.16436C21.7246 8.43936 21.5527 9.33311 21.5012 10.1237L21.3981 11.5675L20.4356 11.7909C16.3277 12.719 12.7184 16.3284 11.7902 20.4362L11.5668 21.3987L10.1231 21.5019C9.33243 21.5534 8.45587 21.7253 8.16368 21.8628C7.49337 22.2237 6.77149 22.9972 6.54806 23.5816C6.37618 24.0456 6.32462 24.0628 5.17306 24.0628C2.61212 24.0628 1.25431 24.7159 0.446493 26.3144C-0.155069 27.5347 -0.137882 28.5315 0.480868 29.7519C1.28868 31.3503 2.50899 31.9519 5.00118 31.969C6.29024 31.969 6.32462 31.9862 6.51368 32.4675C6.78868 33.1206 7.68243 33.9628 8.45587 34.2722C8.83399 34.444 9.60743 34.5472 10.3121 34.5472H11.5152V36.0081V37.469H10.4496C9.84806 37.469 9.07462 37.555 8.71368 37.6581C7.92306 37.8644 6.82306 38.8269 6.53087 39.5315C6.32462 40.0472 6.30743 40.0472 4.98399 40.0472C2.59493 40.0472 1.15118 40.769 0.412118 42.3503C-0.137882 43.519 -0.120694 44.5503 0.446493 45.6847C1.23712 47.2831 2.59493 47.9534 4.98399 47.9534C6.30743 47.9534 6.32462 47.9534 6.53087 48.469C6.82306 49.1737 7.92306 50.1362 8.71368 50.3425C9.07462 50.4456 9.84806 50.5315 10.4496 50.5315H11.5152V51.9925V53.4534H10.3121C9.60743 53.4534 8.83399 53.5565 8.45587 53.7284C7.68243 54.0378 6.78868 54.88 6.51368 55.5331C6.32462 56.0144 6.29024 56.0315 5.00118 56.0315C2.50899 56.0487 1.28868 56.6503 0.480868 58.2487C-0.137882 59.469 -0.155069 60.4659 0.446493 61.6862C1.25431 63.2847 2.61212 63.9378 5.17306 63.9378C6.32462 63.9378 6.37618 63.955 6.54806 64.4019C6.77149 65.0034 7.49337 65.7769 8.16368 66.1378C8.45587 66.2753 9.33243 66.4472 10.1231 66.4987L11.5668 66.6019L11.859 67.719C12.2543 69.2487 12.7527 70.3144 13.6465 71.569C15.434 74.0784 17.6168 75.4534 21.2777 76.4159C21.4152 76.4503 21.484 76.8284 21.484 77.5503C21.484 78.1519 21.5699 78.9253 21.6731 79.2862C21.8965 80.094 22.7559 81.1081 23.4949 81.4175C24.0621 81.6409 24.0621 81.6581 24.0621 82.844C24.0621 85.3878 24.7152 86.7456 26.3137 87.5534C27.534 88.155 28.5309 88.1378 29.7512 87.5362C31.3496 86.7112 31.9512 85.4909 31.9684 82.9987C31.9684 81.7097 31.9856 81.6753 32.4668 81.4862C33.1199 81.2112 33.9621 80.3175 34.2715 79.544C34.4434 79.1659 34.5465 78.3925 34.5465 77.6878V76.4847H36.0074H37.4684V77.5503C37.4684 78.1519 37.5543 78.9253 37.6574 79.2862C37.8637 80.0769 38.8262 81.1769 39.5309 81.469C40.0465 81.6753 40.0465 81.6925 40.0465 83.0159C40.0465 85.405 40.7168 86.7628 42.3152 87.5534C43.4496 88.1206 44.4809 88.1378 45.6496 87.5878C47.2309 86.8487 47.9527 85.405 47.9527 82.9987V81.6409L48.5199 81.4175C49.259 81.1081 50.1184 80.094 50.3418 79.2862C50.4449 78.9253 50.5309 78.1519 50.5309 77.5503V76.4847H51.9918H53.4527V77.6878C53.4527 78.3925 53.5559 79.1659 53.7277 79.544C54.0371 80.3175 54.8793 81.2112 55.5324 81.4862C56.0137 81.6753 56.0309 81.7097 56.0309 82.9987C56.0481 85.4909 56.6496 86.7112 58.2481 87.519C59.4684 88.1378 60.4652 88.155 61.6856 87.5534C63.284 86.7456 63.9371 85.3878 63.9371 82.8269C63.9371 81.6753 63.9543 81.6237 64.4184 81.4519C65.0027 81.2284 65.7762 80.5065 66.1371 79.8362C66.2746 79.544 66.4465 78.6675 66.4981 77.8769L66.6012 76.4331L67.7699 76.1409C71.809 75.0925 75.0918 71.8097 76.1402 67.7706L76.4324 66.6019L77.8762 66.4987C78.6668 66.4472 79.5606 66.2753 79.8356 66.1378C80.5059 65.7769 81.2277 65.0034 81.4512 64.4019C81.6231 63.955 81.6746 63.9378 82.8262 63.9378C85.3871 63.9378 86.7449 63.2847 87.5527 61.6862C88.1543 60.4659 88.1371 59.469 87.5356 58.2487C86.7106 56.6503 85.4902 56.0487 82.9981 56.0315C81.709 56.0315 81.6746 56.0144 81.4856 55.5331C81.2106 54.88 80.3168 54.0378 79.5434 53.7284C79.1652 53.5565 78.3918 53.4534 77.6871 53.4534H76.484V51.9925V50.5315H77.5668C78.1512 50.5315 78.9246 50.4456 79.2856 50.3425C80.0934 50.119 81.1074 49.2597 81.4168 48.5206L81.6402 47.9534H82.9981C85.4043 47.9534 86.7621 47.2831 87.5527 45.6847C88.1371 44.5159 88.1371 43.4847 87.5527 42.3159C86.7621 40.7175 85.4043 40.0472 83.0152 40.0472C81.6918 40.0472 81.6746 40.0472 81.4684 39.5315C81.1762 38.8269 80.0762 37.8644 79.2856 37.6581C78.9246 37.555 78.1512 37.469 77.5668 37.469H76.484V36.0081V34.5472H77.6871C78.3918 34.5472 79.1652 34.444 79.5434 34.2722C80.3168 33.9628 81.2106 33.1206 81.4856 32.4675C81.6746 31.9862 81.709 31.969 82.9981 31.969C85.4902 31.9519 86.7106 31.3503 87.5356 29.7519C88.1371 28.5315 88.1543 27.5347 87.5527 26.3144C86.7449 24.7159 85.3871 24.0628 82.8262 24.0628C81.6746 24.0628 81.6231 24.0456 81.4512 23.5816C81.2277 22.9972 80.5059 22.2237 79.8356 21.8628C79.5606 21.7253 78.6668 21.5534 77.8762 21.5019L76.4324 21.3987L76.1402 20.2815C75.0574 16.0878 71.9121 12.9425 67.7184 11.8597L66.6012 11.5675L66.4981 10.1237C66.4465 9.33311 66.2746 8.43936 66.1371 8.16436C65.7762 7.49405 65.0027 6.77217 64.4184 6.54874C63.9543 6.37686 63.9371 6.32529 63.9371 5.17374C63.9371 2.59561 63.2496 1.16904 61.6512 0.412796C60.4481 -0.137207 59.434 -0.120018 58.2481 0.464355C56.6496 1.28936 56.0481 2.50967 56.0309 5.00186C56.0309 6.29092 56.0137 6.32529 55.5324 6.51436C54.8793 6.78936 54.0371 7.68311 53.7277 8.45654C53.5559 8.83467 53.4527 9.60811 53.4527 10.3128V11.5159H51.9918H50.5309V10.4331C50.5309 9.84873 50.4449 9.07529 50.3418 8.71436C50.1356 7.92374 49.1731 6.82373 48.4684 6.53155C47.9527 6.32529 47.9527 6.30811 47.9527 4.98467C47.9527 2.59561 47.2309 1.15186 45.6496 0.412796C44.4809 -0.137207 43.4496 -0.120018 42.3152 0.447174C40.7168 1.23779 40.0465 2.59561 40.0465 4.98467C40.0465 6.30811 40.0465 6.32529 39.5309 6.53155C38.8262 6.82373 37.8637 7.92374 37.6574 8.71436C37.5543 9.07529 37.4684 9.84873 37.4684 10.4331V11.5159H36.0074H34.5465V10.3128C34.5465 9.60811 34.4434 8.83467 34.2715 8.45654C33.9621 7.68311 33.1199 6.78936 32.4668 6.51436C31.9856 6.32529 31.9684 6.29092 31.9684 5.00186C31.9512 2.50967 31.3496 1.28936 29.7512 0.464355C28.5309 -0.137207 27.534 -0.154388 26.3137 0.447174ZM28.6168 2.68155C29.0981 2.87061 29.3902 3.7128 29.3902 4.98467V6.1878H28.0152H26.6402V5.0878C26.6402 3.86749 26.8465 3.14561 27.2934 2.81905C27.6027 2.57842 28.1699 2.50967 28.6168 2.68155ZM44.7043 2.80186C45.2027 3.17999 45.3746 3.74717 45.3746 4.96748V6.1878H43.9996H42.6246V4.98467C42.6246 3.76436 42.9168 2.87061 43.3465 2.69873C43.7418 2.52686 44.4293 2.57842 44.7043 2.80186ZM60.7059 2.81905C61.1527 3.14561 61.359 3.86749 61.359 5.0878V6.1878H59.984H58.609V4.98467C58.609 3.76436 58.9012 2.87061 59.3309 2.69873C59.7434 2.52686 60.4137 2.59561 60.7059 2.81905ZM31.5902 9.04092C31.9168 9.26436 31.9684 9.45342 31.9684 10.4159V11.5159L28.0668 11.4815L24.1481 11.43L24.0965 10.4503C24.0621 9.64249 24.1137 9.40186 24.4059 9.10967C24.7324 8.78311 24.9559 8.76592 27.9809 8.76592C30.6277 8.76592 31.2809 8.81748 31.5902 9.04092ZM47.5746 9.04092C47.9012 9.26436 47.9527 9.45342 47.9527 10.4159V11.5159H43.9996H40.0465V10.4159C40.0465 8.78311 40.0809 8.76592 43.9996 8.76592C46.6121 8.76592 47.2652 8.81748 47.5746 9.04092ZM63.5934 9.10967C63.8856 9.40186 63.9371 9.64249 63.9027 10.4503L63.8512 11.43L59.9496 11.4815L56.0309 11.5159V10.4159C56.0309 8.78311 56.0481 8.76592 60.0184 8.76592C63.0434 8.76592 63.2668 8.78311 63.5934 9.10967ZM67.1168 14.3519C70.2449 15.1769 72.8231 17.755 73.6481 20.8831C73.8715 21.7769 73.9059 24.7159 73.9059 44.0003C73.9059 68.355 73.9574 67.0144 72.8231 69.1628C72.1356 70.5034 70.5027 72.1362 69.1621 72.8237C67.0137 73.9581 68.3543 73.9065 43.9996 73.9065C19.6449 73.9065 20.9856 73.9581 18.8371 72.8237C17.4965 72.1362 15.8637 70.5034 15.1762 69.1628C14.0418 67.0144 14.0934 68.355 14.0934 44.0003C14.0934 24.7159 14.1277 21.7769 14.3512 20.8831C15.159 17.8065 17.7371 15.194 20.8137 14.369C22.2574 13.9737 65.6387 13.9737 67.1168 14.3519ZM11.4809 28.0503L11.5152 31.969H10.4152C8.78243 31.969 8.76524 31.9519 8.76524 27.9815C8.76524 24.9565 8.78243 24.7331 9.10899 24.4065C9.40118 24.1144 9.64181 24.0628 10.4496 24.0972L11.4293 24.1487L11.4809 28.0503ZM78.8902 24.4065C79.2168 24.7331 79.234 24.9737 79.234 27.9815C79.234 31.9519 79.2168 31.969 77.584 31.969H76.484V28.1362C76.484 26.0222 76.5356 24.2347 76.6043 24.1831C76.6559 24.1144 77.1199 24.0628 77.6356 24.0628C78.3231 24.0628 78.6324 24.1487 78.8902 24.4065ZM6.18712 28.0159V29.3909H4.98399C3.24806 29.3909 2.56056 28.9784 2.57774 27.9644C2.59493 27.0706 3.33399 26.6753 5.03556 26.6581L6.18712 26.6409V28.0159ZM84.4934 26.8128C85.284 27.1222 85.6106 27.8269 85.3184 28.6175C85.1293 29.0987 84.2871 29.3909 83.0152 29.3909H81.8121V28.0159V26.6409H82.9121C83.5309 26.6409 84.2356 26.7269 84.4934 26.8128ZM11.5152 44.0003V47.9534H10.4152C8.78243 47.9534 8.76524 47.919 8.76524 44.0003C8.76524 40.0815 8.78243 40.0472 10.4152 40.0472H11.5152V44.0003ZM78.959 40.4253C79.1824 40.7347 79.234 41.3878 79.234 44.0003C79.234 47.919 79.2168 47.9534 77.584 47.9534H76.484V44.0003V40.0472H77.584C78.5465 40.0472 78.7356 40.0987 78.959 40.4253ZM6.18712 44.0003V45.3753H4.96681C3.31681 45.3753 2.59493 44.9456 2.57774 43.9831C2.57774 43.0378 3.28243 42.6425 4.94962 42.6253H6.18712V44.0003ZM84.6137 42.8315C85.1465 43.1065 85.4043 43.5019 85.4043 44.0003C85.4043 44.9456 84.6652 45.3753 83.0324 45.3753H81.8121V44.0003V42.6253H83.0324C83.7027 42.6253 84.4074 42.7112 84.6137 42.8315ZM11.4809 59.9331L11.4293 63.8519L10.4496 63.9034C9.64181 63.9378 9.40118 63.8862 9.10899 63.594C8.78243 63.2675 8.76524 63.044 8.76524 60.019C8.76524 56.0487 8.78243 56.0315 10.4152 56.0315H11.5152L11.4809 59.9331ZM78.959 56.4097C79.1824 56.719 79.234 57.3722 79.234 60.019C79.234 63.044 79.2168 63.2675 78.8902 63.594C78.5981 63.8862 78.3574 63.9378 77.5496 63.9034L76.5699 63.8519L76.5184 59.9331L76.484 56.0315H77.584C78.5465 56.0315 78.7356 56.0831 78.959 56.4097ZM6.18712 59.9847V61.3597H5.08712C3.36837 61.3597 2.59493 60.93 2.57774 59.9675C2.57774 59.0222 3.28243 58.6269 4.94962 58.6097H6.18712V59.9847ZM84.7168 58.8675C85.2324 59.1253 85.4215 59.4347 85.4215 60.0362C85.4043 60.93 84.5965 61.3597 82.9121 61.3597H81.8121V59.9847V58.6097H83.0152C83.7543 58.6097 84.4246 58.7128 84.7168 58.8675ZM31.9684 77.5847C31.9684 79.2175 31.9512 79.2347 27.9809 79.2347C24.9731 79.2347 24.7324 79.2175 24.4059 78.8909C24.1481 78.6331 24.0621 78.3237 24.0621 77.6362C24.0621 77.1206 24.1137 76.6565 24.1824 76.605C24.234 76.5362 26.0215 76.4847 28.1356 76.4847H31.9684V77.5847ZM47.9527 77.5847C47.9527 79.2175 47.9184 79.2347 43.9996 79.2347C40.0809 79.2347 40.0465 79.2175 40.0465 77.5847V76.4847H43.9996H47.9527V77.5847ZM63.9027 77.5503C63.9371 78.3581 63.8856 78.5987 63.5934 78.8909C63.2668 79.2175 63.0434 79.2347 60.0184 79.2347C56.0481 79.2347 56.0309 79.2175 56.0309 77.5847V76.4847L59.9496 76.519L63.8512 76.5706L63.9027 77.5503ZM29.3902 83.0159C29.3902 84.7519 28.9777 85.4394 27.9637 85.4222C27.0699 85.405 26.6402 84.5972 26.6402 82.9128V81.8128H28.0152H29.3902V83.0159ZM45.3746 83.0331C45.3746 84.6659 44.9449 85.405 43.9996 85.405C43.0543 85.405 42.6246 84.6659 42.6246 83.0331V81.8128H43.9996H45.3746V83.0331ZM61.359 82.9128C61.359 84.5972 60.9293 85.405 60.0356 85.4222C59.0215 85.4394 58.609 84.7519 58.609 83.0159V81.8128H59.984H61.359V82.9128Z" fill="#05568D"/>
<path d="M21.5876 18.6656C21.0033 18.8546 20.4876 19.1984 19.8345 19.8343C18.2876 21.3984 18.3908 19.5593 18.3908 44.0171C18.3908 68.4406 18.2705 66.5843 19.8517 68.1484C21.3298 69.6437 21.072 69.6093 32.0033 69.6093H41.4392L41.8517 69.1796C42.4017 68.6468 42.4017 67.9937 41.8517 67.4609L41.4392 67.0312H32.1064C21.6564 67.0312 21.8798 67.0484 21.2783 65.8281C20.9861 65.2609 20.9689 63.8687 20.9689 43.9999C20.9689 24.1312 20.9861 22.739 21.2783 22.1718C21.7595 21.1921 22.4298 20.9687 24.9736 20.9687C26.933 20.9687 27.1908 20.9343 27.5001 20.6249C28.0158 20.1093 27.9642 19.1984 27.397 18.7515C26.9845 18.4249 26.7095 18.3906 24.6814 18.4077C23.2033 18.4077 22.1376 18.5109 21.5876 18.6656Z" fill="#05568D"/>
<path d="M31.8991 18.752C31.332 19.1988 31.2804 20.1098 31.796 20.6254C32.1398 20.9691 32.3632 20.9691 48.6913 20.9691C67.1851 20.9691 66.0851 20.9004 66.721 22.1723C67.0132 22.7395 67.0304 24.1316 67.0304 44.0004C67.0304 63.8691 67.0132 65.2613 66.721 65.8285C66.1195 67.0488 66.3429 67.0316 55.8929 67.0316H46.5601L46.1476 67.4613C45.5976 67.9941 45.5976 68.6473 46.1476 69.1973L46.5773 69.627L56.3226 69.5754L66.0851 69.5238L66.9445 69.0598C67.9585 68.527 68.5601 67.9082 69.1101 66.8598L69.5226 66.0863L69.5741 44.3441C69.6257 19.5254 69.7288 21.416 68.1476 19.852C66.6007 18.3051 67.821 18.391 48.8976 18.391C32.432 18.391 32.3632 18.391 31.8991 18.752Z" fill="#05568D"/>
<path d="M27.7912 25.4379C26.4162 25.6957 25.5224 26.7957 25.3506 28.4113C25.299 28.9957 25.2646 36.4379 25.299 44.9457C25.3506 59.177 25.3677 60.466 25.6427 60.9473C26.0037 61.6176 26.8631 62.3566 27.4646 62.5285C28.0662 62.6832 59.9318 62.6832 60.5334 62.5285C61.1349 62.3566 61.9943 61.6176 62.3552 60.9473C62.6302 60.466 62.6474 59.5035 62.6474 49.8785V39.3254L62.1662 38.9129C61.5818 38.4145 61.2037 38.3973 60.6021 38.8613L60.1552 39.2051V49.4145C60.1552 58.4551 60.1209 59.641 59.8802 59.8816C59.6396 60.1223 57.9724 60.1566 43.999 60.1566C30.0256 60.1566 28.3584 60.1223 28.1177 59.8816C27.8771 59.641 27.8427 57.9738 27.8427 44.0004C27.8427 30.027 27.8771 28.3598 28.1177 28.1191C28.3584 27.8785 30.0256 27.8441 43.999 27.8441C57.9724 27.8441 59.6396 27.8785 59.8802 28.1191C60.1037 28.3426 60.1552 28.8926 60.1552 31.3848C60.1552 34.152 60.1896 34.4098 60.499 34.7191C60.9287 35.1488 61.7709 35.166 62.2006 34.7363C62.699 34.2379 62.7849 33.4816 62.699 30.3707C62.6302 27.5004 62.5443 27.1395 61.8052 26.3316C60.8771 25.3004 61.9084 25.352 44.4287 25.3348C35.6459 25.3176 28.1521 25.352 27.7912 25.4379Z" fill="#05568D"/>
<path d="M43.9662 36.9705C43.7943 37.0564 43.5881 37.2971 43.4849 37.4689C43.3818 37.658 43.0381 40.5627 42.7115 43.9314C42.1959 49.3971 42.1443 50.1189 42.3678 50.5314C42.8146 51.3736 44.0693 51.3736 44.5162 50.5314C44.6193 50.3424 44.9631 47.4377 45.2896 44.0689C45.8053 38.6549 45.8568 37.8814 45.6334 37.4689C45.3068 36.8502 44.5506 36.6268 43.9662 36.9705Z" fill="#05568D"/>
<path d="M34.2891 40.4086C31.5047 43.1586 31.2812 43.4336 31.2812 44.0008C31.2812 44.5679 31.5047 44.8429 34.2891 47.5929C37.1766 50.4804 37.2969 50.5664 37.8469 50.4633C38.1562 50.4117 38.5516 50.1883 38.7234 49.9992C39.3422 49.2429 39.1531 48.8992 36.6609 46.3726L34.3063 44.0008L36.6609 41.6289C39.1531 39.1023 39.3422 38.7586 38.7234 38.0023C38.5516 37.8133 38.1562 37.5898 37.8469 37.5383C37.2969 37.4351 37.1766 37.5211 34.2891 40.4086Z" fill="#05568D"/>
<path d="M49.7238 37.6414C49.2941 37.8133 48.9847 38.3117 48.9847 38.8617C48.9847 39.1195 49.7238 39.9961 51.3394 41.6289L53.6941 44.0008L51.3394 46.3726C48.8472 48.8992 48.6582 49.2429 49.2941 49.9992C49.4488 50.1883 49.8441 50.4117 50.1535 50.4633C50.7035 50.5664 50.8238 50.4804 53.7113 47.5929C56.4957 44.8429 56.7191 44.5679 56.7191 44.0008C56.7191 43.4336 56.4957 43.1586 53.7457 40.4258C50.7722 37.4695 50.5488 37.3148 49.7238 37.6414Z" fill="#05568D"/>
</g>
<defs>
<clipPath id="clip0_1430_3847">
<rect width="88" height="88" fill="white"/>
</clipPath>
</defs>
</svg>
