<svg width="88" height="88" viewBox="0 0 88 88" fill="none" xmlns="http://www.w3.org/2000/svg">
<path d="M4.84706 0.34407C3.45487 1.20345 3.21425 2.93938 4.33144 4.07375C4.81269 4.55501 5.10487 4.6925 5.77519 4.76125L6.61737 4.84719L12.8564 11.0691L19.0783 17.2738V18.1503V19.0269L17.7549 19.1128C16.2252 19.1987 15.5033 19.5081 14.9189 20.3159C14.5752 20.7972 14.5064 21.1409 14.4721 22.5675C14.3861 24.5613 14.5752 24.9222 15.6408 24.9222C16.5861 24.9222 16.8955 24.4753 16.9986 22.98L17.1017 21.7425L21.0549 21.6394C26.1939 21.4847 28.9783 21.0722 32.6392 19.9034C36.7986 18.58 40.408 16.2081 42.6252 13.3206C43.4158 12.2894 44.1721 11.9113 44.8939 12.1863C45.1346 12.2722 45.8221 12.9597 46.4408 13.6987C49.2252 17.0331 52.9893 19.1816 58.4377 20.5394C61.2049 21.2269 63.6627 21.5191 67.8049 21.6394L71.758 21.7425V32.9144C71.758 43.6738 71.7408 44.1722 71.3799 46.1831C70.6752 50.0675 69.7471 52.8003 67.9596 56.1519C66.7736 58.4034 66.7049 58.8675 67.4268 59.3831C68.0627 59.83 68.6814 59.7097 69.2314 59.0222C69.9877 58.1113 71.6377 54.7081 72.4455 52.405L73.1502 50.3597L74.5596 51.4081L75.9689 52.4566V61.5144C75.9689 70.5206 75.9689 70.5894 75.608 70.9159C74.3705 72.0331 74.5596 73.8894 76.0033 74.7659C78.2893 76.1581 80.7643 72.9956 78.908 71.0363C78.5643 70.6753 78.5643 70.4863 78.5127 61.1363C78.4611 51.7863 78.4611 51.58 78.1002 51.0988C77.9111 50.8409 76.8627 49.9472 75.7799 49.1222C74.6971 48.2972 73.8205 47.5581 73.8205 47.4894C73.8205 47.4206 73.9236 46.5784 74.0439 45.6331C74.1643 44.6878 74.3189 43.1066 74.3877 42.1097L74.508 40.2878L78.6846 43.605L82.8439 46.9394V49.8784V52.8003L82.3283 53.3847C82.0533 53.7113 81.7611 54.1753 81.7096 54.3988C81.4346 55.5159 82.1908 56.8738 83.2908 57.2347C84.8549 57.7503 86.4533 56.5644 86.4533 54.8972C86.4533 54.2784 85.8861 53.1097 85.5768 53.1097C85.4908 53.1097 85.4221 51.7175 85.4221 49.8441C85.4221 47.3003 85.3705 46.4409 85.1471 45.9253C84.9236 45.3581 84.0299 44.5675 79.6471 41.0956L74.4221 36.9363V29.4253C74.4221 24.5097 74.3533 21.6738 74.233 21.2269C73.9924 20.3675 73.133 19.5081 72.2736 19.2675C71.8955 19.1644 70.9846 19.0784 70.2627 19.0784H68.9221V18.1675V17.2738L75.1611 11.0691L81.383 4.84719L82.2252 4.76125C84.5455 4.52062 85.1643 1.58157 83.1533 0.34407C81.658 -0.566872 79.5783 0.636253 79.5783 2.40657C79.5783 2.97375 79.1658 3.42062 73.2018 9.3675C69.6439 12.9081 66.7221 15.9675 66.5846 16.2769C66.4471 16.5863 66.3439 17.3425 66.3439 17.9613V19.0956L64.9346 18.9753C64.1439 18.9066 63.1642 18.8034 62.7346 18.7519L61.9611 18.6488L61.9096 15.555L61.8752 12.4784L65.6908 8.64562C69.2314 5.105 69.5752 4.81281 70.1252 4.81281C70.8471 4.81281 71.7064 4.31438 72.1189 3.67844C72.5658 3.00813 72.5143 1.73625 72.0158 1.04875C70.6924 -0.824684 67.7189 0.0690689 67.7189 2.33781C67.7189 2.97375 67.5642 3.16281 63.5596 7.1675L59.383 11.3441L59.3314 14.6956C59.2971 17.2394 59.2283 18.0472 59.0564 18.0472C58.7127 18.0472 57.0971 17.5488 55.6533 16.9816L54.3127 16.4831V10.3816C54.3127 6.37688 54.3643 4.2972 54.4846 4.2972C54.8283 4.2972 55.3439 3.18001 55.3439 2.42375C55.3439 0.636253 53.6768 -0.463745 52.0096 0.240944C50.4627 0.876877 50.0846 2.97375 51.3049 4.12532L51.7346 4.52063V9.74563C51.7346 14.8675 51.7346 14.9706 51.408 14.7816C50.7892 14.455 49.5689 13.3034 48.2283 11.8081C46.6299 10.0206 45.8736 9.57375 44.4299 9.55656C42.8658 9.53938 42.0408 10.0206 40.408 11.9284C39.2393 13.3034 36.9705 15.2972 36.5752 15.2972C36.4892 15.2972 36.4377 12.8909 36.4377 9.95187V4.60657L36.9533 4.02219C38.1908 2.59563 37.4861 0.412819 35.6642 0.0690689C34.8221 -0.0856171 34.2892 0.0862579 33.5674 0.73938C33.0517 1.22063 32.9486 1.46126 32.8799 2.18313C32.8111 2.90501 32.8627 3.19719 33.1721 3.67844C33.3783 4.02219 33.6189 4.2972 33.7049 4.2972C33.7908 4.2972 33.8596 6.87531 33.8596 10.5534V16.8097L31.9517 17.4284C30.9033 17.7722 29.7517 18.0988 29.3736 18.1503L28.7033 18.2706V15.0566C28.7033 12.5988 28.6517 11.7394 28.4627 11.3784C28.3252 11.1206 26.4346 9.14407 24.2517 6.96125C20.4361 3.16281 20.2814 2.99094 20.2814 2.33781C20.2814 0.0690689 17.308 -0.824684 15.9846 1.04875C15.4861 1.73625 15.4346 3.00813 15.8814 3.67844C16.2939 4.31438 17.1533 4.81281 17.8752 4.81281C18.4252 4.81281 18.7689 5.105 22.3096 8.64562L26.1252 12.4613V15.5722V18.7003L25.5752 18.7863C25.2658 18.855 24.2517 18.9409 23.3408 19.0097L21.6564 19.13V17.9784C21.6564 17.3425 21.5533 16.5863 21.4158 16.2769C21.2783 15.9675 18.3564 12.9081 14.7986 9.3675C8.83456 3.42062 8.42206 2.97375 8.42206 2.40657C8.42206 1.18626 7.23612 0.000320435 6.01581 0.000320435C5.68925 0.000320435 5.15644 0.155006 4.84706 0.34407Z" fill="#05568D"/>
<path d="M43.9997 15.5892C42.6075 16.1048 42.6418 17.9439 44.0512 18.4423C44.2231 18.5111 44.6184 18.4595 44.9278 18.322C46.1309 17.8236 46.1137 16.208 44.9278 15.7095C44.6012 15.572 44.3262 15.4689 44.309 15.4861C44.2747 15.4861 44.1372 15.5376 43.9997 15.5892Z" fill="#05568D"/>
<path d="M41.5078 23.9763C36.8328 24.9904 33.2062 28.6513 32.2094 33.3435C32.0547 34.0654 31.9688 35.6122 31.9688 37.6919V40.9232L31.4359 41.3872C30.5422 42.1263 30.0781 43.3466 30.0781 44.8935C30.0781 46.0107 30.1297 46.2857 30.4219 46.5779C30.9891 47.145 31.7109 47.0935 32.2781 46.4747C32.5875 46.131 32.6562 45.8388 32.6562 44.9622C32.6562 44.0513 32.725 43.8107 33.0688 43.4325C33.2922 43.1919 33.6703 42.9341 33.8938 42.8825C34.1 42.831 38.9984 42.8138 44.7391 42.831L55.2063 42.8825L55.6187 43.3638L56.0312 43.845V51.0638V58.2997L55.5328 58.7982L55.0172 59.2966L44.275 59.2622L33.5328 59.2107L33.1375 58.8154C32.7594 58.4372 32.7422 58.2825 32.6562 54.8107C32.5703 51.2529 32.5703 51.1841 32.1578 50.8575C31.6078 50.4107 31.0063 50.445 30.5078 50.9607C30.0781 51.3732 30.0781 51.3732 30.0781 54.9482C30.0781 58.1794 30.1125 58.5919 30.4391 59.2966C30.8688 60.2419 31.5047 60.9294 32.3984 61.4107C33.0859 61.7888 33.1891 61.7888 44 61.8404C51.975 61.8747 55.1031 61.8404 55.6531 61.6857C56.5641 61.4279 57.8703 60.2935 58.2828 59.3825C58.575 58.7466 58.6094 58.0935 58.6094 51.081C58.6094 45.0138 58.5578 43.3638 58.3688 42.8997C58.0766 42.1779 57.1484 41.1294 56.5469 40.82L56.0656 40.5794L55.9969 37.0044C55.9281 33.6185 55.8938 33.3607 55.4297 31.9857C54.3125 28.7372 51.6656 25.8841 48.5891 24.6294C46.4062 23.7357 43.7078 23.495 41.5078 23.9763ZM45.925 26.4857C47.3516 26.7779 49.2078 27.7575 50.3422 28.7888C51.5453 29.9232 52.3188 31.0575 52.9031 32.6216C53.2984 33.67 53.35 34.0825 53.4188 36.9872L53.4875 40.2185H52.3531H51.2188V38.0185C51.2188 34.1685 50.7547 32.5529 49.1391 30.8513C45.7703 27.2935 39.7891 28.17 37.6406 32.5529C36.9703 33.8935 36.7812 35.1138 36.7812 37.9325V40.2185H35.6641H34.5469V37.4685C34.5469 35.9732 34.6328 34.3232 34.7359 33.8247C35.4406 30.4388 38.4141 27.3622 41.8172 26.5372C42.9516 26.2622 44.7563 26.245 45.925 26.4857ZM46.0453 31.7107C47.0594 32.2263 47.6609 32.8622 48.1594 33.945C48.4859 34.7013 48.5547 35.1482 48.6063 37.5029L48.675 40.2185H44H39.325L39.3938 37.4169C39.4625 34.9419 39.5141 34.5466 39.8578 33.8247C41.0094 31.47 43.7422 30.5247 46.0453 31.7107Z" fill="#05568D"/>
<path d="M19.5083 24.6642C18.8895 25.2658 18.9067 26.3142 19.5255 26.7954C20.5052 27.5689 21.8974 26.9329 21.8974 25.6954C21.8974 24.4236 20.3849 23.7704 19.5083 24.6642Z" fill="#05568D"/>
<path d="M67.118 24.6641C66.1898 25.575 66.843 27.1562 68.132 27.1562C68.9398 27.1562 69.6789 26.2969 69.5414 25.5406C69.318 24.3547 67.9258 23.8391 67.118 24.6641Z" fill="#05568D"/>
<path d="M14.8156 28.5313C14.4547 28.8751 14.4375 29.0126 14.4375 32.5704V36.2313L8.90312 40.6485C4.57187 44.0688 3.26562 45.2032 2.97344 45.7532C2.59531 46.4407 2.57812 46.6813 2.57812 49.7923C2.57812 51.7001 2.50937 53.1094 2.42344 53.1094C2.11406 53.1094 1.54688 54.2782 1.54688 54.8969C1.54688 56.5813 3.14531 57.7501 4.70937 57.2344C6.29062 56.7188 6.78906 54.4157 5.58594 53.2813C5.15625 52.886 5.15625 52.8516 5.15625 49.9126V46.9563L9.69375 43.3298C12.1859 41.336 14.2656 39.7032 14.3 39.7032C14.3516 39.7032 14.4375 41.0438 14.4891 42.6594C14.5578 44.2923 14.6781 45.9594 14.7469 46.3548L14.9016 47.0766L12.5812 48.8469C11.3094 49.8266 10.0891 50.8407 9.9 51.0985C9.53906 51.5798 9.53906 51.7516 9.4875 61.1532L9.43594 70.7266L8.98906 71.1907C8.37031 71.8266 8.26719 73.0813 8.74844 73.8719C9.625 75.2641 11.3266 75.4876 12.5125 74.3704C13.3719 73.5626 13.3547 71.8266 12.4609 70.9844L12.0312 70.5891V61.5313V52.4907L13.6641 51.2532C14.5578 50.5829 15.3484 50.0157 15.4172 50.0157C15.5031 50.0157 15.8469 50.961 16.225 52.0954C17.2906 55.4126 19.1984 58.9876 21.4672 61.961C21.8969 62.5282 22.9969 63.7657 23.925 64.7282L25.5922 66.4469L23.8734 68.1657C22.9281 69.0938 22.0344 70.0735 21.8969 70.3313C21.7078 70.7094 21.6562 71.9641 21.6562 77.1032V83.3938L21.1406 83.9782C19.9031 85.4048 20.6078 87.5876 22.4297 87.9313C23.2719 88.086 23.8047 87.9141 24.5266 87.261C25.0422 86.7798 25.1453 86.5391 25.2141 85.8173C25.2828 85.0954 25.2312 84.8032 24.9219 84.3219C24.7156 83.9782 24.475 83.7032 24.3891 83.7032C24.3031 83.7032 24.2344 81.1766 24.2344 77.5501V71.4141L25.8672 69.7813C27.4141 68.2344 27.5172 68.1657 27.8953 68.3891C28.1016 68.5266 30.6453 70.4688 33.5672 72.7376C36.4719 74.9891 39.2047 77.086 39.6344 77.3782C42.3328 79.2001 46.3031 79.2001 49.0875 77.361C49.6375 77.0001 52.5078 74.8344 55.4297 72.5485L60.7578 68.4063L62.2703 69.9188L63.7656 71.4141V77.5501C63.7656 81.1766 63.6969 83.7032 63.6109 83.7032C63.525 83.7032 63.2844 83.9782 63.0781 84.3219C62.7687 84.8032 62.7172 85.0954 62.7859 85.8173C62.8547 86.5391 62.9578 86.7798 63.4734 87.261C64.1953 87.9141 64.7281 88.086 65.5703 87.9313C67.3922 87.5876 68.0969 85.4048 66.8594 83.9782L66.3437 83.3938V77.1032C66.3437 72.8235 66.275 70.6751 66.1547 70.4173C66.0516 70.211 65.2266 69.3001 64.3328 68.3891L62.7172 66.7391L63.5078 66.1032C63.9375 65.7423 64.7625 64.9173 65.3125 64.2641C66.4641 62.9235 66.6016 62.3563 65.9484 61.7376C65.1578 60.9985 64.7625 61.1876 62.4937 63.3876C60.2766 65.5704 48.8297 74.5766 47.0937 75.5391C46.2172 76.0204 46.0281 76.0548 44.3437 76.0548C42.7625 76.0548 42.4359 76.0032 41.7656 75.6423C41.3359 75.4188 38.1391 73.0126 34.6328 70.3141C26.125 63.7313 23.8906 61.5141 21.2094 56.9423C19.4734 54.0032 18.1328 50.3594 17.4109 46.6641C17.1703 45.3923 17.1016 43.7079 17.0328 37.1251C16.9641 31.2985 16.8781 29.0298 16.7234 28.7719C16.3281 28.1016 15.4 27.9813 14.8156 28.5313Z" fill="#05568D"/>
<path d="M43.0375 47.8672C41.336 48.8813 41.2672 51.2875 42.8829 52.525L43.4844 52.9719V54.4156V55.8594H44.5157H45.5469V54.4672V53.0578L46.3032 52.3531C47.5063 51.2359 47.6782 49.775 46.7672 48.5031C45.9938 47.4031 44.2922 47.1109 43.0375 47.8672Z" fill="#05568D"/>
<path d="M43.7422 71.3625C43.1922 71.6547 42.9688 72.0328 42.9688 72.7031C42.9688 73.4937 43.5359 74.0781 44.3266 74.0781C45.0828 74.0781 45.4609 73.8547 45.7188 73.2188C45.9938 72.5484 45.7016 71.7578 45.0141 71.4141C44.4469 71.1047 44.2063 71.1047 43.7422 71.3625Z" fill="#05568D"/>
</svg>
