<svg width="88" height="88" viewBox="0 0 88 88" fill="none" xmlns="http://www.w3.org/2000/svg">
<g clip-path="url(#clip0_1430_3768)">
<path d="M4.12624 0.412498C2.16687 0.962502 0.619993 2.6125 0.190306 4.64062C0.0356183 5.34531 0.00124327 13.5609 0.0356183 37.5547L0.0871808 69.5234L0.534056 70.4688C0.774681 70.9844 1.29031 71.7234 1.66843 72.1016C3.12937 73.5625 4.81374 73.975 8.71531 73.8719C10.795 73.8203 11.0184 73.7859 11.3622 73.4422C11.8262 72.9953 11.8606 72.1531 11.4481 71.6891C11.1903 71.3969 10.8294 71.3625 8.02781 71.2937C4.64187 71.225 4.31531 71.1391 3.40437 70.1766C2.68249 69.4203 2.57937 68.9047 2.57937 65.9828V63.25H26.0403H49.5012V64.35V65.45L48.5559 65.5187C47.5419 65.6047 46.9403 65.9312 46.3387 66.7563C46.0294 67.1516 45.9606 67.5297 45.9091 69.2828L45.8575 71.3281H31.7981C17.945 71.3281 17.7559 71.3281 17.4466 71.6719C17.0169 72.1531 17.0512 72.9781 17.5153 73.4422C17.8762 73.8203 17.9622 73.8203 24.3216 73.8719L30.7669 73.9234V76.1234V78.3234L28.3262 78.4094C25.5247 78.4953 24.6481 78.7703 23.4966 79.8875C22.4825 80.8672 22.1731 81.95 22.1731 84.4422C22.1731 86.7109 22.3622 87.2781 23.2387 87.7594C23.5481 87.9484 27.7762 87.9828 44.0356 88H64.4372L65.0216 87.4328C65.7606 86.7453 65.9153 85.9203 65.7778 83.6C65.6403 81.2969 65.0903 80.2141 63.4919 79.1828C62.6325 78.6156 61.2575 78.375 59.0059 78.375H57.2356V77.6016V76.8281H69.37H81.5044L82.1747 76.45C82.9137 76.0375 83.5325 74.9891 83.5325 74.1469C83.5325 73.7 83.6184 73.6141 84.3575 73.3391C85.4575 72.9609 86.5919 71.9469 87.2278 70.7953L87.7434 69.8672L87.8466 64.8828C87.9153 62.1328 87.9669 47.5922 87.9841 32.5703C88.0012 3.60938 88.0184 4.27969 87.2278 2.99062C86.4028 1.68437 85.2169 0.790627 83.7903 0.412498C82.57 0.0859375 5.31218 0.0859375 4.12624 0.412498ZM83.945 3.33437C85.2684 4.33125 85.2512 4.27969 85.2512 10.0031V15.125H44.0012H2.75124V10.0547C2.75124 4.62344 2.76843 4.46875 3.64499 3.66093C4.69343 2.68125 1.54812 2.75 44.1903 2.80156L83.3091 2.83594L83.945 3.33437ZM85.2512 39.1875V60.6719H84.3919H83.5325V57.1484C83.5325 53.2469 83.4466 52.8172 82.5184 52.0438C82.1231 51.7 81.6934 51.5453 80.9544 51.4594L79.9231 51.3391V50.1016V48.8641L80.9544 48.7437C81.6934 48.6578 82.1231 48.5031 82.5184 48.1594C83.4466 47.3859 83.5325 46.9562 83.5325 43.0203C83.5325 39.0156 83.4294 38.5859 82.3466 37.8641C81.7794 37.4859 81.6419 37.4688 77.5169 37.4688C73.6325 37.4688 73.22 37.5031 72.8591 37.7781C72.3434 38.2078 72.3434 39.0672 72.8591 39.5828C73.22 39.9437 73.3747 39.9609 77.0872 40.0125L80.9544 40.0641V43.1578V46.2344L64.7637 46.2L48.5559 46.1484L48.5044 43.1063L48.47 40.0641L57.3044 40.0125L66.1559 39.9609L66.5341 39.5828C67.0497 39.0672 67.0497 38.2078 66.5341 37.7781C66.1559 37.4859 65.6231 37.4688 56.9091 37.4688H47.6966L47.0606 37.8984C45.9778 38.6203 45.8575 39.2562 45.9262 43.45C45.9778 46.8187 45.995 47.1109 46.3387 47.5578C46.8544 48.2453 47.6106 48.6406 48.6247 48.7609L49.5012 48.8641V50.1016V51.3391L48.47 51.4594C47.5934 51.5625 47.3356 51.6828 46.7684 52.2156C45.9091 53.0406 45.8059 53.6422 45.9434 57.6125L46.0466 60.6719H24.3044H2.57937V39.1875V17.7031H43.9153H85.2512V39.1875ZM77.345 50.1016V51.3906H64.7122H52.0794V50.1016V48.8125H64.7122H77.345V50.1016ZM80.9544 57.0625V60.1562H64.7122H48.47V57.1828C48.47 55.5328 48.5216 54.1406 48.5903 54.0891C48.6419 54.0203 55.9637 53.9688 64.8325 53.9688H80.9544V57.0625ZM77.345 64.1094V65.4844H64.7122H52.0794V64.1094V62.7344H64.7122H77.345V64.1094ZM85.2512 66.0859C85.2512 69.2656 85.0794 69.9016 84.0481 70.6406L83.5325 71.0016V69.2656C83.5325 67.8734 83.4637 67.4094 83.1887 66.8594C82.7591 66.0172 81.7966 65.4844 80.6966 65.4844H79.9231V64.3672V63.25H82.5872H85.2512V66.0859ZM80.9544 71.1562V74.25H64.7122H48.47V71.1562V68.0625H64.7122H80.9544V71.1562ZM45.9778 74.5938C46.0466 74.9891 46.3044 75.5391 46.545 75.8313C47.3012 76.725 47.7825 76.8281 51.3919 76.8281H54.6575V77.6016V78.375H44.0012H33.345V76.1406V73.9062H39.6012H45.8575L45.9778 74.5938ZM61.8591 81.2625C62.8731 81.7609 63.1653 82.3281 63.2341 83.9781L63.2856 85.4219H44.0184H24.7512V84.0469C24.7512 82.1906 25.1981 81.3828 26.3841 81.0734C26.5731 81.0391 34.4966 80.9875 44.0012 80.9703C60.1231 80.9531 61.3091 80.9703 61.8591 81.2625Z" fill="#05568D"/>
<path d="M7.99297 5.46521C6.54922 6.15271 5.79297 7.33865 5.79297 8.93709C5.79297 11.4465 8.11328 13.1824 10.5539 12.4777C13.6133 11.584 14.1805 7.51053 11.4992 5.72303C10.5539 5.10428 9.00703 5.00115 7.99297 5.46521ZM10.3133 8.07771C10.9492 8.71365 10.6742 9.69334 9.74609 10.0199C9.05859 10.2777 8.11328 9.3324 8.37109 8.6449C8.69766 7.71678 9.67734 7.44178 10.3133 8.07771Z" fill="#05568D"/>
<path d="M17.6176 5.46592C14.7301 6.82373 14.627 10.8456 17.4458 12.2378C18.8723 12.9425 20.6083 12.6847 21.7083 11.5847C23.4442 9.84873 23.1692 7.08155 21.1239 5.72373C20.1958 5.10498 18.6317 5.00186 17.6176 5.46592ZM19.938 8.07842C20.5739 8.71436 20.2989 9.69405 19.3708 10.0206C18.6833 10.2784 17.738 9.33311 17.9958 8.64561C18.3223 7.71748 19.302 7.44248 19.938 8.07842Z" fill="#05568D"/>
<path d="M27.2426 5.46592C24.3551 6.82373 24.252 10.8456 27.0708 12.2378C28.4973 12.9425 30.2333 12.6847 31.3333 11.5847C33.0692 9.84873 32.7942 7.08155 30.7489 5.72373C29.8208 5.10498 28.2567 5.00186 27.2426 5.46592ZM29.563 8.07842C30.302 8.81748 29.7692 10.0206 28.6864 10.0206C27.7067 10.0206 27.2255 8.98936 27.8442 8.19873C28.2911 7.63155 29.0645 7.57998 29.563 8.07842Z" fill="#05568D"/>
<path d="M8.30336 24.0965C6.05179 26.2965 5.55336 27.0183 5.82836 27.7058C6.08617 28.3246 10.3315 32.4496 10.8643 32.5699C11.2424 32.673 11.4315 32.5871 11.8784 32.1574C12.6518 31.384 12.4799 30.9715 10.5205 29.0121L8.85336 27.3277L10.4346 25.7465C11.294 24.8699 12.0846 23.9761 12.1877 23.7699C12.6002 22.9449 11.9471 21.9996 10.9502 21.9996C10.5549 21.9996 10.0393 22.3949 8.30336 24.0965Z" fill="#05568D"/>
<path d="M16.7246 22.3785C16.2949 22.8597 13.2012 30.766 13.2012 31.3847C13.2012 32.3816 14.5934 32.9316 15.2809 32.2097C15.6246 31.866 18.9074 23.616 18.9074 23.1347C18.9074 22.98 18.7184 22.6535 18.4777 22.43C17.9449 21.88 17.1887 21.8628 16.7246 22.3785Z" fill="#05568D"/>
<path d="M19.7832 22.4473C19.13 23.2895 19.2847 23.6161 21.1753 25.5411L22.9285 27.3286L21.1753 29.1161C19.4222 30.8864 19.216 31.2645 19.5941 31.952C19.68 32.1239 19.9722 32.3645 20.2644 32.4676C21.0035 32.777 21.416 32.502 23.8566 30.027C26.6753 27.1739 26.6925 27.4489 23.5816 24.3551C21.5535 22.327 21.141 22.0005 20.6769 22.0005C20.2988 22.0005 20.0238 22.1379 19.7832 22.4473Z" fill="#05568D"/>
<path d="M28.9966 25.987C28.5497 26.348 28.3607 27.0355 28.6013 27.5167C28.9622 28.2558 29.4435 28.3761 32.1935 28.3245C34.6513 28.273 34.7716 28.2558 35.081 27.8605C35.5278 27.3105 35.4935 26.6058 35.0122 26.1589C34.6341 25.798 34.445 25.7808 31.9528 25.7808C30.0794 25.7808 29.2028 25.8495 28.9966 25.987Z" fill="#05568D"/>
<path d="M38.4506 25.97C37.6428 26.4512 37.7631 27.809 38.6397 28.17C38.9662 28.3075 43.16 28.359 52.9912 28.3246L66.8959 28.2731L67.2225 27.8606C67.6694 27.3106 67.635 26.6059 67.1537 26.159L66.7584 25.7809H52.7506C43.2975 25.7981 38.6569 25.8496 38.4506 25.97Z" fill="#05568D"/>
<path d="M28.9966 31.6589C28.5497 32.0199 28.3607 32.7074 28.6013 33.1886C28.9966 33.9964 29.306 34.0308 34.5997 33.9964L39.5669 33.9449L39.8935 33.5324C40.3404 32.9824 40.306 32.2777 39.8247 31.8308C39.4294 31.4527 39.3263 31.4527 34.3591 31.4527C30.5607 31.4527 29.22 31.5042 28.9966 31.6589Z" fill="#05568D"/>
<path d="M42.575 31.642C42.0938 31.917 41.8875 32.6389 42.1282 33.2061C42.4032 33.8936 43.1938 34.0655 45.6172 33.9967C47.5079 33.9452 47.6625 33.9108 47.9719 33.5327C48.4188 32.9827 48.3844 32.278 47.9032 31.8311C47.525 31.4874 47.336 31.453 45.1875 31.453C43.8985 31.453 42.7469 31.5389 42.575 31.642Z" fill="#05568D"/>
<path d="M50.4819 31.6422C49.6397 32.1406 49.7944 33.5156 50.7397 33.8422C51.0835 33.9625 53.3179 34.0312 56.7554 34.0312C61.2241 34.0312 62.3241 33.9797 62.7194 33.7734C63.5272 33.3609 63.6819 32.4328 63.0288 31.8312C62.6335 31.4531 62.5476 31.4531 56.7038 31.4531C52.8882 31.4703 50.6882 31.5219 50.4819 31.6422Z" fill="#05568D"/>
<path d="M6.87668 37.9848C6.41262 38.4489 6.42981 39.377 6.89387 39.8067C7.22043 40.0989 7.61574 40.1333 11.5861 40.1848C16.3642 40.2364 16.8626 40.202 17.3611 39.6692C17.8079 39.1879 17.7907 38.6723 17.3439 38.0879L17.0001 37.6411H12.1017C7.44387 37.6411 7.20324 37.6583 6.87668 37.9848Z" fill="#05568D"/>
<path d="M20.2829 37.9844C19.8189 38.4484 19.8361 39.3766 20.3001 39.8063C20.6439 40.1156 21.0392 40.1328 28.8251 40.1328H36.9892L37.3157 39.7203C37.7626 39.1703 37.7282 38.4656 37.247 38.0187C36.8517 37.6406 36.8345 37.6406 28.7392 37.6406C20.8501 37.6406 20.6095 37.6578 20.2829 37.9844Z" fill="#05568D"/>
<path d="M51.1505 42.1437C50.5318 42.7109 50.4802 43.4328 51.0474 44C51.374 44.3266 51.6146 44.3438 54.9661 44.3438C58.3349 44.3438 58.5755 44.3266 58.9193 44C59.4693 43.4844 59.4349 42.5906 58.8505 42.1266C58.4208 41.7828 58.163 41.7656 54.9833 41.7656C51.7005 41.7656 51.563 41.7828 51.1505 42.1437Z" fill="#05568D"/>
<path d="M61.9284 41.9375C61.1378 42.2641 60.9488 43.3641 61.5847 43.9656C61.9284 44.2922 62.1863 44.3438 63.4753 44.3438C65.2113 44.3438 65.6581 44.0859 65.6581 43.0719C65.6581 42.1266 65.0394 41.7656 63.5269 41.7828C62.8566 41.7828 62.1347 41.8516 61.9284 41.9375Z" fill="#05568D"/>
<path d="M68.2866 41.9375C67.4788 42.2641 67.3241 43.2781 67.9772 43.9141L68.3897 44.3438H73.2194H78.0491L78.4616 43.9141C78.7022 43.6906 78.8913 43.3812 78.8913 43.2437C78.8913 42.7625 78.5132 42.1437 78.0835 41.9547C77.585 41.7313 68.8538 41.7141 68.2866 41.9375Z" fill="#05568D"/>
<path d="M7.39213 43.0891C6.51557 43.4156 6.22338 44.55 6.8765 45.2031C7.18588 45.5125 7.44369 45.5469 9.60932 45.5469C11.9984 45.5469 12.0156 45.5469 12.3593 45.1C12.9781 44.3094 12.7374 43.5016 11.7921 43.1406C11.3109 42.9688 7.85619 42.9172 7.39213 43.0891Z" fill="#05568D"/>
<path d="M15.555 43.1234C14.6613 43.5016 14.4206 44.6703 15.1081 45.2375C15.4863 45.5297 15.9331 45.5469 21.4847 45.5469C26.9331 45.5469 27.5003 45.5125 27.8269 45.2375C28.3425 44.825 28.3597 43.9313 27.8613 43.4328C27.5003 43.0547 27.3972 43.0547 21.691 43.0203C18.5113 43.0031 15.7441 43.0547 15.555 43.1234Z" fill="#05568D"/>
<path d="M31.1968 43.175C30.3374 43.6391 30.1655 44.55 30.8186 45.1687C31.1796 45.4953 31.403 45.5469 32.864 45.5469C34.4452 45.5469 34.5311 45.5297 34.8749 45.1C35.0811 44.8422 35.2358 44.5328 35.2358 44.4125C35.2358 43.9141 34.8061 43.3125 34.3249 43.1406C33.6546 42.9172 31.6436 42.9344 31.1968 43.175Z" fill="#05568D"/>
<path d="M37.5206 43.1406C36.7472 43.45 36.5409 44.6187 37.1253 45.2031C37.4347 45.5125 37.6925 45.5469 40.0987 45.5469C42.6425 45.5469 42.7456 45.5297 43.1065 45.1516C43.5706 44.6531 43.5878 44 43.1581 43.4672C42.8487 43.0719 42.7284 43.0547 40.3565 43.0203C39.0159 43.0031 37.7268 43.0547 37.5206 43.1406Z" fill="#05568D"/>
<path d="M6.87668 48.8125C6.41262 49.2766 6.42981 50.2047 6.89387 50.6344C7.22043 50.9266 7.56418 50.9609 11.122 50.9609C14.972 50.9609 14.9892 50.9609 15.3157 50.5484C15.7454 50.0328 15.7282 49.2422 15.2986 48.8125C14.972 48.4859 14.7314 48.4688 11.0876 48.4688C7.44387 48.4688 7.20324 48.4859 6.87668 48.8125Z" fill="#05568D"/>
<path d="M17.4464 48.8125C17.0167 49.2937 17.0511 50.1187 17.5152 50.5828C17.8761 50.9609 17.9792 50.9609 22.6886 50.9609C27.398 50.9609 27.5011 50.9609 27.8621 50.5828C28.3777 50.0672 28.3777 49.2078 27.8621 48.7781C27.5011 48.4859 27.0714 48.4688 22.6027 48.4688C17.9621 48.4688 17.7386 48.4859 17.4464 48.8125Z" fill="#05568D"/>
<path d="M30.5781 48.7782C30.0625 49.2078 30.0625 50.0672 30.5781 50.5828C30.9391 50.961 31.0422 50.961 36.5766 51.0125C39.6703 51.0469 42.4547 51.0125 42.7641 50.961C43.9156 50.7547 44.3797 49.6203 43.6578 48.8469C43.2969 48.4688 43.2625 48.4688 37.1437 48.4688C31.4031 48.4688 30.9562 48.486 30.5781 48.7782Z" fill="#05568D"/>
<path d="M51.1679 56.0656C50.4632 56.6156 50.5148 57.6813 51.2882 58.1797C51.6491 58.4203 52.1991 58.4547 55.1382 58.4031C58.232 58.3516 58.6101 58.3172 58.9366 58.025C59.4179 57.5781 59.4179 56.6672 58.9195 56.2031C58.5757 55.8766 58.3351 55.8594 55.0007 55.8594C52.4398 55.8594 51.3741 55.911 51.1679 56.0656Z" fill="#05568D"/>
<path d="M61.5665 56.255C61.1024 56.7534 61.0853 57.4065 61.5149 57.9394C61.8071 58.3003 62.0134 58.3519 63.2853 58.4034C64.5399 58.455 64.7634 58.4206 65.1931 58.094C65.7774 57.63 65.829 56.719 65.3134 56.2034C65.0212 55.9112 64.7462 55.8597 63.4571 55.8597C62.0821 55.8597 61.8931 55.894 61.5665 56.255Z" fill="#05568D"/>
<path d="M67.9087 56.3067C67.4618 56.8739 67.4446 57.4239 67.8743 57.9395L68.2009 58.352L72.8931 58.4036C77.8946 58.4551 78.3587 58.4036 78.7024 57.6473C78.9774 57.0114 78.9431 56.7536 78.4618 56.2895L78.0493 55.8598H73.1509H68.2524L67.9087 56.3067Z" fill="#05568D"/>
<path d="M51.6322 69.9016C50.7213 70.0734 50.3431 71.3281 50.9619 72.0156C51.2541 72.3422 51.4775 72.3594 54.9494 72.3594C58.3869 72.3594 58.6275 72.3422 58.9541 72.0156C59.6416 71.3281 59.315 70.2453 58.3009 69.9531C57.6994 69.7984 52.4228 69.7469 51.6322 69.9016Z" fill="#05568D"/>
<path d="M62.1679 69.9531C61.2054 70.2625 60.8788 71.2766 61.532 71.9812C61.8413 72.3078 62.0648 72.3594 63.3882 72.3594C65.2445 72.3594 65.657 72.1359 65.657 71.1734C65.657 70.2281 65.2445 69.9188 63.8179 69.85C63.1648 69.8156 62.4257 69.8672 62.1679 69.9531Z" fill="#05568D"/>
<path d="M68.5286 69.9531C67.5318 70.2625 67.2396 71.3109 67.9443 71.9812C68.3396 72.3594 68.4427 72.3594 73.2552 72.3594H78.188L78.5318 71.9125C78.9958 71.3109 78.9786 70.9328 78.4802 70.3484L78.0677 69.8672L73.5302 69.8328C71.0552 69.8156 68.7865 69.8672 68.5286 69.9531Z" fill="#05568D"/>
</g>
<defs>
<clipPath id="clip0_1430_3768">
<rect width="88" height="88" fill="white"/>
</clipPath>
</defs>
</svg>
