<!DOCTYPE svg PUBLIC "-//W3C//DTD SVG 1.1//EN" "http://www.w3.org/Graphics/SVG/1.1/DTD/svg11.dtd">
<!-- Uploaded to: SVG Repo, www.svgrepo.com, Transformed by: SVG Repo Mixer Tools -->
<svg width="800px" height="800px" viewBox="0 0 24 24" xmlns="http://www.w3.org/2000/svg" fill="#05568D" stroke="#05568D" stroke-width="0.00024000000000000003">
<g id="SVGRepo_bgCarrier" stroke-width="0"/>
<g id="SVGRepo_tracerCarrier" stroke-linecap="round" stroke-linejoin="round"/>
<g id="SVGRepo_iconCarrier">
<path d="M20,5V8H18V5H7V16H18V13h2v3a2,2,0,0,1-2,2H14v3H12V18H10v3H8V18H7a2,2,0,0,1-2-2V15H4V12H5V9H4V6H5V5A2,2,0,0,1,7,3H18A2,2,0,0,1,20,5Zm-2,7h2V9H18Zm-3-2H13V7l-3,4h2v3Z"/>
<rect width="24" height="24" fill="none"/>
</g>
</svg>