<svg width="88" height="88" viewBox="0 0 88 88" fill="none" xmlns="http://www.w3.org/2000/svg">
<path d="M77.9187 87.9999H52.1383C51.8971 88 51.6583 87.9525 51.4355 87.86C51.2128 87.7675 51.0105 87.6318 50.8403 87.4609L28.217 64.7239C27.8753 64.3797 27.6836 63.9145 27.6836 63.4295C27.6836 62.9446 27.8753 62.4793 28.217 62.1352L50.844 39.4459C51.1891 39.1 51.6571 38.9049 52.1457 38.9032H77.9187C78.279 38.9067 78.6304 39.0159 78.9293 39.2172C79.2282 39.4185 79.4614 39.7032 79.6 40.0358C79.7386 40.3685 79.7765 40.7345 79.709 41.0885C79.6415 41.4425 79.4716 41.7689 79.2203 42.0272L57.917 63.4332L79.2203 84.8685C79.4776 85.1252 79.6528 85.4525 79.7237 85.8089C79.7946 86.1653 79.758 86.5347 79.6185 86.8703C79.479 87.2058 79.243 87.4923 78.9403 87.6935C78.6377 87.8946 78.2821 88.0012 77.9187 87.9999ZM52.901 84.3332H73.5113L54.0303 64.7312C53.6889 64.3877 53.4972 63.923 53.4972 63.4387C53.4972 62.9544 53.6889 62.4897 54.0303 62.1462L73.5077 42.5735H52.9047L32.1037 63.4332L52.901 84.3332ZM23.0213 58.8352C22.7801 58.8354 22.5413 58.7878 22.3185 58.6953C22.0958 58.6028 21.8935 58.4672 21.7233 58.2962L8.78735 45.2942C8.44566 44.9501 8.25391 44.4848 8.25391 43.9999C8.25391 43.5149 8.44566 43.0497 8.78735 42.7055L50.7963 0.538871C51.2547 0.0805374 51.8963 -0.0844626 52.4793 0.040204H77.8637C78.224 0.0436813 78.5754 0.152861 78.8743 0.354202C79.1732 0.555543 79.4064 0.840188 79.545 1.17284C79.6836 1.50548 79.7215 1.8715 79.654 2.22549C79.5865 2.57949 79.4166 2.90588 79.1653 3.1642L24.323 58.2962C24.1523 58.4674 23.9494 58.6032 23.726 58.6957C23.5026 58.7882 23.2631 58.8356 23.0213 58.8352ZM12.674 43.9999L23.025 54.4022L73.4527 3.70687H52.813L12.674 43.9999Z" fill="#05568D"/>
</svg>
