<svg width="88" height="88" viewBox="0 0 88 88" fill="none" xmlns="http://www.w3.org/2000/svg">
<path d="M18.8719 3.85C17.1359 4.46875 15.9156 5.56875 15.1422 7.21875L14.6953 8.16406L14.6438 20.9172L14.6094 33.6531L11.6359 33.7219C8.74844 33.7734 8.64531 33.7906 7.5625 34.3062C6.13594 34.9766 4.89844 36.2141 4.22813 37.6406L3.69531 38.7578L3.64375 48.3312L3.59219 57.9047L2.92188 58.1109C2.04531 58.3859 0.945312 59.3141 0.464063 60.225C0.0859375 60.9297 0.0859375 60.9984 0.0859375 69.0938V77.275L0.532813 78.1172C1.01406 79.0797 2.09687 79.9906 3.05938 80.2656C3.45469 80.3688 6.99531 80.4375 12.6328 80.4375H21.5703L22.4297 80.025C23.375 79.5953 24.3203 78.6328 24.6812 77.7562C24.8703 77.2922 24.9219 75.5906 24.9219 69.1453C24.9219 60.1734 24.9391 60.3625 23.7016 59.1422C22.5328 57.9562 22.3438 57.9219 16.5516 57.9219H11.3438V55.6187C11.3438 53.4531 11.3094 53.2641 10.9484 52.8687C10.3984 52.25 9.67656 52.1984 9.10938 52.7656C8.8 53.075 8.76562 53.3328 8.76562 55.5156V57.9219H7.47656H6.1875V48.8812C6.1875 42.2812 6.23906 39.6344 6.39375 39.1187C6.66875 38.1734 8.09531 36.7469 9.04063 36.4719C9.45312 36.3516 10.7766 36.2656 12.1859 36.2656H14.6094V37.5547V38.8438H12.1859H9.7625L9.26406 39.3422L8.76562 39.8406V43.9141C8.76562 46.4406 8.83438 48.1078 8.95469 48.3141C9.38438 49.1391 10.7594 49.0703 11.1547 48.1937C11.275 47.9188 11.3438 46.5781 11.3438 44.6016V41.4219H12.9594H14.575L14.6438 44.2922C14.6953 46.9906 14.7297 47.2484 15.1594 48.1594C15.7609 49.4484 16.775 50.5312 17.9953 51.15L18.9922 51.6484L29.1844 51.7L39.3594 51.7516V56.8047V61.8578L36.5578 61.9094C33.7734 61.9609 33.7391 61.9609 32.8969 62.4766C31.9516 63.0609 31.0578 64.3844 30.8688 65.4328C30.7313 66.275 30.7313 79.9906 30.8688 80.8328C31.0578 81.8812 31.9516 83.2047 32.8969 83.7891L33.7391 84.3047L39.4109 84.3562C45.0656 84.4078 45.0828 84.4078 45.4781 84.0297C46.0281 83.5141 46.0109 82.775 45.4609 82.2422L45.0484 81.8125H39.8063H34.5469L33.9969 81.3141L33.4297 80.8156V73.1328V65.45L33.9969 64.9516L34.5469 64.4531H43.3125H52.0781L52.6281 64.9516L53.1953 65.45V73.1156V80.7812L52.7313 81.2453C52.3531 81.6234 52.0438 81.7266 51.1156 81.8297C49.8609 81.95 49.5688 82.1562 49.3969 82.9641C49.3109 83.4109 49.3797 83.6 49.7234 83.9437C50.1188 84.3391 50.3078 84.3906 51.2531 84.3906C53.1609 84.3734 54.4156 83.6687 55.275 82.1219L55.7734 81.2109L55.825 73.9062C55.8594 69.8844 55.8422 66.2062 55.7734 65.725C55.6188 64.4703 54.7766 63.1297 53.7281 62.4766C52.8859 61.9609 52.8344 61.9609 50.0328 61.875L47.1797 61.7891V56.8047V51.8203L58.0938 51.7344L69.0078 51.6484L69.9703 51.1672C71.1562 50.6 72.2391 49.4656 72.8406 48.1594C73.2703 47.2484 73.3047 46.9906 73.3563 44.2922L73.425 41.4219H75.0406H76.6562V49.6719V57.9219H71.4656C65.6562 57.9219 65.4672 57.9562 64.2984 59.1422C63.0609 60.3625 63.0781 60.1734 63.0781 69.1453C63.0781 75.5906 63.1297 77.2922 63.3188 77.7562C63.6797 78.6328 64.625 79.5953 65.5703 80.025L66.4297 80.4375H75.3672C81.0047 80.4375 84.5453 80.3688 84.9406 80.2656C85.9031 79.9906 86.9859 79.0797 87.4672 78.1172L87.9141 77.275V69.0938C87.9141 60.9984 87.9141 60.9297 87.5359 60.225C87.0547 59.3141 85.9547 58.3859 85.0781 58.1109L84.4078 57.9047L84.3563 48.3312L84.3047 38.7578L83.7719 37.6406C83.1016 36.2141 81.8641 34.9766 80.4375 34.3062C79.3547 33.7906 79.2516 33.7734 76.3641 33.7219L73.3906 33.6531V30.2328C73.3906 26.8125 73.3906 26.7953 72.9609 26.3828C72.4625 25.8672 71.8609 25.8328 71.3109 26.2797L70.8984 26.6062L70.8125 36.7469L70.7266 46.8875L70.2109 47.6437C69.9016 48.0734 69.3688 48.5375 68.9219 48.7609L68.1656 49.1562H44H19.8344L19.0781 48.7609C18.6313 48.5375 18.0984 48.0734 17.7891 47.6437L17.2734 46.8875L17.2219 34.4437L17.1875 22H31.7797C41.9375 22 46.6641 21.9484 47.3 21.8109C48.5375 21.5531 49.3453 21.1062 52.5938 18.9922C57.0109 16.1047 55.6703 16.4141 63.8172 16.3625L70.8125 16.3109V18.9922C70.8125 21.6047 70.8297 21.6734 71.2422 22.0859C71.775 22.6359 72.4281 22.6359 72.9781 22.0859L73.4078 21.6562L73.3563 14.9016L73.3047 8.16406L72.7375 7.0125C72.1188 5.74062 71.1047 4.74375 69.8156 4.09062L69.0078 3.69531L44.2578 3.66093C24.1828 3.62656 19.3875 3.66093 18.8719 3.85ZM68.9391 6.58281C69.3516 6.80625 69.9359 7.32188 70.2109 7.71719C70.7266 8.43906 70.7266 8.47343 70.7781 11.0859L70.8297 13.7328L63.6453 13.7844C56.7188 13.8359 56.4266 13.8531 55.55 14.2141C55.0516 14.4203 53.1266 15.5719 51.2875 16.7578C49.4656 17.9609 47.5922 19.0437 47.1625 19.1813C46.4922 19.3875 43.8109 19.4219 31.7625 19.4219H17.1703L17.2219 13.9391L17.2734 8.45625L17.7891 7.71719C18.0813 7.32188 18.6484 6.80625 19.0609 6.58281L19.8172 6.1875H44H68.1828L68.9391 6.58281ZM78.9594 36.4719C79.9047 36.7469 81.3313 38.1734 81.6063 39.1187C81.7609 39.6344 81.8125 42.2812 81.8125 48.8812V57.9219H80.5234H79.2344V48.8812V39.8406L78.7359 39.3422L78.2375 38.8438H75.8141H73.3906V37.5547V36.2656H75.8141C77.2234 36.2656 78.5469 36.3516 78.9594 36.4719ZM44.5156 56.8047V61.8922L43.2781 61.8406L42.0234 61.7891L41.9719 56.9766C41.9547 54.3297 41.9719 52.0781 42.0234 51.9578C42.075 51.8031 42.4875 51.7344 43.3125 51.7344H44.5156V56.8047ZM21.8453 60.9984L22.3438 61.4969V69.1797V76.8625L21.8453 77.3609L21.3469 77.8594H12.6328C3.12812 77.8594 3.17969 77.8594 2.76719 76.8797C2.62969 76.5187 2.57812 74.3187 2.6125 68.8531L2.66406 61.325L3.14531 60.9125L3.62656 60.5H12.4781H21.3469L21.8453 60.9984ZM84.8547 60.9125L85.3359 61.325L85.3875 68.8531C85.4219 74.3187 85.3703 76.5187 85.2328 76.8797C84.8203 77.8594 84.8719 77.8594 75.3672 77.8594H66.6531L66.1547 77.3609L65.6562 76.8625V69.1797V61.4969L66.1547 60.9984L66.6531 60.5H75.5219H84.3734L84.8547 60.9125Z" fill="#05568D"/>
<path d="M23.0147 8.64553C19.6803 9.59084 18.5288 13.8533 20.9694 16.294C23.8569 19.1987 28.7897 17.1533 28.7725 13.0627C28.7553 11.7565 28.4631 10.9487 27.6038 10.0033C26.4694 8.76584 24.6131 8.19866 23.0147 8.64553ZM25.4038 11.4471C25.6272 11.6018 25.9366 11.9971 26.0741 12.3408C26.435 13.2002 26.1084 14.1799 25.2834 14.7299C24.2866 15.4002 23.2725 15.1768 22.5678 14.1112C22.0866 13.3893 22.0694 12.8049 22.5163 12.0658C23.135 11.0518 24.3897 10.7768 25.4038 11.4471Z" fill="#05568D"/>
<path d="M33.6867 8.64495C31.3836 9.28089 30.0945 11.1371 30.3008 13.509C30.593 17.2731 35.1477 19.0262 37.9492 16.4481C39.1695 15.3309 39.6852 13.2168 39.1352 11.6184C38.3789 9.38401 35.8867 8.0262 33.6867 8.64495ZM36.2305 11.7903C37.657 13.3028 36.1274 15.6231 34.1336 14.9528C32.8102 14.5231 32.4149 12.8731 33.343 11.7903C34.2024 10.8278 35.3024 10.8278 36.2305 11.7903Z" fill="#05568D"/>
<path d="M6.63438 63.783C6.30781 64.0408 6.1875 64.2814 6.1875 64.7455C6.1875 65.2955 6.37656 65.5533 8.07812 67.2721L9.96875 69.1971L8.07812 71.0705C6.37656 72.7721 6.1875 73.0127 6.1875 73.5799C6.1875 74.3361 6.66875 74.8174 7.40781 74.8174C7.87188 74.8174 8.30156 74.4564 10.5016 72.2564C12.65 70.0908 13.0625 69.5924 13.0625 69.1627C13.0625 68.733 12.65 68.2346 10.4328 66.0346C8.76562 64.3846 7.66562 63.4221 7.44219 63.4221C7.25313 63.4221 6.89219 63.5768 6.63438 63.783Z" fill="#05568D"/>
<path d="M14.6446 68.2859C14.1461 68.8187 14.1633 69.5234 14.6961 70.0391C15.0914 70.4516 15.2118 70.4688 17.2571 70.4688C18.4946 70.4688 19.5946 70.3828 19.8352 70.2797C20.6774 69.8844 20.7461 68.4922 19.9555 68.0797C19.7664 67.9766 18.6149 67.8906 17.3086 67.8906C15.1258 67.8906 14.9883 67.9078 14.6446 68.2859Z" fill="#05568D"/>
<path d="M69.5238 63.8517C68.7332 64.6251 68.905 65.0032 70.9847 67.1173C72.0332 68.1657 72.8754 69.0938 72.8754 69.1798C72.8754 69.2657 72.0332 70.1938 70.9847 71.2423C69.9535 72.3079 69.0941 73.2876 69.0941 73.4423C69.0941 74.4392 70.0222 75.0579 70.916 74.6798C71.191 74.5595 72.4457 73.4251 73.6832 72.1704C75.4019 70.4345 75.9863 69.7298 76.0722 69.3001C76.1925 68.7501 76.1066 68.647 73.5457 66.0688C70.641 63.1813 70.3488 63.0095 69.5238 63.8517Z" fill="#05568D"/>
<path d="M77.6866 68.2344C77.171 68.75 77.2226 69.6609 77.7898 70.1078C78.2023 70.4344 78.4773 70.4688 80.471 70.4688C82.6023 70.4688 82.7054 70.4516 83.1007 70.0391C83.6507 69.5062 83.6679 68.7672 83.1351 68.2687C82.757 67.925 82.5679 67.8906 80.3851 67.8906C78.2538 67.8906 77.996 67.925 77.6866 68.2344Z" fill="#05568D"/>
<path d="M43.1407 25.0589C42.8313 25.3167 42.5907 26.3651 41.3016 33.1886C40.3735 38.173 39.875 41.198 39.9438 41.4901C40.0813 42.0401 40.9578 42.487 41.4907 42.2808C42.2469 42.0058 42.4016 41.4042 43.811 33.8589C44.5844 29.7511 45.2032 26.1761 45.2032 25.9355C45.2032 24.973 43.9313 24.423 43.1407 25.0589Z" fill="#05568D"/>
<path d="M34.168 30.3875C30.8164 33.7391 30.8164 33.3094 34.168 36.6609C36.3852 38.8781 36.7633 39.1875 37.2617 39.1875C37.9664 39.1875 38.4992 38.6719 38.4992 37.95C38.4992 37.5031 38.207 37.125 36.5742 35.4578L34.6492 33.5156L36.5742 31.5734C38.207 29.9234 38.4992 29.5625 38.4992 29.0984C38.4992 28.7203 38.3617 28.4453 38.0523 28.2047C37.1586 27.5 36.9008 27.6375 34.168 30.3875Z" fill="#05568D"/>
<path d="M46.7839 28.2391C46.0277 29.0469 46.2339 29.4594 48.3308 31.5734L50.2558 33.5156L48.3308 35.4578C46.698 37.125 46.4058 37.5031 46.4058 37.95C46.4058 38.6719 46.9386 39.1875 47.6605 39.1875C48.1417 39.1875 48.5199 38.8781 50.7542 36.6437C54.0886 33.3094 54.0886 33.7391 50.7371 30.3875C48.5886 28.2219 48.1246 27.8438 47.6777 27.8438C47.3511 27.8438 47.0074 27.9984 46.7839 28.2391Z" fill="#05568D"/>
<path d="M37.3828 67.8046C37.1078 68.0624 36.9531 68.4062 36.9531 68.7499C36.9531 69.214 37.2453 69.5921 38.8266 71.2077L40.7172 73.1327L38.8266 75.0405C37.2969 76.5874 36.9531 77.0343 36.9531 77.4468C36.9531 78.5124 37.8984 79.1312 38.8094 78.6499C39.0672 78.5124 40.3047 77.3609 41.5594 76.089C43.6734 73.9405 43.8281 73.7515 43.8281 73.1327C43.8281 72.514 43.6734 72.3249 41.5594 70.1765C38.6547 67.2374 38.1906 66.9796 37.3828 67.8046Z" fill="#05568D"/>
<path d="M45.4265 72.2906C45.0828 72.6344 45.014 72.8234 45.1 73.2703C45.289 74.2844 45.65 74.4219 48.2453 74.4219C50.4625 74.4219 50.5656 74.4047 50.9609 73.9922C51.2015 73.7688 51.3906 73.3734 51.3906 73.1328C51.3906 72.8922 51.2015 72.4969 50.9609 72.2734C50.5656 71.8609 50.4625 71.8438 48.2109 71.8438C45.925 71.8438 45.8562 71.8609 45.4265 72.2906Z" fill="#05568D"/>
</svg>
