<svg width="88" height="88" viewBox="0 0 88 88" fill="none" xmlns="http://www.w3.org/2000/svg">
<path d="M11.2574 2.40673C8.0949 2.87079 5.17303 4.52079 3.00741 7.06454C2.06209 8.16454 1.01366 10.1583 0.480843 11.8599L0.0855306 13.1489V35.2349C0.0855306 60.1395 -0.0175943 58.1286 1.46053 61.102C2.31991 62.8552 3.26522 64.0755 4.72616 65.313C6.37615 66.7052 9.31522 68.063 10.673 68.063C11.1715 68.063 11.859 67.3755 11.859 66.877C11.8418 66.138 11.4293 65.777 9.86522 65.227C9.00584 64.9177 7.85428 64.3849 7.32147 64.0239C5.17303 62.5974 3.36834 59.9677 2.83553 57.4755C2.45741 55.7224 2.45741 14.9364 2.83553 13.1833C3.26522 11.1724 4.15897 9.57391 5.74022 7.99267C7.21834 6.54892 8.43865 5.80985 10.398 5.20829C11.3777 4.91611 13.0105 4.89892 44.0855 4.89892H76.7418L78.1168 5.36298C81.6402 6.5661 84.4246 9.64267 85.1636 13.1661C85.3699 14.163 85.4215 17.6177 85.4215 35.3208C85.4215 58.5755 85.4558 57.5786 84.2699 59.9849C83.3933 61.7724 81.3652 63.7833 79.5777 64.6599C77.034 65.8974 79.0449 65.8286 45.409 65.8286H15.1762L14.8152 66.2239C14.2824 66.7911 14.3168 67.5989 14.884 68.0458C15.3308 68.3895 15.5199 68.4067 21.8449 68.4067H28.359V71.0536V73.7005L26.348 73.7692C24.6637 73.8208 24.1824 73.8895 23.5121 74.2161C22.2402 74.852 21.209 75.8661 20.5902 77.138C20.0918 78.152 20.023 78.4442 20.023 79.6645C20.0402 80.7989 20.109 81.2114 20.5043 82.0708C21.123 83.4114 22.2918 84.5802 23.6152 85.1989L24.6637 85.6802L43.484 85.7317C56.2199 85.7661 62.5793 85.7145 63.1808 85.5942C65.0199 85.2161 66.6699 83.8583 67.4777 82.088C68.1652 80.6099 68.1652 78.7192 67.5121 77.3099C66.9105 76.0208 65.8277 74.8864 64.6418 74.302C63.7824 73.8724 63.4558 73.8208 61.6683 73.752L59.6402 73.7005V71.0708V68.4239L68.3715 68.3724C76.8449 68.3036 77.1199 68.2864 78.3746 67.9083C82.7574 66.5849 85.834 63.6114 87.3636 59.2114L87.9136 57.6645V35.4067V13.1489L87.5183 11.8599C86.0918 7.32236 82.8777 4.10829 78.3402 2.7161L77.0855 2.32079L44.6012 2.3036C26.7433 2.28642 11.7215 2.33798 11.2574 2.40673ZM57.0277 71.0192L56.9762 73.6489H43.9996H31.023L30.9715 71.0192L30.9199 68.4067H43.9996H57.0793L57.0277 71.0192ZM63.5933 76.6567C64.6074 77.1724 65.484 78.5645 65.484 79.6474C65.484 81.0224 64.2808 82.638 62.9918 82.9989C62.0293 83.2567 25.9699 83.2567 25.0074 82.9989C23.7183 82.638 22.5152 81.0224 22.5152 79.6474C22.5152 78.5817 23.3746 77.1895 24.3715 76.6567C24.9902 76.3302 25.5058 76.3302 43.9652 76.313C62.5621 76.313 62.9402 76.313 63.5933 76.6567Z" fill="#05568D"/>
<path d="M12.0312 8.95468C11.5156 9.04062 10.6906 9.31562 10.1922 9.55624C9.00625 10.1234 7.52813 11.7391 7.0125 13.0109L6.61719 14.0078V35.3203V56.6328L6.99531 57.5437C7.71719 59.2969 9.10938 60.6891 10.8625 61.4109L11.7734 61.7891H44H76.2266L77.1375 61.4109C78.8906 60.6891 80.2828 59.2969 81.0047 57.5437L81.3828 56.6328V35.3203V14.0078L80.9875 13.0109C80.4719 11.7391 78.9938 10.1234 77.8078 9.55624C77.3094 9.31562 76.4156 9.04062 75.7969 8.93749C74.3875 8.71405 13.4062 8.73124 12.0312 8.95468ZM76.5703 11.8078C77.3781 12.2375 78.0312 12.9078 78.4781 13.75C78.7875 14.3344 78.8047 15.1937 78.8047 35.3203C78.8047 55.4469 78.7875 56.3062 78.4781 56.8906C78.0312 57.7328 77.3781 58.4031 76.5703 58.8328L75.8828 59.2109H44C13.2172 59.2109 12.1 59.1937 11.5156 58.8844C10.6734 58.4375 10.0031 57.7844 9.57344 56.9766L9.19531 56.2891V35.3203C9.19531 15.1937 9.2125 14.3344 9.52188 13.75C10.175 12.5297 11.1547 11.7562 12.375 11.4984C12.7016 11.4297 27.1219 11.3953 44.4297 11.4125L75.8828 11.4297L76.5703 11.8078Z" fill="#05568D"/>
<path d="M38.5 14.9359C37.0563 15.2453 35.5094 16.4828 34.9594 17.8062L34.7188 18.3906H30.5938H26.4688V17.8922C26.4688 17.2734 25.85 16.3453 25.1282 15.9328C24.475 15.5547 22.3782 15.3656 20.9 15.5375C20.1094 15.6406 19.7657 15.7953 19.2329 16.2766C18.3563 17.0672 18.1672 17.8234 18.2532 20.1266C18.3047 21.8109 18.3391 22 18.786 22.5672C19.5594 23.5812 19.9891 23.7188 22.4297 23.7188C24.8188 23.7188 25.3172 23.5812 25.9532 22.6875C26.1594 22.4125 26.3657 21.8969 26.4172 21.5703L26.5204 20.9688H30.6282H34.736L34.9938 21.5703C35.6985 23.2891 37.4688 24.4062 39.4625 24.4062C41.4391 24.4062 42.986 23.4094 43.7766 21.6047L44.0688 20.9688H48.1422H52.2329L52.3532 21.5875C52.4047 21.9141 52.6625 22.4297 52.886 22.7047C53.6422 23.5984 54.0891 23.7188 56.4954 23.7188C58.5579 23.7188 58.7469 23.6844 59.3141 23.3062C60.3454 22.6016 60.5344 21.9656 60.4657 19.4562C60.4141 17.4969 60.3797 17.2219 60.0188 16.7062C59.3141 15.7266 58.7813 15.5547 56.3579 15.5547C54.3469 15.5547 54.1579 15.5891 53.5735 15.9844C52.9547 16.3969 52.25 17.5312 52.25 18.0984C52.25 18.3562 51.8719 18.3906 48.1422 18.3906H44.0344L43.8282 17.8062C43.2094 15.9328 40.5625 14.5062 38.5 14.9359ZM40.5969 17.8234C41.9375 18.4938 41.9032 20.7453 40.5625 21.5531C38.8438 22.55 36.7125 20.9516 37.2797 19.0953C37.7094 17.6172 39.136 17.0672 40.5969 17.8234ZM23.8563 19.6281L23.9079 21.1406H22.3438H20.7969V19.7141C20.7969 18.9234 20.8485 18.2188 20.9172 18.15C20.986 18.0812 21.6563 18.0641 22.4297 18.0812L23.8047 18.1328L23.8563 19.6281ZM57.8875 19.6281L57.9391 21.1406H56.375H54.8282V19.7141C54.8282 18.9234 54.8797 18.2188 54.9485 18.15C55.0172 18.0812 55.6875 18.0641 56.461 18.0812L57.836 18.1328L57.8875 19.6281Z" fill="#05568D"/>
<path d="M43.0542 24.7672C42.0745 25.0078 41.0776 25.7469 40.4933 26.7094C39.6339 28.1016 39.6683 28.6 41.387 37.8469C43.1229 47.1797 43.1229 47.2141 44.8417 48.1766C45.7354 48.6922 45.8386 48.6922 48.7948 48.8125C51.7511 48.9156 51.8542 48.9328 52.9714 49.4656C53.5901 49.775 54.4839 50.3422 54.9136 50.7547L55.7386 51.4938L55.7558 52.8516C55.7729 54.4328 56.0479 55.1375 57.0276 56.1172C57.9386 57.0281 58.8151 57.4062 60.1558 57.4062C62.0808 57.4062 62.4245 57.1484 67.5636 51.975C72.5479 46.9391 72.6167 46.8531 72.5995 44.9453C72.5823 43.7078 72.2558 42.9 71.4308 41.9719C70.5026 40.9578 69.4886 40.5281 67.9589 40.5453H66.7042L65.9136 39.6687C64.3495 37.9328 64.0917 37.0734 63.9542 33.4297C63.8339 30.3016 63.7136 29.8375 62.7511 28.8234C62.0979 28.1187 61.2214 27.7062 59.8292 27.4828C58.7979 27.3109 58.5573 27.3109 58.2136 27.5516C57.6979 27.8781 57.5089 28.5141 57.7495 29.1156C57.9386 29.6312 58.2995 29.8203 59.6745 30.0781C61.2386 30.3875 61.3589 30.6453 61.3589 33.4984C61.3589 34.9422 61.462 36.2484 61.6167 36.9016C61.9604 38.3625 62.7854 39.9953 63.6964 41.0437C64.1089 41.525 64.4526 41.9719 64.4526 42.0578C64.4526 42.1266 62.837 43.8109 60.8433 45.8047L57.2339 49.3969L56.6839 48.8641C55.962 48.1594 54.3464 47.1969 53.1261 46.7328C52.3354 46.4234 51.6479 46.3375 49.1901 46.2516C46.337 46.1484 46.2167 46.1312 45.8042 45.7188C45.4261 45.3234 45.237 44.5156 43.9136 37.3141C43.1058 32.9312 42.4698 29.3219 42.5042 29.2875C42.5386 29.2531 43.5354 30.2156 44.7558 31.4359L46.9386 33.6359L46.6464 34.5297C46.2854 35.6297 46.3886 37.1078 46.887 38.1047C47.6261 39.5484 49.5339 40.7344 51.1323 40.7344C52.1808 40.7344 53.4526 40.2188 54.2604 39.4797C57.4745 36.5406 55.5151 31.2641 51.2354 31.2812C50.5995 31.2984 49.7917 31.4016 49.4136 31.5391L48.7261 31.7797L46.5261 29.5969C45.2714 28.3422 44.4292 27.3969 44.5667 27.3625C44.7042 27.3281 46.6979 27.6719 49.0183 28.1016C54.0026 29.0125 54.3292 29.0469 54.8104 28.4281C55.2745 27.8438 55.2573 27.4484 54.7933 26.9156C54.3636 26.4516 53.8995 26.3312 47.0245 25.0938C43.862 24.5266 44.0339 24.5438 43.0542 24.7672ZM52.2495 34.1172C53.1604 34.5984 53.5558 35.9734 53.0573 36.9531C52.7651 37.5203 51.7854 38.1562 51.1839 38.1562C50.0839 38.1562 48.9839 37.0906 48.9839 36.0422C48.9839 35.3375 49.4308 34.4953 49.9808 34.1687C50.5651 33.7906 51.5964 33.7734 52.2495 34.1172ZM69.4542 43.5875C69.9526 44.0344 70.1761 44.9281 69.9698 45.5984C69.8323 45.9766 68.3714 47.5578 65.4323 50.4969L61.0839 54.8281H60.2589C59.5542 54.8281 59.3479 54.7422 58.8495 54.2437C58.0761 53.4703 58.0417 52.5938 58.7636 51.6312C59.0386 51.2703 61.0323 49.2078 63.1808 47.0594C67.3229 42.9688 67.4604 42.8656 68.6464 43.175C68.9214 43.2437 69.2823 43.4328 69.4542 43.5875Z" fill="#05568D"/>
</svg>
