<svg width="88" height="88" viewBox="0 0 88 88" fill="none" xmlns="http://www.w3.org/2000/svg">
<g clip-path="url(#clip0_1430_3739)">
<path d="M39.8406 0.34375C38.7406 0.928123 38.5 1.56406 38.5 3.76406V5.67188H28.1016H17.6859L17.2734 6.10156C16.7234 6.63438 16.7063 7.37344 17.2391 7.87187L17.6344 8.25H51.0297H84.425L84.9234 8.74844L85.4219 9.24687V36.8672V64.4875L84.9234 64.9859L84.425 65.4844H44H3.575L3.07656 64.9859L2.57812 64.4875V36.8672V9.24687L3.07656 8.74844L3.575 8.25H8.50781H13.4234L13.8703 7.80312C14.2141 7.45937 14.2828 7.27031 14.1969 6.82343C13.9734 5.68906 13.9219 5.67188 8.43906 5.67188C4.4 5.67188 3.35156 5.72343 2.71563 5.94688C1.85625 6.23906 0.859375 7.09843 0.395313 7.95781C0.103125 8.47343 0.0859375 10.175 0.0859375 36.8844V65.2609L0.601562 66.1031C0.928125 66.6187 1.44375 67.1344 1.95938 67.4609L2.80156 67.9766L10.8625 68.0281C15.2797 68.0453 18.9062 68.1141 18.9062 68.1656C18.9062 68.2 18.0125 69.7984 16.9297 71.6891C15.6578 73.9062 14.9531 75.3156 14.9531 75.6422C14.9531 76.6047 16.1219 77.1719 16.9125 76.6047C17.0844 76.4844 18.2875 74.525 19.5766 72.2562L21.9312 68.1484L24.7328 68.0969L27.5344 68.0453L27.0875 68.8359C26.8469 69.2656 24.6297 73.1844 22.1375 77.5328L17.6344 85.4219H14.9188C13.4234 85.4219 12.2031 85.3703 12.2031 85.2844C12.2031 85.2156 12.7016 84.2875 13.3203 83.2047C14.5922 80.9703 14.7125 80.3344 13.9906 79.7672C12.9938 78.9937 12.5469 79.3547 10.9141 82.2078C9.45312 84.7859 9.31563 85.4391 10.0031 86.6422C10.6734 87.8281 11.2922 88 14.9188 88C18.4422 88 18.9234 87.8969 19.6281 86.9516C19.8687 86.625 20.5906 85.4562 21.2266 84.3391L22.3781 82.3281H30.4391H38.5V84.15C38.5 86.35 38.8094 87.1062 39.9609 87.6562C40.5969 87.9656 41.0266 88 44 88C46.9734 88 47.4031 87.9656 48.0391 87.6562C49.1906 87.1062 49.5 86.35 49.5 84.15V82.3281H57.5609H65.6219L66.7734 84.3391C67.4094 85.4562 68.1312 86.625 68.3719 86.9516C69.0766 87.8969 69.5578 88 73.0813 88C76.7078 88 77.3266 87.8281 77.9969 86.6422C78.8047 85.1984 78.8391 85.3016 73.8031 76.4844C71.2938 72.0844 69.1969 68.4062 69.1453 68.2859C69.0766 68.1313 70.8984 68.0625 77.1203 68.0281L85.1984 67.9766L86.0406 67.4609C86.5563 67.1344 87.0719 66.6187 87.3984 66.1031L87.9141 65.2609V36.8844C87.9141 10.175 87.8969 8.47343 87.6047 7.95781C87.45 7.64844 87.0375 7.13281 86.6937 6.80625C85.4734 5.62031 86.4188 5.67188 66.9969 5.67188H49.5V3.76406C49.5 1.54688 49.2422 0.910934 48.1078 0.34375C47.5234 0.0343704 47.1109 0 43.9656 0C40.8547 0.017189 40.4078 0.0515594 39.8406 0.34375ZM46.9219 4.125V5.67188H44H41.0781V4.125V2.57812H44H46.9219V4.125ZM38.4656 71.0187L38.4141 73.9922L32.7766 74.0437C29.6656 74.0609 27.1562 74.0094 27.1906 73.9406C27.2078 73.8547 27.9813 72.4969 28.875 70.9328L30.5078 68.0625H34.5125H38.5L38.4656 71.0187ZM46.9219 71.0703V74.0781H44H41.0781V71.0703V68.0625H44H46.9219V71.0703ZM59.125 70.9328C60.0188 72.4969 60.7922 73.8547 60.8094 73.9406C60.8438 74.0094 58.3344 74.0609 55.2234 74.0437L49.5859 73.9922L49.5344 71.0187L49.5 68.0625H53.4875H57.4922L59.125 70.9328ZM70.9328 76.6562C73.6141 81.3312 75.7969 85.2156 75.7969 85.2844C75.7969 85.3703 74.5766 85.4219 73.0813 85.4219H70.3656L65.8625 77.5328C63.3703 73.1844 61.1531 69.2656 60.9125 68.8359L60.4656 68.0453L63.2672 68.0969L66.0687 68.1484L70.9328 76.6562ZM63.0438 77.8078C63.4219 78.4609 63.8172 79.1484 63.9203 79.3547L64.1266 79.75H44H23.8734L24.0797 79.3547C24.1828 79.1484 24.5781 78.4609 24.9563 77.8078L25.6266 76.6562H44H62.3734L63.0438 77.8078ZM46.9219 83.875V85.4219H44H41.0781V83.875V82.3281H44H46.9219V83.875Z" fill="#05568D"/>
<path d="M7.2875 11.6703C6.89219 11.8422 6.39375 12.2547 6.17031 12.5641L5.75781 13.1484L5.70625 37.3484L5.67188 61.5484L6.10156 61.9609L6.51406 62.3906L43.5531 62.3562L80.5922 62.3047L81.0563 61.9437C82.1562 61.1359 82.2422 60.8609 82.2422 58.2656C82.2422 55.6703 82.1562 55.3953 81.0563 54.5875C80.5922 54.2266 80.5578 54.2266 50.1359 54.1406L19.6797 54.0547L19.5938 51.5281C19.5422 49.7922 19.4391 48.9328 19.2844 48.7781C19.1297 48.6234 18.2703 48.5203 16.5344 48.4688L14.0078 48.3828L13.9219 30.7312C13.8359 13.2516 13.8359 13.0797 13.475 12.6156C12.6844 11.55 12.3578 11.4297 10.0891 11.3781C8.31875 11.3438 7.88906 11.3781 7.2875 11.6703ZM11.3438 31.1953V48.4688H9.79688H8.25V31.1953V13.9219H9.79688H11.3438V31.1953ZM17.0156 55.4297V59.8125H12.6328H8.25V55.4297V51.0469H12.6328H17.0156V55.4297ZM79.75 58.2656V59.8125H49.6719H19.5938V58.2656V56.7188H49.6719H79.75V58.2656Z" fill="#05568D"/>
<path d="M41.9547 14.1797C29.7172 16.3281 25.7812 17.0672 25.4547 17.325C24.4578 18.0641 24.3203 18.4422 24.2344 20.6766L24.1484 22.7735L23.5297 22.8594C22.7047 22.9969 22.0688 23.4953 21.6562 24.3375C21.3297 25.0078 21.3125 25.3516 21.3125 34.0313C21.3125 42.7797 21.3297 43.0547 21.6734 43.7594C22.2406 44.9281 22.8766 45.2375 25.1109 45.3406L26.9844 45.4266V46.9391V48.4688H25.3C23.2719 48.4688 22.8594 48.6578 22.8594 49.6547C22.8594 50.1016 22.9797 50.411 23.2203 50.6344C23.5812 50.961 24.3375 50.961 52.3188 51.0125C72.6 51.0297 81.1766 50.9953 81.4859 50.8578C81.9156 50.686 82.3281 50.0672 82.3281 49.6031C82.3281 49.4828 82.1734 49.1735 81.9844 48.9328C81.675 48.5547 81.4688 48.486 80.5578 48.4344L79.4922 48.3828L79.4406 30.2156L79.4062 12.0485L78.9594 11.7047C78.5125 11.3438 78.375 11.3438 68.2516 11.361L58.0078 11.3781L41.9547 14.1797ZM76.8281 31.1953V48.486L75.3328 48.4344L73.8203 48.3828L73.7344 43.536C73.6313 38.0531 73.6484 38.0875 72.1875 37.3313C71.4828 36.9875 71.2078 36.9531 68.3203 36.9531C66.6188 36.9531 64.9516 37.0391 64.625 37.125C63.8172 37.3485 62.9234 38.2938 62.7172 39.1188C62.6484 39.4969 62.5625 41.7485 62.5625 44.1375V48.486L61.0672 48.4344L59.5547 48.3828L59.5031 31.3672C59.4859 22 59.5031 14.2485 59.5547 14.1281C59.6063 13.9735 61.5141 13.9219 68.2344 13.9219H76.8281V31.1953ZM56.8906 18.5625V22.8594H41.8516H26.8125V21.1578V19.4563L27.9813 19.25C28.6172 19.1469 35.2516 17.9953 42.7109 16.6719C50.1875 15.3656 56.4266 14.2828 56.5984 14.2828C56.8734 14.2656 56.8906 14.575 56.8906 18.5625ZM56.8906 34.1172V42.7969L40.4422 42.7625L23.9766 42.711L23.925 34.0656L23.8906 25.4375H40.3906H56.8906V34.1172ZM71.1562 44V48.4688L68.2 48.4344L65.2266 48.3828L65.175 44.1719C65.1578 41.8688 65.175 39.875 65.2266 39.7547C65.2781 39.5828 66.0172 39.5313 68.2344 39.5313H71.1562V44ZM32.7937 46.8703L32.7422 48.3828H31.1953H29.6484L29.5969 46.8703L29.5453 45.375H31.1953H32.8453L32.7937 46.8703ZM44.1375 46.8703L44.0859 48.3828L39.7547 48.4344L35.4062 48.4688V46.9219V45.375H39.7891H44.1891L44.1375 46.8703ZM49.8438 46.9219V48.4688H48.2969H46.75V46.9219V45.375H48.2969H49.8438V46.9219ZM56.8906 46.9219V48.4688H54.6562H52.4219V46.9219V45.375H54.6562H56.8906V46.9219Z" fill="#05568D"/>
<path d="M62.1156 17.1875C61.6687 17.3594 61.1875 18.0125 61.1875 18.4078C61.1875 18.5625 61.3422 18.8891 61.5484 19.1469L61.8922 19.5938H68.1656C74.1984 19.5938 74.4391 19.5766 74.7656 19.25C75.2297 18.7859 75.2125 17.8578 74.7484 17.4281C74.4047 17.1187 74.0266 17.1016 68.4234 17.0672C65.1578 17.05 62.3047 17.1016 62.1156 17.1875Z" fill="#05568D"/>
<path d="M61.5485 23.3062C61.0844 23.9078 61.1016 24.2859 61.6001 24.8703L62.0126 25.3516H68.2001C74.0438 25.3516 74.4048 25.3344 74.7485 25.025C75.2126 24.5953 75.2469 23.5469 74.8001 23.1516C74.5079 22.8937 73.8032 22.8594 68.1829 22.8594H61.8923L61.5485 23.3062Z" fill="#05568D"/>
<path d="M61.5488 28.9783C61.1363 29.4939 61.1019 29.7173 61.3769 30.3189C61.7379 31.0923 62.116 31.1267 68.441 31.0751C74.0097 31.0236 74.405 31.0064 74.7488 30.697C75.2129 30.2673 75.2301 29.3392 74.766 28.8751C74.4394 28.5486 74.1988 28.5314 68.166 28.5314H61.8925L61.5488 28.9783Z" fill="#05568D"/>
<path d="M28.3594 28.9094C27.0875 29.7859 27.0703 29.8547 27.0703 34.0312C27.0703 38.2078 27.0875 38.2766 28.3594 39.1359L28.9266 39.5312H40.4766H52.0266L52.6109 39.1359C53.6938 38.4141 53.7969 37.9844 53.7969 34.0312C53.7969 30.0781 53.6938 29.6484 52.6109 28.9266L52.0266 28.5312H40.4766H28.9266L28.3594 28.9094ZM34.8906 34.0312V36.9531H32.2266H29.5625V34.0312V31.1094H32.2266H34.8906V34.0312ZM43.4844 34.0312V36.9531H40.4766H37.4688V34.0312V31.1094H40.4766H43.4844V34.0312ZM51.2188 34.0312V36.9531H48.6406H46.0625V34.0312V31.1094H48.6406H51.2188V34.0312Z" fill="#05568D"/>
</g>
<defs>
<clipPath id="clip0_1430_3739">
<rect width="88" height="88" fill="white"/>
</clipPath>
</defs>
</svg>
