<svg width="88" height="88" viewBox="0 0 88 88" fill="none" xmlns="http://www.w3.org/2000/svg">
<g clip-path="url(#clip0_1430_3621)">
<path d="M23.496 -0.0231469C23.7404 -0.0244552 23.7404 -0.0244552 23.9898 -0.0257899C24.1682 -0.0258755 24.3467 -0.025961 24.5306 -0.0260492C24.7207 -0.0268024 24.9107 -0.0275556 25.1065 -0.0283316C25.7456 -0.0306336 26.3847 -0.0316949 27.0239 -0.0327473C27.4812 -0.0341052 27.9385 -0.0355256 28.3959 -0.0370064C29.7701 -0.0412187 31.1443 -0.0437353 32.5186 -0.0459542C32.9069 -0.0465925 33.2952 -0.0472754 33.6836 -0.0479742C36.0967 -0.0523124 38.5098 -0.0561017 40.923 -0.05824C41.4818 -0.0587435 42.0406 -0.0592526 42.5994 -0.0597706C42.7382 -0.0598988 42.8771 -0.0600271 43.0202 -0.0601592C45.2683 -0.0623325 47.5164 -0.0680407 49.7645 -0.0752053C52.0742 -0.0825056 54.3839 -0.0865481 56.6936 -0.0874451C57.9898 -0.0880309 59.2859 -0.090039 60.5821 -0.0957127C61.6863 -0.100539 62.7905 -0.10241 63.8948 -0.100492C64.4576 -0.0996035 65.0203 -0.100549 65.5831 -0.104353C66.1951 -0.108263 66.8068 -0.106822 67.4188 -0.104098C67.5942 -0.106484 67.7697 -0.10887 67.9504 -0.111328C69.6564 -0.0927137 71.2466 0.462581 72.4751 1.67639C72.5576 1.75631 72.6401 1.83623 72.725 1.91857C73.0069 2.19312 73.2842 2.47177 73.562 2.7504C73.7831 2.9673 74.0045 3.18393 74.2262 3.40032C74.9937 4.15208 75.7549 4.91015 76.5155 5.66892C76.6528 5.80579 76.7902 5.94266 76.9317 6.08368C77.6564 6.80584 78.3806 7.52847 79.1045 8.25154C79.8492 8.99529 80.5955 9.73743 81.3421 10.4792C81.9197 11.0536 82.496 11.6291 83.0721 12.2049C83.3468 12.4791 83.6219 12.7528 83.8975 13.0261C84.2824 13.408 84.6656 13.7916 85.0484 14.1755C85.161 14.2865 85.2736 14.3975 85.3896 14.5119C87.1272 16.2654 87.7101 17.9919 87.7247 20.4547C87.7236 20.7004 87.7225 20.9461 87.7213 21.1919C87.7219 21.4566 87.7227 21.7213 87.7237 21.986C87.7258 22.7097 87.7248 23.4334 87.7232 24.1572C87.722 24.9391 87.7238 25.7211 87.7252 26.503C87.7275 28.0334 87.727 29.5638 87.7255 31.0942C87.7244 32.3382 87.7242 33.5823 87.7248 34.8263C87.7249 35.0035 87.7249 35.1807 87.725 35.3632C87.7252 35.7232 87.7253 36.0832 87.7255 36.4432C87.727 39.8173 87.7253 43.1913 87.7225 46.5653C87.7202 49.4591 87.7206 52.3528 87.723 55.2466C87.7258 58.6087 87.7269 61.9708 87.7253 65.3329C87.7251 65.6916 87.7249 66.0502 87.7248 66.4089C87.7247 66.5854 87.7246 66.7618 87.7245 66.9436C87.7241 68.1858 87.7248 69.4281 87.7261 70.6703C87.7275 72.1846 87.7271 73.6989 87.7244 75.2132C87.723 75.9855 87.7225 76.7577 87.7242 77.53C87.7257 78.2376 87.7249 78.9451 87.7221 79.6527C87.7216 79.9081 87.7218 80.1634 87.7231 80.4188C87.7336 82.7281 87.4196 84.5648 85.7846 86.2776C84.5602 87.4082 83.3271 88.0206 81.6548 88.0235C81.4456 88.0242 81.2363 88.025 81.0207 88.0258C80.7881 88.0258 80.5556 88.0257 80.3231 88.0257C80.0763 88.0263 79.8295 88.0269 79.5827 88.0276C78.9036 88.0293 78.2246 88.03 77.5455 88.0304C76.8135 88.0311 76.0815 88.0327 75.3494 88.0342C73.5811 88.0376 71.8128 88.0394 70.0444 88.0409C69.2117 88.0417 68.3789 88.0426 67.5461 88.0435C64.7778 88.0464 62.0094 88.0489 59.241 88.0501C58.5226 88.0505 57.8042 88.0508 57.0859 88.0511C56.9073 88.0512 56.7288 88.0513 56.5448 88.0514C53.6524 88.0528 50.76 88.0572 47.8676 88.0628C44.8979 88.0684 41.9282 88.0715 38.9586 88.0721C37.2912 88.0724 35.6239 88.074 33.9566 88.0783C32.5366 88.0821 31.1167 88.0835 29.6967 88.0818C28.9725 88.081 28.2482 88.0813 27.524 88.0847C26.8602 88.0877 26.1966 88.0875 25.5329 88.0849C25.2934 88.0845 25.054 88.0852 24.8146 88.0872C22.5588 88.1053 20.9371 87.5757 19.3032 86.0024C17.7496 84.3244 17.6597 82.4038 17.6425 80.2314C17.6396 79.968 17.6349 79.7046 17.6284 79.4413C17.619 79.0591 17.6152 78.6772 17.6127 78.2948C17.6088 78.1779 17.6049 78.061 17.6009 77.9405C17.6038 77.2827 17.6896 77.0167 18.1057 76.4965C18.562 76.141 18.562 76.141 19.0777 76.0336C19.7759 76.1791 20.0066 76.4504 20.4527 77.0004C20.5551 77.5625 20.5551 77.5625 20.55 78.1955C20.551 78.3089 20.5519 78.4222 20.5529 78.539C20.5558 78.9 20.5531 79.2606 20.5493 79.6215C20.4689 82.0542 20.4689 82.0542 21.5608 84.1454C22.7098 85.1568 23.815 85.2722 25.3083 85.2711C25.4908 85.2713 25.4907 85.2713 25.6768 85.2715C26.0822 85.2718 26.4875 85.2709 26.8928 85.2699C27.1843 85.2699 27.4757 85.2699 27.7671 85.27C28.5568 85.27 29.3464 85.269 30.1361 85.2678C30.9619 85.2668 31.7877 85.2667 32.6135 85.2664C34.1766 85.2659 35.7398 85.2645 37.3029 85.2628C39.0828 85.2609 40.8626 85.2599 42.6424 85.2591C46.3031 85.2573 49.9638 85.2542 53.6245 85.2504C53.49 85.1174 53.3555 84.9844 53.2169 84.8474C51.9481 83.5925 50.6811 82.3358 49.4158 81.0773C48.7653 80.4304 48.1142 79.7841 47.4616 79.1393C46.8315 78.5168 46.2032 77.8925 45.576 77.2671C45.3367 77.0291 45.0968 76.7916 44.8562 76.5548C44.5188 76.2224 44.1837 75.8879 43.8489 75.5529C43.7495 75.4559 43.6501 75.359 43.5477 75.2591C42.9196 74.6245 42.5699 74.0677 42.2808 73.2192C42.3029 72.7606 42.3029 72.7606 42.3775 72.3276C42.4099 71.6204 42.2793 71.2686 41.8236 70.7485C41.3145 70.2238 40.7743 69.7401 40.2183 69.266C39.5379 69.5081 38.9374 69.8399 38.3144 70.1988C36.8112 71.0642 35.3232 71.7815 33.687 72.3598C33.5042 72.4247 33.3215 72.4896 33.1331 72.5565C26.7921 74.6545 19.7669 73.903 13.8238 70.9689C7.94187 67.9307 3.51145 62.5728 1.44225 56.3089C-0.60957 49.6708 0.134409 42.6844 3.28664 36.5346C6.30427 30.8502 11.616 26.5693 17.7027 24.5785C20.2334 23.8082 22.7494 23.479 25.3941 23.4936C25.5151 23.4939 25.6362 23.4943 25.761 23.4947C27.5919 23.5037 29.3312 23.5895 31.1089 24.0629C31.3037 24.1114 31.3037 24.1114 31.5023 24.1608C35.4255 25.1519 38.8422 26.9708 41.937 29.5629C42.0591 29.6637 42.1812 29.7645 42.307 29.8684C43.1271 30.5626 43.8305 31.3143 44.5152 32.141C44.6208 32.264 44.7265 32.387 44.8354 32.5136C49.2123 37.7502 51.0287 44.4153 50.4938 51.1709C50.0729 55.419 48.5294 59.5898 46.062 63.0785C46.306 63.3709 46.5523 63.6601 46.8039 63.946C47.0933 64.2817 47.0933 64.2817 47.3128 64.5851C47.7252 65.1015 47.982 65.2918 48.6502 65.3908C49.035 65.41 49.4204 65.4191 49.8057 65.4163C51.007 65.565 51.8292 66.5602 52.6481 67.3803C52.7695 67.5005 52.8909 67.6208 53.016 67.7447C53.4154 68.1408 53.8134 68.5382 54.2113 68.9357C54.4895 69.2128 54.7677 69.4898 55.0459 69.7668C55.6281 70.347 56.2097 70.9279 56.7908 71.5092C57.5342 72.2526 58.2799 72.9937 59.0263 73.7341C59.6013 74.3053 60.1748 74.8781 60.7479 75.4514C61.0221 75.7252 61.2969 75.9985 61.5722 76.2712C61.9577 76.6532 62.3409 77.0374 62.7236 77.4222C62.8368 77.5335 62.95 77.6448 63.0667 77.7595C64.2997 79.0093 64.9508 80.461 65.022 82.2211C64.9963 83.3636 64.623 84.413 64.1089 85.4223C66.3261 85.4078 68.5434 85.3914 70.7606 85.3729C71.7902 85.3643 72.8198 85.3563 73.8494 85.3498C74.8435 85.3434 75.8375 85.3354 76.8316 85.3264C77.2104 85.3232 77.5892 85.3206 77.968 85.3186C78.4995 85.3157 79.031 85.3107 79.5625 85.3052C79.7183 85.3048 79.8741 85.3045 80.0346 85.3041C81.4207 85.2859 82.5838 85.1091 83.7027 84.2192C84.5537 83.3209 84.7764 82.4294 84.7789 81.2112C84.7802 80.9882 84.7815 80.7652 84.7828 80.5355C84.7825 80.2892 84.7821 80.043 84.7818 79.7968C84.7826 79.5343 84.7836 79.2718 84.7848 79.0093C84.7875 78.2885 84.7881 77.5677 84.7883 76.847C84.789 76.0695 84.7916 75.292 84.7939 74.5146C84.7978 73.1677 84.8004 71.8209 84.8021 70.474C84.8046 68.5267 84.809 66.5794 84.8138 64.6321C84.8216 61.4727 84.8279 58.3134 84.8333 55.154C84.8385 52.0849 84.8444 49.0158 84.8512 45.9468C84.8517 45.7576 84.8521 45.5684 84.8525 45.3735C84.8546 44.4245 84.8568 43.4755 84.8589 42.5265C84.8767 34.6532 84.8921 26.7799 84.9058 18.9067C84.6725 18.9089 84.6725 18.9089 84.4345 18.9113C82.963 18.9251 81.4915 18.9355 80.0199 18.9423C79.2635 18.9458 78.5071 18.9507 77.7507 18.9585C77.0197 18.966 76.2887 18.9701 75.5575 18.9719C75.2798 18.9731 75.002 18.9756 74.7242 18.9793C72.9933 19.0017 71.45 18.9711 70.0178 17.8741C69.8632 17.6939 69.8632 17.6939 69.7056 17.5102C69.5995 17.3927 69.4933 17.2753 69.384 17.1543C68.4398 15.5887 68.5087 13.8815 68.5273 12.1162C68.5283 11.8451 68.529 11.574 68.5295 11.3028C68.5315 10.5947 68.5365 9.88668 68.5423 9.17861C68.5476 8.45385 68.5499 7.72908 68.5525 7.00431C68.558 5.58631 68.5668 4.16837 68.5777 2.7504C62.93 2.74253 57.2824 2.73648 51.6348 2.73285C50.9679 2.73242 50.301 2.73197 49.6341 2.73152C49.5013 2.73143 49.3685 2.73134 49.2317 2.73125C47.0826 2.72975 44.9334 2.72704 42.7843 2.72388C40.5787 2.72067 38.3732 2.71876 36.1676 2.71806C34.8069 2.71759 33.4461 2.7161 32.0854 2.71331C31.0416 2.71127 29.9979 2.71106 28.9541 2.71152C28.5262 2.71143 28.0983 2.71074 27.6704 2.70943C27.086 2.70771 26.5017 2.70813 25.9174 2.70906C25.7482 2.70806 25.579 2.70706 25.4046 2.70603C23.9835 2.71219 22.805 2.86746 21.6558 3.78165C20.7163 4.77337 20.5734 5.77439 20.5834 7.10103C20.583 7.24062 20.5827 7.3802 20.5823 7.52402C20.5817 7.82562 20.5818 8.12722 20.5826 8.42881C20.5836 8.90638 20.582 9.38389 20.5797 9.86146C20.5733 11.2187 20.5701 12.576 20.572 13.9332C20.573 14.7647 20.5699 15.5961 20.5641 16.4275C20.5628 16.7439 20.563 17.0603 20.5648 17.3767C20.5673 17.819 20.5645 18.261 20.5605 18.7033C20.5636 18.8987 20.5636 18.8987 20.5667 19.0981C20.5547 19.778 20.4756 20.0808 20.0485 20.6207C19.5933 20.9692 19.5933 20.9692 19.0777 21.0766C18.3721 20.9296 18.1471 20.6731 17.7027 20.1098C17.6193 19.6004 17.5882 19.1908 17.5969 18.6826C17.596 18.5411 17.595 18.3995 17.594 18.2537C17.592 17.7867 17.5962 17.3199 17.6006 16.8529C17.6009 16.5268 17.6009 16.2008 17.6006 15.8747C17.6009 15.1912 17.6041 14.5077 17.6095 13.8241C17.6163 12.9517 17.6171 12.0793 17.6158 11.2069C17.6152 10.5331 17.6173 9.85943 17.6203 9.1857C17.6215 8.86427 17.622 8.54284 17.6219 8.22141C17.6236 5.71172 17.7535 3.6302 19.5738 1.72318C20.7071 0.67669 21.9317 -0.0186913 23.496 -0.0231469ZM71.3277 4.64103C71.3157 5.92297 71.3065 7.2049 71.3009 8.48689C71.2983 9.08224 71.2946 9.67754 71.2888 10.2729C71.2821 10.958 71.2796 11.6432 71.2773 12.3284C71.2746 12.5411 71.272 12.7539 71.2692 12.973C71.2487 14.3877 71.2487 14.3877 71.8433 15.641C72.4057 16.1679 72.7946 16.22 73.5555 16.2152C73.8651 16.2151 73.8651 16.2151 74.181 16.2151C74.403 16.2124 74.625 16.2097 74.8538 16.207C75.084 16.206 75.3142 16.2053 75.5445 16.2048C76.1492 16.2028 76.7538 16.1978 77.3585 16.1921C77.976 16.1868 78.5935 16.1844 79.2111 16.1818C80.4218 16.1763 81.6326 16.1675 82.8433 16.1567C82.1771 15.3602 81.4865 14.603 80.751 13.8703C80.6506 13.7695 80.5501 13.6688 80.4466 13.565C80.1187 13.2363 79.7901 12.9082 79.4615 12.5802C79.2322 12.3507 79.0028 12.1212 78.7735 11.8917C78.2952 11.4131 77.8166 10.9348 77.3377 10.4568C76.7225 9.8426 76.1081 9.22763 75.494 8.61244C75.0217 8.13958 74.5491 7.66713 74.0763 7.19481C73.8494 6.96803 73.6227 6.74112 73.396 6.51409C73.0809 6.1985 72.7652 5.88347 72.4493 5.56859C72.3551 5.47405 72.2609 5.37951 72.1639 5.28211C71.806 4.83989 71.806 4.83989 71.3277 4.64103ZM19.4214 26.9848C19.2958 27.0207 19.1702 27.0566 19.0408 27.0936C15.6904 28.0918 12.3452 29.889 9.96828 32.4848C9.55245 32.9026 9.13482 33.3186 8.71547 33.7329C4.63891 37.9662 2.99006 43.7938 3.05635 49.5501C3.09377 50.9392 3.29726 52.273 3.60891 53.6254C3.63657 53.7455 3.66424 53.8657 3.69274 53.9895C5.02696 59.5237 8.61337 64.4538 13.4212 67.4875C16.8181 69.5593 20.589 70.8027 24.5777 70.9848C24.7099 70.9919 24.8422 70.999 24.9785 71.0063C30.4837 71.1563 35.9349 69.0989 40.0464 65.4848C40.1929 65.3612 40.3393 65.2375 40.4902 65.1101C44.5477 61.6073 47.1755 56.35 47.7385 51.0339C48.1221 44.9203 46.6577 39.0957 42.6944 34.3224C38.8351 30.0058 33.7638 26.7482 27.8433 26.2973C24.977 26.1416 22.1925 26.1916 19.4214 26.9848ZM43.9995 65.3129C43.8094 65.5275 43.6197 65.7424 43.4302 65.9574C43.2717 66.1369 43.2717 66.1369 43.1099 66.32C42.8198 66.6605 42.5492 67.0175 42.2808 67.3754C42.848 67.9426 43.4152 68.5098 43.9995 69.0942C44.6299 68.779 44.9394 68.5355 45.4175 68.0414C45.5996 67.8546 45.5996 67.8546 45.7854 67.6641C45.8767 67.5688 45.968 67.4736 46.062 67.3754C45.4298 66.5975 44.7883 65.9326 43.9995 65.3129ZM48.0628 69.0754C47.9753 69.1615 47.8879 69.2476 47.7978 69.3363C47.6134 69.5189 47.4297 69.7021 47.2466 69.886C46.9654 70.1673 46.6808 70.4448 46.3957 70.7223C46.2171 70.9 46.0387 71.0779 45.8606 71.256C45.732 71.3804 45.732 71.3804 45.6008 71.5073C45.3352 71.7684 45.3352 71.7684 45.0308 72.1879C45.0891 72.7364 45.2834 73.0208 45.6666 73.4048C45.7651 73.5048 45.8637 73.6048 45.9652 73.7078C46.0739 73.8154 46.1825 73.923 46.2945 74.0339C46.4085 74.1489 46.5225 74.2638 46.64 74.3822C47.0179 74.7624 47.3976 75.1405 47.7774 75.5187C48.0407 75.7822 48.3038 76.0459 48.5669 76.3097C49.1191 76.8626 49.6721 77.4145 50.2258 77.9658C50.9348 78.6719 51.6415 79.3802 52.3474 80.0892C52.8907 80.6344 53.4353 81.1783 53.9802 81.7219C54.2411 81.9825 54.5017 82.2436 54.7619 82.505C55.1264 82.8707 55.4925 83.2348 55.859 83.5985C55.9659 83.7065 56.0729 83.8144 56.183 83.9257C57.0302 84.7607 57.8961 85.3741 59.1245 85.4223C60.2546 85.1798 61.0885 84.7562 61.8316 83.8539C62.1736 83.0672 62.4166 82.1697 62.1045 81.3377C61.6584 80.4 61.0927 79.7305 60.3565 79.0055C60.2399 78.888 60.1232 78.7704 60.0031 78.6493C59.6204 78.2645 59.2353 77.8821 58.8499 77.4999C58.5823 77.2323 58.3148 76.9645 58.0474 76.6966C57.4883 76.1373 56.9281 75.5792 56.3669 75.022C55.6466 74.3066 54.9291 73.5885 54.2123 72.8696C53.6611 72.3172 53.1086 71.766 52.5557 71.2153C52.2905 70.9509 52.0257 70.6861 51.7612 70.4209C51.3926 70.0518 51.0223 69.6844 50.6516 69.3174C50.542 69.2071 50.4325 69.0967 50.3196 68.983C49.3266 68.0068 48.9782 68.1603 48.0628 69.0754Z" fill="#05568D"/>
<path d="M31.2816 29.3903C31.4015 29.4271 31.5213 29.4639 31.6448 29.5019C36.7573 31.1337 40.8718 34.8299 43.3528 39.5514C45.7468 44.3529 46.0365 49.9262 44.4086 55.0104C42.7167 59.9645 39.2176 64.0126 34.558 66.3864C29.599 68.8133 24.0409 69.2659 18.7917 67.5192C16.5666 66.7166 14.5545 65.5965 12.7191 64.109C12.4709 63.908 12.4709 63.908 12.2176 63.7028C8.752 60.7163 6.57246 56.5891 5.6924 52.1389C5.66911 51.4722 5.77526 51.2181 6.18788 50.7028C6.70351 50.359 6.70351 50.359 7.30507 50.3913C7.91586 50.533 8.04868 50.582 8.42226 51.0465C8.57624 51.5308 8.70894 52.0045 8.83046 52.4967C9.51057 55.076 10.5989 57.329 12.2035 59.4684C12.3205 59.3479 12.4375 59.2274 12.558 59.1032C12.7259 58.9381 12.8942 58.7734 13.0629 58.609C13.1462 58.5244 13.2295 58.4398 13.3153 58.3526C15.0297 56.7306 17.8892 56.0813 20.2078 56.0128C20.3456 56.0188 20.4834 56.0247 20.6254 56.0309C20.6515 54.9482 20.6515 54.9482 20.2105 53.9966C20.0021 53.8084 19.7916 53.6225 19.5794 53.4387C18.7382 52.5958 17.9075 51.081 17.8539 49.8756C17.861 49.7516 17.8681 49.6275 17.8754 49.4997C17.7442 49.4607 17.6131 49.4217 17.4779 49.3815C16.9073 49.1028 16.7656 48.8667 16.5004 48.2965C16.3019 47.5435 16.3008 46.7961 16.2996 46.0225C16.2988 45.8188 16.2988 45.8188 16.2979 45.6108C16.297 45.3238 16.2966 45.0368 16.2967 44.7497C16.2963 44.3156 16.2932 43.8816 16.2899 43.4474C16.2819 41.2191 16.3149 39.0106 17.8774 37.2509C19.065 36.1317 20.4447 35.3925 22.0976 35.3782C22.252 35.3766 22.4063 35.3749 22.5653 35.3732C22.731 35.3725 22.8966 35.3717 23.0672 35.371C23.2389 35.37 23.4105 35.369 23.5874 35.368C23.9505 35.3664 24.3135 35.3653 24.6766 35.3646C25.2299 35.3629 25.7832 35.3576 26.3365 35.3522C26.6898 35.3511 27.0431 35.3502 27.3963 35.3495C27.5609 35.3474 27.7255 35.3453 27.895 35.3431C29.0069 35.3468 29.8791 35.4649 30.7593 36.2049C31.2318 36.7817 31.5784 37.2092 31.6254 37.984C31.7459 37.9982 31.8664 38.0124 31.9906 38.027C32.8467 38.2503 33.3767 38.6627 33.9135 39.359C34.2878 40.0244 34.3961 40.5453 34.4031 41.3023C34.4047 41.4469 34.4064 41.5914 34.4081 41.7404C34.4092 41.9727 34.4092 41.9727 34.4103 42.2097C34.4113 42.3704 34.4123 42.531 34.4133 42.6965C34.4149 43.036 34.416 43.3755 34.4167 43.715C34.4183 44.2329 34.4237 44.7507 34.4291 45.2686C34.4302 45.5989 34.4311 45.9292 34.4318 46.2595C34.4339 46.4137 34.436 46.5679 34.4382 46.7268C34.4351 47.6076 34.3578 48.2247 33.8598 48.984C33.718 49.0833 33.5762 49.1825 33.4301 49.2848C32.9578 49.7098 32.9097 49.8723 32.7533 50.4665C32.3479 51.9978 31.5669 53.1148 30.343 54.1094C29.9361 54.6857 30.0366 55.1645 30.0785 55.859C30.2341 55.8849 30.2341 55.8849 30.3929 55.9112C35.4719 56.7652 35.4719 56.7652 36.9535 57.9215C37.1059 58.0314 37.2584 58.1413 37.4154 58.2545C37.831 58.6252 38.0502 58.9914 38.3285 59.4684C38.4419 59.4684 38.5554 59.4684 38.6723 59.4684C41.564 55.789 42.9226 51.1438 42.4047 46.4819C41.7315 41.8028 39.4604 37.8311 35.741 34.9064C31.7512 32.0702 27.1768 31.0171 22.3267 31.7381C18.0925 32.5126 13.9972 35.0369 11.5238 38.5668C10.1279 40.6375 9.24398 42.8124 8.6277 45.2296C8.58472 45.398 8.54173 45.5664 8.49745 45.7399C8.46178 45.8892 8.42611 46.0386 8.38936 46.1924C8.2349 46.6207 8.09648 46.8197 7.73476 47.0934C7.00525 47.2015 6.65048 47.1652 6.01601 46.7819C5.48743 45.9395 5.65815 45.2919 5.84413 44.3434C5.87958 44.1555 5.91503 43.9676 5.95155 43.7741C6.77021 40.1846 8.67603 37.1937 11.1723 34.5465C11.2881 34.4176 11.404 34.2886 11.5234 34.1558C13.8344 31.6843 17.0728 30.1367 20.2816 29.2184C20.4646 29.1632 20.6476 29.1081 20.8362 29.0512C24.14 28.2195 28.0325 28.3869 31.2816 29.3903ZM19.7875 39.3161C19.1344 40.3149 19.0624 41.165 19.0711 42.3279C19.0722 42.5125 19.0733 42.6972 19.0744 42.8874C19.0757 43.0276 19.0771 43.1677 19.0785 43.3122C19.7632 43.325 20.4478 43.3343 21.1325 43.3405C21.4785 43.3443 21.8244 43.3509 22.1702 43.3575C23.3957 43.3667 24.3294 43.3275 25.4379 42.7965C25.6211 42.7199 25.8043 42.6432 25.9931 42.5642C26.3334 42.4177 26.6736 42.2709 27.0136 42.1238C28.0292 41.7344 28.9719 41.7441 30.0463 41.7545C30.1982 41.7553 30.35 41.7561 30.5065 41.7569C30.8795 41.7589 31.2524 41.762 31.6254 41.7653C31.5403 41.2548 31.5403 41.2548 31.4535 40.734C31.2578 40.7081 31.2578 40.7081 31.0581 40.6817C30.511 40.5781 30.0616 40.4685 29.5629 40.2184C29.3112 39.772 29.2165 39.3939 29.1272 38.8911C29.0781 38.4674 29.0781 38.4674 28.7035 38.1559C28.1893 38.1172 27.6914 38.0995 27.1768 38.0982C27.0241 38.097 26.8714 38.0959 26.7141 38.0947C26.3902 38.093 26.0663 38.0922 25.7424 38.0922C25.25 38.0915 24.7579 38.0852 24.2656 38.0787C23.9505 38.0777 23.6354 38.077 23.3203 38.0767C23.1744 38.0742 23.0284 38.0717 22.878 38.0692C21.6043 38.0788 20.7103 38.4334 19.7875 39.3161ZM26.9848 45.0309C26.6812 45.1583 26.3769 45.2836 26.0717 45.4069C25.8706 45.4903 25.8706 45.4903 25.6655 45.5754C24.835 45.8727 24.0354 45.9194 23.1572 45.9447C23.0401 45.9482 22.9231 45.9518 22.8025 45.9555C22.4313 45.9667 22.0601 45.9768 21.6889 45.987C21.4361 45.9944 21.1833 46.0019 20.9305 46.0095C20.3132 46.0278 19.6959 46.0452 19.0785 46.0622C19.0785 46.4025 19.0785 46.7428 19.0785 47.0934C19.2132 47.1359 19.3479 47.1785 19.4867 47.2223C20.0209 47.4767 20.067 47.5899 20.2816 48.1247C20.3587 48.4493 20.4298 48.7753 20.4965 49.1022C20.8695 50.6258 21.5769 51.6382 22.8383 52.5605C24.0427 53.2358 25.2952 53.2487 26.641 53.109C27.9996 52.7257 28.9389 51.8438 29.7348 50.7028C30.167 49.8925 30.3339 49.0205 30.4867 48.1213C30.6168 47.7089 30.7741 47.534 31.1098 47.2653C31.2799 47.2086 31.4501 47.1518 31.6254 47.0934C31.6254 46.2426 31.6254 45.3918 31.6254 44.5153C29.8458 44.2187 28.6215 44.2717 26.9848 45.0309ZM23.3754 55.6872C23.3187 56.1976 23.2619 56.7081 23.2035 57.234C24.1948 57.7902 25.0476 58.0405 26.1683 57.7819C26.8176 57.6091 26.8176 57.6091 27.3285 57.234C27.2718 56.7236 27.2151 56.2131 27.1566 55.6872C25.9088 55.6872 24.661 55.6872 23.3754 55.6872ZM18.1439 59.1676C17.9045 59.2205 17.9045 59.2205 17.6602 59.2744C16.3219 59.5887 15.4053 60.0086 14.6098 61.1872C14.5459 61.4146 14.4873 61.6437 14.4379 61.8747C18.5887 64.9153 23.0241 66.3704 28.1845 65.6123C31.1557 65.0924 33.875 63.8858 36.266 62.0465C36.0933 61.1061 35.8892 60.5556 35.0951 59.9733C33.5457 59.1709 31.4823 58.5972 29.7348 58.7809C29.3249 58.9936 29.0256 59.2344 28.6834 59.5429C27.6208 60.427 25.9668 60.5587 24.6376 60.4688C23.285 60.2783 21.7794 59.763 20.7973 58.7809C19.8834 58.7082 19.0267 58.959 18.1439 59.1676Z" fill="#05568D"/>
<path d="M30.6114 8.16095C30.8735 8.16002 31.1357 8.15879 31.3978 8.1573C32.1066 8.15417 32.8154 8.15537 33.5242 8.15756C34.2677 8.1593 35.0112 8.15768 35.7547 8.1566C37.003 8.15536 38.2513 8.157 39.4996 8.16028C40.9406 8.16402 42.3816 8.16281 43.8227 8.15902C45.0623 8.1559 46.3018 8.15546 47.5414 8.15726C48.2808 8.15833 49.0201 8.15848 49.7594 8.1562C50.4547 8.15421 51.1498 8.15561 51.8451 8.15957C52.0995 8.16047 52.3539 8.16022 52.6083 8.1587C53.9838 8.15123 55.0424 8.15617 56.2033 8.93741C56.9774 9.90998 57.091 10.6818 57.0976 11.8895C57.0986 12.0275 57.0996 12.1654 57.1006 12.3076C57.1022 12.5996 57.1033 12.8916 57.104 13.1836C57.1057 13.6283 57.111 14.0729 57.1164 14.5176C57.1175 14.8017 57.1184 15.0859 57.1191 15.37C57.1212 15.5021 57.1234 15.6343 57.1255 15.7705C57.1217 16.7129 56.9468 17.4366 56.2893 18.1576C55.4631 18.8009 54.9463 18.9276 53.9142 18.9303C53.8036 18.9308 53.693 18.9313 53.579 18.9318C53.2077 18.9333 52.8365 18.9336 52.4652 18.9339C52.1992 18.9346 51.9333 18.9355 51.6673 18.9364C50.9443 18.9387 50.2213 18.9398 49.4983 18.9406C49.0465 18.9411 48.5948 18.9418 48.1431 18.9425C46.7299 18.9449 45.3166 18.9466 43.9033 18.9472C42.2719 18.948 40.6404 18.951 39.009 18.956C37.748 18.9597 36.487 18.9614 35.2259 18.9617C34.4728 18.9618 33.7196 18.9629 32.9665 18.9659C32.2578 18.9688 31.5493 18.9691 30.8406 18.9676C30.5808 18.9675 30.321 18.9682 30.0612 18.9699C29.7059 18.9721 29.3507 18.9711 28.9955 18.9693C28.7968 18.9696 28.5982 18.9698 28.3935 18.9701C27.6578 18.8845 27.0794 18.6338 26.5301 18.1327C25.5652 16.8936 25.7316 15.5905 25.7213 14.0898C25.7184 13.786 25.7138 13.4821 25.7072 13.1783C25.6977 12.7379 25.694 12.2977 25.6915 11.8573C25.6876 11.7231 25.6837 11.589 25.6797 11.4508C25.683 10.5832 25.8789 9.994 26.3217 9.25102C27.552 8.0419 28.992 8.15126 30.6114 8.16095ZM28.5315 10.9999C28.5315 12.7015 28.5315 14.403 28.5315 16.1562C37.0393 16.1562 45.5471 16.1562 54.3127 16.1562C54.3127 14.4546 54.3127 12.753 54.3127 10.9999C45.8049 10.9999 37.2971 10.9999 28.5315 10.9999Z" fill="#05568D"/>
<path d="M56.2743 33.318C56.4675 33.3168 56.6608 33.3156 56.8599 33.3143C57.072 33.3138 57.2842 33.3134 57.5028 33.3129C57.8378 33.3112 57.8378 33.3112 58.1795 33.3095C58.9203 33.3058 59.6611 33.3041 60.4019 33.3024C60.657 33.3017 60.9121 33.3009 61.1672 33.3002C62.3654 33.297 63.5637 33.2945 64.7619 33.2931C66.1451 33.2914 67.5281 33.2869 68.9112 33.2799C69.9804 33.2747 71.0497 33.2722 72.1189 33.2716C72.7575 33.2712 73.396 33.2697 74.0345 33.2654C74.7468 33.2606 75.459 33.2613 76.1714 33.2625C76.3828 33.2603 76.5943 33.2581 76.8121 33.2559C77.0064 33.2571 77.2006 33.2582 77.4007 33.2595C77.5691 33.2591 77.7375 33.2587 77.9109 33.2582C78.5082 33.3677 78.8004 33.6149 79.2343 34.0308C79.3424 34.3746 79.3424 34.3746 79.331 34.7183C79.3312 34.8317 79.3314 34.9452 79.3317 35.0621C79.1903 35.5611 78.9447 35.766 78.5468 36.0933C78.0964 36.1803 78.0964 36.1803 77.5748 36.1818C77.2777 36.185 77.2777 36.185 76.9746 36.1884C76.758 36.1873 76.5413 36.1861 76.3181 36.185C76.0872 36.1862 75.8562 36.1877 75.6252 36.1895C74.9984 36.1933 74.3717 36.1928 73.7449 36.1913C73.2217 36.1904 72.6984 36.1917 72.1752 36.1929C70.9409 36.1959 69.7067 36.1953 68.4724 36.1924C67.1989 36.1895 65.9254 36.1922 64.6519 36.1977C63.5584 36.2023 62.465 36.2036 61.3715 36.2021C60.7185 36.2013 60.0655 36.2017 59.4124 36.2052C58.7984 36.2083 58.1845 36.2073 57.5705 36.2031C57.2377 36.2018 56.9049 36.2048 56.5721 36.2079C56.3741 36.2057 56.176 36.2035 55.9719 36.2013C55.7998 36.2012 55.6277 36.2011 55.4503 36.201C54.8278 36.0522 54.6476 35.765 54.3124 35.2339C54.2271 34.6363 54.2393 34.3314 54.538 33.8052C55.054 33.2893 55.5825 33.321 56.2743 33.318Z" fill="#05568D"/>
<path d="M55.4501 48.877C55.6222 48.8769 55.7943 48.8768 55.9716 48.8767C56.1697 48.8745 56.3678 48.8724 56.5719 48.8701C56.7885 48.8721 57.0051 48.8741 57.2283 48.8762C57.4593 48.8753 57.6903 48.8741 57.9212 48.8725C58.548 48.8693 59.1747 48.8715 59.8015 48.8749C60.4575 48.8777 61.1134 48.8762 61.7694 48.8753C62.871 48.8746 63.9725 48.8773 65.0741 48.8821C66.3476 48.8876 67.621 48.8876 68.8946 48.8846C70.1197 48.8819 71.3448 48.8831 72.57 48.886C73.0913 48.8872 73.6127 48.887 74.1341 48.8857C74.7481 48.8844 75.3619 48.8865 75.9759 48.8912C76.3087 48.8929 76.6415 48.8913 76.9743 48.8896C77.1724 48.8918 77.3705 48.894 77.5745 48.8962C77.7467 48.8967 77.9188 48.8972 78.0961 48.8977C78.6746 49.0094 78.8795 49.209 79.234 49.6722C79.3147 50.3173 79.3253 50.71 79.0084 51.2835C78.4905 51.7823 77.9694 51.7567 77.2864 51.7588C77.0963 51.7598 76.9062 51.7608 76.7103 51.7618C76.5016 51.762 76.293 51.7622 76.078 51.7624C75.7484 51.7637 75.7484 51.7637 75.4122 51.765C74.8092 51.7672 74.2062 51.7683 73.6032 51.7691C73.2263 51.7696 72.8495 51.7703 72.4726 51.7711C71.2932 51.7734 70.1138 51.7751 68.9343 51.7757C67.5735 51.7765 66.2127 51.7795 64.8519 51.7845C63.7996 51.7882 62.7473 51.79 61.695 51.7902C61.0667 51.7904 60.4385 51.7914 59.8102 51.7944C59.109 51.7978 58.408 51.7971 57.7068 51.7959C57.4992 51.7975 57.2915 51.7991 57.0776 51.8007C55.2937 51.7918 55.2937 51.7918 54.484 51.2191C54.2388 50.7287 54.2588 50.3881 54.3121 49.8441C54.646 49.3111 54.8268 49.026 55.4501 48.877Z" fill="#05568D"/>
<path d="M56.4266 41.0549C56.6155 41.0542 56.8045 41.0534 56.9991 41.0527C57.2064 41.0528 57.4138 41.0528 57.6274 41.0529C57.8457 41.0523 58.064 41.0518 58.2889 41.0512C58.888 41.0496 59.4871 41.0492 60.0862 41.0491C60.5863 41.049 61.0865 41.0483 61.5866 41.0477C62.7668 41.0463 63.9469 41.0459 65.127 41.046C66.3442 41.0461 67.5614 41.0443 68.7785 41.0416C69.8237 41.0394 70.8688 41.0384 71.9139 41.0385C72.5381 41.0386 73.1622 41.0381 73.7863 41.0363C74.4826 41.0343 75.1788 41.0351 75.875 41.0361C76.0816 41.0352 76.2883 41.0342 76.5012 41.0332C76.6911 41.0339 76.881 41.0346 77.0766 41.0354C77.2412 41.0353 77.4057 41.0352 77.5753 41.0351C78.0796 41.0824 78.4406 41.1901 78.8906 41.4216C79.3169 42.0611 79.314 42.3838 79.2344 43.1404C78.8805 43.6045 78.6752 43.8031 78.0965 43.9149C77.9243 43.9154 77.7522 43.9158 77.5749 43.9163C77.2778 43.9196 77.2778 43.9196 76.9747 43.923C76.758 43.9218 76.5414 43.9207 76.3182 43.9196C76.0872 43.9208 75.8563 43.9223 75.6253 43.9241C74.9985 43.9279 74.3718 43.9274 73.745 43.9259C73.2218 43.925 72.6985 43.9263 72.1753 43.9275C70.941 43.9304 69.7067 43.9298 68.4725 43.927C67.1989 43.924 65.9255 43.9268 64.652 43.9323C63.5585 43.9369 62.4651 43.9382 61.3716 43.9367C60.7185 43.9359 60.0655 43.9362 59.4125 43.9398C58.7985 43.9429 58.1846 43.9419 57.5706 43.9377C57.2378 43.9364 56.905 43.9394 56.5722 43.9424C56.3741 43.9403 56.1761 43.9381 55.972 43.9359C55.7999 43.9358 55.6277 43.9357 55.4504 43.9355C54.8279 43.7867 54.6482 43.4992 54.3125 42.9685C54.2266 42.4421 54.2266 42.4421 54.3125 41.9373C54.9211 41.1607 55.4766 41.0566 56.4266 41.0549Z" fill="#05568D"/>
<path d="M56.3783 56.6128C56.5554 56.6114 56.5554 56.6114 56.736 56.6099C57.1244 56.6079 57.5124 56.612 57.9007 56.6165C58.1714 56.6168 58.4421 56.6168 58.7128 56.6165C59.2794 56.6167 59.8458 56.62 60.4123 56.6254C61.138 56.6322 61.8636 56.6329 62.5894 56.6317C63.1481 56.6311 63.7067 56.6332 64.2654 56.6362C64.533 56.6374 64.8006 56.6379 65.0682 56.6377C65.4422 56.6381 65.816 56.6417 66.19 56.6464C66.4026 56.6478 66.6153 56.6493 66.8344 56.6507C67.4165 56.7238 67.6584 56.8143 68.0621 57.2342C68.2121 57.8235 68.2906 58.2469 68.1158 58.8347C67.8329 59.1985 67.6336 59.3004 67.2027 59.4685C66.6756 59.5133 66.6756 59.5133 66.0497 59.5157C65.9353 59.5166 65.8209 59.5175 65.703 59.5184C65.3259 59.5208 64.9487 59.5206 64.5716 59.5202C64.3087 59.5209 64.0459 59.5216 63.783 59.5225C63.2324 59.5237 62.6818 59.5237 62.1312 59.5228C61.4265 59.5218 60.7218 59.5247 60.0171 59.5287C59.4744 59.5312 58.9316 59.5314 58.3888 59.5308C58.1291 59.5309 57.8693 59.5318 57.6095 59.5336C57.2458 59.5357 56.8823 59.5345 56.5187 59.5325C56.312 59.5326 56.1053 59.5327 55.8923 59.5329C55.29 59.4623 54.966 59.3145 54.484 58.9529C54.2357 58.4564 54.2473 58.1285 54.3121 57.5779C54.947 56.7675 55.362 56.6111 56.3783 56.6128Z" fill="#05568D"/>
</g>
<defs>
<clipPath id="clip0_1430_3621">
<rect width="88" height="88" fill="white"/>
</clipPath>
</defs>
</svg>
