<svg width="88" height="88" viewBox="0 0 88 88" fill="none" xmlns="http://www.w3.org/2000/svg">
<g clip-path="url(#clip0_1430_3753)">
<path d="M22.2411 1.11758C21.7599 1.3582 21.2271 1.75352 21.038 2.01133C20.2474 3.07695 0.430196 37.6066 0.189571 38.3113C0.000508457 38.8785 -0.016679 39.2566 0.103633 39.8754C0.223946 40.4426 2.56145 44.6363 7.95832 53.9863L15.6411 67.3066V75.5566C15.6583 81.8129 15.7099 83.9441 15.8818 84.4082C16.2255 85.3707 16.9302 86.1785 17.9099 86.7285L18.8208 87.227H34.0833H49.363L49.6896 86.8145C50.1021 86.2988 50.1021 85.7488 49.6896 85.2332L49.363 84.8207L34.2896 84.7348L19.2161 84.6488L18.7177 84.0816L18.2193 83.5316V73.5973C18.2193 64.4535 18.2536 63.6457 18.5286 63.3191C18.6833 63.1129 18.9927 62.8551 19.1989 62.752C19.7318 62.477 68.2693 62.477 68.8021 62.752C69.0083 62.8551 69.3177 63.1129 69.4724 63.3191C69.7474 63.6457 69.7818 64.4535 69.7818 73.5973V83.5316L69.2833 84.0816L68.7849 84.6488L61.1364 84.7348C53.9177 84.8207 53.4708 84.8379 53.1271 85.1473C52.6286 85.5941 52.663 86.3676 53.1958 86.9004L53.6255 87.3301L61.3943 87.2785L69.1802 87.227L70.0911 86.7285C71.0708 86.1785 71.7755 85.3707 72.1193 84.4082C72.2911 83.9441 72.3427 81.8129 72.3599 75.5566V67.3066L79.9568 54.1582C84.1333 46.9223 87.6568 40.6832 87.7943 40.3051C88.1724 39.2051 87.9489 38.3113 86.763 36.1973C85.5427 34.0316 85.113 33.516 84.4771 33.516C83.9271 33.516 83.188 34.2207 83.188 34.7363C83.188 34.9426 83.7036 36.0254 84.3224 37.1426C85.2333 38.7926 85.4224 39.2566 85.3021 39.5832C85.2333 39.8066 82.2255 45.066 78.6333 51.2879C73.3052 60.5004 72.0677 62.5457 71.9302 62.2879C71.5521 61.652 70.813 60.8957 70.2286 60.5863C69.8849 60.3973 69.6099 60.191 69.6099 60.1395C69.6099 60.0707 72.2224 55.4988 75.4021 49.9816C80.3693 41.3707 81.1771 39.8582 81.1771 39.2738C81.1771 38.6723 79.9739 36.5066 72.2568 23.1176C67.3583 14.6098 63.1302 7.4082 62.8724 7.1332L62.4255 6.61758H43.7771H25.1286L24.6818 7.03008C23.9943 7.66602 22.1724 11.0348 22.1724 11.6363C22.1724 12.2895 22.7052 12.7707 23.3927 12.7707C24.063 12.7707 24.3036 12.5129 25.3693 10.691L26.2286 9.1957H43.7427H61.2568L69.7474 23.891C74.4052 31.9691 78.3068 38.7582 78.4099 38.9473C78.5646 39.2566 77.7396 40.7691 72.6177 49.6551L66.6536 59.9848H59.8818H53.0927L53.7802 59.091C54.8974 57.5785 55.6708 55.7395 55.688 54.5707C55.7052 53.4535 55.8255 53.2816 56.7193 53.2816C57.9396 53.2816 59.2458 52.5426 59.8989 51.477L60.4146 50.652V47.4379V44.2238L59.8989 43.3816C59.2458 42.3332 57.9396 41.5941 56.7021 41.5941H55.9114L55.7911 40.752C55.7052 40.0816 55.5677 39.8066 55.1552 39.4629L54.6224 39.016H43.7943H32.9661L32.4677 39.5145L31.9693 40.0129V47.4723C31.9693 53.8316 32.0036 55.0691 32.2443 55.877C32.6052 57.0973 33.0521 57.9738 33.8943 59.091L34.5646 59.9848L27.6724 59.9504L20.763 59.8988L15.0052 49.9301C11.8427 44.4473 9.16145 39.7895 9.07551 39.5832C8.92082 39.2738 9.7802 37.6926 15.4349 27.8957C19.0271 21.6566 22.0349 16.3629 22.0864 16.1051C22.1896 15.7441 22.1036 15.5379 21.6739 15.1082C21.2271 14.6785 21.038 14.5926 20.6599 14.6957C20.4021 14.7473 20.0755 14.9363 19.9208 15.091C19.7661 15.2457 16.638 20.6082 12.9599 26.9848C7.21926 36.9535 6.27395 38.6895 6.27395 39.2738C6.27395 39.8582 7.11613 41.4051 12.1864 50.1707C17.4974 59.3832 18.0474 60.3973 17.7552 60.552C17.3599 60.7754 16.4833 61.6691 16.1568 62.1848C15.8989 62.5801 15.6755 62.202 9.3677 51.2879C5.77551 45.066 2.7677 39.8066 2.69895 39.6004C2.59582 39.3426 2.64738 39.016 2.85363 38.6379C3.50676 37.3488 22.6021 4.33164 22.9802 3.81602L23.3927 3.26601H44.0005H64.6083L65.0208 3.81602C65.2443 4.12539 68.6646 9.98633 72.6177 16.8441C76.5536 23.702 79.9911 29.6316 80.2489 30.027C80.7989 30.9379 81.4521 31.2129 82.1739 30.852C82.8099 30.5082 82.9818 29.8723 82.6036 29.0988C82.1911 28.2223 67.3755 2.57851 66.963 2.01133C66.7739 1.75352 66.2411 1.3582 65.7599 1.11758L64.9005 0.687889H44.0005H23.1005L22.2411 1.11758ZM53.2474 48.1598C53.1786 54.3988 53.1614 54.7941 52.8177 55.6535C52.113 57.4066 50.8239 58.7301 49.1052 59.452C48.0568 59.8988 47.988 59.8988 43.8286 59.8988C39.8239 59.8988 39.5661 59.8816 38.638 59.5035C37.4693 59.0395 35.888 57.6645 35.3552 56.6504C34.5818 55.1723 34.5474 54.8973 34.5474 48.0738V41.5941H43.9318H53.3161L53.2474 48.1598ZM57.338 44.3098C57.8021 44.6191 57.9224 45.2723 57.9224 47.4895C57.9224 49.5691 57.888 49.8441 57.5614 50.2566C57.2864 50.6004 57.063 50.7035 56.5302 50.7035H55.8599V47.4379V44.1723H56.513C56.8568 44.1723 57.2349 44.241 57.338 44.3098Z" fill="#05568D"/>
<path d="M37.5203 13.9908C32.5531 16.5002 29.7859 18.4768 28.5141 20.4362C28.1187 21.0377 28.0156 21.3987 28.0156 22.1205C28.0156 23.5987 28.5484 24.3377 30.1984 25.1627C31.9516 26.0393 33.6187 26.383 40.3047 27.2424C46.2516 27.9987 48.1422 28.394 49.2766 29.1502C49.6547 29.3908 49.6547 29.4252 49.4312 29.8893C49.0187 30.6627 46.6469 32.3643 44.2578 33.5674C43.6047 33.894 42.9172 34.3237 42.7453 34.5127C42.2984 35.0112 42.4187 35.8877 43.0031 36.3174C43.4156 36.6268 43.5531 36.644 44.1031 36.4721C44.9797 36.2143 48.1594 34.3752 49.5687 33.3096C53.2984 30.508 53.0234 27.5346 48.8641 26.1424C47.3344 25.6268 45.6672 25.3346 41.1641 24.7502C34.5641 23.908 32.6219 23.5471 31.2469 22.8424C30.2672 22.344 30.3531 21.9143 31.6937 20.6768C33.0516 19.4049 35.7156 17.7377 39.1187 16.0705C40.5625 15.3658 41.8172 14.6612 41.9375 14.5065C42.2641 14.1283 42.2125 13.269 41.8344 12.8908C41.1469 12.2377 40.9062 12.2893 37.5203 13.9908Z" fill="#05568D"/>
<path d="M38.6899 19.9203C38.2431 20.3672 38.2259 21.2094 38.6556 21.6391C39.0165 22 39.1368 22.0344 42.0243 22.4469C44.4477 22.7906 46.8368 23.2547 49.3634 23.8906C51.7696 24.5094 52.4227 24.5266 52.8524 24.0625C53.2477 23.6156 53.2649 22.7906 52.8696 22.361C52.3196 21.7594 43.9149 19.9203 40.4602 19.6625C39.1884 19.5594 39.0337 19.5766 38.6899 19.9203Z" fill="#05568D"/>
<path d="M41.4566 30.1818C39.6691 31.0755 38.191 33.2755 38.0363 35.3036C37.9504 36.2146 37.9848 36.3865 38.3113 36.6786C39.1191 37.4005 40.3051 36.9193 40.477 35.7677C40.6488 34.7708 41.2676 33.5333 41.8863 32.9833C42.2129 32.7083 42.5223 32.4849 42.6082 32.4849C42.6769 32.4849 42.952 32.2958 43.2098 32.0552C43.7426 31.5568 43.8285 30.6286 43.3644 30.2161C42.7973 29.7177 42.3848 29.7177 41.4566 30.1818Z" fill="#05568D"/>
<path d="M37.5547 66.6883C37.3484 66.757 37.1078 66.9289 37.0047 67.0492C36.9188 67.1867 35.9563 70.1258 34.8906 73.6148C32.8109 80.4555 32.8453 80.1633 33.8766 80.7133C34.5297 81.0398 35.1656 81.0226 35.5609 80.6273C35.7328 80.4555 36.0078 79.768 36.1797 79.0805L36.4719 77.8601H38.5859H40.7172L40.975 78.7539C41.1125 79.2523 41.2844 79.8711 41.3531 80.1461C41.4047 80.4039 41.6109 80.6961 41.8 80.7992C42.5219 81.1773 43.8281 80.593 43.8281 79.8883C43.8281 79.5273 40.3219 67.9773 40.0125 67.2898C39.7203 66.6367 38.4313 66.3273 37.5547 66.6883ZM39.6 72.8242C40.0297 74.3367 40.3906 75.643 40.3906 75.6945C40.3906 75.7461 39.6516 75.7976 38.7406 75.7976C37.2453 75.7976 37.0906 75.7633 37.1594 75.4883C38.0359 72.3258 38.7406 69.9539 38.775 70.0055C38.7922 70.0226 39.1703 71.2945 39.6 72.8242Z" fill="#05568D"/>
<path d="M58.4716 66.6875C58.2654 66.7735 58.0075 67.0313 57.9216 67.2375C57.8185 67.461 56.8904 70.3657 55.8591 73.7172C53.8482 80.2485 53.8654 80.1969 54.8279 80.6953C56.031 81.3141 56.6497 80.9188 57.1482 79.2172L57.5091 77.9453H59.6232H61.7544L62.1497 79.3032C62.545 80.6782 62.7341 80.9532 63.3013 80.9532C63.8169 80.9532 64.7622 80.4375 64.8482 80.111C64.8825 79.9391 64.2466 77.6188 63.4216 74.9203C62.5966 72.2391 61.72 69.3688 61.4622 68.5438C61.0841 67.2719 60.9294 66.9969 60.4997 66.7735C59.9497 66.4813 59.0732 66.4469 58.4716 66.6875ZM60.5857 72.7547C61.0154 74.2328 61.3591 75.5219 61.3591 75.625C61.3591 75.7282 60.7404 75.7969 59.7091 75.7969C58.3513 75.7969 58.0763 75.7453 58.145 75.5563C58.1966 75.4188 58.5747 74.1125 58.9872 72.6344C59.3825 71.1735 59.7435 69.9875 59.7607 70.0219C59.795 70.0563 60.1732 71.2766 60.5857 72.7547Z" fill="#05568D"/>
<path d="M26.8812 67.1172C26.5547 67.6329 26.6922 68.5094 27.1562 68.75C27.3281 68.8532 27.9469 68.9219 28.5312 68.9219H29.5969L29.5281 73.2016C29.4766 77.2407 29.4594 77.5157 29.1156 77.9797C28.3078 79.0625 26.4344 79.0625 25.7812 77.9797C25.5922 77.6704 25.4375 77.275 25.4375 77.086C25.4375 76.3813 24.9562 75.9688 24.1484 75.9688C23.2547 75.9688 22.8594 76.3985 22.8594 77.3438C22.8766 78.7704 24.2 80.3688 25.7469 80.7985C28.5141 81.5719 31.1781 80.4375 31.7969 78.2204C31.9 77.8766 31.9688 75.3329 31.9688 72.325C31.9688 67.2719 31.9516 67.0313 31.6422 66.8594C31.4531 66.7735 30.3703 66.6875 29.2359 66.6875C27.225 66.6875 27.1562 66.7047 26.8812 67.1172Z" fill="#05568D"/>
<path d="M44.2922 67.0317C44.0344 67.238 43.8281 67.4958 43.8281 67.5989C43.8281 67.8911 47.5922 80.0942 47.7984 80.4723C48.1594 81.1598 50.1531 81.1942 50.7031 80.5239C50.9266 80.2661 54.6562 68.1489 54.6562 67.6848C54.6562 66.8427 52.8172 66.3442 52.3703 67.0661C52.2328 67.2895 51.5281 69.6614 50.7891 72.3598C50.05 75.0583 49.3969 77.327 49.3281 77.3958C49.2594 77.4645 48.6578 75.5395 47.9703 73.0989C46.0281 66.1723 46.2687 66.7911 45.4438 66.7223C44.9453 66.688 44.6359 66.7739 44.2922 67.0317Z" fill="#05568D"/>
</g>
<defs>
<clipPath id="clip0_1430_3753">
<rect width="88" height="88" fill="white"/>
</clipPath>
</defs>
</svg>
