<svg width="88" height="88" viewBox="0 0 88 88" fill="none" xmlns="http://www.w3.org/2000/svg">
<path d="M21.4134 0.240623C20.6768 0.549995 19.9403 1.46094 19.7745 2.26875L19.6456 2.90469L12.5192 2.95625L5.41126 3.00781L4.21432 3.55781C2.68593 4.2625 1.41533 5.44843 0.660339 6.875L0.0710769 7.99219L0.0158336 42.3156C-0.0209953 75.7109 -0.0209953 76.6734 0.328879 77.5844C1.04704 79.5094 2.6491 81.0734 4.71151 81.8469L5.77955 82.2422L24.1203 82.2937L42.4611 82.3281L42.59 83.6516C42.811 85.8172 43.4739 86.8312 45.1864 87.5875L46.1072 88H65.3502H84.5933L85.5141 87.5875C86.5084 87.1578 87.3555 86.3672 87.7606 85.4734C87.9632 85.0266 88 81.8469 88 68.2C88 52.2672 87.9816 51.4422 87.6501 50.7891C87.466 50.4109 87.024 49.8609 86.6926 49.5516C85.4588 48.4688 85.4588 48.4688 77.246 48.4688H69.7697L69.7329 28.3078L69.6776 8.16406L69.0884 7.0125C68.315 5.46562 67.0628 4.24531 65.5528 3.55781L64.3375 3.00781L57.1558 2.92188L49.9742 2.83594L49.8821 2.23438C49.7348 1.39219 49.2008 0.72187 48.3906 0.326561C47.7092 0.017189 47.212 0 34.8375 0C24.4334 0.017189 21.8738 0.0515594 21.4134 0.240623ZM47.12 6.53125V10.5016L46.6596 10.9141L46.2176 11.3438H41.2273H36.2554V10.4156C36.2554 9.22968 35.7767 8.59375 34.8559 8.59375C33.88 8.59375 33.4933 9.075 33.4933 10.3125V11.3438H28.4477H23.4022L22.9234 10.8109L22.4446 10.2781V6.42812V2.57812H34.7823H47.12V6.53125ZM19.6824 7.04688V8.57656L13.753 8.62812C7.93404 8.67969 7.78672 8.67969 7.23429 9.05781C5.9637 9.9 6.05577 7.18437 6.05577 42.625C6.05577 78.0656 5.94528 75.1438 7.28953 76.0891L7.95245 76.5703L25.2436 76.6219L42.5163 76.6562V78.2031V79.75H24.7096C13.1453 79.75 6.64503 79.6812 6.20308 79.5781C5.00615 79.2688 3.80921 78.375 3.25677 77.3609L2.74117 76.45V42.6078C2.74117 13.9391 2.778 8.6625 2.99897 8.18125C3.36726 7.35625 4.47213 6.27344 5.37443 5.86094C6.11101 5.51719 6.42406 5.5 12.9244 5.5H19.6824V7.04688ZM64.3927 5.94688C64.9267 6.1875 65.5896 6.66875 65.9027 7.0125C67.0628 8.33594 67.0075 7.23594 67.0075 28.8234V48.4688H65.3502H63.6929L63.6561 29.4078C63.6009 10.45 63.6009 10.3297 63.2142 9.86562C63.0116 9.60781 62.6065 9.22968 62.3303 9.04063C61.8515 8.69688 61.52 8.67969 55.9036 8.59375L49.9742 8.50781L49.9189 6.99531L49.8637 5.5H56.6586H63.4351L64.3927 5.94688ZM20.0507 11.3953C20.0507 11.8937 21.2108 13.0453 22.1132 13.475L23.0707 13.9219H34.8559C45.8862 13.9219 46.7148 13.8875 47.3962 13.5953C48.188 13.2687 49.4033 12.1344 49.6059 11.5328C49.7164 11.1719 49.7901 11.1719 55.3328 11.1719H60.9308V29.8203V48.4688H53.4361C46.5307 48.4688 45.8678 48.5031 45.1864 48.7953C44.2289 49.2078 43.566 49.7922 43.032 50.7203L42.6084 51.4766L42.5532 62.7859L42.4979 74.0781H25.6487H8.81793V42.625V11.1719H14.4343C18.9275 11.1719 20.0507 11.2234 20.0507 11.3953ZM57.8372 55.7219C57.8924 60.0703 57.9292 60.4656 58.2607 61.0156C58.6842 61.7031 59.9732 62.3906 60.8387 62.3906C61.1333 62.3906 62.275 61.9953 63.3799 61.4969L65.3502 60.6031L67.339 61.4969C68.4255 61.9953 69.5672 62.3906 69.8618 62.3906C70.7825 62.3734 71.8874 61.8062 72.3661 61.0844C72.8081 60.4312 72.8081 60.3281 72.8633 55.7219L72.9186 51.0469H78.6455C84.2803 51.0469 84.3908 51.0469 84.8143 51.425L85.2378 51.7859V68.1828V84.5797L84.7775 84.9922L84.3355 85.4219H65.3502H46.365L45.923 84.9922L45.4627 84.5797V68.2172V51.8375L45.8678 51.4422L46.2545 51.0469H52.0182H57.7819L57.8372 55.7219ZM70.138 55.3094C70.138 57.6641 70.0828 59.6234 70.0275 59.6922C69.9539 59.7437 69.07 59.4 68.0572 58.9187C65.5712 57.7672 65.1293 57.7672 62.6433 58.9187C61.6305 59.4 60.7466 59.7437 60.673 59.6922C60.6177 59.6234 60.5625 57.6641 60.5625 55.3094V51.0469H65.3502H70.138V55.3094Z" fill="#05568D"/>
<path d="M26.2565 17.2563C24.6913 17.7891 24.2861 18.5797 24.2861 21.175C24.2861 22.8594 24.3414 23.2375 24.7097 23.8907C24.9491 24.3375 25.3726 24.8016 25.7593 25.0078C26.367 25.3344 26.7721 25.3516 34.0458 25.4032C38.2443 25.4375 42.1297 25.4032 42.6637 25.3516C43.7318 25.2313 44.542 24.7157 45.0208 23.8563C45.3891 23.2032 45.5548 21.3469 45.3707 19.8688C45.2602 18.8719 45.1497 18.6141 44.5973 18.0297C44.229 17.6516 43.6765 17.2907 43.2898 17.1875C42.2034 16.9125 27.122 16.9813 26.2565 17.2563ZM42.5164 21.2266V22.8594L34.8376 22.825L27.1404 22.7735L27.0851 21.4157C27.0483 20.6594 27.0667 19.9547 27.122 19.8172C27.1956 19.6453 28.6504 19.5938 34.8744 19.5938H42.5164V21.2266Z" fill="#05568D"/>
<path d="M12.5011 28.8755C12.0407 29.3052 12.0223 30.0958 12.4827 30.6114L12.8326 31.0239L23.8444 31.0755C31.5048 31.1099 35.022 31.0583 35.3534 30.938C35.8138 30.7489 36.2557 30.1302 36.2557 29.6661C36.2557 29.5458 36.09 29.2364 35.869 28.9786L35.5007 28.5317H24.1759C13.1088 28.5317 12.8694 28.5317 12.5011 28.8755Z" fill="#05568D"/>
<path d="M49.1451 28.8754C48.6479 29.3395 48.6663 30.2676 49.1635 30.6973C49.5134 30.9895 49.9185 31.0238 53.0305 31.0754L56.5108 31.127L57.0633 30.6113C57.7078 30.0098 57.763 29.5973 57.229 28.9785L56.8607 28.5316H53.1778C49.7527 28.5316 49.4949 28.5488 49.1451 28.8754Z" fill="#05568D"/>
<path d="M12.5376 34.5984C12.0035 35.1313 12.0219 35.8359 12.5928 36.3516L13.0347 36.7812H18.0066C22.9049 36.7812 22.9785 36.7812 23.4389 36.3859C24.1018 35.8359 24.1571 35.1141 23.5494 34.5469C23.1995 34.2203 22.9417 34.2031 18.0619 34.2031C12.9427 34.2031 12.9243 34.2031 12.5376 34.5984Z" fill="#05568D"/>
<path d="M27.7844 34.5469C27.2319 35.0625 27.2872 35.9734 27.8948 36.4203C28.3552 36.7469 28.6314 36.7812 31.6698 36.7812C35.1685 36.7812 35.7026 36.6781 36.0524 35.9734C36.3471 35.3547 36.3102 35.0969 35.7946 34.6328C35.3527 34.2031 35.3343 34.2031 31.7435 34.2031C28.392 34.2031 28.1342 34.2203 27.7844 34.5469Z" fill="#05568D"/>
<path d="M49.1457 34.5469C48.5933 35.0625 48.6485 35.9734 49.2562 36.4203C49.7165 36.7469 49.9928 36.7812 53.0311 36.7812C56.5299 36.7812 57.0639 36.6781 57.4138 35.9734C57.7084 35.3547 57.6716 35.0969 57.156 34.6328C56.714 34.2031 56.6956 34.2031 53.1048 34.2031C49.7534 34.2031 49.4956 34.2203 49.1457 34.5469Z" fill="#05568D"/>
<path d="M12.6117 40.2359C11.9856 40.7 11.9672 41.4563 12.5933 42.0234L13.0352 42.4531H24.1575C34.488 42.4531 35.3167 42.4359 35.685 42.1438C35.8875 41.9891 36.1269 41.6109 36.1822 41.3016C36.2742 40.8547 36.2006 40.6656 35.8323 40.3219L35.3535 39.875H24.2312C13.2562 39.875 13.0905 39.875 12.6117 40.2359Z" fill="#05568D"/>
<path d="M49.1825 40.2703C48.6116 40.8375 48.6484 41.6453 49.2561 42.0922C49.7165 42.4359 49.9927 42.4531 53.1968 42.4531C56.3088 42.4531 56.6955 42.4188 57.0822 42.1266C57.3953 41.9031 57.5058 41.6281 57.5058 41.1641C57.5058 40.7 57.3953 40.425 57.0822 40.2016C56.6955 39.9094 56.2904 39.875 53.1231 39.875C49.6612 39.875 49.5692 39.8922 49.1825 40.2703Z" fill="#05568D"/>
<path d="M13.6427 54.4328C13.3112 54.5875 12.8508 54.9484 12.6299 55.2406C12.2247 55.7734 12.2247 55.8766 12.1695 62.4078L12.1143 69.025L12.5378 69.6094C12.7772 69.9359 13.256 70.3484 13.6058 70.5375C14.2319 70.8812 14.5265 70.8984 21.1557 70.8984C27.7297 70.8984 28.098 70.8812 28.6688 70.5547C29.0003 70.3656 29.4607 69.9359 29.6816 69.6094C30.0867 69.025 30.0867 68.8875 30.0867 62.4422C30.0867 56.0656 30.0683 55.8766 29.7 55.3953C29.4975 55.1375 29.0371 54.7422 28.7057 54.5187C28.098 54.1406 28.0612 54.1406 21.1742 54.1406C15.1711 54.1406 14.1767 54.1922 13.6427 54.4328ZM27.3798 62.5109L27.3246 68.3203L21.1189 68.3719L14.8948 68.4062V62.5625V56.7188H21.1557H27.4167L27.3798 62.5109Z" fill="#05568D"/>
<path d="M18.6699 61.6172C18.1174 62.1328 18.0806 62.7172 18.5962 63.3188C18.9645 63.7484 19.0197 63.7656 21.0821 63.7656C22.942 63.7656 23.2182 63.7313 23.5497 63.4219C24.1574 62.8547 24.1021 62.1328 23.4392 61.5656C23.0157 61.2219 22.7947 61.1875 21.0453 61.1875C19.2407 61.1875 19.075 61.2219 18.6699 61.6172Z" fill="#05568D"/>
<path d="M65.3505 68.802C65.0006 69.0082 64.5586 69.4551 64.3561 69.7816C63.9878 70.3488 63.9694 70.641 63.9694 75.3676C63.9694 82.7582 63.3985 82.3113 72.974 82.3285C79.2349 82.3285 79.6401 82.3113 80.3582 81.9848C80.837 81.7613 81.2605 81.4004 81.5183 80.9707C81.905 80.3348 81.9234 80.1285 81.9234 75.2645C81.9234 70.5207 81.905 70.177 81.5552 69.6441C81.3526 69.3348 80.9291 68.9395 80.5976 68.7504C80.0268 68.4238 79.6585 68.4066 72.974 68.4066C65.995 68.4066 65.9581 68.4066 65.3505 68.802ZM79.1613 75.3676V79.7504L72.9556 79.716L66.7315 79.6645L66.6763 75.316L66.6395 70.9848H72.9004H79.1613V75.3676Z" fill="#05568D"/>
<path d="M71.2437 74.4222C70.7281 74.9034 70.765 75.7112 71.3542 76.2612C71.7778 76.6566 71.9251 76.6909 73.122 76.6222C74.2085 76.5706 74.4663 76.4847 74.7609 76.1581C75.2213 75.6425 75.2028 75.0925 74.7241 74.5253C74.3742 74.1128 74.2453 74.0784 72.9747 74.0784C71.8514 74.0784 71.5384 74.1472 71.2437 74.4222Z" fill="#05568D"/>
<path d="M49.1457 74.4219C48.5933 74.9375 48.6485 75.8484 49.2562 76.2953C49.7165 76.6219 49.9928 76.6562 53.0311 76.6562C56.5299 76.6562 57.0639 76.5531 57.4138 75.8484C57.7084 75.2641 57.6716 75.0406 57.2296 74.525L56.8613 74.0781H53.1784C49.7534 74.0781 49.4956 74.0953 49.1457 74.4219Z" fill="#05568D"/>
<path d="M49.1826 80.0938C48.5933 80.6094 48.6301 81.5031 49.2562 81.9672C49.7166 82.2938 49.9928 82.3281 53.0312 82.3281C54.8358 82.3281 56.5115 82.2594 56.7509 82.1734C57.69 81.8297 57.7821 80.3688 56.8982 79.9391C56.6772 79.8188 55.1488 79.75 53.068 79.75C49.8087 79.75 49.5509 79.7672 49.1826 80.0938Z" fill="#05568D"/>
</svg>
