<svg width="88" height="88" viewBox="0 0 88 88" fill="none" xmlns="http://www.w3.org/2000/svg">
<g clip-path="url(#clip0_1430_3815)">
<path d="M31.0751 0.928482C29.5454 1.54723 28.6345 2.1488 27.5345 3.24879L26.5204 4.28004L25.5923 3.91911C24.286 3.42067 21.7595 3.30035 20.2985 3.67848C15.8642 4.81286 12.8392 8.6113 12.822 13.08L12.8048 14.5754L11.8079 15.2113C8.86884 17.1191 6.89228 20.8316 6.87509 24.441V25.6097L6.13603 25.9707C4.43446 26.8472 3.0079 28.5488 2.47509 30.3707C2.0454 31.8316 2.13134 33.791 2.64696 35.1144C2.90478 35.716 3.09384 36.266 3.09384 36.3347C3.09384 36.4035 2.81884 36.7988 2.47509 37.1769C1.61571 38.1738 0.550088 40.4254 0.2579 41.8519C-0.515538 45.5644 0.584462 49.2597 3.24853 51.9238C3.9704 52.6285 4.74384 53.3332 4.96728 53.4707L5.39696 53.7457L4.91571 55.1894C4.53759 56.341 4.43446 56.9425 4.43446 58.2144C4.43446 61.0504 5.31103 63.1129 7.37353 65.1582L8.67978 66.4472L8.54228 67.2207C8.33603 68.2691 8.52509 71.4144 8.83446 72.4629C8.98915 72.9441 9.24696 73.4769 9.43603 73.6316C9.91728 74.0613 10.7938 73.9238 11.2235 73.3566C11.5673 72.9097 11.5673 72.8754 11.2579 71.4316C10.7079 68.8363 11.1376 66.0347 12.4095 63.7832C12.7017 63.2675 13.4579 62.3222 14.0595 61.6691C15.9329 59.6754 18.3392 58.5238 21.0204 58.3175C22.6704 58.1972 23.1001 57.905 23.1001 56.9769C23.1001 56.4957 22.997 56.2379 22.6876 55.98C22.3095 55.6879 22.1032 55.6535 20.8829 55.7566C16.3282 56.1004 12.186 58.7816 10.0548 62.7519L9.50478 63.7832L8.76571 62.9582C6.97821 60.9472 6.49696 58.0425 7.51103 55.4988C7.73446 54.9144 7.83759 54.8113 8.14696 54.8972C8.35321 54.966 9.14384 55.1035 9.93446 55.2066C11.2579 55.3957 11.3782 55.3785 11.8251 55.0519C12.8735 54.2785 12.3407 52.766 11.0173 52.766C10.6735 52.766 9.91728 52.6457 9.31571 52.5082C6.10165 51.7519 3.66103 49.3457 2.83603 46.1488C1.73603 41.8347 4.34853 37.3316 8.81728 35.9222C9.90009 35.5785 10.1923 34.3582 9.3329 33.6879C8.74853 33.2238 8.14696 33.3097 6.41103 34.1175L5.17353 34.6847L4.96728 34.0832C4.19384 31.7113 5.53446 28.8925 7.87196 28.016C8.3704 27.8269 8.85165 27.6722 8.93759 27.6722C9.02353 27.6722 9.21259 27.5004 9.36728 27.2769C9.59071 26.9675 9.6079 26.6066 9.52196 25.266C9.35009 22.6879 10.0204 20.591 11.6188 18.7691C12.4954 17.7722 13.5954 16.9988 13.7157 17.3254C13.7501 17.4457 14.0938 17.9957 14.472 18.5629C16.036 20.9004 18.7173 22.4988 21.5876 22.7738C22.6532 22.8769 22.8251 22.8597 23.2548 22.516C24.2173 21.7425 23.6157 20.2816 22.3267 20.2816C21.4329 20.2816 19.7829 19.8004 18.9235 19.3019C16.4657 17.8582 14.9704 14.73 15.4517 11.9972C15.8642 9.67692 17.3251 7.75192 19.5079 6.68629C20.6423 6.13629 20.8142 6.10192 22.5157 6.10192C24.2001 6.10192 24.4063 6.13629 25.5063 6.65192C27.1907 7.45973 27.5173 7.42535 28.3423 6.30817C29.4595 4.77848 30.9892 3.57536 32.3126 3.18005C33.4813 2.8363 33.8767 1.71911 33.086 0.945671C32.5704 0.412857 32.3126 0.412857 31.0751 0.928482Z" fill="#05568D"/>
<path d="M36.9879 1.08286C36.5754 1.51255 36.5066 2.06255 36.7816 2.57818C36.8676 2.75005 37.5207 3.16255 38.2082 3.5063C40.6316 4.65786 42.2644 6.97817 42.6254 9.71099C42.7457 10.6219 42.7973 17.5657 42.7629 29.9063L42.7113 48.7266H40.0473C37.8129 48.7094 37.2801 48.6579 36.7816 48.4001C35.4238 47.6954 34.7707 46.6813 34.5988 45.0141C34.4785 43.7938 34.1176 43.3125 33.3441 43.3125C32.7769 43.3125 32.2098 43.7766 32.0551 44.3954C31.8832 45.0657 32.2785 46.9563 32.7941 47.9704L33.2926 48.9501L32.6566 49.1391C31.2301 49.5688 29.6832 51.511 29.4598 53.1782C29.3051 54.2782 29.4769 54.811 30.1129 55.0688C31.0926 55.4813 31.7457 55.0001 31.9863 53.6938C32.1754 52.6969 32.5019 52.1641 33.2238 51.7344C33.7394 51.4251 34.1176 51.3907 38.2941 51.3907H42.7973V63.1985C42.7973 69.7126 42.7113 75.5735 42.6254 76.261C42.2129 79.4063 40.4941 82.036 37.8988 83.5313C36.3004 84.4422 34.9769 84.786 33.0863 84.7688C31.0754 84.7688 29.7004 84.4079 28.1019 83.4454C25.3691 81.8126 23.7535 79.2516 23.3926 75.9344C23.2723 74.8001 23.1519 74.4563 22.8598 74.2157C22.3269 73.786 21.6223 73.8204 21.141 74.336C20.7801 74.7313 20.7629 74.8516 20.8488 76.1751C20.9004 76.9657 21.1066 78.1344 21.3129 78.7704C21.5191 79.4235 21.6394 79.9907 21.6051 80.0422C21.5535 80.0766 20.8316 80.0079 20.0066 79.8532C18.1332 79.5266 16.1223 78.5813 14.7816 77.3782C14.266 76.9141 13.6644 76.4844 13.4754 76.4157C12.6504 76.1579 11.6707 77.1719 11.9457 78.0141C12.1004 78.4954 13.7332 79.9563 14.9535 80.6954C16.9816 81.9329 20.1613 82.7751 22.3441 82.6547C23.1348 82.6032 23.1863 82.6376 24.3551 83.8063C26.3144 85.7485 28.4457 86.8141 31.2644 87.2782C37.2629 88.2751 43.0551 84.4766 44.8769 78.3751C45.2379 77.1376 45.2551 76.7422 45.341 69.1282L45.4098 61.1876H46.7676H48.1254V66.0688C48.1254 72.2219 47.8676 71.7407 51.116 71.8094L53.4535 71.8782V74.5766V77.2751L52.6973 77.8079C52.2848 78.1001 51.7519 78.5985 51.5113 78.9079C50.0848 80.7985 50.7723 83.4969 52.9379 84.6141C53.7629 85.0438 54.0207 85.0954 54.9832 85.0266C56.9598 84.8719 58.4035 83.4282 58.5582 81.4516C58.6269 80.4891 58.5754 80.2313 58.1457 79.4063C57.8019 78.736 57.441 78.3235 56.8566 77.9454L56.0488 77.4297V73.8032C56.0316 69.0251 56.1863 69.2657 53.0066 69.2657H50.7035V65.2266V61.1876H52.0785H53.4535V63.5079C53.4535 65.6047 53.4879 65.8626 53.7973 66.1719C54.3129 66.6876 55.2238 66.636 55.6707 66.0688C55.9973 65.6563 56.0316 65.3813 56.0316 63.4047V61.1876H57.4066H58.7816V63.3876C58.7816 66.3782 58.7473 66.3438 61.841 66.3438H64.1098V69.2657C64.1098 71.5688 64.0582 72.1876 63.8863 72.1876C63.766 72.1876 63.3363 72.4626 62.9238 72.8063C61.6863 73.8719 61.2051 75.2985 61.6004 76.7938C62.1504 78.9594 64.3332 80.1797 66.5332 79.5782C67.3582 79.3547 68.5613 78.2891 68.9394 77.4469C69.3004 76.6735 69.3519 75.5219 69.0941 74.5766C68.8707 73.8032 67.891 72.6516 67.2035 72.3594L66.6879 72.1532V68.561C66.6879 66.3094 66.6191 64.8313 66.4988 64.5735C66.2066 63.9204 65.6394 63.7657 63.4223 63.7657H61.3598V62.4938V61.2391L63.1644 61.1532C65.1238 61.0672 65.5019 60.9126 66.241 59.9157C66.5504 59.5204 66.6191 59.1422 66.6535 57.4751L66.7223 55.5157H69.3691H72.016V57.1485C72.016 58.7641 72.016 58.7813 71.5348 59.0219C71.2598 59.1594 70.7613 59.5891 70.4176 59.9672C69.1113 61.411 69.1113 63.5422 70.4348 65.0032C72.6863 67.5126 76.6394 66.361 77.2582 63.0266C77.5332 61.5829 76.4504 59.5032 75.1098 58.9532L74.5941 58.7469V56.2032C74.5941 52.8001 74.9207 53.0407 70.2801 52.9719L66.6879 52.9204V51.5454V50.1875H68.991C71.2769 50.1875 71.3113 50.1875 71.6551 49.7407C72.0676 49.2251 72.1019 49.0016 71.8269 48.4172C71.5348 47.7641 70.9676 47.6094 68.7504 47.6094H66.6879V46.2344V44.8594H69.7473H72.8066L75.3332 47.4204C77.7394 49.8438 77.8598 49.9985 77.6879 50.4454C77.6019 50.686 77.516 51.3391 77.516 51.8891C77.516 53.9516 79.2691 55.6876 81.3832 55.6876C83.4973 55.6876 85.2504 53.9688 85.2504 51.8719C85.2504 51.3219 85.1301 50.5829 84.9754 50.2219C84.2707 48.5204 82.3457 47.5407 80.5066 47.9532L79.6988 48.1422L76.7426 45.2032L73.8035 42.2813H70.2457H66.6879V40.9063V39.5313H73.5629C79.1488 39.5313 80.4379 39.5657 80.4379 39.7547C80.4379 40.1501 81.6582 41.4219 82.3973 41.8001C83.2738 42.2469 84.7691 42.2813 85.6629 41.8516C88.0691 40.7001 88.7223 37.7438 87.0035 35.7329C86.6598 35.3376 86.0754 34.8735 85.6973 34.7016C84.8551 34.3235 83.3941 34.2891 82.6035 34.6157C81.8301 34.9422 80.8676 35.8188 80.6098 36.4375L80.4035 36.9532H73.5457H66.6879V35.5782V34.2032H68.9223C71.0879 34.2032 71.191 34.186 71.5863 33.7735C72.1363 33.2407 72.1363 32.5876 71.5863 32.0547C71.191 31.6422 71.0879 31.625 68.9394 31.625H66.7223L66.6535 29.8376C66.6191 28.3422 66.5332 27.9641 66.241 27.5516C65.6223 26.7094 64.9004 26.4688 63.0441 26.4688H61.3598V25.0079V23.5469H62.9066C64.1957 23.5469 64.4535 23.5985 64.4535 23.8047C64.4535 23.9594 64.8316 24.4579 65.2957 24.9219C66.1894 25.8157 66.9457 26.125 68.2004 26.125C70.7098 26.125 72.6004 23.4438 71.7754 21.0376C70.6754 17.8235 66.5332 17.3422 64.7285 20.1954L64.2301 20.9688H61.9269C59.7098 20.9688 59.6066 20.986 59.2113 21.3985C58.7988 21.7938 58.7816 21.8969 58.7816 24.1485V26.4688H57.4066H56.0316V22.4297V18.3907H58.266C60.4316 18.3907 60.5348 18.3735 60.9301 17.961C61.3426 17.5657 61.3598 17.4625 61.3598 15.1766L61.3769 12.8047L62.116 12.3579C63.5082 11.5157 64.2301 9.60786 63.7832 7.97505C63.6801 7.59692 63.3191 6.9438 62.9582 6.54848C60.3113 3.43755 55.241 5.9813 56.2035 9.95161C56.4441 10.9485 57.441 12.2032 58.266 12.5469L58.7816 12.7532V14.2829V15.8126H56.4957C53.2129 15.8126 53.4535 15.3485 53.4535 21.536V26.4688H52.0785H50.7035V24.4063C50.7035 22.911 50.6348 22.1891 50.4457 21.8454C50.0504 21.0547 49.3113 20.9172 48.5723 21.5016C48.1254 21.8454 48.1254 21.8797 48.1254 24.1657V26.4688H46.7504H45.3754V18.6829C45.3754 10.4844 45.2723 8.74849 44.7051 7.13287C43.8457 4.70943 42.0066 2.59536 39.7379 1.40942C38.1566 0.584427 37.5207 0.515678 36.9879 1.08286ZM60.9301 8.16412C61.9269 9.16099 60.8957 10.8282 59.5894 10.3297C58.9363 10.0719 58.5582 9.40161 58.6957 8.76568C58.9191 7.73443 60.1738 7.39068 60.9301 8.16412ZM69.0598 21.4157C69.266 21.6563 69.4379 22.0344 69.4379 22.275C69.4379 22.8766 68.716 23.5469 68.0629 23.5469C67.4269 23.5469 66.6879 22.8766 66.6879 22.3094C66.6879 21.7938 67.1348 21.1579 67.616 20.9688C68.1144 20.7626 68.5957 20.9172 69.0598 21.4157ZM64.0754 43.7766L64.0238 58.5235L54.7082 58.5751L45.3754 58.6094V57.1485V55.6876H52.491C62.116 55.6876 61.3598 56.3063 61.3598 48.5204C61.3598 45.6672 61.3082 43.2094 61.2566 43.0547C61.1879 42.9172 60.9129 42.6594 60.6379 42.5219C60.2082 42.2985 60.0363 42.2985 59.6238 42.4704C59.3316 42.5735 59.0394 42.8141 58.9535 42.986C58.8504 43.1579 58.7816 45.3922 58.7816 48.1938V53.1094H52.0785H45.3754V43.7422V34.375H52.0785H58.7816V36.4032C58.7816 38.6032 58.9363 39.0501 59.7269 39.2563C60.2941 39.3938 61.1535 38.9469 61.291 38.4313C61.3426 38.2079 61.3598 36.9704 61.3254 35.6985C61.2738 33.6704 61.2223 33.3094 60.9129 32.8797C60.1223 31.7969 60.0879 31.7969 52.3879 31.7969H45.3754V30.4219V29.0469H54.7426H64.1098L64.0754 43.7766ZM84.9926 37.3829C85.5254 37.8985 85.5426 38.5172 85.0269 39.1188C84.7348 39.4626 84.4598 39.5829 84.0473 39.5829C83.3769 39.5829 82.6723 38.8954 82.6723 38.2251C82.6723 37.6235 83.3941 36.9532 84.0473 36.9532C84.3738 36.9532 84.7348 37.1079 84.9926 37.3829ZM82.3801 50.9094C83.0676 51.7172 82.466 53.1094 81.4004 53.1094C80.3863 53.1094 79.7676 51.9751 80.2832 51.0297C80.6613 50.3079 81.8129 50.2391 82.3801 50.9094ZM74.4051 61.6344C74.8863 62.236 74.8519 62.8204 74.3363 63.336C73.4941 64.1954 72.016 63.6282 72.016 62.4766C72.016 62.2704 72.1707 61.8922 72.3769 61.6344C72.6519 61.2907 72.8754 61.1876 73.391 61.1876C73.9066 61.1876 74.1301 61.2907 74.4051 61.6344ZM66.3957 74.9547C67.0488 75.7454 66.4301 77.1719 65.416 77.1719C64.7457 77.1719 64.0582 76.4672 64.0582 75.7969C64.0582 74.5766 65.6051 74.0266 66.3957 74.9547ZM55.3269 80.0079C56.8566 80.7813 55.6707 83.0157 54.0551 82.3969C53.7457 82.2766 53.2816 81.4516 53.2816 81.0391C53.2816 80.6782 54.2098 79.7501 54.5707 79.7501C54.7254 79.7501 55.0691 79.8704 55.3269 80.0079Z" fill="#05568D"/>
<path d="M34.2888 16.7058C33.6013 17.084 33.5326 17.3074 33.6357 19.2152C33.7216 20.8308 33.6701 21.1746 33.3435 22.034C32.7076 23.7183 31.4701 24.8871 29.3732 25.7637C28.1185 26.2793 27.9294 27.4308 28.9607 28.1183C29.356 28.3762 29.4935 28.3762 30.1294 28.1871C32.9138 27.3621 35.1654 25.0246 36.0076 22.1027C36.231 21.3121 36.2826 20.6762 36.2138 19.3527C36.1279 17.3246 36.0419 17.084 35.3888 16.7574C34.8216 16.448 34.7357 16.448 34.2888 16.7058Z" fill="#05568D"/>
<path d="M17.05 39.7894C16.8437 40.0472 16.6719 40.4597 16.6719 40.6832C16.6719 41.2847 17.3937 41.9378 18.0812 41.9378C18.8719 41.9378 20.075 42.591 20.6594 43.33C20.9859 43.7425 21.2094 44.2753 21.3125 44.9628C21.5531 46.5097 22.4297 47.0082 23.4609 46.2003C23.8906 45.8566 23.925 45.7707 23.8562 44.791C23.6672 41.9894 21.3297 39.6347 18.5109 39.4113C17.4797 39.3253 17.3937 39.3425 17.05 39.7894Z" fill="#05568D"/>
<path d="M31.7964 62.528C31.487 62.7686 31.3839 63.0952 31.2979 64.0405C31.2292 64.6936 31.0573 65.4498 30.9026 65.742C30.3526 66.7561 29.2182 67.5639 27.9979 67.7873C26.8464 67.9936 26.3651 69.1623 27.087 69.9702C27.8432 70.8123 30.4729 70.0045 32.0198 68.4577C33.2229 67.2717 33.7557 66.0514 33.8417 64.4014C33.8932 63.1811 33.8589 63.0092 33.4979 62.6311C33.0339 62.1327 32.3292 62.0983 31.7964 62.528Z" fill="#05568D"/>
</g>
<defs>
<clipPath id="clip0_1430_3815">
<rect width="88" height="88" fill="white"/>
</clipPath>
</defs>
</svg>
