<svg width="88" height="88" viewBox="0 0 88 88" fill="none" xmlns="http://www.w3.org/2000/svg">
<path d="M63.6586 0.271851C59.7032 1.11694 55.679 3.59185 52.7555 6.99233C46.358 14.4975 44.8963 26.1477 49.144 35.5041L49.9867 37.315L49.23 40.5343C48.3185 44.4177 48.3013 44.8805 48.972 45.6653C49.6599 46.45 50.1759 46.4299 53.2886 45.4439C54.6816 45.0013 55.937 44.6391 56.0574 44.6391C56.2637 44.6391 59.2561 46.3695 59.5312 46.6311C59.6 46.7116 59.4624 47.2347 59.2389 47.778C59.0153 48.3414 58.7402 49.1663 58.637 49.609C58.465 50.3736 58.3102 50.5346 57.0204 51.3797C55.4039 52.4662 55.0255 52.929 55.0083 53.7942C55.0083 54.7198 55.3867 55.1826 56.9688 56.249C58.3962 57.1947 58.4134 57.2148 58.723 58.3617C59.858 62.8085 63.4866 66.7724 67.5108 67.9998C69.2993 68.543 71.8274 68.543 73.6159 67.9998C75.1465 67.537 76.9694 66.551 77.4165 65.9474C78.0872 65.0017 77.5369 63.553 76.5051 63.553C76.2127 63.553 75.5248 63.8347 74.9573 64.1566C73.5471 65.0017 72.2057 65.3639 70.6063 65.3639C68.0095 65.3639 65.5331 64.1767 63.6758 62.0439C62.386 60.5549 61.7841 59.3678 61.1134 57.0136C60.6147 55.2429 60.5803 55.1826 59.7032 54.5991C59.2045 54.257 58.8089 53.9351 58.7917 53.8546C58.7917 53.7741 59.0841 53.5326 59.4452 53.3113C60.3567 52.768 60.7694 52.1443 61.0102 50.9772C61.6293 47.9993 63.8134 44.8604 66.2038 43.5324C68.7834 42.1038 71.1223 41.9227 73.7019 42.9288C75.37 43.5928 76.5222 44.4781 77.8121 46.0878C80.4089 49.3474 81.0968 53.5528 79.7554 58.0197C79.205 59.8306 79.205 59.9111 79.4974 60.4141C79.8757 61.1183 80.4089 61.3397 81.0452 61.0781C81.4235 60.9372 81.6471 60.5952 82.0082 59.6495C83.8139 54.9612 83.2292 49.1865 80.512 45.0214L79.6694 43.7135L80.3401 43.1099C82.2146 41.4599 84.7426 37.8381 85.9464 35.0211C86.8923 32.8481 87.7693 29.4677 87.7006 28.2805C87.6662 27.7373 87.047 27.1336 86.4967 27.1336C85.6885 27.1336 85.3445 27.6769 84.863 29.7494C83.8311 34.0553 81.8018 37.7576 78.9299 40.4941L77.6917 41.6813L76.2815 40.8563C73.6675 39.3472 70.8987 38.8844 68.2503 39.488C66.2898 39.9307 63.7102 41.4197 62.2656 42.9489L61.1994 44.0757L59.858 43.3312C59.1357 42.9288 58.1726 42.3453 57.7427 42.0032C57.3128 41.6813 56.7453 41.4197 56.4873 41.4197C56.2121 41.4197 55.0083 41.7416 53.7873 42.1239C52.5663 42.5062 51.5344 42.8282 51.5001 42.8282C51.4657 42.8282 51.6892 41.6813 52.016 40.2527C52.3427 38.8442 52.6007 37.3954 52.6007 37.0333C52.6007 36.6308 52.3083 35.8059 51.8268 34.8199C50.8638 32.8682 50.279 31.1981 49.7975 28.9848C49.488 27.5361 49.4364 26.691 49.4364 24.0149C49.4536 21.1979 49.5052 20.554 49.9007 18.8437C52.0676 9.32639 59.1185 2.98821 67.5108 2.98821C75.5076 2.98821 82.5929 9.2459 84.8114 18.3004C85.0522 19.226 85.2929 20.4735 85.3617 21.0772C85.5165 22.4253 85.9292 22.9484 86.7719 22.8679C87.2018 22.8277 87.4942 22.6466 87.7349 22.2643C88.0617 21.7613 88.0617 21.6204 87.8725 20.1516C87.5802 18.059 86.6171 14.6987 85.7744 12.8476C82.6789 6.14724 77.2789 1.53948 71.0191 0.271851C69.265 -0.090332 65.3611 -0.090332 63.6586 0.271851Z" fill="#05568D"/>
<path d="M27.5264 4.19547C23.4163 5.4631 20.2004 8.94407 18.7902 13.6524C18.2399 15.5036 18.0335 19.1455 18.3602 21.1375C19.2545 26.5099 22.9347 31.0975 27.4921 32.506C28.2487 32.7474 29.2634 32.8682 30.6736 32.8682C32.9264 32.8682 34.371 32.4657 36.2627 31.3591L37.2086 30.8158L38.6704 31.2786C40.6309 31.9023 40.992 31.8822 41.6111 31.178C42.213 30.4536 42.2302 30.1317 41.6971 27.858L41.2672 26.0672L41.7659 24.9002C42.6429 22.8881 43.0385 20.8759 43.0385 18.3809C43.0557 15.1414 42.471 12.8476 40.9748 10.1916C39.3067 7.27401 36.3143 4.85947 33.3908 4.11498C31.7054 3.67232 29.1086 3.71256 27.5264 4.19547ZM33.7347 7.39474C37.4665 8.92395 39.9086 12.4854 40.4073 17.073C40.6481 19.3266 40.2869 21.4796 39.2723 23.8539L38.4812 25.705L38.7391 26.8519C38.8767 27.4958 38.9799 28.0592 38.9455 28.0994C38.9111 28.1397 38.5844 28.0793 38.206 27.9586C37.1226 27.5964 36.5035 27.697 35.3685 28.4214C34.7665 28.8037 33.8207 29.2665 33.2532 29.4677C31.8774 29.9506 29.2978 29.9506 27.922 29.4677C22.866 27.7171 19.7704 21.4393 21.043 15.5639C21.9201 11.4995 24.8093 8.13922 28.2831 7.11304C29.6761 6.71062 32.3933 6.85147 33.7347 7.39474Z" fill="#05568D"/>
<path d="M29.9337 10.9956C29.7618 11.1968 29.2802 12.0017 28.8675 12.7864L28.1108 14.1949L26.5287 14.6375C24.9465 15.0802 24.5338 15.382 24.3274 16.207C24.1726 16.7905 24.4134 17.2935 25.5484 18.8227L26.4771 20.0703L26.3567 22.1025C26.2363 24.0341 26.2535 24.1549 26.6319 24.6176C27.165 25.2816 27.6981 25.2615 29.2974 24.517C30.0197 24.175 30.7076 23.9134 30.828 23.9134C30.9484 23.9134 31.6191 24.175 32.307 24.517C33.7516 25.2213 34.3535 25.2615 34.8866 24.7585C35.2305 24.4164 35.2649 24.2353 35.2477 22.5049C35.2305 21.4787 35.179 20.5532 35.1274 20.4526C35.0758 20.352 35.5401 19.5471 36.1592 18.6618C37.9133 16.1466 37.707 15.4223 35.0586 14.6577L33.4764 14.1949L32.8573 12.9876C31.8083 11.0157 31.4987 10.6334 30.828 10.6334C30.4841 10.6334 30.1057 10.7944 29.9337 10.9956ZM31.8599 16.7301C31.963 16.8106 32.3758 16.9716 32.7885 17.0923C33.1841 17.213 33.5108 17.374 33.5108 17.4545C33.5108 17.5149 33.27 17.9374 32.9949 18.36C32.5649 19.0038 32.479 19.3459 32.479 20.2111V21.2775L31.7051 20.9355C30.9484 20.6135 30.3809 20.6739 29.349 21.197C29.0739 21.3178 29.0395 21.2172 29.0395 20.1507C29.0395 19.1246 28.9707 18.863 28.5236 18.2795C27.9732 17.4947 27.9045 17.2734 28.2312 17.2734C29.0395 17.2734 29.7618 16.7905 30.2605 15.9454L30.7936 15.0198L31.2408 15.8046C31.4815 16.2271 31.7567 16.6295 31.8599 16.7301Z" fill="#05568D"/>
<path d="M55.4377 13.9336L55.0078 14.4366V24.5777C55.0078 34.5377 55.0078 34.7389 55.369 35.2621C55.7645 35.8657 56.6072 35.9663 57.1747 35.5035C57.467 35.242 57.5014 34.8798 57.5874 31.3183L57.6734 27.4349L60.167 27.3343C62.4543 27.2337 62.7466 27.1935 63.6237 26.6703C64.8103 25.9862 65.8938 24.6582 66.4957 23.1491C67.132 21.5193 67.1492 19.2657 66.4957 17.656C65.8766 16.0665 64.9651 14.9799 63.6409 14.2153L62.5059 13.5513L59.1868 13.4909L55.8677 13.4306L55.4377 13.9336ZM62.3167 16.8512C63.6753 17.5756 64.6383 19.4871 64.3804 20.9559C64.1912 22.0022 63.5893 23.0686 62.867 23.6522C62.2135 24.1954 62.0587 24.2155 59.8747 24.2759L57.5874 24.3564V20.4126V16.4689H59.6167C61.1817 16.4689 61.7836 16.5494 62.3167 16.8512Z" fill="#05568D"/>
<path d="M69.144 13.8937L68.7656 14.3766V24.6787C68.7656 34.7192 68.7828 35.0009 69.1096 35.3832C69.5739 35.9264 70.5026 35.9063 70.9325 35.363C71.2249 34.9807 71.2764 34.4978 71.3452 30.7553L71.4312 26.5701L74.3892 30.5138C78.6197 36.1679 78.293 35.7856 78.9809 35.7856C79.4108 35.7856 79.6688 35.6447 79.9267 35.2624C80.649 34.196 80.6146 34.1357 76.0917 28.1395L74.9567 26.6506L75.9541 26.3286C77.7255 25.7652 79.0841 24.4171 79.8235 22.5257C80.3911 21.077 80.3567 18.7429 79.7204 17.254C79.17 15.926 78.0178 14.598 76.8828 13.9943C76.1605 13.5919 75.7306 13.5517 72.807 13.4913C69.5567 13.4309 69.5395 13.4309 69.144 13.8937ZM75.4898 16.7107C76.4013 17.0729 76.986 17.6765 77.3815 18.6423C78.0694 20.2923 77.4675 22.1032 75.9197 23.0086C75.1631 23.4513 74.8363 23.5117 73.2025 23.5117H71.3452V19.9905V16.4692H73.1338C74.0968 16.4692 75.1631 16.5699 75.4898 16.7107Z" fill="#05568D"/>
<path d="M34.1989 36.3892C31.9976 36.7916 29.8307 38.2001 28.3002 40.2524C27.0103 41.9828 25.2562 43.5322 23.4677 44.5382C21.1632 45.8461 20.2174 46.0674 16.1244 46.2083C12.9601 46.329 12.5302 46.3894 12.2034 46.7314C11.7047 47.2546 11.7219 48.2607 12.2378 48.824C12.5817 49.2063 12.8397 49.2667 14.2155 49.2667H15.7977V58.2206V67.1746H9.86456C4.55057 67.1746 3.87987 67.1343 3.46713 66.8325C2.60726 66.1685 2.55567 65.746 2.55567 58.1804C2.55567 51.5806 2.57287 51.138 2.89962 50.5343C3.41554 49.5283 4.03465 49.2667 5.90916 49.2667C7.31935 49.2667 7.59451 49.2063 7.88686 48.8643C8.40278 48.2607 8.35119 47.1942 7.76648 46.651C7.31935 46.2485 7.13018 46.2083 5.30725 46.2888C3.46713 46.3491 3.26077 46.3894 2.3837 46.9729C1.33466 47.657 0.440395 48.985 0.148039 50.2929C0.0276577 50.816 -0.0239345 53.8141 0.0104603 58.784C0.0620525 66.2289 0.0792498 66.4904 0.440395 67.2953C0.887527 68.2812 2.02255 69.5287 2.84803 69.9312C3.19198 70.0921 4.25821 70.2732 5.23846 70.3336L7.02699 70.4543V75.4041C7.02699 80.8972 7.18177 82.6679 7.78368 84.1971C8.2996 85.4849 9.43463 86.9738 10.3805 87.5573C10.948 87.9195 11.3607 88 12.7881 88C14.2499 88 14.611 87.9396 15.2473 87.5372C16.4512 86.7927 17.4314 85.6056 17.9645 84.2172L18.4633 82.9697L18.5148 76.6718C18.5664 70.9372 18.6008 70.394 18.8588 70.394C19.6327 70.394 22.2295 71.2994 23.4505 72.0037C25.1702 72.9695 26.6664 74.3176 28.4549 76.4706C29.4352 77.6577 30.2091 78.3821 31.0517 78.9052C33.0638 80.1326 33.7173 80.2533 38.7562 80.2533C43.6574 80.2533 43.8122 80.2131 44.4657 79.0662C44.844 78.4022 44.8612 78.2613 44.8612 73.1908V67.9794H45.6007C47.5784 67.9593 49.7281 66.9331 51.2415 65.2228C54.8013 61.2589 54.4918 54.5385 50.588 51.0374C49.2466 49.8502 47.888 49.2667 46.2026 49.1259L44.8612 49.0051V43.6931C44.8612 35.9264 45.1536 36.3087 39.1861 36.2483C36.9676 36.2483 34.7148 36.3087 34.1989 36.3892ZM42.2816 58.3212V77.2352L38.3778 77.1949L34.4568 77.1346L34.3708 73.2512L34.2848 69.3477L33.7861 68.8446C33.253 68.3014 32.6511 68.3416 32.1008 68.9251C31.8256 69.2068 31.7912 69.6495 31.7912 72.4463C31.7912 74.881 31.7396 75.6255 31.5677 75.6255C31.4473 75.6255 30.6218 74.7603 29.7275 73.714C28.8333 72.6475 27.5263 71.3397 26.8384 70.7763C24.6715 69.0056 21.9543 67.7782 19.5639 67.4563L18.5492 67.3154V58.3011V49.2868L19.3747 49.1661C21.9027 48.7637 24.6887 47.5162 26.8212 45.826C27.4231 45.3632 28.7473 44.0352 29.7447 42.8883C30.7422 41.7414 31.6192 40.8158 31.6708 40.8158C31.7396 40.8158 31.7912 45.9266 31.7912 52.1843V63.5326L32.1696 63.9552C32.8059 64.6393 33.7173 64.4582 34.1129 63.5326C34.3364 63.0497 34.3708 61.1382 34.3708 51.1782V39.4073H38.3262H42.2816V58.3212ZM47.9224 52.6873C49.0918 53.2708 50.3988 54.9409 50.7943 56.3091C50.9491 56.8725 51.0867 57.9188 51.0695 58.6633C51.0523 61.9229 48.937 64.4783 45.9447 64.8606L44.8612 65.0015V58.5225V52.0233L45.9447 52.1239C46.5294 52.1843 47.4236 52.4257 47.9224 52.6873ZM15.7633 76.6718C15.7117 82.9093 15.7117 82.9697 15.3161 83.6337C14.4391 85.0422 12.4786 85.5452 11.3091 84.6196C10.9996 84.3782 10.5181 83.6941 10.2601 83.0904L9.77857 82.024V76.209V70.394H12.7881H15.8149L15.7633 76.6718Z" fill="#05568D"/>
<path d="M70.2266 46.4291C70.0546 46.5096 69.4699 47.3345 68.9368 48.2601L67.991 49.9503L66.4604 50.393C63.8464 51.1576 63.6056 51.9825 65.3254 54.4172L66.3916 55.9263L66.2712 57.9183C66.1508 59.87 66.1508 59.9103 66.598 60.4133C67.1655 61.0974 67.5782 61.0773 69.126 60.3127C69.8311 59.9706 70.5534 59.6889 70.7425 59.6889C70.9317 59.6889 71.6368 59.9706 72.3247 60.3127C73.7521 61.0371 74.2508 61.0773 74.8011 60.5542C75.1967 60.192 75.2139 60.0712 75.1623 57.9786L75.1107 55.8056L76.1597 54.3367C77.8279 51.9624 77.5871 51.1576 74.9731 50.393L73.3737 49.9302L72.5311 48.3406C71.5164 46.4492 71.0521 46.0468 70.2266 46.4291ZM71.396 51.902C71.74 52.4856 72.0323 52.7069 72.703 52.888L73.5629 53.1294L72.961 54.055C72.3935 54.9202 72.3419 55.0812 72.4279 56.0269L72.5139 57.0732L71.5852 56.6909C70.6737 56.3086 70.6565 56.3086 69.8139 56.711L68.954 57.0933L68.9884 55.9263C69.0228 54.8599 68.9712 54.6989 68.4381 53.9745L67.8362 53.1898L68.7476 52.9081C69.5043 52.6666 69.7279 52.4856 70.175 51.7209C70.4502 51.238 70.7425 50.9161 70.8113 51.0167C70.8801 51.0972 71.1381 51.4996 71.396 51.902Z" fill="#05568D"/>
</svg>
