<svg width="88" height="88" viewBox="0 0 88 88" fill="none" xmlns="http://www.w3.org/2000/svg">
<path d="M42.4543 7.85468C41.9387 8.04375 41.3027 8.50781 40.5465 9.26406C38.8105 11.0172 37.6246 13.3891 36.5074 17.3594C36.0605 18.9922 35.9058 19.3359 35.648 19.3187C35.459 19.3016 34.548 19.0953 33.6027 18.8547C31.1277 18.2188 29.7355 18.0125 27.5871 18.0125C24.734 18.0125 22.6887 18.7859 21.8121 20.2125L21.4683 20.7797L13.8543 20.8312L6.24022 20.8828L5.55272 21.3641C5.1746 21.6219 4.69335 22.1547 4.45272 22.5672C4.05741 23.2719 4.04022 23.3922 3.98866 27.8266C3.95428 30.3187 3.97147 32.5359 4.04022 32.7766C4.29803 33.825 5.46678 34.2031 6.15428 33.4641C6.51522 33.0687 6.53241 32.9484 6.53241 28.6C6.53241 24.8359 6.56678 24.0797 6.80741 23.7531L7.06522 23.375H14.0777H21.0902L21.2105 24.0453C21.348 24.9734 22.6887 27.5344 23.7543 28.9609C24.2527 29.6141 25.3699 30.9031 26.2465 31.8141L27.8277 33.4641L26.7965 34.4781C21.2965 39.875 19.6808 44.6359 22.4308 47.3172C23.4277 48.2969 24.6652 48.6922 26.9855 48.7781C29.2887 48.8641 31.2652 48.6234 33.9121 47.9359C34.9605 47.6609 35.8715 47.4891 35.9402 47.5578C35.9918 47.6437 36.1465 48.0734 36.2496 48.5547C37.0574 51.9922 38.673 55.5672 40.1512 57.2172C41.4402 58.6437 42.523 59.1938 44.0012 59.1938C45.4449 59.2109 46.4762 58.6953 47.7137 57.3719C49.2605 55.6875 50.6871 52.6797 51.5637 49.2422C51.7871 48.3828 52.0105 47.6437 52.0793 47.5578C52.1308 47.4891 53.0418 47.6609 54.0902 47.9359C56.7371 48.6234 58.7137 48.8641 61.0168 48.7781C63.3371 48.6922 64.5746 48.2969 65.5715 47.3172C68.2012 44.7562 66.9293 40.4937 61.9965 35.3203L60.209 33.4297L61.773 31.7969C62.6324 30.8859 63.7496 29.6141 64.248 28.9609C65.3137 27.5344 66.6543 24.9734 66.7918 24.0453L66.9121 23.375H73.9246H80.9371L81.1949 23.7531C81.4355 24.0969 81.4699 26.5547 81.4699 46.6125V69.0938H44.0012H6.53241V53.4875V37.8641L6.1371 37.5031C5.48397 36.8844 4.6246 37.0219 4.2121 37.8297C3.98866 38.2422 3.95428 40.5281 3.95428 53.7109V69.0938H3.31835C1.92616 69.1109 0.568347 70.1422 0.155847 71.4828C0.0355347 71.8781 -0.0160278 72.9266 0.0355347 74.0953C0.0870972 75.7625 0.155847 76.1922 0.55116 77.0172C1.11835 78.2547 2.16678 79.3203 3.42147 79.9047L4.38397 80.3516L30.8527 80.4031L57.3387 80.4375L57.7168 80.0938C58.2324 79.6125 58.2324 78.6844 57.7168 78.2031C57.3387 77.8594 57.2699 77.8594 31.3855 77.8594C14.9199 77.8594 5.19178 77.7906 4.81366 77.6875C4.12616 77.4984 3.02616 76.4672 2.76835 75.7453C2.51053 75.0578 2.52772 72.325 2.80272 71.9641C2.99178 71.6891 4.0746 71.6719 18.2027 71.7063L33.3793 71.7578L33.8605 73.1156C34.4277 74.6969 34.7715 75.2125 35.5793 75.6422C36.1293 75.9516 36.7137 75.9688 44.0012 75.9688C51.2887 75.9688 51.873 75.9516 52.423 75.6422C53.2309 75.2125 53.5746 74.6969 54.1418 73.1156L54.623 71.7578L69.7996 71.7063C83.9277 71.6719 85.0105 71.6891 85.2168 71.9641C85.4746 72.3078 85.4918 74.7484 85.2512 75.625C85.0449 76.3984 83.9621 77.4641 83.1715 77.6875C82.8277 77.7906 78.5996 77.8594 72.4293 77.8594C62.4605 77.8594 62.2715 77.8594 61.9105 78.2031C61.3949 78.6844 61.3949 79.6125 61.9105 80.0938C62.2887 80.4375 62.3918 80.4547 72.9621 80.4031L83.6183 80.3516L84.5808 79.9047C85.8355 79.3203 86.884 78.2547 87.4512 77.0172C87.8465 76.1922 87.9152 75.7625 87.9668 74.0953C88.0183 72.9266 87.9668 71.8781 87.8465 71.4828C87.4512 70.1422 86.0762 69.1109 84.7012 69.0938H84.048L84.0137 46.1828L83.9621 23.2891L83.5496 22.5672C83.0855 21.7766 82.5183 21.2953 81.659 21.0031C81.2465 20.8484 78.9262 20.7969 73.8043 20.7969H66.5512L66.1902 20.2125C64.7465 17.875 60.3637 17.3594 54.5027 18.8375C53.2137 19.1469 52.1308 19.3531 52.0621 19.2844C52.0105 19.2156 51.7871 18.4594 51.5637 17.6172C50.6355 13.9391 49.1746 11 47.4558 9.26406C45.823 7.63125 44.3105 7.20156 42.4543 7.85468ZM44.8433 10.3984C46.3387 11.1547 48.1433 14.5922 49.1574 18.5453C49.3465 19.3016 49.5012 20.0062 49.5012 20.1437C49.5012 20.2641 49.0199 20.5562 48.4355 20.7797C47.834 21.0031 46.6137 21.5359 45.7199 21.9484L44.0871 22.7047L41.4574 21.5703C40.0308 20.9516 38.7762 20.4531 38.673 20.4531C38.4152 20.4531 38.4668 20.075 38.8449 18.5453C39.8418 14.6609 41.5434 11.3781 43.0387 10.4672C43.6746 10.0719 44.1902 10.0547 44.8433 10.3984ZM31.248 20.9516C32.1933 21.1406 33.5168 21.45 34.2043 21.6562L35.4418 22.0344L35.3387 22.6531C35.2871 22.9969 35.1152 24.3719 34.9605 25.6953C34.7543 27.5 34.6168 28.1359 34.4105 28.2906C32.3652 29.7687 31.6777 30.2844 30.8699 30.9031L29.9246 31.6594L29.2887 31.1781C28.498 30.5594 26.4355 28.2391 25.3871 26.7781C23.7199 24.4406 23.2215 22.4297 24.098 21.5531C24.3215 21.3125 24.8199 21.0203 25.198 20.8828C26.1949 20.5219 29.2199 20.5562 31.248 20.9516ZM62.6152 20.8141C62.9762 20.9 63.509 21.2094 63.8012 21.4672C64.2824 21.8969 64.3512 22.0687 64.334 22.7906C64.3168 23.9078 63.5777 25.4891 62.2715 27.2422C61.0683 28.8406 59.3152 30.7828 58.6105 31.2812L58.1121 31.625L55.9465 29.9922C54.7605 29.0984 53.6777 28.3078 53.5402 28.2391C53.3855 28.1531 53.2309 27.2937 53.0418 25.6953C52.8871 24.3719 52.7152 22.9969 52.6637 22.6531L52.5605 22.0344L53.8152 21.6562C56.909 20.7281 60.9309 20.35 62.6152 20.8141ZM39.6184 23.5641C40.323 23.8734 40.9074 24.1656 40.9074 24.2172C40.9074 24.3203 37.5902 26.2797 37.5215 26.2281C37.5043 26.2109 37.573 25.4891 37.6762 24.6125C37.8137 23.4953 37.934 23.0312 38.1059 23.0312C38.2262 23.0312 38.9137 23.2719 39.6184 23.5641ZM50.2574 24.0969C50.3262 24.6984 50.4121 25.4375 50.4809 25.7297L50.5668 26.2969L48.8308 25.3C47.8855 24.7672 47.0949 24.2687 47.0949 24.2172C47.0949 24.0797 49.5183 23.0484 49.8621 23.0312C50.0855 23.0312 50.1715 23.2719 50.2574 24.0969ZM45.7027 26.5031C47.9199 27.6891 50.3949 29.2016 50.6699 29.5281C50.8246 29.7344 50.8762 30.7828 50.8762 33.4641C50.8762 36.8672 50.859 37.125 50.5324 37.4172C50.1715 37.7609 47.4558 39.3937 45.3418 40.5625L44.0012 41.2844L42.6777 40.5625C40.7183 39.4969 37.6933 37.6578 37.384 37.3656C37.1777 37.1422 37.1262 36.4891 37.1262 33.4297C37.1262 29.1672 36.9371 29.6312 39.223 28.2734C40.8215 27.3109 43.8808 25.6094 43.984 25.6094C44.0183 25.6094 44.7918 26.0047 45.7027 26.5031ZM34.5137 34.3922L34.4621 35.4406L33.2762 34.5297C32.623 34.0141 32.0558 33.5156 32.0387 33.4297C32.0043 33.3266 32.5371 32.8453 33.2246 32.3297L34.4621 31.4188L34.5137 32.3641C34.548 32.8969 34.548 33.8078 34.5137 34.3922ZM54.8808 32.3984C55.4996 32.8625 56.0152 33.3094 56.0324 33.3781C56.0324 33.5156 54.2793 34.9594 53.7637 35.2516C53.4715 35.4062 53.4543 35.2687 53.4543 33.4297C53.4543 32.3297 53.523 31.4531 53.609 31.4875C53.6777 31.5047 54.2621 31.9172 54.8808 32.3984ZM31.609 36.4891C32.5199 37.1937 33.5855 37.9672 33.9808 38.225C34.6512 38.6719 34.7027 38.7406 34.8058 39.7547C34.8574 40.3391 35.0293 41.6969 35.1668 42.7797C35.3043 43.8453 35.3902 44.7734 35.3387 44.825C35.2871 44.8766 34.2215 45.1859 32.9668 45.5125C31.1449 45.9766 30.234 46.1141 28.4465 46.1828C25.9027 46.2859 25.009 46.1312 24.2012 45.3922C23.7199 44.9625 23.6683 44.825 23.6855 43.9828C23.7199 42.2812 25.284 39.7547 28.1715 36.7641C28.9793 35.9219 29.7183 35.2344 29.8043 35.2344C29.8902 35.2344 30.698 35.8016 31.609 36.4891ZM59.8996 36.8156C62.8043 39.9094 64.3168 42.35 64.334 44.0344C64.3512 44.8078 64.2824 44.9625 63.8012 45.3922C62.9934 46.1141 62.0996 46.2859 59.6418 46.2C58.0262 46.1312 56.9433 45.9766 55.259 45.5641C54.0387 45.2719 52.9215 44.9625 52.8012 44.8766C52.6121 44.7734 52.6293 44.3953 52.8355 42.7797C52.973 41.6969 53.1449 40.3563 53.1965 39.7891L53.2996 38.7578L54.5199 37.8984C55.1902 37.4172 56.2558 36.6437 56.8746 36.1453C57.4934 35.6469 58.0949 35.2516 58.2152 35.2344C58.3183 35.2344 59.0746 35.9391 59.8996 36.8156ZM39.9277 41.9719C40.4605 42.2641 40.9074 42.5562 40.9074 42.625C40.9074 42.7625 38.3808 43.8281 38.0543 43.8281C37.934 43.8281 37.8137 43.3641 37.7449 42.7453C37.6762 42.1609 37.5902 41.4219 37.5215 41.0953L37.4184 40.5109L38.1746 40.975C38.5871 41.2328 39.3777 41.6797 39.9277 41.9719ZM50.3262 42.2469C50.223 43.1578 50.0512 43.8281 49.948 43.8281C49.673 43.8281 47.0949 42.7453 47.0949 42.6422C47.0949 42.5391 50.4121 40.5797 50.4809 40.6312C50.498 40.6484 50.4293 41.3703 50.3262 42.2469ZM46.1496 45.1C47.284 45.5984 48.5043 46.1141 48.8652 46.2516C49.209 46.3719 49.5012 46.5781 49.5012 46.7156C49.5012 46.8359 49.3465 47.5578 49.1574 48.3141C48.109 52.4219 46.2012 55.9109 44.6887 56.5469C43.0387 57.2344 41.0621 54.9828 39.5668 50.7031C39.034 49.1562 38.3808 46.6125 38.5183 46.5266C38.5527 46.4922 39.4809 46.0969 40.5637 45.65C41.6465 45.2031 42.8152 44.6875 43.1418 44.5156C43.4683 44.3266 43.8293 44.1891 43.9152 44.1719C44.0183 44.1719 45.0324 44.5844 46.1496 45.1ZM51.9074 71.7406C51.9074 71.775 51.7527 72.1703 51.5637 72.6L51.2371 73.3906H44.0012H36.7652L36.4387 72.6C36.2496 72.1703 36.0949 71.775 36.0949 71.7406C36.0949 71.7063 39.6527 71.6719 44.0012 71.6719C48.3496 71.6719 51.9074 71.7063 51.9074 71.7406Z" fill="#05568D"/>
<path d="M42.1957 29.3736C41.3363 29.7689 40.477 30.6111 39.9957 31.522C39.7207 32.0548 39.6348 32.5189 39.6348 33.4298C39.6348 34.8908 40.0301 35.7501 41.1473 36.7298C43.3129 38.6376 46.5957 37.9673 48.0051 35.3204C48.5207 34.3579 48.5207 32.5017 48.0051 31.522C47.5066 30.5767 46.6645 29.7517 45.8051 29.3736C44.877 28.9439 43.1066 28.9439 42.1957 29.3736ZM45.2379 32.1236C45.7191 32.5533 45.8051 32.7423 45.8051 33.4298C45.8051 34.1173 45.7191 34.3064 45.2379 34.7361C44.8254 35.1142 44.516 35.2345 44.0004 35.2345C43.4848 35.2345 43.1754 35.1142 42.7629 34.7361C42.2816 34.3064 42.1957 34.1173 42.1957 33.4298C42.1957 32.7423 42.2816 32.5533 42.7629 32.1236C43.1754 31.7454 43.4848 31.6251 44.0004 31.6251C44.516 31.6251 44.8254 31.7454 45.2379 32.1236Z" fill="#05568D"/>
<path d="M73.3397 26.9327C73.2022 27.1046 73.0476 27.4311 73.0132 27.6546C72.9788 27.964 72.8069 28.1186 72.4288 28.2218C71.7929 28.3765 71.5694 28.6171 71.4147 29.253C71.3116 29.6311 71.3976 29.8202 71.8101 30.2499C72.1022 30.5249 72.4976 30.7655 72.6866 30.7655C72.9444 30.7655 73.0476 30.8686 73.0476 31.1608C73.0476 31.3843 73.2194 31.728 73.4429 31.9343C74.1647 32.6046 75.1272 32.3468 75.4366 31.4015C75.5741 30.989 75.7976 30.7827 76.2101 30.628C76.7429 30.439 77.1726 29.8546 77.1726 29.3218C77.1726 28.9093 76.4679 28.1874 76.0554 28.1874C75.7632 28.1874 75.6257 28.0671 75.5397 27.7061C75.3679 26.9671 74.9554 26.6405 74.2507 26.6405C73.8554 26.6405 73.5116 26.7608 73.3397 26.9327Z" fill="#05568D"/>
<path d="M10.0048 28.8062C9.48917 29.1672 9.47198 30.2328 9.98761 30.6968C10.297 30.9718 10.6751 31.0234 12.7548 31.075C15.3845 31.1437 15.986 31.0062 16.3126 30.3187C16.5876 29.7172 16.5532 29.4937 16.1407 28.9781L15.797 28.5312H13.0814C10.9329 28.5312 10.3142 28.5828 10.0048 28.8062Z" fill="#05568D"/>
<path d="M10.4863 33.4641C9.90195 33.6875 9.62695 34.1 9.62695 34.7188C9.62695 35.8359 9.86758 35.9219 13.0301 35.9219H15.7973L16.141 35.475C16.6051 34.8734 16.5879 34.4953 16.0895 33.9109L15.677 33.4297L13.202 33.3953C11.8613 33.3781 10.6238 33.3953 10.4863 33.4641Z" fill="#05568D"/>
<path d="M73.391 35.5785C73.202 35.7676 73.0473 36.1113 73.0473 36.3519C73.0473 36.6785 72.9613 36.7816 72.652 36.7816C71.6895 36.7816 71.1223 37.7785 71.5692 38.6551C71.8442 39.1707 72.1535 39.3597 72.7207 39.3597C72.9613 39.3597 73.0473 39.4801 73.0473 39.7894C73.0473 41.1988 75.2301 41.2676 75.5395 39.8754C75.6254 39.5144 75.7629 39.3597 75.9863 39.3597C76.4676 39.3597 77.1723 38.6035 77.1723 38.0707C77.1723 37.5379 76.4676 36.7816 75.9863 36.7816C75.7629 36.7816 75.6254 36.6269 75.5395 36.266C75.3332 35.2863 74.0785 34.891 73.391 35.5785Z" fill="#05568D"/>
<path d="M10.0904 38.6719C9.50603 39.1359 9.45447 40.0469 9.97009 40.5625C10.2795 40.8719 10.5373 40.9062 12.9779 40.9062C15.6248 40.9062 15.6592 40.9062 16.106 40.4594C16.4498 40.1156 16.5185 39.9266 16.4326 39.4797C16.2263 38.4828 16.0545 38.4141 13.1842 38.3625C10.7263 38.3109 10.5373 38.3281 10.0904 38.6719Z" fill="#05568D"/>
<path d="M73.391 44.1722C73.202 44.3613 73.0473 44.7051 73.0473 44.9457C73.0473 45.2551 72.9613 45.3754 72.7207 45.3754C72.1535 45.3754 71.8442 45.5644 71.5692 46.0801C71.1223 46.9566 71.6895 47.9535 72.652 47.9535C72.9613 47.9535 73.0473 48.0566 73.0473 48.3832C73.0473 49.7926 75.2301 49.8613 75.5395 48.4691C75.6254 48.1082 75.7629 47.9535 75.9863 47.9535C76.4676 47.9535 77.1723 47.1972 77.1723 46.6644C77.1723 46.1488 76.4676 45.3754 76.0035 45.3754C75.7801 45.3754 75.6254 45.2207 75.5567 44.9457C75.2988 43.8972 74.0785 43.4847 73.391 44.1722Z" fill="#05568D"/>
<path d="M67.0837 51.2708C66.9118 51.4942 65.6228 53.7802 64.1962 56.3411C62.7868 58.9192 61.5837 61.0161 61.5322 61.0161C61.4806 61.0161 61.0681 60.2599 60.5868 59.3489C59.2806 56.8224 58.7478 56.3583 57.7853 56.8739C57.6134 56.9599 56.7197 58.2661 55.7743 59.7958L54.0556 62.5458L51.5462 62.563C49.1572 62.563 49.0368 62.5802 48.6759 62.9583C48.1431 63.5255 48.1775 64.3333 48.7447 64.7802C49.1743 65.1067 49.4322 65.1411 52.1134 65.1411C53.729 65.1411 55.1728 65.0724 55.3447 64.9692C55.5165 64.8833 56.2212 63.9036 56.9087 62.8208C57.579 61.738 58.1806 60.8099 58.2493 60.7755C58.3181 60.7239 58.8681 61.6349 59.4868 62.7864C60.3634 64.4364 60.7072 64.9177 61.0853 65.0552C62.0134 65.3817 62.3056 65.0208 65.1243 59.9333C66.5853 57.3208 67.84 55.1724 67.8915 55.1724C67.9431 55.1724 68.4415 56.1864 69.0087 57.4411C69.5587 58.6786 70.1603 59.8474 70.3322 60.0192C70.6072 60.2942 70.9509 60.3286 72.9447 60.3286C75.0072 60.3286 75.2822 60.2942 75.6947 59.9677C76.279 59.5036 76.3134 58.6442 75.7462 58.1286C75.3853 57.7849 75.1447 57.7505 73.6322 57.7505H71.9306L70.5556 54.6052C69.7993 52.8864 69.0431 51.3395 68.8884 51.1849C68.4415 50.738 67.479 50.7895 67.0837 51.2708Z" fill="#05568D"/>
<path d="M9.97082 52.25C9.50676 52.7141 9.50676 53.6766 10.0052 54.1406C10.3661 54.4672 10.5896 54.4844 15.1614 54.4844H19.9568L20.3693 54.0547C20.9536 53.4875 20.9364 52.7312 20.3521 52.2672C19.9052 51.9234 19.6818 51.9062 15.1099 51.9062C10.538 51.9062 10.2974 51.9234 9.97082 52.25Z" fill="#05568D"/>
<path d="M10.5551 57.0453C9.71289 57.5609 9.54102 58.2141 9.54102 61.0156C9.54102 63.8516 9.6957 64.3844 10.727 64.8656C11.2426 65.1062 12.4629 65.1406 21.9504 65.1406C32.177 65.1406 32.5895 65.1234 33.1223 64.7969C34.0676 64.2297 34.2051 63.7312 34.2051 60.9297C34.2051 58.1281 34.0676 57.6297 33.1223 57.0625C32.641 56.7703 32.2457 56.7188 30.2004 56.7188C27.9145 56.7188 27.8113 56.7359 27.416 57.1484C27.1754 57.3719 26.9863 57.7672 26.9863 58.0078C26.9863 58.2484 27.1754 58.6437 27.416 58.8672C27.8113 59.2797 27.9488 59.2969 29.7363 59.2969H31.627V60.9297V62.5625H21.916H12.2051V60.9297V59.2969H17.5332H22.8785L23.291 58.8672C23.5316 58.6437 23.7207 58.2484 23.7207 58.0078C23.7207 57.7672 23.5316 57.3719 23.291 57.1484L22.8785 56.7188H16.9832C11.5176 56.7188 11.0535 56.7359 10.5551 57.0453Z" fill="#05568D"/>
<path d="M9.16241 73.5109C8.30303 73.6828 7.95928 74.9891 8.59522 75.625C8.92178 75.9516 9.16241 75.9688 13.1155 75.9688C16.8968 75.9688 17.3265 75.9344 17.5843 75.6594C18.0827 75.1094 18.1171 74.5078 17.653 73.975L17.2233 73.4766L13.3733 73.4594C11.2765 73.4422 9.36866 73.4594 9.16241 73.5109Z" fill="#05568D"/>
<path d="M70.8832 73.5625C70.4363 73.7344 69.9551 74.3875 69.9551 74.7828C69.9551 74.9375 70.1098 75.2641 70.316 75.5219L70.6598 75.9688H74.8707C78.841 75.9688 79.0816 75.9516 79.4082 75.625C79.8379 75.1953 79.8551 74.4047 79.4254 73.8891C79.0988 73.4766 79.0645 73.4766 75.1629 73.4422C73.0145 73.425 71.0723 73.4766 70.8832 73.5625Z" fill="#05568D"/>
</svg>
