<svg width="88" height="88" viewBox="0 0 88 88" fill="none" xmlns="http://www.w3.org/2000/svg">
<g clip-path="url(#clip0_1430_3675)">
<path d="M11.5156 0.258202C8.67961 0.825386 6.27336 2.13164 4.19368 4.21133C-1.42664 9.83164 -1.39226 18.6488 4.27961 24.2348C6.27336 26.1941 8.02649 27.2082 10.7593 27.9301C12.2546 28.3426 14.9359 28.4285 16.5859 28.1363C17.3421 27.9988 17.9781 27.8957 17.9952 27.9129C18.0124 27.9129 17.7374 28.3941 17.3937 28.9613C16.4999 30.4566 15.1765 33.6535 14.6093 35.6816C13.114 41.0441 13.114 46.9566 14.6093 52.3191C15.1765 54.3473 16.4999 57.5441 17.3937 59.0395C17.7374 59.6066 18.0124 60.0879 17.9952 60.0879C17.9781 60.1051 17.2906 59.9848 16.4656 59.8301C15.3484 59.6238 14.8843 59.4691 14.7124 59.2113C14.2656 58.5582 12.8906 55.1551 12.3749 53.402C11.5843 50.7379 11.1546 48.1598 11.0515 45.2035C10.914 41.3191 11.3437 37.9332 12.4609 34.1863C12.8562 32.9145 12.8562 32.7598 12.6327 32.2957C12.3406 31.7285 11.6874 31.5051 11.0171 31.7285C10.639 31.866 10.4843 32.141 10.0202 33.516C7.4593 41.1645 8.04368 50.8926 11.5327 58.5754C11.8077 59.1941 12.014 59.7098 11.9968 59.727C11.9624 59.7613 11.4468 59.8988 10.8452 60.0535C8.07805 60.7582 6.27336 61.7895 4.21086 63.852C1.5468 66.516 0.274925 69.3348 0.0514874 73.0645C-0.189138 77.0691 1.2718 80.8848 4.19368 83.8066C9.77961 89.3926 18.528 89.3926 24.1484 83.8066C26.1593 81.8129 27.5687 79.2348 28.1015 76.5363C28.1702 76.227 28.239 75.9691 28.2562 75.9691C28.2906 75.9691 28.8234 76.1926 29.4249 76.4848C34.8562 78.9426 41.6452 80.0254 47.5749 79.4066C51.1499 79.0113 55.5327 77.8598 58.5062 76.502C59.1593 76.2098 59.7093 75.9863 59.7265 76.0035C59.7609 76.0379 59.8984 76.5191 60.0359 77.0863C60.4312 78.6332 61.0156 80.0941 61.3937 80.4723C61.8749 80.9535 62.8546 80.8332 63.3187 80.2145C63.6624 79.7504 63.6624 79.716 63.3702 78.9254C62.3734 76.3473 62.3218 76.1238 62.3218 73.8207C62.3218 71.7582 62.3562 71.466 62.8374 70.1082C63.7827 67.4441 65.6046 65.2098 67.9249 63.8348C73.6999 60.466 81.1765 62.6488 84.1155 68.5785C85.1468 70.6926 85.4905 72.2738 85.3531 74.4223C85.2499 76.3816 84.9406 77.4988 83.9952 79.3207C82.6374 81.916 79.939 84.0988 76.914 85.0098C75.4874 85.4395 72.153 85.4395 70.7437 85.0098C69.5234 84.6488 67.8734 83.841 67.0484 83.2223C66.2749 82.6379 65.3984 82.6207 64.9515 83.1707C64.1265 84.1676 64.9687 85.2332 67.564 86.5051C73.1156 89.2035 79.4406 88.1551 83.8062 83.8066C89.4265 78.1691 89.3921 69.352 83.7202 63.766C81.6921 61.7723 79.8702 60.741 77.1546 60.0535C76.553 59.8988 76.0374 59.7613 76.0031 59.727C75.9859 59.7098 76.2093 59.1598 76.5015 58.5066C78.9077 53.2129 80.0249 46.2691 79.4062 40.4254C79.0109 36.8504 77.8593 32.4676 76.5015 29.4941C76.2093 28.841 75.9859 28.291 76.0031 28.2738C76.0374 28.2395 76.553 28.102 77.1546 27.9473C79.9218 27.2426 81.7265 26.2113 83.789 24.1488C86.4359 21.502 87.6906 18.7348 87.9484 15.0395C88.2062 10.9488 86.7109 7.06445 83.7202 4.12539C81.7093 2.14883 79.9562 1.15195 77.1546 0.395699C75.6421 -0.0167999 71.9984 -0.0167999 70.4859 0.395699C67.6327 1.16914 65.914 2.16602 63.8515 4.21133C61.789 6.27383 60.7577 8.07851 60.0531 10.8457C59.8984 11.4473 59.7609 11.9629 59.7265 11.9973C59.7093 12.0145 59.1937 11.8082 58.5749 11.5332C49.5515 7.42539 38.4484 7.42539 29.4249 11.516C28.8234 11.8082 28.2906 12.0316 28.2562 12.0316C28.239 12.0316 28.1702 11.7738 28.1015 11.4645C26.778 4.83008 20.7624 -0.0683594 14.0249 0.0175781C13.2515 0.0175781 12.1343 0.137886 11.5156 0.258202ZM16.5859 2.83633C19.9202 3.52383 22.9624 5.8957 24.4749 8.93789C26.2281 12.4957 26.2281 15.8644 24.4749 19.4223C22.5671 23.2551 18.4937 25.7816 14.1796 25.7816C9.86555 25.7816 5.79211 23.2551 3.8843 19.4223C2.14836 15.8644 2.13117 12.4957 3.8843 8.97227C6.17024 4.31445 11.464 1.7707 16.5859 2.83633ZM76.089 2.83633C80.5577 3.67851 84.3218 7.44257 85.164 11.9113C85.6796 14.627 85.3531 16.8785 84.1155 19.4223C81.589 24.527 75.5218 27.002 70.0906 25.1457C65.639 23.5988 62.5624 19.6113 62.2702 14.9535C61.9781 10.3816 64.3843 6.05039 68.389 3.9707C70.9499 2.64726 73.2702 2.30351 76.089 2.83633ZM49.7577 11.4988C50.8062 11.6879 52.439 12.0832 53.4015 12.3754C55.1546 12.891 58.5577 14.266 59.2109 14.7129C59.4687 14.8848 59.6234 15.3488 59.8296 16.466C59.9843 17.291 60.1046 17.9785 60.0874 17.9957C60.0874 18.0129 59.6062 17.7379 59.039 17.3941C57.5437 16.5004 54.3468 15.1769 52.3187 14.6098C46.9562 13.1144 41.0437 13.1144 35.6812 14.6098C33.6531 15.1769 30.4562 16.5004 28.9609 17.3941C28.3937 17.7379 27.9124 18.0129 27.9124 17.9957C27.8952 17.9785 28.0156 17.291 28.1702 16.466C28.4968 14.7129 28.4109 14.7816 30.9546 13.6988C33.9796 12.4098 36.9874 11.5848 40.2702 11.1723C42.3327 10.9145 47.6093 11.0863 49.7577 11.4988ZM48.6406 16.4316C60.4827 18.4598 69.4718 27.4832 71.6031 39.4457C72.0155 41.7832 72.0155 46.2176 71.6031 48.5551C69.4718 60.552 60.5515 69.4723 48.5546 71.6035C46.0109 72.0504 41.7827 72.016 39.1359 71.5176C27.8265 69.4379 19.1296 61.0676 16.6718 49.9301C15.3312 43.7941 16.1046 37.4691 18.9062 31.7113C23.1515 23.0316 31.3671 17.291 41.1812 16.1566C42.9859 15.9504 46.6296 16.0879 48.6406 16.4316ZM71.7234 28.1879C73.2702 28.4457 73.2015 28.377 74.3359 31.0238C75.2984 33.2926 76.0374 35.7504 76.5359 38.3285C76.8452 39.9785 76.8968 40.9238 76.8968 44.0004C76.8968 48.091 76.639 49.9988 75.6249 53.402C75.1093 55.1551 73.7343 58.5582 73.2874 59.2113C73.1155 59.4691 72.6515 59.6238 71.5343 59.8301C70.7093 59.9848 70.0218 60.1051 70.0046 60.0879C69.9874 60.0879 70.2624 59.6066 70.589 59.0395C71.4999 57.5098 72.8234 54.3473 73.3905 52.3363C74.8859 46.991 74.8859 41.0098 73.3905 35.6645C72.8921 33.8941 71.6031 30.6801 70.9499 29.5629C70.7437 29.2363 70.4343 28.7035 70.2452 28.377C69.9702 27.9129 69.9531 27.8098 70.1421 27.8785C70.2968 27.9301 71.0015 28.0848 71.7234 28.1879ZM17.8921 62.8551C20.8484 63.8691 23.1343 65.8801 24.5093 68.6645C26.2281 72.1363 26.2109 75.5395 24.4749 79.0629C22.464 83.1363 18.1499 85.6285 13.5781 85.3535C11.6187 85.2504 10.5015 84.941 8.67961 83.9957C5.05305 82.1223 2.57805 77.9801 2.57805 73.8207C2.57805 69.5066 5.10461 65.4332 8.93743 63.5254C11.0515 62.477 12.3234 62.202 14.6093 62.2879C16.0531 62.3395 16.7062 62.4426 17.8921 62.8551ZM29.614 70.9676C31.7452 72.2223 36.0765 73.666 39.2906 74.1816C41.7484 74.577 46.3374 74.577 48.7265 74.1816C52.2671 73.5973 55.9968 72.3082 58.8499 70.7098C59.589 70.2973 60.1562 70.0566 60.1046 70.177C60.0531 70.2973 59.9156 71.002 59.8124 71.741C59.5546 73.2879 59.6577 73.202 57.0109 74.3191C54.7077 75.2988 52.2499 76.0379 49.6718 76.5363C46.8187 77.0691 41.1812 77.0691 38.3281 76.5363C35.7499 76.0379 33.2921 75.2988 31.0234 74.3363C28.3765 73.202 28.4452 73.2707 28.1874 71.7238C28.0843 71.002 27.9296 70.2973 27.878 70.1426C27.8093 69.9535 27.9468 69.9879 28.4109 70.2629C28.7546 70.4691 29.3046 70.7957 29.614 70.9676Z" fill="#05568D"/>
<path d="M10.5693 8.92031C8.24896 9.4875 6.71927 11.6016 6.90833 13.9906C7.04583 15.5547 7.54427 16.3453 9.95052 18.7859C12.3224 21.2094 12.9927 21.6562 14.1786 21.6562C15.3646 21.6562 16.0349 21.2094 18.4068 18.7859C20.813 16.3453 21.3115 15.5547 21.449 13.9906C21.724 10.5531 18.4583 7.975 15.2099 9.075C14.1958 9.41875 14.1615 9.41875 13.2333 9.10938C12.2536 8.76562 11.4458 8.71406 10.5693 8.92031ZM13.1474 11.9281C13.8693 12.4953 14.4193 12.4953 15.2271 11.9453C16.1208 11.3438 16.6193 11.2578 17.4271 11.5328C18.6302 11.9453 19.2146 13.2859 18.7161 14.5406C18.4583 15.2625 14.6255 19.0781 14.1786 19.0781C13.7318 19.0781 9.89896 15.2625 9.64115 14.5406C8.76458 12.2719 11.2052 10.45 13.1474 11.9281Z" fill="#05568D"/>
<path d="M73.2187 9.28171L71.414 11.1723H69.9015C67.203 11.1723 66.8077 11.6364 66.7218 14.8676C66.653 17.463 66.8077 18.288 67.5468 18.9926L68.0796 19.5083L73.2702 19.5598C78.3749 19.6114 78.478 19.5942 79.2343 19.2161C80.678 18.477 81.0733 17.3083 80.9187 14.1114C80.8671 13.0458 80.7296 12.2723 80.5577 11.9114C80.1624 11.1551 79.1999 10.4676 78.3921 10.3645C77.739 10.2786 77.7046 10.2442 77.8077 9.79733C78.0483 8.52546 77.0687 7.39108 75.7108 7.39108C75.0577 7.39108 74.9374 7.47702 73.2187 9.28171ZM75.0233 11.3614C74.8343 11.6536 75.2812 12.4958 75.728 12.702C75.9687 12.8051 76.6046 12.8911 77.1546 12.8911C77.9108 12.8911 78.1858 12.9598 78.2718 13.1661C78.4093 13.5098 78.4093 16.3973 78.2718 16.7411C78.1858 16.9817 77.7905 17.0161 75.7796 17.0161H73.3905V14.9192V12.8223L74.1983 11.9973C75.0062 11.1895 75.2468 11.0005 75.0233 11.3614ZM70.8124 15.3833V17.0161H70.039H69.2655V15.3833V13.7505H70.039H70.8124V15.3833Z" fill="#05568D"/>
<path d="M52.249 27.4316C50.1006 28.2566 44.549 30.7316 44.3084 30.9723C43.8959 31.3848 43.9131 32.227 44.36 32.6738C44.7209 33.0348 45.5459 33.0691 46.285 32.7598C46.56 32.6223 46.5771 33.1723 46.5771 42.7973C46.5771 52.4223 46.56 52.9723 46.285 52.8691C46.1131 52.8004 43.2943 51.6145 40.0115 50.2223L34.0303 47.6957L34.0818 42.8145L34.1162 37.9504L37.2787 36.5926C39.0146 35.8535 40.5787 35.1145 40.7506 34.9598C41.4896 34.2895 40.9225 32.8285 39.9428 32.8285C39.7021 32.8285 37.9662 33.4816 36.0928 34.2895L32.6725 35.7504H30.8162C28.1693 35.7676 27.5506 35.9223 26.7943 36.7473C25.9693 37.6238 25.9178 38.0879 25.9865 43.5707C26.0381 48.5035 26.1068 48.7613 27.499 49.4488C28.1693 49.7926 28.5131 49.8441 30.4725 49.8441C32.3287 49.8441 32.7756 49.8957 33.3428 50.1879L34.0303 50.5316V55.8254C34.0303 60.8613 34.0475 61.1363 34.3912 61.6863C34.9068 62.5457 35.3881 62.8723 36.4365 63.0957C37.6225 63.3535 40.149 63.216 40.8193 62.8551C41.5412 62.4941 42.0912 61.8582 42.2803 61.1707C42.3834 60.8441 42.4521 59.1426 42.4521 57.3723C42.4521 55.5848 42.5037 54.141 42.5553 54.141C42.6068 54.141 44.824 55.0691 47.4709 56.2035C51.4584 57.9051 52.4209 58.266 53.1256 58.266C54.1225 58.266 54.8615 57.991 55.6521 57.3207C56.7006 56.427 56.7865 56.1004 56.8896 52.5941L56.9756 49.4145L58.5396 49.3285C59.8975 49.2598 60.1725 49.1738 60.7053 48.7785C61.8912 47.8848 61.96 47.5238 61.96 42.7973V38.5863L61.4959 37.7785C60.8428 36.6785 59.949 36.266 58.2131 36.266H56.9068L56.8553 33.0348C56.8037 29.8379 56.8037 29.7863 56.3396 29.0816C55.7037 28.1363 54.5178 27.4488 53.3834 27.3801C52.9021 27.3629 52.3865 27.3801 52.249 27.4316ZM53.9678 30.2504C54.3115 30.5941 54.3115 30.8176 54.3115 42.866V55.1551L53.9334 55.4129C53.349 55.8254 52.9709 55.7566 51.0287 54.9145L49.2412 54.1582L49.1896 42.8316L49.1553 31.5223L50.9943 30.7316C53.0912 29.8207 53.4865 29.7691 53.9678 30.2504ZM31.4521 42.7973V47.2832L30.0428 47.2316L28.6162 47.1801L28.5646 42.9691C28.5475 40.666 28.5646 38.6723 28.6162 38.552C28.6678 38.3973 29.1146 38.3285 30.0771 38.3285H31.4521V42.7973ZM59.2959 39.1707C59.485 39.5316 59.5537 46.0113 59.3646 46.4754C59.2787 46.6816 59.0037 46.7504 58.0756 46.7504H56.8896V42.7973V38.8441H58.0068C58.9178 38.8441 59.1412 38.8957 59.2959 39.1707ZM39.6678 52.8863C39.8225 52.9551 39.874 53.8832 39.874 56.7363V60.5004L39.4787 60.5863C39.2725 60.6379 38.5506 60.6723 37.8975 60.6379L36.6943 60.5863L36.6428 56.0832L36.6084 51.5801L38.0178 52.1816C38.8084 52.5254 39.5475 52.8348 39.6678 52.8863Z" fill="#05568D"/>
<path d="M12.943 67.2723C12.7539 67.4957 12.393 68.1832 12.1352 68.8191L11.6539 69.9535H9.88359C8.90391 69.9535 7.97578 70.0051 7.82109 70.0566C7.40859 70.2285 7.03047 71.0879 7.15078 71.5863C7.32266 72.291 7.83828 72.5316 9.23047 72.5316C9.91797 72.5316 10.4852 72.5832 10.468 72.652C10.468 72.7379 10.2961 73.1332 10.0898 73.5629L9.71172 74.3363L7.80391 74.3879C5.65547 74.4395 5.27734 74.6285 5.27734 75.6426C5.27734 76.5363 5.82734 76.8973 7.28828 76.966L8.56016 77.0348L8.06172 78.2035C7.46016 79.6129 7.46016 79.7504 7.92422 80.3348C8.30234 80.7988 9.02422 80.9363 9.60859 80.627C9.76328 80.541 10.2445 79.6816 10.6398 78.7363L11.3789 77.0004H12.7539C13.7852 77.0004 14.1117 77.052 14.043 77.2066C12.9945 79.6816 12.9773 79.8191 13.5445 80.4723C13.7164 80.6785 14.043 80.7816 14.4727 80.7816C15.2461 80.7816 15.4695 80.5066 16.3461 78.3582L16.8961 77.0348L18.9414 76.966C20.9523 76.9145 21.0039 76.8973 21.4164 76.4332C21.9148 75.8488 21.932 75.4707 21.468 74.8691C21.1414 74.4566 21.0211 74.4223 19.6633 74.4223C18.0477 74.4223 18.0305 74.4051 18.5633 73.2535L18.8898 72.5316H20.832C22.9633 72.5316 23.4273 72.377 23.6164 71.5863C23.7367 71.0879 23.3586 70.2285 22.9461 70.0566C22.7914 70.0051 22.0867 69.9535 21.382 69.9535C20.007 69.9535 19.9211 69.8676 20.368 69.0941C20.6945 68.527 20.6945 67.7191 20.3508 67.2379C20.1617 66.9629 19.9211 66.8598 19.4398 66.8598C18.632 66.8598 18.4258 67.0832 17.7383 68.6645L17.2055 69.8676L15.8305 69.9191L14.4383 69.9707L14.782 69.1801C14.9711 68.7332 15.1258 68.1832 15.1258 67.9598C15.1258 66.9457 13.5789 66.4473 12.943 67.2723ZM15.9852 72.6348C15.9852 72.6863 15.8133 73.116 15.6242 73.5801L15.2633 74.4223H13.8883C13.132 74.4223 12.5477 74.3707 12.582 74.2848C12.6164 74.216 12.7711 73.8035 12.9602 73.3395L13.2867 72.5316H14.6273C15.3836 72.5316 15.9852 72.5832 15.9852 72.6348Z" fill="#05568D"/>
<path d="M77.0862 65.4159C76.9831 65.4331 76.6393 65.5019 76.2956 65.5534C75.5393 65.6909 74.3534 66.6706 73.9065 67.5644C73.7175 67.9253 73.5628 68.5613 73.5628 68.9566C73.5628 69.6784 73.5284 69.7128 72.5831 70.3144L71.5862 70.9159L70.83 70.4863C68.0456 68.9394 64.6425 71.6378 65.4675 74.7659C66.0862 77.0863 68.8018 78.2894 70.8471 77.1378L71.5862 76.7253L72.5831 77.3269C73.5284 77.9284 73.5628 77.9628 73.5628 78.6847C73.5628 79.9394 74.4393 81.2284 75.78 81.8988C76.6737 82.3456 78.4612 82.2081 79.3721 81.5894C81.7268 80.0425 81.555 76.3816 79.0628 75.1097C77.7909 74.4738 75.969 74.5941 75.1096 75.3675C74.8003 75.6425 74.7315 75.6253 73.8378 75.0925C72.9268 74.5425 72.8753 74.4738 72.8753 73.8206C72.8753 73.1675 72.9268 73.0988 73.8378 72.5488C74.7315 72.0159 74.8003 71.9988 75.1096 72.2738C75.6081 72.7206 76.9831 73.0644 77.8253 72.9441C78.2378 72.8753 78.9253 72.5831 79.3721 72.2909C82.1565 70.4347 81.2971 66.1206 78.0143 65.5191C77.6018 65.4331 77.1721 65.3988 77.0862 65.4159ZM78.3581 68.6816C78.6331 69.2831 78.4268 69.9191 77.8425 70.2113C77.0346 70.6409 76.1409 70.0909 76.1409 69.18C76.1409 68.6472 76.4846 68.2003 77.0003 68.0284C77.43 67.8909 78.1518 68.2347 78.3581 68.6816ZM70.005 73.0816C70.3831 73.5284 70.3831 74.1128 69.9878 74.5941C69.5581 75.1097 68.6128 75.1097 68.2003 74.5769C67.1862 73.3394 68.9393 71.8613 70.005 73.0816ZM77.7737 77.3441C78.9425 77.7909 78.5815 79.5784 77.3096 79.5784C76.1581 79.5784 75.694 78.2378 76.5878 77.5331C77.1206 77.1206 77.1721 77.1206 77.7737 77.3441Z" fill="#05568D"/>
</g>
<defs>
<clipPath id="clip0_1430_3675">
<rect width="88" height="88" fill="white"/>
</clipPath>
</defs>
</svg>
