<svg width="88" height="88" viewBox="0 0 88 88" fill="none" xmlns="http://www.w3.org/2000/svg">
<g clip-path="url(#clip0_1430_3699)">
<path d="M0.721875 0.636391C0.601562 0.68795 0.395312 0.945763 0.257812 1.20358C0.034375 1.63326 0 5.34577 0 29.8208C0 50.8755 0.0515625 58.0426 0.20625 58.3176C0.309375 58.5239 0.515625 58.7817 0.670312 58.902C0.876562 59.0739 5.94687 59.1083 23.0312 59.1255H45.1172L46.4234 61.4114L47.7297 63.7145L46.6641 65.5364C46.0797 66.5505 45.5297 67.4614 45.4266 67.5645C45.2891 67.702 44.9281 67.513 44.1203 66.8942C38.1219 62.3051 29.5797 64.4708 26.4859 71.363C25.7641 72.9614 25.5234 74.1473 25.5406 76.0552C25.5578 78.6505 26.2625 80.8161 27.775 82.8614C29.2531 84.8895 31.9172 86.6427 34.375 87.227C38.5687 88.1895 43.3641 86.5567 45.9594 83.2567C46.3719 82.7239 48.0219 80.0083 49.6203 77.2411C51.2016 74.4739 52.5422 72.2052 52.5937 72.2052C52.6453 72.2052 53.1781 73.0817 53.7797 74.1645C55.1375 76.5708 55.3609 76.8286 56.1172 76.8286C56.7359 76.8286 57.4062 76.2098 57.4062 75.6255C57.4062 75.4708 56.6672 74.027 55.7562 72.4458L54.0891 69.5411L54.5703 68.6817C54.8453 68.2005 55.275 67.4786 55.5156 67.0661L55.9797 66.327L56.9078 67.9083C57.8703 69.5411 58.4031 70.0395 59.4344 70.2286C60.3797 70.4177 61.1016 70.1598 62.2531 69.2489C62.8375 68.7677 63.6969 68.1833 64.1437 67.9598C67.4094 66.3098 71.6031 66.9286 74.2328 69.438C77.9453 72.9958 78.0656 78.6848 74.5078 82.2427C70.4859 86.2645 63.9203 85.6458 60.6891 80.9536C59.8812 79.7677 59.3312 79.4583 58.6437 79.8192C57.6812 80.3177 57.6812 81.0739 58.6266 82.4833C59.0047 83.0505 59.7781 83.927 60.3281 84.4255C62.5281 86.4192 64.6766 87.2958 67.6328 87.4333C69.9531 87.5364 71.3109 87.2614 73.3906 86.2473C76.1578 84.8895 78.4953 82.002 79.3375 78.8911C79.8187 77.1208 79.75 74.3536 79.1828 72.6177C77.2578 66.7395 71.225 63.302 65.3984 64.7973C63.6109 65.2614 62.5453 65.7598 61.1359 66.8426C60.4828 67.3239 59.8984 67.6848 59.8125 67.6333C59.675 67.5473 57.6297 64.1098 57.5437 63.8005C57.5094 63.7145 58.0766 62.6317 58.7812 61.3942L60.0703 59.1255H73.5625C87.8281 59.1083 87.3641 59.1426 87.7937 58.3176C87.9484 58.0426 88 50.8755 88 29.8208C88 -0.704231 88.0516 0.825455 87.0891 0.602013C86.8828 0.550453 71.6375 0.533264 53.2125 0.550453L19.7141 0.602013L19.3875 1.04889C19.1297 1.39264 19.0781 1.65045 19.1641 2.04576C19.4047 3.16295 16.9469 3.0942 52.8516 3.0942H85.4219V29.8208V56.5473H73.5625C67.0484 56.5473 61.7031 56.4958 61.7031 56.4442C61.7031 56.3755 62.8891 54.2786 64.35 51.752C65.8109 49.2255 67.1344 46.7677 67.2891 46.2692C67.7359 44.9114 67.5812 42.8489 66.9453 41.5083C66.3781 40.3223 65.1922 39.0676 64.1953 38.6036C63.5937 38.3114 63.4562 38.2942 62.8203 38.5176C62.15 38.7583 62.0641 38.8786 56.9937 47.6614L51.8719 56.5473H27.225H2.57812V29.8208V3.11139L8.78281 3.05983L14.9875 3.00826L15.3141 2.59576C15.7609 2.04576 15.7266 1.34108 15.2453 0.894203C14.85 0.516075 14.7984 0.516075 7.88906 0.533264C4.07344 0.533264 0.842187 0.584824 0.721875 0.636391ZM64.2297 41.9895C64.4359 42.2817 64.6937 42.763 64.7797 43.0208C65.0375 43.6911 65.0203 45.1005 64.7453 45.7708C64.4703 46.3895 56.2547 60.6723 56.0141 60.913C55.9281 61.0161 55.6875 60.913 55.3953 60.638C54.8281 60.1223 53.9344 59.6411 53.5219 59.6411C53.3328 59.6411 53.2641 59.538 53.3156 59.3317C53.3844 59.0911 62.5281 43.1239 63.3531 41.8005C63.6797 41.302 63.7828 41.3192 64.2297 41.9895ZM49.8437 60.0192C49.5687 60.5176 49.2766 60.913 49.2078 60.913C49.1391 60.8958 48.8641 60.4833 48.5891 60.002L48.0906 59.1255H49.225H50.3594L49.8437 60.0192ZM53.7625 62.6661C54.3469 63.3364 54.2781 64.2989 53.6078 64.8661C52.9375 65.4333 52.25 65.4333 51.5797 64.8661C50.6516 64.0926 50.9266 62.6145 52.0781 62.1677C52.5594 61.9786 53.3672 62.2192 53.7625 62.6661ZM51.3906 67.7192L52.0609 67.8911L50.2391 71.0364C49.2422 72.7552 47.575 75.6598 46.5094 77.4817C44.2234 81.4348 43.5187 82.3973 42.1266 83.3255C40.6312 84.3223 39.3594 84.752 37.6406 84.8552C34.8906 85.027 32.5359 84.1333 30.6625 82.2255C27.6203 79.1489 27.225 74.4223 29.7172 70.8817C31.4359 68.4239 34.0828 67.0317 37.0391 67.0317C39.2391 67.0317 40.9922 67.6848 42.9344 69.2489C44.0687 70.1427 44.825 70.4177 45.7531 70.2286C46.7672 70.0223 47.3516 69.4895 48.2797 67.9083L49.1906 66.3614L49.9469 66.9458C50.3766 67.2723 51.0125 67.6161 51.3906 67.7192Z" fill="#05568D"/>
<path d="M35.2852 70.6063C33.6523 71.1906 32.4492 72.2563 31.8648 73.6656C30.6789 76.5016 31.7273 79.5094 34.4086 80.9703C35.4055 81.5031 35.6117 81.5547 36.9523 81.5547C38.1727 81.5547 38.568 81.4859 39.393 81.0906C40.5273 80.5578 41.593 79.5266 42.143 78.4094C42.7102 77.2578 42.7102 74.6969 42.1602 73.5625C40.9055 71.0359 37.8117 69.6953 35.2852 70.6063ZM38.1039 73.0641C38.6883 73.2875 39.4789 74.0094 39.8055 74.6281C39.943 74.8859 40.0461 75.4875 40.0461 75.9688C40.0461 78.3063 37.7602 79.7328 35.6633 78.7188C33.7383 77.7906 33.3602 75.2297 34.9414 73.7172C35.7492 72.9438 37.0555 72.6688 38.1039 73.0641Z" fill="#05568D"/>
<path d="M5.01888 4.93288C4.4517 5.15632 4.29701 5.96413 4.29701 8.85163C4.29701 12.7532 4.07357 12.5469 8.25013 12.5469C12.4267 12.5469 12.2548 12.7188 12.1689 8.37038C12.1173 5.80944 12.1001 5.67194 11.7048 5.25944L11.2923 4.81257L8.26732 4.82975C6.60013 4.82975 5.1392 4.88132 5.01888 4.93288ZM9.62513 8.67975V9.96882H8.25013H6.87513V8.67975V7.39069H8.25013H9.62513V8.67975Z" fill="#05568D"/>
<path d="M76.2951 5.25944C75.8998 5.67194 75.8826 5.80944 75.8311 8.37038C75.7623 11.3094 75.8139 11.7048 76.3123 12.2032C76.6217 12.5126 76.8967 12.5469 79.7498 12.5469C83.9264 12.5469 83.7029 12.7532 83.7029 8.85163C83.7029 5.89538 83.5654 5.15632 82.9295 4.91569C82.7748 4.86413 81.3139 4.81257 79.6811 4.81257C76.7248 4.81257 76.7076 4.81257 76.2951 5.25944ZM81.1248 8.67975V9.96882H79.7498H78.3748V8.67975V7.39069H79.7498H81.1248V8.67975Z" fill="#05568D"/>
<path d="M40.9757 11.9287C39.2225 12.2725 37.8819 12.685 36.4897 13.3209C30.5772 16.0537 26.5038 21.8115 25.971 28.2225C25.8163 30.2334 26.0054 32.5881 26.4694 34.4271C26.9163 36.1803 28.4116 39.2568 29.546 40.7521C32.0382 44.035 35.6132 46.3725 39.7897 47.4553C42.0241 48.0396 45.9772 48.0396 48.2116 47.4553C52.3882 46.3725 55.9632 44.035 58.4554 40.7521C59.6069 39.2396 61.085 36.1803 61.5319 34.3928C62.0132 32.5193 62.185 30.2162 62.0304 28.2225C61.4116 20.66 55.9288 14.1975 48.4866 12.2553C46.4413 11.7225 42.8663 11.5678 40.9757 11.9287ZM48.1772 14.8506C54.021 16.5693 58.2491 21.21 59.3147 27.0365C59.5725 28.5318 59.5382 31.4881 59.2288 32.9318C57.9913 38.724 53.6085 43.3475 47.8679 44.8943C45.9085 45.41 42.0929 45.41 40.1335 44.8943C32.6741 42.8834 27.8616 35.974 28.5663 28.2396C29.1163 22.0865 33.4819 16.7756 39.4804 14.9537C41.3882 14.3865 42.2132 14.2834 44.5163 14.3521C46.1835 14.3865 46.9913 14.5068 48.1772 14.8506Z" fill="#05568D"/>
<path d="M37.1766 20.5226L36.6953 20.9351V29.821V38.707L37.1766 39.1195C37.8812 39.721 38.4312 39.6351 40.1328 38.621C41.9031 37.5898 42.3328 37.0226 41.9203 36.2835C41.7828 36.0429 41.4562 35.7335 41.1984 35.6132C40.7687 35.407 40.6312 35.4241 40.0297 35.7335C39.6516 35.9398 39.3078 36.0945 39.2734 36.0945C39.2219 36.0945 39.1875 33.2757 39.1875 29.821C39.1875 26.3663 39.2391 23.5476 39.2906 23.5476C39.4109 23.5476 49.8437 29.546 50.0672 29.7351C50.1359 29.8038 49.1391 30.457 47.8328 31.2132C45.2031 32.7085 44.6875 33.121 44.6875 33.7741C44.6875 34.3241 45.3922 35.0632 45.925 35.0632C46.3375 35.0632 52.4906 31.6085 53.3156 30.9038C54.0031 30.3366 54.1062 29.5804 53.5906 28.9788C53.0062 28.3085 38.7062 20.1101 38.1391 20.1101C37.8641 20.1101 37.4344 20.2991 37.1766 20.5226Z" fill="#05568D"/>
<path d="M4.8125 15.7953L4.29688 16.2938V19.25V22.2063L4.79531 22.7047L5.29375 23.2031H8.23281C11.0688 23.2031 11.1719 23.1859 11.6359 22.7906L12.1172 22.3781V19.2672C12.1172 15.1422 12.375 15.4 8.33594 15.3313L5.32812 15.2797L4.8125 15.7953ZM9.625 19.25V20.625H8.25H6.875V19.25V17.875H8.25H9.625V19.25Z" fill="#05568D"/>
<path d="M76.6565 15.5203C75.883 15.9156 75.7799 16.3453 75.8315 19.4734L75.883 22.3781L76.3643 22.7906C76.8283 23.1859 76.9315 23.2031 79.7674 23.2031H82.7065L83.2049 22.7047L83.7033 22.2062V19.25V16.2937L83.2049 15.7953L82.7065 15.2969H79.8877C77.9799 15.2969 76.9487 15.3656 76.6565 15.5203ZM81.1252 19.25V20.625H79.7502H78.3752V19.25V17.875H79.7502H81.1252V19.25Z" fill="#05568D"/>
<path d="M4.72718 26.3836C4.29749 26.7961 4.29749 26.8476 4.29749 29.8211C4.29749 33.9117 4.05687 33.6883 8.23343 33.6883H11.31L11.7569 33.1554C12.2037 32.6398 12.2037 32.5883 12.2037 29.8898C12.2037 27.1226 12.1178 26.6242 11.5334 26.1773C11.3444 26.0226 10.3303 25.9711 8.19905 25.9539C5.17405 25.9539 5.13968 25.9539 4.72718 26.3836ZM9.62562 29.8211V31.1101H8.25062H6.87562V29.8211V28.532H8.25062H9.62562V29.8211Z" fill="#05568D"/>
<path d="M76.4672 26.1775C75.8828 26.6244 75.7969 27.1228 75.7969 29.89C75.7969 32.5884 75.7969 32.64 76.2437 33.1556L76.6906 33.6884H79.75C83.8922 33.6884 83.6 33.9634 83.6687 29.9244L83.7203 26.8134L83.2906 26.3837C82.8609 25.9541 82.8437 25.9541 79.8016 25.9541C77.6703 25.9712 76.6562 26.0228 76.4672 26.1775ZM81.125 29.8212V31.1103H79.75H78.375V29.8212V28.5322H79.75H81.125V29.8212Z" fill="#05568D"/>
<path d="M4.79531 36.9367L4.29688 37.4352V40.3742C4.29688 43.2102 4.31406 43.3133 4.70938 43.7774L5.12188 44.2586L7.75156 44.3102C11.0344 44.3789 11.4297 44.3102 11.8766 43.6055C12.1859 43.107 12.2031 42.7977 12.1688 40.168L12.1172 37.2633L11.6359 36.8508C11.1719 36.4555 11.0688 36.4383 8.23281 36.4383H5.29375L4.79531 36.9367ZM9.625 40.3914V41.7664H8.25H6.875V40.3914V39.0164H8.25H9.625V40.3914Z" fill="#05568D"/>
<path d="M76.3639 36.8502L75.8827 37.2627V40.3736C75.8827 44.533 75.6077 44.258 79.767 44.258H82.878L83.2905 43.7767C83.6858 43.3127 83.703 43.2095 83.703 40.3736V37.4345L83.2045 36.9361L82.7061 36.4377H79.767C76.9311 36.4377 76.828 36.4548 76.3639 36.8502ZM81.1248 40.3908V41.7658H79.7498H78.3748V40.3908V39.0158H79.7498H81.1248V40.3908Z" fill="#05568D"/>
<path d="M5.20806 47.1797C4.91587 47.3 4.58931 47.5578 4.48618 47.7641C4.22837 48.2453 4.22837 53.5391 4.50337 54.0203C4.89868 54.7766 5.10493 54.8109 8.19868 54.8281C11.069 54.8281 11.1721 54.8109 11.6362 54.4156L12.1174 54.0031L12.169 51.1672C12.2377 47.85 12.1174 47.4031 11.0346 47.1109C10.0721 46.8359 5.87837 46.8875 5.20806 47.1797ZM9.59087 50.9094L9.64244 52.25H8.25025H6.87525V50.875V49.4828L8.21587 49.5344L9.53931 49.5859L9.59087 50.9094Z" fill="#05568D"/>
<path d="M76.8799 47.1109C75.9002 47.3859 75.7627 47.9188 75.8314 51.1672L75.883 54.0031L76.3642 54.4156C76.8283 54.8109 76.9314 54.8281 79.8017 54.8281C82.8955 54.8109 83.1017 54.7766 83.497 54.0203C83.772 53.5391 83.772 48.2453 83.5142 47.7469C83.1705 47.1109 82.3283 46.9219 79.8017 46.9391C78.4955 46.9391 77.172 47.025 76.8799 47.1109ZM81.1252 50.875V52.25H79.7502H78.3752V50.9953C78.3752 50.2906 78.4267 49.6719 78.4955 49.6203C78.547 49.5516 79.1658 49.5 79.8705 49.5H81.1252V50.875Z" fill="#05568D"/>
<path d="M66.6016 70.5375C65.0203 71.0359 63.7484 72.1187 63.0438 73.5281C62.7172 74.1984 62.6484 74.6109 62.6484 75.9688C62.6484 77.3438 62.7172 77.7391 63.0609 78.4437C63.5938 79.5266 64.5391 80.4719 65.6906 81.0734C66.4813 81.4859 66.7906 81.5547 68.1484 81.5547C69.5922 81.5547 69.7641 81.5203 70.7953 80.9531C75.2641 78.5469 74.5766 71.9984 69.7125 70.5547C68.6813 70.2453 67.5297 70.2453 66.6016 70.5375ZM69.3172 73.1156C70.5031 73.5969 71.4828 75.3156 71.225 76.4328C70.6578 78.925 67.8734 79.9047 66.1203 78.2375C65.3984 77.5672 65.1406 76.9484 65.1406 75.9688C65.1406 74.9891 65.3984 74.3703 66.1203 73.7C66.9797 72.875 68.2172 72.6516 69.3172 73.1156Z" fill="#05568D"/>
</g>
<defs>
<clipPath id="clip0_1430_3699">
<rect width="88" height="88" fill="white"/>
</clipPath>
</defs>
</svg>
