<svg width="88" height="88" viewBox="0 0 88 88" fill="none" xmlns="http://www.w3.org/2000/svg">
<g clip-path="url(#clip0_1430_3861)">
<path d="M3.43862 0.292091C2.97456 0.463966 2.32143 0.928024 1.78862 1.46084C0.207371 3.04209 0.344871 -1.1001 0.344871 43.9999C0.344871 89.0827 0.207371 84.9577 1.77143 86.539C3.38706 88.1546 -0.927002 87.9999 43.9152 87.9999C88.7574 87.9999 84.6152 88.1374 86.2136 86.5562C87.7777 84.9921 87.6574 86.9343 87.6574 61.514C87.6574 39.9952 87.6402 39.2046 87.3308 38.8265C86.8839 38.2765 85.8527 38.2765 85.4058 38.8265C85.0964 39.2046 85.0792 39.9952 85.0792 61.3765C85.0792 85.7827 85.148 84.3905 84.0136 85.078C83.4464 85.4218 83.2402 85.4218 53.8496 85.4218H24.2355V70.9843V56.5296L23.8058 56.1171C23.273 55.5671 22.5339 55.5499 22.0355 56.0827L21.6574 56.478V70.9499V85.4218H13.1152C4.83081 85.4218 4.53862 85.4046 3.98862 85.078C2.85425 84.3733 2.923 86.728 2.923 51.8202V20.1093H12.2902H21.6574V35.7499V51.4077L22.0871 51.8202C22.3105 52.0608 22.6199 52.2499 22.7746 52.2499C23.273 52.2499 24.0121 51.7515 24.1324 51.3562C24.1839 51.1327 24.2355 44.0171 24.2355 35.5265V20.1093H54.6574H85.0792V27.2937V34.4952L85.4746 34.8562C86.0417 35.389 86.8496 35.3546 87.2964 34.7874C87.6574 34.3233 87.6574 34.2374 87.6574 19.2499C87.6574 1.99365 87.7433 2.97334 86.2308 1.46084C84.6152 -0.154785 88.9464 -9.91821e-05 43.9324 0.0170898C8.19956 0.0170898 4.14331 0.0514603 3.43862 0.292091ZM84.0136 2.92178C85.0449 3.55772 85.0792 3.76396 85.0792 10.9999V17.5312H44.0011H2.923V10.9999C2.923 3.76396 2.95737 3.55772 3.98862 2.92178C4.55581 2.57803 4.74487 2.57803 44.0011 2.57803C83.2574 2.57803 83.4464 2.57803 84.0136 2.92178Z" fill="#05568D"/>
<path d="M9.04258 5.99859C8.33789 6.47984 7.9082 7.20172 7.9082 7.99234C7.9082 8.8689 8.99102 12.9423 9.38633 13.5439C10.2457 14.8845 11.9473 15.0736 13.2363 13.9908L13.752 13.5439L14.4395 14.1627C15.2645 14.9017 16.1066 15.0048 16.6738 14.4033C17.2238 13.8189 17.1207 13.1658 16.3473 12.3236L15.677 11.6017L16.1582 11.0517C17.3957 9.67672 17.0691 7.66578 15.5051 6.99547C14.491 6.54859 10.9848 5.67203 10.2285 5.67203C9.85039 5.67203 9.31758 5.80953 9.04258 5.99859ZM12.2566 8.67984C13.1332 8.92047 13.941 9.16109 14.0785 9.21265C14.2504 9.26422 13.9066 9.72828 12.9785 10.6564C12.2223 11.4127 11.5691 11.9627 11.5004 11.8939C11.4488 11.8252 11.2254 11.1205 11.0191 10.3127C10.8129 9.50484 10.5895 8.71422 10.5551 8.54234C10.4348 8.16422 10.3832 8.16422 12.2566 8.67984Z" fill="#05568D"/>
<path d="M35.9402 6.03239C32.984 6.92614 31.9871 10.8105 34.1356 12.959C35.4074 14.2136 37.4699 14.5746 38.9481 13.784C41.9731 12.2027 41.9902 7.87145 38.9824 6.34177C38.1574 5.92927 36.7652 5.77458 35.9402 6.03239ZM38.2949 9.02302C39.1715 10.0371 38.484 11.6011 37.1606 11.6011C36.1637 11.6011 35.5793 11.0168 35.5793 10.0371C35.5793 9.43552 35.6652 9.22927 36.1293 8.85114C36.5762 8.47302 36.7996 8.40427 37.2809 8.4902C37.6418 8.54177 38.0543 8.7652 38.2949 9.02302Z" fill="#05568D"/>
<path d="M47.4562 6.15328C46.3734 6.73766 46.2187 7.28766 46.2703 10.2611L46.3219 12.8736L46.8203 13.3892C47.5937 14.197 48.0234 14.3002 50.6703 14.2314C52.7844 14.1798 53.1453 14.1283 53.575 13.8189C54.4687 13.1658 54.6578 12.5298 54.6578 10.0548C54.6578 7.51109 54.4687 6.89234 53.4719 6.23922C52.9391 5.87828 52.6984 5.84391 50.4641 5.84391C48.4359 5.84391 47.9375 5.89547 47.4562 6.15328ZM52.0797 10.0548V11.6877H50.4469H48.8141V10.0548V8.42203H50.4469H52.0797V10.0548Z" fill="#05568D"/>
<path d="M62.5645 6.0327C60.8457 6.54833 59.6598 8.18114 59.6426 10.0202C59.6426 11.6874 60.4504 12.9936 61.9629 13.8015C62.9254 14.3171 64.627 14.2999 65.5895 13.7843C68.0645 12.4952 68.6832 9.1952 66.8098 7.25302C65.727 6.11864 63.9738 5.6202 62.5645 6.0327ZM64.9363 9.02333C65.452 9.62489 65.4348 10.5015 64.902 11.1202C64.5754 11.4983 64.352 11.6015 63.7676 11.6015C62.8223 11.6015 62.2207 10.9655 62.2207 9.96864C62.2207 9.43583 62.3238 9.22958 62.7707 8.85145C63.2176 8.47333 63.441 8.40458 63.9223 8.49052C64.2832 8.54208 64.6957 8.76552 64.9363 9.02333Z" fill="#05568D"/>
<path d="M74.1145 6.18786C73.0488 6.84098 72.877 7.35661 72.877 10.0722C72.877 12.3066 72.9113 12.5472 73.2723 13.08C73.9598 14.1285 74.527 14.2832 77.2941 14.2316C79.4426 14.18 79.7863 14.1457 80.216 13.8191C81.1098 13.166 81.2988 12.53 81.2988 10.055C81.2988 7.5113 81.1098 6.89255 80.1129 6.23942C79.5801 5.87848 79.3395 5.84411 77.1051 5.84411C74.991 5.84411 74.6129 5.89567 74.1145 6.18786ZM78.7207 10.055V11.6879H77.0879H75.4551V10.055V8.42223H77.0879H78.7207V10.055Z" fill="#05568D"/>
<path d="M6.11984 25.1109C5.55266 25.5578 5.50109 26.4688 6.01672 26.9844C6.34328 27.3109 6.58391 27.3281 12.2902 27.3281C17.9964 27.3281 18.237 27.3109 18.5636 26.9844C19.0792 26.4688 19.0277 25.5578 18.4605 25.1109C18.0136 24.7672 17.8073 24.75 12.2902 24.75C6.77297 24.75 6.56672 24.7672 6.11984 25.1109Z" fill="#05568D"/>
<path d="M34.0327 26.6922C32.8468 26.95 32.0046 27.4656 31.128 28.4625C29.7187 30.0609 29.8218 28.2047 29.7702 52.1641C29.7358 66.4469 29.7874 73.8719 29.9077 74.6453C30.2343 76.8281 31.4546 78.5125 33.328 79.3891L34.2905 79.8359H45.978H57.6655L58.628 79.3547C59.814 78.7875 60.8968 77.6531 61.4983 76.3469L61.9624 75.3672L62.014 58.9016L62.0483 42.4531H66.7749H71.5015V43.5531V44.6359L69.5593 44.7219C67.3421 44.8078 66.6718 45.0828 65.9671 46.2C65.5718 46.8359 65.5718 46.8875 65.5718 52.6797C65.5718 58.4031 65.5718 58.5406 65.9499 59.125C66.6202 60.2078 67.3937 60.5 69.5937 60.5H71.5015V62.4766V64.4531H69.5937C67.3421 64.4531 66.7233 64.6766 66.0358 65.7078L65.5718 66.4125V72.2734V78.1344L66.0358 78.8391C66.8952 80.1281 67.1187 80.1797 72.8937 80.1797H77.964L78.703 79.6984C80.0437 78.8047 80.0952 78.5812 80.0952 72.2906C80.0952 67.0656 80.078 66.7562 79.7343 66.0516C79.1155 64.7797 78.6171 64.5562 76.228 64.4531L74.1655 64.3672L74.114 62.4422L74.0624 60.5344L76.1765 60.4656C78.6171 60.3969 79.1155 60.1906 79.7343 58.9016C80.078 58.1969 80.0952 57.8875 80.0952 52.6625C80.0952 47.3 80.078 47.1453 79.7171 46.4062C79.0124 45.0656 78.153 44.7047 75.5921 44.6875H74.0796V42.7109C74.0796 40.8203 74.0624 40.7 73.6499 40.3047L73.2374 39.875H67.6515H62.0655L62.014 35.1828L61.9624 30.5078L61.4812 29.5281C60.914 28.3766 60.1062 27.6203 58.7827 27.0016L57.8374 26.5547L46.4077 26.5203C37.9858 26.5031 34.7202 26.5375 34.0327 26.6922ZM58.0952 29.5109C58.8858 29.9922 59.4702 31.0406 59.4702 31.9516V32.6562H45.8921H32.314V32.2609C32.314 31.5391 32.6749 30.5766 33.139 30.0609C34.0671 29.0469 33.8952 29.0469 46.2358 29.0984L57.4937 29.1328L58.0952 29.5109ZM59.4702 37.5547V39.875H55.5343C51.7358 39.875 51.5812 39.8578 51.478 39.5312C51.1171 38.3797 49.5874 37.4172 48.1093 37.4172C46.1499 37.4172 44.6718 38.8094 44.5515 40.8031C44.4655 42.0234 44.7921 42.8656 45.6687 43.6906C47.3015 45.2375 50.0687 44.9109 51.2374 43.0375L51.5983 42.4531H55.5343H59.4702V56.6328V70.8125H45.8921H32.314V53.1437C32.314 43.4156 32.3655 35.4062 32.4343 35.3547C32.4858 35.2859 38.6046 35.2344 46.0124 35.2344H59.4702V37.5547ZM48.9687 40.3047C49.2952 40.6141 49.2608 41.3703 48.8999 41.7656C48.2812 42.4531 47.0952 42.0062 47.0952 41.0781C47.0952 40.0469 48.1952 39.5828 48.9687 40.3047ZM77.3108 47.4031C77.4655 47.5234 77.5171 48.6922 77.4827 52.6969L77.4312 57.8359H72.7905H68.1499L68.0983 52.7828C68.064 49.2078 68.1155 47.6609 68.253 47.5062C68.4077 47.3172 69.3187 47.2656 72.7733 47.2656C75.1452 47.2656 77.1905 47.3344 77.3108 47.4031ZM77.4827 72.1703C77.5171 75.7453 77.4655 77.2922 77.328 77.4469C77.053 77.7734 68.5968 77.8078 68.2702 77.4813C68.1155 77.3266 68.064 75.9344 68.064 72.2734C68.064 69.5062 68.1155 67.2031 68.1843 67.1516C68.253 67.0828 70.3499 67.0484 72.8593 67.0656L77.4312 67.1172L77.4827 72.1703ZM59.4358 74.2672C59.3327 75.3328 58.628 76.4156 57.6655 76.9484L56.978 77.3438H46.0124C33.8608 77.3438 34.4108 77.3953 33.328 76.1922C32.778 75.5734 32.314 74.3875 32.314 73.5625C32.314 73.4594 37.4358 73.3906 45.9093 73.3906H59.5218L59.4358 74.2672Z" fill="#05568D"/>
<path d="M37.9336 48.0907C37.5211 48.5547 37.5555 49.5516 38.0023 49.9469C38.3461 50.2563 38.7586 50.2735 45.4445 50.325C49.3289 50.3594 52.7664 50.325 53.0758 50.2735C54.193 50.0672 54.6742 48.9157 53.9695 48.1594C53.6086 47.7813 53.6086 47.7813 45.9086 47.7813C38.6726 47.7813 38.1914 47.7985 37.9336 48.0907Z" fill="#05568D"/>
<path d="M37.9857 53.6249C37.4701 54.1405 37.5217 55.0515 38.106 55.5155C38.5529 55.8593 38.656 55.8765 46.1154 55.8249L53.6607 55.7734L53.9873 55.3609C54.417 54.8452 54.3998 54.2952 53.9529 53.728L53.6092 53.2812H45.9607C38.5529 53.2812 38.3123 53.2984 37.9857 53.6249Z" fill="#05568D"/>
<path d="M38.6376 59.5375C37.6408 59.8125 36.747 60.4828 36.1283 61.3937C35.7673 61.9609 35.6642 62.3562 35.6126 63.3359C35.5611 64.3844 35.6126 64.6937 35.9736 65.4156C36.4892 66.4469 36.9705 66.8937 37.9845 67.3578C38.7236 67.7016 39.0845 67.7187 45.9767 67.7187C54.1923 67.7187 54.0033 67.7359 55.2751 66.2922C57.1142 64.2125 56.5642 61.2562 54.1064 59.8812L53.1954 59.3828L46.3205 59.3484C41.147 59.3141 39.2392 59.3656 38.6376 59.5375ZM53.2986 62.5281C53.9689 63.2672 53.9689 63.9719 53.2986 64.6422L52.8001 65.1406H45.8908H38.9986L38.5861 64.7109C38.122 64.2641 38.0017 63.3359 38.3455 62.7172C38.758 61.9266 39.1876 61.875 46.2001 61.9266L52.8001 61.9609L53.2986 62.5281Z" fill="#05568D"/>
<path d="M9.96956 30.7996C9.24768 31.5902 9.71174 32.7074 10.8805 32.9137C11.1899 32.9824 12.9774 32.9996 14.8508 32.9652C18.1852 32.9137 18.2539 32.9137 18.5805 32.5012C18.9758 32.0199 18.993 31.3152 18.6321 30.7996C18.3742 30.4215 18.3055 30.4215 14.3524 30.4215C10.4336 30.4215 10.3133 30.4387 9.96956 30.7996Z" fill="#05568D"/>
<path d="M9.98694 36.3687C9.50569 36.9703 9.54006 37.5547 10.0557 38.0703L10.4682 38.5H14.2322C17.7901 38.5 18.0307 38.4828 18.4604 38.1391C19.0276 37.6922 19.0791 36.7812 18.5635 36.2656C18.2369 35.9391 17.9963 35.9219 14.2838 35.9219H10.3307L9.98694 36.3687Z" fill="#05568D"/>
<path d="M6.5314 45.4953C5.63765 45.8391 5.36265 46.9562 6.01578 47.6094C6.34234 47.9359 6.58297 47.9531 12.2892 47.9531C17.9955 47.9531 18.2361 47.9359 18.5627 47.6094C19.0267 47.1453 19.0095 46.2172 18.5455 45.7875C18.2017 45.4781 17.8236 45.4609 12.4783 45.4266C9.35015 45.4094 6.6689 45.4437 6.5314 45.4953Z" fill="#05568D"/>
<path d="M10.004 51.4422C9.53995 51.9406 9.52276 52.5938 9.95245 53.1266C10.279 53.5391 10.2962 53.5391 14.2321 53.5391C17.8759 53.5391 18.2196 53.5219 18.5462 53.2125C19.0103 52.7828 19.0274 51.8547 18.5634 51.3906C18.2368 51.0641 17.9962 51.0469 14.3009 51.0469C10.4165 51.0469 10.3649 51.0469 10.004 51.4422Z" fill="#05568D"/>
<path d="M10.0566 56.9766C9.81602 57.2 9.62695 57.5953 9.62695 57.8359C9.62695 58.0766 9.81602 58.4719 10.0566 58.6953L10.4691 59.125H14.2332C17.791 59.125 18.0316 59.1078 18.4613 58.7641C19.0457 58.3 19.0801 57.4406 18.5129 56.925C18.1348 56.5641 17.9801 56.5469 14.2848 56.5469H10.4691L10.0566 56.9766Z" fill="#05568D"/>
<path d="M5.96483 66.4813C5.55233 66.9453 5.58671 67.9422 6.03358 68.3375C6.37733 68.6469 6.73827 68.6641 12.3242 68.6641H18.2539L18.5805 68.2516C18.9758 67.7703 18.993 67.0656 18.632 66.55L18.3742 66.1719H12.307C6.65233 66.1719 6.22264 66.1891 5.96483 66.4813Z" fill="#05568D"/>
<path d="M9.98694 72.1187C9.50569 72.7203 9.54006 73.3047 10.0557 73.8203L10.4682 74.25H14.2322C17.7901 74.25 18.0307 74.2328 18.4604 73.8891C19.0276 73.4422 19.0791 72.5312 18.5635 72.0156C18.2369 71.6891 17.9963 71.6719 14.2838 71.6719H10.3307L9.98694 72.1187Z" fill="#05568D"/>
</g>
<defs>
<clipPath id="clip0_1430_3861">
<rect width="88" height="88" fill="white"/>
</clipPath>
</defs>
</svg>
