<svg width="88" height="88" viewBox="0 0 88 88" fill="none" xmlns="http://www.w3.org/2000/svg">
<g clip-path="url(#clip0_1430_3901)">
<path d="M6.48628 5.98528C6.61938 5.98415 6.75249 5.98302 6.88963 5.98186C7.32899 5.97847 7.76834 5.97646 8.20771 5.97475C8.35792 5.97405 8.50813 5.97334 8.66289 5.97262C9.45715 5.96904 10.2514 5.96658 11.0457 5.96497C11.8664 5.96306 12.687 5.95714 13.5078 5.95033C14.1388 5.94584 14.7699 5.9444 15.401 5.94378C15.7036 5.94294 16.0062 5.94094 16.3088 5.93776C16.7318 5.93358 17.1546 5.93373 17.5776 5.93492C17.7026 5.93272 17.8276 5.93052 17.9564 5.92825C18.5447 5.93432 18.8523 5.97343 19.3237 6.33831C19.6453 6.77171 19.7531 7.02192 19.7663 7.56258C19.4876 8.16179 19.2912 8.39497 18.7351 8.7657C18.3158 8.79955 17.9158 8.81387 17.4965 8.81232C17.3082 8.81367 17.3082 8.81367 17.1161 8.81504C16.8434 8.8168 16.5708 8.8178 16.2982 8.81812C15.866 8.81875 15.434 8.82162 15.0018 8.82512C13.7732 8.83464 12.5446 8.83991 11.3159 8.84413C10.5642 8.84686 9.81247 8.85207 9.06075 8.8587C8.77488 8.86069 8.489 8.86172 8.20312 8.86173C7.80205 8.86177 7.40111 8.86492 7.00005 8.86872C6.82454 8.86754 6.82454 8.86754 6.64548 8.86633C5.337 8.88591 4.36309 9.38766 3.43818 10.3126C2.07845 12.8914 2.64637 16.5109 2.57881 19.0782C29.9172 19.0782 57.2557 19.0782 85.4226 19.0782C85.778 14.0574 85.778 14.0574 83.8757 9.62508C83.0504 9.01592 82.3429 8.91614 81.334 8.91566C81.1296 8.91515 80.9252 8.91463 80.7146 8.9141C80.4898 8.9144 80.265 8.9147 80.0334 8.91501C79.7924 8.91472 79.5514 8.91435 79.3103 8.91391C78.7858 8.91312 78.2613 8.91287 77.7368 8.91304C76.8834 8.91331 76.0301 8.91242 75.1767 8.91139C73.9378 8.90999 72.6989 8.90914 71.46 8.90859C69.5024 8.90764 67.5448 8.90474 65.5872 8.90148C64.9177 8.90039 64.2482 8.8993 63.5786 8.89822C63.4113 8.89795 63.244 8.89767 63.0716 8.89739C61.1667 8.89431 59.2618 8.89152 57.357 8.88894C57.1828 8.88871 57.0087 8.88847 56.8292 8.88823C54.0057 8.88445 51.1822 8.88261 48.3586 8.88132C45.461 8.87993 42.5634 8.87593 39.6658 8.86964C37.8778 8.86585 36.0898 8.86419 34.3017 8.86525C33.0769 8.8658 31.8522 8.86386 30.6274 8.85994C29.9203 8.85776 29.2132 8.85671 28.5061 8.85864C27.8591 8.86038 27.2121 8.85898 26.5651 8.85505C26.2195 8.85378 25.874 8.85591 25.5285 8.85814C25.3237 8.85628 25.1188 8.85442 24.9078 8.8525C24.7309 8.85233 24.5541 8.85216 24.372 8.85199C23.7638 8.74282 23.4722 8.503 23.0319 8.0782C22.9238 7.73445 22.9238 7.73445 22.9353 7.3907C22.935 7.27726 22.9348 7.16383 22.9346 7.04695C23.0762 6.54682 23.3197 6.34288 23.7194 6.0157C24.1818 5.92952 24.1818 5.92952 24.7221 5.92918C24.9283 5.92739 25.1344 5.9256 25.3468 5.92375C25.5736 5.92529 25.8004 5.92682 26.034 5.9284C26.2771 5.92761 26.5202 5.92652 26.7634 5.92515C27.4323 5.92227 28.1012 5.9237 28.7701 5.92583C29.4913 5.92738 30.2124 5.92498 30.9336 5.92309C32.347 5.92003 33.7604 5.9207 35.1738 5.92269C36.323 5.92424 37.4721 5.92445 38.6213 5.9237C38.8665 5.92354 38.8665 5.92354 39.1166 5.92338C39.4487 5.92316 39.7807 5.92294 40.1128 5.92271C43.229 5.92075 46.3453 5.92301 49.4615 5.9267C52.1339 5.92977 54.8063 5.92924 57.4786 5.92607C60.5817 5.92239 63.6848 5.92094 66.7879 5.92305C67.1191 5.92327 67.4503 5.92349 67.7816 5.9237C67.9445 5.92381 68.1075 5.92391 68.2754 5.92402C69.4222 5.92462 70.569 5.92362 71.7158 5.922C73.1149 5.92007 74.514 5.9206 75.913 5.92425C76.6265 5.92606 77.34 5.92677 78.0535 5.92449C78.7076 5.92243 79.3616 5.92359 80.0157 5.92723C80.3625 5.92835 80.7093 5.92613 81.0561 5.92375C83.1999 5.94212 84.8639 6.50568 86.3994 8.01979C87.5157 9.24188 88.021 10.4882 88.0242 12.1348C88.0247 12.2491 88.0251 12.3634 88.0256 12.4812C88.0269 12.866 88.027 13.2507 88.0271 13.6355C88.0278 13.9135 88.0286 14.1915 88.0294 14.4695C88.0315 15.2348 88.0324 16 88.0332 16.7653C88.0342 17.5901 88.0362 18.415 88.0381 19.2398C88.0423 21.2325 88.0448 23.2251 88.047 25.2178C88.0477 25.7805 88.0484 26.3433 88.0491 26.906C88.0534 30.4002 88.0572 33.8944 88.0593 37.3885C88.0598 38.1979 88.0603 39.0073 88.0609 39.8167C88.061 40.0178 88.0611 40.219 88.0612 40.4263C88.0634 43.6855 88.0691 46.9446 88.0763 50.2038C88.0836 53.5495 88.0876 56.8952 88.0885 60.2409C88.0891 62.1195 88.0911 63.9982 88.0968 65.8768C88.1016 67.4767 88.1035 69.0765 88.1016 70.6764C88.1007 71.4926 88.1012 72.3087 88.1054 73.1249C88.1093 73.8726 88.1092 74.6202 88.1059 75.3679C88.1054 75.6378 88.1064 75.9078 88.109 76.1778C88.1243 77.889 88.0091 79.321 86.8043 80.6326C85.272 82.1245 83.5394 82.0639 81.5366 82.059C81.2589 82.0598 80.9812 82.0607 80.7035 82.0617C80.1239 82.0632 79.5443 82.0628 78.9647 82.0611C78.2222 82.0591 77.4799 82.0626 76.7374 82.0676C76.165 82.0708 75.5926 82.0707 75.0202 82.0698C74.7464 82.0697 74.4725 82.0708 74.1987 82.0729C73.8165 82.0755 73.4346 82.0736 73.0524 82.0707C72.8352 82.0707 72.618 82.0706 72.3942 82.0706C71.7489 81.9695 71.5477 81.8096 71.1569 81.297C71.0596 80.9532 71.0596 80.9532 71.0602 80.6095C71.0546 80.4393 71.0546 80.4393 71.0488 80.2657C71.2196 79.7226 71.5487 79.5432 72.0163 79.2345C72.5641 79.1487 72.5641 79.1487 73.1889 79.1488C73.3033 79.1479 73.4177 79.1469 73.5356 79.1459C73.7828 79.1443 74.03 79.1443 74.2772 79.1457C74.6689 79.1479 75.0604 79.1459 75.4521 79.1429C76.1423 79.1384 76.8325 79.1374 77.5228 79.1376C78.6275 79.138 79.7322 79.1356 80.8369 79.1281C81.222 79.1264 81.6071 79.1279 81.9922 79.1296C82.2292 79.1285 82.4661 79.1273 82.7031 79.126C82.9093 79.1261 83.1155 79.1263 83.3279 79.1265C83.9344 79.0557 84.251 78.9134 84.7351 78.547C85.2446 77.7826 85.2721 77.1049 85.2745 76.2019C85.2755 76.0073 85.2764 75.8128 85.2774 75.6123C85.2775 75.3995 85.2777 75.1868 85.2779 74.9675C85.2791 74.6283 85.2791 74.6283 85.2804 74.2821C85.2828 73.6533 85.284 73.0245 85.2852 72.3957C85.2866 71.7076 85.2889 71.0195 85.2912 70.3313C85.2954 68.9953 85.2988 67.6592 85.3019 66.3232C85.3055 64.7779 85.3101 63.2326 85.3148 61.6874C85.3266 57.607 85.3369 53.5267 85.3474 49.4464C85.3846 35.7754 85.3846 35.7754 85.4226 21.8282C58.0841 21.8282 30.7457 21.8282 2.57881 21.8282C2.60008 30.9387 2.62134 40.0491 2.64326 49.4356C2.6491 52.3156 2.65495 55.1955 2.66097 58.1627C2.66782 60.7373 2.66782 60.7373 2.67513 63.3119C2.67839 64.4614 2.6807 65.6109 2.68239 66.7604C2.68434 68.0855 2.68747 69.4106 2.69206 70.7357C2.69437 71.4139 2.69615 72.092 2.69641 72.7701C2.69671 73.4957 2.69963 74.2213 2.70282 74.9469C2.70249 75.1591 2.70215 75.3714 2.70181 75.5901C2.70309 75.785 2.70438 75.9799 2.7057 76.1807C2.70609 76.3485 2.70648 76.5162 2.70689 76.689C2.79305 77.6391 3.05031 78.2734 3.78193 78.8907C4.2688 79.1341 4.72289 79.1221 5.26435 79.1593C5.46863 79.1737 5.6729 79.1881 5.88337 79.2029C6.04068 79.2133 6.19798 79.2237 6.36005 79.2345C6.35891 79.0875 6.35777 78.9406 6.35659 78.7893C6.34622 77.3987 6.33838 76.0081 6.33334 74.6175C6.33066 73.9027 6.32703 73.1879 6.32116 72.4732C6.31552 71.7822 6.31246 71.0913 6.31113 70.4003C6.31019 70.1379 6.30834 69.8755 6.30554 69.6131C6.28135 67.2525 6.55071 65.3584 8.23121 63.5979C10.1771 61.801 12.3318 61.6502 14.8937 61.6587C15.1229 61.6583 15.3521 61.6576 15.5813 61.6569C16.1981 61.6553 16.815 61.6559 17.4318 61.657C18.0808 61.6579 18.7297 61.6571 19.3787 61.6565C20.468 61.6559 21.5573 61.6567 22.6466 61.6584C23.9017 61.6603 25.1567 61.6596 26.4118 61.6578C27.4941 61.6562 28.5763 61.656 29.6586 61.6569C30.3029 61.6574 30.9472 61.6575 31.5915 61.6563C32.1976 61.6553 32.8037 61.6561 33.4098 61.658C33.7351 61.6587 34.0605 61.6577 34.3859 61.6566C36.9398 61.6691 38.7798 62.0644 40.6766 63.8268C41.8123 65.1104 42.3044 66.5478 42.3014 68.2296C42.3015 68.3487 42.3015 68.4678 42.3015 68.5906C42.3014 68.983 42.3001 69.3755 42.2987 69.7679C42.2984 70.0405 42.2981 70.3131 42.298 70.5857C42.2973 71.3023 42.2956 72.0189 42.2937 72.7354C42.292 73.467 42.2912 74.1986 42.2903 74.9302C42.2885 76.3649 42.2855 77.7997 42.2819 79.2345C42.4697 79.234 42.4697 79.234 42.6612 79.2335C45.7051 79.2259 48.749 79.2202 51.7928 79.2166C53.2649 79.2149 54.7368 79.2124 56.2088 79.2085C57.4917 79.2051 58.7745 79.2029 60.0574 79.2021C60.7368 79.2017 61.4162 79.2006 62.0956 79.1981C62.7349 79.1958 63.3742 79.1951 64.0136 79.1956C64.3603 79.1954 64.707 79.1936 65.0538 79.1917C65.2601 79.1922 65.4664 79.1926 65.6789 79.1931C65.948 79.1926 65.948 79.1926 66.2224 79.1922C66.698 79.2353 66.9754 79.3237 67.3757 79.5782C67.7335 80.0382 67.7187 80.2859 67.6979 80.878C67.5476 81.4688 67.5476 81.4688 67.2612 81.7595C66.7428 82.0502 66.3856 82.0493 65.792 82.0498C65.5712 82.0513 65.3505 82.0527 65.1231 82.0542C64.8776 82.0532 64.6321 82.0522 64.3866 82.0511C64.1262 82.0518 63.8658 82.0527 63.6054 82.0539C62.8888 82.0564 62.1722 82.0556 61.4556 82.0544C60.6831 82.0536 59.9107 82.0557 59.1382 82.0575C57.6242 82.0604 56.1103 82.0606 54.5964 82.0597C53.3658 82.059 52.1352 82.0592 50.9046 82.0601C50.642 82.0603 50.642 82.0603 50.3742 82.0605C50.0187 82.0608 49.6632 82.0611 49.3077 82.0613C45.9715 82.0637 42.6353 82.0628 39.2991 82.0608C36.247 82.0591 33.195 82.0613 30.143 82.0654C27.01 82.0696 23.877 82.0713 20.744 82.0701C18.9847 82.0695 17.2255 82.0699 15.4662 82.0729C13.9681 82.0754 12.4701 82.0755 10.972 82.0725C10.2077 82.0711 9.44347 82.0707 8.67919 82.0733C7.9791 82.0757 7.27909 82.0749 6.57901 82.0716C6.32616 82.0709 6.07331 82.0714 5.82047 82.0732C3.97573 82.0854 2.50896 81.8689 1.12768 80.5727C-0.110762 79.1519 -0.122007 77.5782 -0.10729 75.7875C-0.108158 75.5086 -0.109401 75.2297 -0.110985 74.9509C-0.114229 74.1879 -0.112139 73.425 -0.109142 72.662C-0.106839 71.8379 -0.109498 71.0138 -0.111517 70.1897C-0.114673 68.5766 -0.113214 66.9635 -0.110127 65.3503C-0.107715 64.0391 -0.107047 62.7279 -0.107625 61.4167C-0.107707 61.23 -0.107789 61.0432 -0.107874 60.8508C-0.10805 60.4715 -0.108232 60.0921 -0.108418 59.7127C-0.10989 56.3593 -0.107026 53.0059 -0.101916 49.6526C-0.0969596 46.3999 -0.095742 43.1472 -0.0983911 39.8945C-0.101273 36.351 -0.101964 32.8076 -0.0989563 29.2642C-0.0986393 28.8863 -0.0983238 28.5083 -0.0980102 28.1303C-0.0978534 27.9444 -0.097697 27.7584 -0.0975355 27.5668C-0.0965726 26.2574 -0.0971403 24.9481 -0.0982764 23.6387C-0.0996063 22.0426 -0.0984418 20.4466 -0.0941209 18.8505C-0.091975 18.0364 -0.0909149 17.2224 -0.0928391 16.4083C-0.0945684 15.6625 -0.0931042 14.9169 -0.08913 14.1711C-0.0882454 13.9019 -0.0885078 13.6326 -0.0900571 13.3634C-0.102417 11.02 0.350524 9.32788 1.99873 7.61629C3.29287 6.41801 4.75782 5.99167 6.48628 5.98528ZM9.79755 66.0001C9.05833 67.035 9.11005 67.779 9.11005 69.0938C19.1493 69.0938 29.1885 69.0938 39.5319 69.0938C39.5343 67.1871 39.5343 67.1871 38.5853 65.704C37.2113 64.4036 35.5863 64.3776 33.7818 64.3865C33.5521 64.3858 33.3224 64.3849 33.0927 64.3837C32.473 64.3814 31.8534 64.3823 31.2337 64.3839C30.5828 64.3853 29.9318 64.384 29.2808 64.3832C28.188 64.3823 27.0952 64.3835 26.0024 64.386C24.7421 64.3888 23.4818 64.3879 22.2214 64.385C21.136 64.3827 20.0505 64.3824 18.9651 64.3837C18.3182 64.3845 17.6714 64.3846 17.0246 64.3829C16.4163 64.3814 15.808 64.3825 15.1996 64.3854C14.8721 64.3864 14.5446 64.3849 14.2171 64.3833C12.4324 64.3964 11.0425 64.6604 9.79755 66.0001ZM9.11005 71.8438C9.11005 74.2827 9.11005 76.7216 9.11005 79.2345C19.1493 79.2345 29.1885 79.2345 39.5319 79.2345C39.5319 76.7955 39.5319 74.3566 39.5319 71.8438C29.4927 71.8438 19.4535 71.8438 9.11005 71.8438Z" fill="#05568D"/>
<path d="M54.1311 24.5524C54.4383 24.5505 54.4383 24.5505 54.7516 24.5487C54.9748 24.5482 55.1981 24.5477 55.4281 24.5473C55.6667 24.5462 55.9053 24.545 56.144 24.5438C56.9265 24.5402 57.7091 24.5384 58.4916 24.5367C58.7619 24.536 59.0322 24.5353 59.3024 24.5346C60.5732 24.5313 61.8439 24.5289 63.1147 24.5275C64.5769 24.5258 66.039 24.5213 67.5012 24.5143C68.6342 24.5091 69.7672 24.5066 70.9003 24.506C71.5756 24.5056 72.2508 24.5041 72.9261 24.4997C73.5627 24.4957 74.1992 24.495 74.8357 24.4968C75.177 24.4969 75.5184 24.4936 75.8597 24.4902C78.1304 24.5032 79.9974 25.0073 81.6235 26.62C82.7164 27.7958 83.3775 29.0118 83.385 30.6326C83.3869 30.9054 83.3869 30.9054 83.3888 31.1837C83.3892 31.3824 83.3897 31.581 83.3902 31.7857C83.3913 31.9957 83.3924 32.2057 83.3936 32.422C83.397 33.1178 83.399 33.8137 83.4007 34.5095C83.4014 34.7497 83.4021 34.99 83.4028 35.2302C83.4061 36.3596 83.4085 37.489 83.41 38.6185C83.4117 39.9185 83.4162 41.2185 83.4231 42.5185C83.4283 43.5255 83.4309 44.5326 83.4314 45.5396C83.4318 46.14 83.4333 46.7403 83.4377 47.3407C83.4425 48.012 83.4417 48.6833 83.4405 49.3546C83.4438 49.6489 83.4438 49.6489 83.4472 49.9492C83.4338 52.0355 82.7828 53.589 81.3798 55.111C79.813 56.613 77.8823 56.8456 75.8046 56.8268C75.5534 56.8277 75.3021 56.8289 75.0509 56.8305C74.3747 56.8337 73.6987 56.8315 73.0225 56.8281C72.3114 56.8252 71.6003 56.8268 70.8891 56.8277C69.6956 56.8284 68.5022 56.8257 67.3087 56.8209C65.933 56.8154 64.5575 56.8154 63.1818 56.8184C61.8528 56.8211 60.5238 56.8199 59.1948 56.817C58.6317 56.8158 58.0686 56.816 57.5056 56.8173C56.8415 56.8186 56.1775 56.8165 55.5134 56.8118C55.2711 56.8106 55.0288 56.8106 54.7866 56.8118C52.577 56.8219 50.7669 56.4166 49.1566 54.8277C47.6955 53.1363 47.3591 51.4567 47.3712 49.2659C47.3703 49.0605 47.3694 48.8552 47.3684 48.6436C47.3666 48.0853 47.367 47.5272 47.3686 46.9689C47.3699 46.3816 47.3687 45.7942 47.3679 45.2069C47.367 44.221 47.3682 43.2351 47.3707 42.2493C47.3735 41.1134 47.3726 39.9776 47.3697 38.8417C47.3674 37.8622 47.367 36.8828 47.3684 35.9033C47.3692 35.3201 47.3693 34.737 47.3676 34.1539C47.3663 33.5032 47.3683 32.8526 47.3712 32.2019C47.3701 32.0115 47.3691 31.8211 47.368 31.625C47.3848 29.5594 47.9231 27.9571 49.3352 26.4341C50.7025 25.1272 52.2507 24.5602 54.1311 24.5524ZM51.0473 28.6812C50.1689 29.8034 50.1879 30.4871 50.1879 31.9683C60.2271 31.9683 70.2663 31.9683 80.6098 31.9683C80.6132 30.02 80.6132 30.02 79.6067 28.5342C78.6548 27.6498 77.8056 27.2861 76.49 27.2817C76.2887 27.2803 76.0873 27.2788 75.8797 27.2773C75.5519 27.2775 75.5519 27.2775 75.2173 27.2777C74.9829 27.2767 74.7485 27.2755 74.5141 27.2742C73.8791 27.2712 73.2441 27.2704 72.6091 27.2702C72.2117 27.2699 71.8143 27.2692 71.417 27.2683C70.0286 27.2651 68.6403 27.2637 67.252 27.264C65.9611 27.2642 64.6703 27.2606 63.3794 27.2551C62.2686 27.2506 61.1577 27.2488 60.0469 27.249C59.3846 27.2491 58.7223 27.2481 58.06 27.2445C57.4364 27.2411 56.8129 27.2411 56.1893 27.2436C55.8539 27.2442 55.5184 27.2413 55.1829 27.2383C53.6686 27.2491 52.0603 27.4199 51.0473 28.6812ZM50.1879 34.7183C50.1702 37.377 50.1524 40.0357 50.1342 42.7749C50.1263 43.6117 50.1185 44.4485 50.1105 45.3107C50.1076 46.0665 50.1076 46.0665 50.1059 46.8223C50.1045 47.1567 50.1015 47.491 50.0971 47.8254C49.9764 50.4517 49.9764 50.4517 51.0473 52.7652C51.9671 53.6104 52.6721 53.9885 53.9368 53.9936C54.2494 53.9954 54.2494 53.9954 54.5683 53.9973C54.7997 53.9978 55.031 53.9983 55.2623 53.9987C55.5057 53.9998 55.7491 54.0009 55.9925 54.0021C56.7922 54.0058 57.5919 54.0075 58.3916 54.0093C58.6671 54.01 58.9426 54.0107 59.2181 54.0114C60.5128 54.0147 61.8075 54.0171 63.1022 54.0185C64.5954 54.0202 66.0886 54.0247 67.5818 54.0317C68.7367 54.0369 69.8916 54.0394 71.0465 54.04C71.736 54.0404 72.4253 54.0419 73.1147 54.0462C73.7638 54.0503 74.4128 54.051 75.0619 54.0492C75.2994 54.0491 75.537 54.0502 75.7744 54.0526C77.2867 54.0668 78.3979 54.0029 79.5825 52.9807C79.6975 52.8368 79.6975 52.8368 79.8148 52.69C79.8941 52.5945 79.9735 52.499 80.0552 52.4006C80.653 51.4849 80.6574 50.6663 80.6488 49.6061C80.6488 49.3606 80.6488 49.3606 80.6489 49.1102C80.6486 48.5818 80.646 48.0534 80.6433 47.525C80.6428 47.1982 80.6425 46.8715 80.6423 46.5447C80.6405 45.3347 80.6357 44.1246 80.6312 42.9146C80.6241 40.2098 80.6171 37.505 80.6098 34.7183C70.5705 34.7183 60.5313 34.7183 50.1879 34.7183Z" fill="#05568D"/>
<path d="M13.0521 24.5524C13.3592 24.5505 13.3592 24.5505 13.6726 24.5487C13.8958 24.5482 14.119 24.5477 14.349 24.5473C14.5877 24.5462 14.8263 24.545 15.065 24.5438C15.8475 24.5402 16.63 24.5384 17.4126 24.5367C17.6828 24.536 17.9531 24.5353 18.2234 24.5346C19.4942 24.5313 20.7649 24.5289 22.0356 24.5275C23.4978 24.5258 24.96 24.5213 26.4221 24.5143C27.5552 24.5091 28.6882 24.5066 29.8212 24.506C30.4965 24.5056 31.1718 24.5041 31.8471 24.4997C32.4837 24.4957 33.1201 24.495 33.7567 24.4968C34.098 24.4969 34.4393 24.4936 34.7806 24.4902C37.0594 24.5033 38.9021 25.0155 40.5445 26.614C41.6594 27.7971 42.2984 29.1657 42.306 30.7979C42.3079 31.0686 42.3079 31.0686 42.3097 31.3447C42.3102 31.5417 42.3107 31.7388 42.3111 31.9418C42.3123 32.1501 42.3134 32.3584 42.3146 32.573C42.318 33.2633 42.32 33.9535 42.3217 34.6438C42.3224 34.8821 42.3231 35.1204 42.3238 35.3587C42.3271 36.4792 42.3295 37.5996 42.3309 38.72C42.3326 40.0096 42.3371 41.2992 42.3441 42.5888C42.3493 43.5878 42.3518 44.5868 42.3524 45.5859C42.3528 46.1815 42.3543 46.777 42.3587 47.3725C42.3634 48.0385 42.3627 48.7044 42.3615 49.3704C42.3648 49.6623 42.3648 49.6623 42.3682 49.9601C42.3552 51.9551 41.7742 53.5473 40.3901 54.9996C38.727 56.5781 36.8004 56.8213 34.589 56.8073C34.3395 56.8082 34.0899 56.8094 33.8404 56.8109C33.1682 56.814 32.496 56.8128 31.8238 56.8107C31.117 56.8089 30.4102 56.8105 29.7034 56.8116C28.517 56.8129 27.3306 56.8112 26.1442 56.8079C24.7766 56.8042 23.4092 56.8054 22.0416 56.8092C20.863 56.8123 19.6845 56.8127 18.5059 56.811C17.8039 56.8099 17.1019 56.8097 16.4 56.812C15.7397 56.814 15.0795 56.8126 14.4192 56.8086C14.1783 56.8077 13.9374 56.808 13.6966 56.8095C11.491 56.8222 9.68447 56.4133 8.07759 54.8277C6.61296 53.1322 6.28054 51.4485 6.2894 49.2529C6.28822 49.0461 6.28704 48.8393 6.28582 48.6263C6.28323 48.0641 6.28294 47.502 6.28392 46.9399C6.28446 46.4684 6.2834 45.9969 6.28237 45.5254C6.27996 44.412 6.28022 43.2986 6.28218 42.1853C6.28415 41.0414 6.28173 39.8976 6.27713 38.7537C6.27331 37.7671 6.27218 36.7804 6.27319 35.7938C6.27376 35.2065 6.27337 34.6193 6.27039 34.032C6.26782 33.3764 6.26967 32.721 6.27261 32.0654C6.27095 31.874 6.26929 31.6826 6.26758 31.4854C6.2871 29.396 6.9596 27.816 8.38912 26.3125C9.69613 25.0688 11.2671 24.5598 13.0521 24.5524ZM9.62447 29.0464C8.98191 30.1107 9.10884 30.6003 9.10884 31.9683C19.1481 31.9683 29.1873 31.9683 39.5307 31.9683C39.5318 30.0224 39.5318 30.0224 38.5337 28.5342C37.1495 27.2306 35.7839 27.2769 33.9572 27.2805C33.7239 27.2797 33.4906 27.2788 33.2573 27.2778C32.6262 27.2755 31.9952 27.2754 31.3642 27.2758C30.8363 27.276 30.3084 27.2752 29.7805 27.2744C28.5345 27.2725 27.2886 27.2724 26.0427 27.2734C24.7597 27.2745 23.4767 27.2723 22.1938 27.2687C21.0899 27.2657 19.9861 27.2646 18.8823 27.2652C18.224 27.2655 17.5658 27.2651 16.9075 27.2627C16.2883 27.2605 15.6692 27.2608 15.05 27.2631C14.7161 27.2637 14.3822 27.2617 14.0483 27.2597C12.1941 27.2708 10.8985 27.6377 9.62447 29.0464ZM9.10884 34.7183C9.09112 37.377 9.0734 40.0357 9.05513 42.7749C9.04731 43.6117 9.03949 44.4485 9.03143 45.3107C9.02855 46.0665 9.02855 46.0665 9.02682 46.8223C9.02551 47.1567 9.0225 47.491 9.01812 47.8254C8.89734 50.4517 8.89734 50.4517 9.96822 52.7652C10.888 53.6104 11.5931 53.9885 12.8577 53.9936C13.1704 53.9954 13.1704 53.9954 13.4893 53.9973C13.7206 53.9978 13.952 53.9983 14.1833 53.9987C14.4267 53.9998 14.6701 54.0009 14.9134 54.0022C15.7131 54.0058 16.5128 54.0075 17.3125 54.0093C17.588 54.01 17.8636 54.0107 18.1391 54.0114C19.4338 54.0147 20.7285 54.0171 22.0232 54.0185C23.5164 54.0202 25.0096 54.0247 26.5028 54.0317C27.6577 54.0369 28.8126 54.0394 29.9675 54.04C30.6569 54.0404 31.3463 54.0419 32.0357 54.0463C32.6848 54.0503 33.3338 54.051 33.9829 54.0492C34.2204 54.0491 34.4579 54.0502 34.6954 54.0526C36.211 54.0668 37.3089 53.9969 38.5035 52.9867C38.5802 52.8924 38.6568 52.798 38.7358 52.7007C38.8151 52.6072 38.8944 52.5137 38.9762 52.4174C39.5701 51.4603 39.5788 50.5185 39.5697 49.4305C39.5698 49.1875 39.5698 49.1875 39.5699 48.9397C39.5696 48.4177 39.567 47.8959 39.5643 47.3739C39.5638 47.0508 39.5634 46.7276 39.5632 46.4044C39.5614 45.2089 39.5566 44.0134 39.5522 42.8179C39.5416 38.8086 39.5416 38.8086 39.5307 34.7183C29.4915 34.7183 19.4523 34.7183 9.10884 34.7183Z" fill="#05568D"/>
<path d="M71.5 38.5002C72.0408 38.8785 72.5008 39.3248 72.9651 39.7925C73.2446 40.073 73.5288 40.3481 73.8136 40.6231C74.0166 40.8212 74.2193 41.0195 74.4219 41.218C74.5188 41.3126 74.6158 41.4073 74.7157 41.5048C75.6516 42.4395 75.6516 42.4395 75.7969 42.969C75.7471 43.9763 75.5108 44.413 74.7932 45.1107C74.7103 45.1925 74.6274 45.2743 74.542 45.3586C74.2787 45.6173 74.012 45.8722 73.7451 46.1272C73.5664 46.3022 73.3879 46.4774 73.2097 46.6529C71.7207 48.1089 71.7207 48.1089 70.9199 48.1682C70.2695 48.1233 70.0392 48.089 69.6094 47.6096C69.4362 47.1395 69.4111 46.8569 69.5315 46.3709C69.8979 45.6666 70.4374 45.1805 71.0059 44.634C71.1191 44.5231 71.2323 44.4122 71.3489 44.298C71.6273 44.0256 71.9068 43.7546 72.1875 43.4846C71.6569 42.8529 71.1324 42.2372 70.5225 41.6799C69.9482 41.1095 69.6518 40.6609 69.4375 39.8752C69.5449 39.3059 69.5449 39.3059 69.7812 38.844C70.457 38.3935 70.6953 38.3597 71.5 38.5002Z" fill="#05568D"/>
<path d="M60.5 38.4996C61.0095 38.8482 61.1571 39.0998 61.3594 39.6813C61.3594 40.5893 60.7632 41.1753 60.1536 41.8015C59.9691 41.9837 59.7838 42.165 59.5977 42.3453C59.5024 42.4391 59.4071 42.5328 59.309 42.6293C59.0766 42.8577 58.8431 43.0851 58.6094 43.3121C59.3138 44.161 60.0535 44.9213 60.8686 45.6653C61.2578 46.1496 61.327 46.4778 61.3594 47.0934C61.1638 47.4934 60.9867 47.8098 60.6719 48.1246C60.031 48.2146 59.561 48.2782 58.9907 47.9467C58.6134 47.6232 58.2707 47.2758 57.9219 46.9215C57.7063 46.7172 57.4903 46.5134 57.274 46.3099C57.0385 46.0843 56.8033 45.8585 56.5684 45.6325C56.4537 45.5244 56.339 45.4164 56.2209 45.3051C55.527 44.6226 55.1081 44.1248 55 43.1403C55.4953 42.1365 56.3262 41.3876 57.104 40.6005C57.3629 40.3369 57.6175 40.0695 57.8722 39.8018C58.038 39.6331 58.204 39.4647 58.3704 39.2966C58.5192 39.1436 58.668 38.9907 58.8214 38.8331C59.4239 38.4106 59.7787 38.4144 60.5 38.4996Z" fill="#05568D"/>
<path d="M66.8586 38.5004C67.3232 38.8306 67.5062 39.0442 67.6586 39.5935C67.7203 40.0652 67.6858 40.3719 67.5721 40.8309C67.5359 40.9806 67.4997 41.1303 67.4624 41.2845C67.4218 41.4438 67.3811 41.6032 67.3393 41.7674C67.2983 41.9328 67.2573 42.0983 67.2151 42.2687C67.1281 42.6176 67.0402 42.9664 66.9515 43.3149C66.8159 43.8487 66.6843 44.3834 66.5531 44.9182C66.4681 45.2573 66.3828 45.5964 66.2973 45.9354C66.2581 46.0954 66.2188 46.2555 66.1784 46.4204C66.1208 46.6433 66.1208 46.6433 66.0621 46.8707C66.0292 47.0013 65.9962 47.1319 65.9623 47.2665C65.8044 47.6681 65.6553 47.865 65.3117 48.1254C64.5693 48.2079 64.1539 48.2503 63.507 47.8784C62.8836 46.8135 63.308 45.4261 63.601 44.2979C63.6375 44.1529 63.674 44.0079 63.7117 43.8586C63.7888 43.5549 63.8668 43.2515 63.9458 42.9483C64.0659 42.4848 64.1814 42.0203 64.2966 41.5556C64.3724 41.2593 64.4485 40.9631 64.5248 40.667C64.5589 40.5288 64.5929 40.3906 64.628 40.2482C64.9678 38.9709 65.4153 38.2943 66.8586 38.5004Z" fill="#05568D"/>
<path d="M77.3541 12.45C77.5364 12.4472 77.5364 12.4472 77.7224 12.4443C78.315 12.4527 78.6611 12.5046 79.1427 12.8589C79.5258 13.4052 79.4873 13.7861 79.4059 14.4373C79.1034 14.9848 78.9764 15.0961 78.3746 15.2967C78.0101 15.3261 77.6445 15.3425 77.2789 15.3504C77.0862 15.3569 76.8934 15.3633 76.6948 15.3699C76.0229 15.2812 75.7517 15.0886 75.2809 14.6092C75.0875 14.0184 75.0875 14.0184 75.109 13.4061C75.7523 12.5434 76.325 12.4151 77.3541 12.45Z" fill="#05568D"/>
<path d="M70.4482 12.4936C70.5721 12.4886 70.6959 12.4836 70.8235 12.4785C71.4237 12.4713 71.7763 12.4986 72.271 12.8507C72.6989 13.4798 72.6155 13.8601 72.5322 14.6098C72.2208 15.0694 72.0376 15.1184 71.501 15.2973C71.1365 15.3266 70.7708 15.343 70.4053 15.351C70.2125 15.3574 70.0198 15.3638 69.8212 15.3705C69.1512 15.282 68.8789 15.0848 68.4072 14.6098C68.1913 13.9756 68.1763 13.705 68.4609 13.0951C68.9986 12.3981 69.6298 12.5044 70.4482 12.4936Z" fill="#05568D"/>
<path d="M63.5719 12.4927C63.6957 12.4877 63.8196 12.4828 63.9472 12.4776C64.5617 12.4703 64.897 12.4912 65.39 12.8727C65.6689 13.2516 65.7994 13.453 65.8277 13.9214C65.6428 14.6108 65.4101 14.9377 64.7965 15.2964C64.2332 15.371 64.2332 15.371 63.6041 15.3716C63.397 15.375 63.1898 15.3783 62.9764 15.3817C62.2932 15.2823 62.0141 15.0922 61.5309 14.6089C61.2794 14.0118 61.3396 13.7975 61.5846 13.191C62.0835 12.3779 62.6945 12.5044 63.5719 12.4927Z" fill="#05568D"/>
</g>
<defs>
<clipPath id="clip0_1430_3901">
<rect width="88" height="88" fill="white"/>
</clipPath>
</defs>
</svg>
