<svg width="65" height="81" viewBox="0 0 65 81" fill="none" xmlns="http://www.w3.org/2000/svg">
<path d="M55.3226 4.63942C51.113 6.89748 47.5001 8.92974 47.3065 9.15554C47.0968 9.38135 46.9355 9.73619 46.9355 9.94587C46.9355 10.1555 47.0968 10.5104 47.3065 10.7201C47.5001 10.9459 50.7581 12.5749 54.7904 14.4781L61.9355 17.8491V36.8168C61.9355 50.2362 61.9839 55.9297 62.113 56.3007C62.2097 56.5749 62.4194 56.8814 62.5807 56.962C63.0807 57.2201 63.8549 57.1394 64.1936 56.8007C64.5162 56.4781 64.5162 56.2685 64.5162 28.833V1.17167L64.0968 0.849094C63.8549 0.655544 63.5162 0.510384 63.3226 0.510384C63.1452 0.526512 59.5323 2.38135 55.3226 4.63942ZM61.9033 12.2523L61.8549 14.962L56.5807 12.462C53.6614 11.091 51.2904 9.91361 51.2904 9.84909C51.2904 9.8007 53.6614 8.47813 56.5807 6.91361L61.8549 4.0749L61.9033 6.81683C61.9194 8.31683 61.9194 10.7684 61.9033 12.2523Z" fill="#05568D"/>
<path d="M27.7414 1.36526C26.2898 1.86527 25.3865 2.42978 24.2898 3.52656C22.322 5.51043 21.4833 8.54268 22.1769 11.2362C22.5962 12.8491 23.193 13.8975 24.4188 15.1233C25.6285 16.333 26.693 16.9298 28.322 17.3653C32.5478 18.462 37.0156 15.833 38.2898 11.4943C38.5801 10.4943 38.6285 8.3814 38.3704 7.28462C37.7252 4.47817 35.2736 1.9943 32.4027 1.23623C31.064 0.881395 28.9994 0.929781 27.7414 1.36526ZM32.3704 3.92978C33.6769 4.41365 35.1285 5.8814 35.6285 7.20398C35.9349 8.01043 35.9833 8.39752 35.9349 9.54269C35.822 11.8169 34.7736 13.4298 32.7736 14.4137C31.8059 14.8975 31.564 14.9459 30.2414 14.9459C28.9833 14.9459 28.6769 14.8814 27.8704 14.4943C26.6769 13.9137 25.6285 12.8653 25.0478 11.6717C24.6607 10.8653 24.5962 10.5588 24.5962 9.30075C24.5962 8.07494 24.6607 7.70398 25.0156 6.96204C25.7414 5.41365 26.8865 4.38139 28.5156 3.80075C29.4672 3.46204 31.2898 3.52656 32.3704 3.92978Z" fill="#05568D"/>
<path d="M21.1619 18.1724C18.307 18.8014 16.1941 20.624 15.2909 23.2047C14.9199 24.2853 14.9199 24.4143 14.9199 30.8337C14.9199 38.2692 14.9199 38.3176 16.2425 39.7208C17.6296 41.2047 19.7102 41.6563 21.7102 40.8821C21.9038 40.8176 21.9361 41.8176 21.9361 48.0918C21.9361 56.1724 21.9361 56.1563 22.9844 56.8014C23.4844 57.1079 23.7748 57.124 30.2586 57.124C36.7586 57.124 37.0328 57.1079 37.549 56.8014C37.8554 56.6079 38.2102 56.1885 38.3877 55.7853C38.6941 55.1402 38.7102 54.5756 38.7102 41.4466V27.7853L46.0167 27.7369C53.2425 27.6885 53.307 27.6885 54.1296 27.3176C57.2264 25.9143 58.0006 21.866 55.6135 19.4305C55.2425 19.0595 54.5812 18.5918 54.1296 18.3821L53.307 18.0111L37.7425 17.9789C25.049 17.9627 21.9844 17.995 21.1619 18.1724ZM27.1135 24.1724C28.1941 26.2047 29.2264 28.0111 29.4038 28.2047C29.7586 28.6079 30.4522 28.6885 30.9683 28.4143C31.1296 28.3337 32.1619 26.5111 33.2425 24.3821L35.2102 20.5111H43.9038C52.3554 20.5111 52.6135 20.5272 53.2425 20.8498C53.9038 21.1724 54.5006 22.124 54.5167 22.8337C54.5167 23.5434 53.8715 24.5111 53.1619 24.8498C52.5006 25.1724 52.2264 25.1885 44.7264 25.1885C37.1296 25.1885 36.9683 25.1885 36.549 25.5272L36.1296 25.8498V40.2047V54.5434H33.8715H31.6135V47.6079C31.6135 40.3014 31.5812 39.9143 30.8877 39.6402C30.3715 39.4466 29.7748 39.5434 29.4038 39.8982L29.0328 40.2369V47.3982V54.5434H26.7748H24.5167V41.2531C24.5167 28.2531 24.5167 27.9627 24.1941 27.5595C23.6296 26.8498 22.6941 26.866 22.1457 27.5918C22.0006 27.7853 21.9522 29.0918 21.9361 32.495C21.9361 37.495 21.8877 37.7692 21.0812 38.3014C19.9199 39.0595 18.3554 38.624 17.7425 37.366C17.4038 36.6885 17.4038 36.495 17.4522 30.5595C17.5006 24.7208 17.5167 24.4305 17.8393 23.7208C18.5651 22.1724 20.049 21.0272 21.7748 20.6885C22.178 20.6079 23.0973 20.5434 23.8231 20.5272L25.1296 20.5111L27.1135 24.1724ZM32.2586 20.624C32.2586 20.7047 31.7909 21.6079 31.2425 22.6563L30.2264 24.5434L29.8877 23.866C29.6941 23.4789 29.2102 22.5756 28.7909 21.8337L28.0651 20.5111H30.1619C31.307 20.5111 32.2586 20.5595 32.2586 20.624Z" fill="#05568D"/>
<path d="M9.43556 43.3168C8.06459 43.6394 7.06459 44.2361 5.95169 45.3329C3.66137 47.6394 3.11298 50.7361 4.48395 53.6232C5.80653 56.4136 8.37104 57.8974 11.5807 57.7361C12.8549 57.6716 13.1936 57.591 14.2259 57.0749C15.7904 56.3168 16.9356 55.1716 17.6936 53.6071C18.2098 52.5749 18.2904 52.2361 18.3549 50.962C18.4033 49.9136 18.3549 49.2361 18.1452 48.4781C17.1452 44.7684 13.1614 42.4136 9.43556 43.3168ZM13.113 46.1716C14.7904 47.0103 15.6614 48.3329 15.7743 50.2361C15.8388 51.3813 15.8065 51.5587 15.3388 52.5265C14.7581 53.6878 14.1775 54.2523 12.9194 54.8329C12.1775 55.1716 11.8872 55.22 10.8227 55.1555C9.4033 55.0749 8.59685 54.72 7.72588 53.7845C4.66137 50.5749 7.09685 45.3813 11.5001 45.7523C12.0001 45.8007 12.7259 45.9781 13.113 46.1716Z" fill="#05568D"/>
<path d="M47.4197 43.3816C42.7745 44.6074 40.5487 49.8171 42.8552 54.0913C43.4681 55.2042 44.9681 56.5751 46.2423 57.1558C47.1939 57.5913 47.5648 57.6719 48.9519 57.7364C50.2745 57.7848 50.7261 57.7364 51.5165 57.4622C56.7906 55.6074 58.3229 49.188 54.4197 45.2848C53.4036 44.2687 52.3229 43.6558 50.9519 43.3332C49.6294 43.0267 48.7261 43.0429 47.4197 43.3816ZM51.3713 46.2364C52.3229 46.688 53.0326 47.4138 53.581 48.4622C54.0971 49.43 54.0971 51.4138 53.581 52.4622C52.3713 54.9138 49.5487 55.8977 47.1294 54.688C45.5326 53.8977 44.6777 52.6235 44.5487 50.8171C44.2906 47.1074 48.0326 44.5913 51.3713 46.2364Z" fill="#05568D"/>
<path d="M6.80645 58.414C3.17742 58.914 0.822581 60.8656 0.177419 63.8656C0.0645161 64.3978 0 66.7043 0 70.0753C0 74.8978 0.0322581 75.4946 0.306452 76.0753C0.887097 77.3656 2.12903 78.0914 3.75806 78.0914C4.51613 78.0914 4.51613 78.0914 4.51613 78.6398C4.51613 78.9462 4.66129 79.3656 4.85484 79.6075C5.54839 80.4946 5.69355 80.5107 11.1452 80.5107C15.9032 80.5107 16.1935 80.4946 16.6935 80.1882C17.2581 79.8333 17.7419 79.0107 17.7419 78.3817C17.7419 78.0269 17.8065 78.0107 18.7581 78.0107C20.0645 78.0107 21.1613 77.3978 21.7742 76.3172L22.1774 75.5914L22.2258 70.414C22.2742 64.8333 22.1613 63.6882 21.4194 62.1398C20.6452 60.5107 18.8387 59.2204 16.5806 58.6398C15.4032 58.3333 8.51613 58.172 6.80645 58.414ZM16.4677 61.3011C17.7419 61.7043 18.871 62.6236 19.2903 63.6075C19.5645 64.2204 19.5968 64.8817 19.6452 69.5753C19.6935 74.7204 19.6935 74.8495 19.371 75.172C18.9677 75.5753 18.4355 75.6075 18.0323 75.2365C17.7581 74.9946 17.7419 74.6398 17.7419 70.6398V66.3011L17.3387 65.914C17.0968 65.6559 16.7581 65.5107 16.4516 65.5107C16.1452 65.5107 15.8065 65.6559 15.5645 65.914L15.1613 66.3011V72.1236V77.9301H11.129H7.1129L7.06452 72.1075L7.01613 66.2849L6.56452 65.8978C6.01613 65.4301 5.5 65.3978 4.95161 65.8333L4.53226 66.172L4.48387 70.6075C4.43548 74.7849 4.41935 75.0591 4.12903 75.2849C3.70968 75.5753 3.14516 75.5753 2.83871 75.2527C2.6129 75.043 2.58065 74.3172 2.58065 69.8817C2.58065 64.3333 2.64516 63.7849 3.45161 62.7365C4.14516 61.8172 5.29032 61.3172 7.58065 60.9301C7.80645 60.8817 9.66129 60.8817 11.6935 60.8978C14.9677 60.9462 15.5323 60.9946 16.4677 61.3011Z" fill="#05568D"/>
<path d="M45.3224 58.3652C40.9837 58.9136 38.6611 61.0265 38.2256 64.7845C38.0159 66.6555 38.0159 74.0748 38.2256 75.2039C38.5643 76.9619 39.7901 77.9942 41.5643 78.0103H42.5482L42.645 78.6232C42.7095 78.9942 42.9676 79.4619 43.2901 79.8329L43.8385 80.4297H49.274H54.7095L55.2417 79.849C55.5643 79.4942 55.8063 79.0103 55.8708 78.6394C55.9837 78.0103 55.9998 78.0103 56.5966 78.0587C57.9676 78.1878 59.3547 77.4136 60.0159 76.1394C60.3063 75.5587 60.3224 75.1555 60.3224 69.9781C60.3224 65.5103 60.274 64.2684 60.0643 63.4942C59.5966 61.6394 58.4676 60.2361 56.774 59.3813C55.0643 58.5103 54.1934 58.3813 49.8385 58.3329C47.6611 58.3007 45.6288 58.3168 45.3224 58.3652ZM54.2095 61.1555C55.4192 61.4458 56.6127 62.2684 57.1772 63.1555L57.6611 63.9458L57.7095 69.5748L57.7579 75.1878L57.3385 75.3813C57.0482 75.5103 56.7901 75.5265 56.4837 75.4136L56.0482 75.2684L55.9676 70.7684L55.8869 66.2845L55.4353 65.8974C54.8869 65.4297 54.3708 65.3974 53.8063 65.849L53.3869 66.1716V72.0587V77.9297H49.274H45.1611V72.1232V66.3007L44.7579 65.9136C44.3385 65.4781 43.9353 65.4136 43.3385 65.6878C42.645 66.0103 42.5805 66.3974 42.5805 70.8329C42.5805 74.4136 42.5482 75.0426 42.3224 75.2523C42.0159 75.5748 41.4514 75.5748 41.0321 75.2845C40.7417 75.0587 40.7256 74.8168 40.7256 69.7523C40.7256 64.591 40.7417 64.4458 41.0966 63.6555C41.5321 62.72 41.8224 62.3652 42.5805 61.8813C43.2579 61.4458 44.1288 61.1555 45.2256 60.9781C46.403 60.8007 53.3224 60.9297 54.2095 61.1555Z" fill="#05568D"/>
</svg>
