<svg width="80" height="81" viewBox="0 0 80 81" fill="none" xmlns="http://www.w3.org/2000/svg">
<path d="M35.8626 0.733681C27.9469 1.6088 20.1561 5.15619 13.3802 10.9695C11.2256 12.8292 7.52537 16.7985 7.52537 17.2673C7.52537 17.7205 10.726 21.221 12.8806 23.1275C20.0781 29.5034 28.6027 33.3008 37.0336 33.9103L38.6729 34.0197L38.7197 35.9262L38.7666 37.8484H27.3068C19.797 37.8484 15.5504 37.9109 14.9415 38.0203C13.2865 38.3172 12.0843 39.4424 11.7564 40.9894C11.6628 41.4114 11.5847 42.9585 11.5847 44.4118V47.0528L10.929 47.2247C7.52537 48.0998 5.04294 50.5689 4.18423 53.8976C3.35675 57.0543 4.65262 60.9454 7.15066 62.8988L7.83763 63.4302L6.61983 64.1334C4.29352 65.493 2.52927 67.3995 1.35831 69.8061C0.312256 71.9626 0.156128 72.8378 0.0624512 76.9477L0 80.5107H12.8962H25.7923V77.4165C25.7923 74.0254 25.6518 72.8846 25.0585 71.1344C24.0281 68.1183 21.6237 65.3211 18.9071 63.9459C18.5324 63.7427 18.1889 63.5708 18.1577 63.5396C18.1265 63.5239 18.5948 63.0239 19.1881 62.43C20.9992 60.6329 21.8891 58.5076 21.8891 55.976C21.8891 51.7879 19.0945 48.2874 14.9102 47.2247L14.2389 47.0528V44.2087C14.2545 41.2395 14.2857 41.052 14.9727 40.6925C15.2225 40.5519 18.4231 40.505 27.0258 40.505H38.751V43.7711V47.0372L37.9391 47.2403C35.8626 47.7248 34.0827 48.8968 32.8181 50.5846C31.5535 52.2879 31.0383 53.835 31.0383 55.976C31.0383 58.5701 31.9906 60.7892 33.8954 62.5707C34.4262 63.0707 34.8478 63.5239 34.8322 63.5396C34.8009 63.5708 34.4575 63.7583 34.0671 63.9459C31.4754 65.2429 29.0242 67.9621 28.0094 70.6968C27.3224 72.5096 27.1663 73.6035 27.0882 77.104L26.9945 80.5107H40H53.0055L52.9118 77.1196C52.8337 73.6035 52.6776 72.5096 51.9906 70.6968C50.9758 67.9621 48.5246 65.2429 45.9329 63.9459C45.5425 63.7583 45.1991 63.5708 45.1678 63.5396C45.1522 63.5239 45.5738 63.0707 46.1046 62.5707C48.0094 60.7892 48.9618 58.5701 48.9618 55.976C48.9618 51.7566 46.1827 48.2249 42.0609 47.2403L41.249 47.0372V43.7711V40.505H52.9742C61.5769 40.505 64.7775 40.5519 65.0273 40.6925C65.7143 41.052 65.7455 41.2395 65.7611 44.2087V47.0528L65.1054 47.2247C63.2006 47.7092 61.7642 48.553 60.4528 49.9751C58.8759 51.7097 58.1109 53.6475 58.1109 55.976C58.1109 58.5076 59.0008 60.6329 60.8119 62.43C61.4052 63.0239 61.8735 63.5239 61.8423 63.5396C61.8111 63.5708 61.4676 63.7427 61.0929 63.9459C58.3763 65.3211 55.9719 68.1183 54.9415 71.1344C54.3482 72.8846 54.2076 74.0254 54.2076 77.4165V80.5107H67.1038H80L79.9375 76.9477C79.8439 72.8378 79.6877 71.9626 78.6417 69.8061C77.4707 67.3995 75.7065 65.493 73.3802 64.1334L72.1624 63.4302L72.8493 62.8988C75.3474 60.9454 76.6432 57.0543 75.8158 53.8976C74.9571 50.5689 72.4746 48.0998 69.0867 47.2247L68.4153 47.0528V44.4118C68.4153 42.9585 68.3372 41.4114 68.2436 40.9894C67.9157 39.4424 66.7135 38.3172 65.0585 38.0203C64.4496 37.9109 60.203 37.8484 52.6932 37.8484H41.2334L41.2803 35.9262L41.3271 34.0197L42.9664 33.9103C51.3973 33.3008 59.9219 29.5034 67.1194 23.1275C69.274 21.221 72.4746 17.7205 72.4746 17.2673C72.4746 16.7985 68.7744 12.8292 66.6198 10.9695C57.4707 3.12465 46.7291 -0.453995 35.8626 0.733681ZM44.3247 3.39031C52.9118 4.51547 60.765 8.62543 67.6971 15.6264C69.0086 16.9548 69.2116 17.2204 69.071 17.4861C68.8056 17.9705 65.324 21.2835 63.6066 22.6431C49.0242 34.3635 30.9758 34.3635 16.3934 22.6431C14.676 21.2835 11.1944 17.9705 10.929 17.4861C10.7884 17.2204 10.9914 16.9548 12.3029 15.6264C19.1725 8.68794 27.0414 4.54672 35.5347 3.39031C37.5488 3.10902 42.2482 3.10902 44.3247 3.39031ZM15.5504 50.1626C18.1733 51.3972 19.7346 54.2257 19.2506 56.9292C18.6885 60.1641 16.1124 62.3831 12.9118 62.3831C7.25995 62.3831 4.3872 55.5072 8.38408 51.5066C9.77361 50.1001 11.2412 49.5376 13.2553 49.6313C14.2857 49.6782 14.7385 49.7876 15.5504 50.1626ZM41.9204 49.8813C44.5277 50.694 46.4012 53.2412 46.4012 55.9603C46.4012 58.492 44.9649 60.7267 42.6698 61.8206C41.7174 62.2738 41.5144 62.305 40 62.305C38.4856 62.305 38.2826 62.2738 37.3302 61.8206C32.8806 59.7109 32.2873 53.7882 36.2529 50.8034C37.8142 49.6313 39.9688 49.2875 41.9204 49.8813ZM68.6495 49.7876C70.445 50.2564 72.0531 51.5691 72.8337 53.1631C74.8946 57.4293 71.8033 62.3831 67.0882 62.3831C63.8876 62.3831 61.3115 60.1641 60.7494 56.9292C60.2966 54.3976 61.6862 51.616 64.0281 50.3658C65.5269 49.5688 67.1038 49.3657 68.6495 49.7876ZM15.0976 65.2742C16.9399 65.6649 18.6573 66.6181 20.1093 68.0715C22.2951 70.2749 23.0757 72.1658 23.2475 75.7757L23.3411 77.8541H13.0211H2.6854V75.9007C2.6854 73.4629 2.84153 72.6815 3.73146 70.8219C4.32475 69.5717 4.65262 69.1341 5.7299 68.0558C6.74473 67.0557 7.29118 66.6494 8.35285 66.1493C10.5543 65.071 12.7869 64.7897 15.0976 65.2742ZM43.2006 65.5711C46.2763 66.5556 48.6807 68.9622 49.7736 72.1502C50.1327 73.2128 50.2108 73.7285 50.2732 75.6194L50.3513 77.8541H40H29.6487L29.7268 75.6194C29.7892 73.7285 29.8673 73.2128 30.2264 72.1502C31.4598 68.5559 34.1608 66.1181 37.8923 65.2586C39.2974 64.9304 41.655 65.071 43.2006 65.5711ZM69.2584 65.2742C71.1163 65.6649 72.8025 66.6025 74.2701 68.0558C75.3474 69.1341 75.6753 69.5717 76.2685 70.8219C77.1585 72.6815 77.3146 73.4629 77.3146 75.9007V77.8541H66.9789H56.6589L56.7525 75.7757C56.9243 72.1658 57.7049 70.2749 59.8907 68.0715C60.8899 67.0869 61.4364 66.665 62.4824 66.1493C64.6526 65.0867 66.9633 64.7897 69.2584 65.2742Z" fill="#05568D"/>
<path d="M36.0966 6.781V7.90616L35.3159 7.14043L34.5353 6.35907L31.803 9.09383L29.0708 11.8286L29.8827 12.6412L30.6945 13.4695H29.5704H28.4463V17.2981V21.1268H29.5704H30.6945L29.8827 21.9551L29.0708 22.7677L31.803 25.5024L34.5353 28.2372L35.3159 27.4558L36.0966 26.6901V27.8153V28.9404H39.9998H43.903V27.8153V26.6901L44.6836 27.4558L45.4642 28.2372L48.1965 25.5024L50.9287 22.7677L50.1169 21.9551L49.305 21.1268H50.4291H51.5532V17.2981V13.4695H50.4291H49.305L50.1169 12.6412L50.9287 11.8286L48.1965 9.09383L45.4642 6.35907L44.6836 7.14043L43.903 7.90616V6.781V5.65584H39.9998H36.0966V6.781ZM41.28 9.59391L41.3268 10.8753L42.4666 11.3285L43.6063 11.7973L44.5431 10.8753L45.4642 9.96896L46.3229 10.8128C46.7913 11.2816 47.1817 11.7348 47.1817 11.813C47.1817 11.9067 46.7913 12.3599 46.3229 12.8444L45.4642 13.7195L45.917 14.7978L46.3854 15.8917L47.7125 15.9386L49.0552 15.9854V17.2981V18.6108L47.6969 18.6577L46.3542 18.7046L45.9014 19.7985L45.4642 20.8768L46.3229 21.7519C46.7913 22.2207 47.1817 22.6895 47.1817 22.7833C47.1817 22.8614 46.7913 23.3146 46.3229 23.7834L45.4642 24.6273L44.4806 23.674C43.5439 22.752 43.497 22.7208 43.1223 22.9239C42.9037 23.049 42.4041 23.2677 41.9982 23.3928L41.2488 23.6584V24.9711V26.2838H39.9998H38.7507V24.9711V23.6584L38.0169 23.3928C37.5954 23.2677 37.0958 23.049 36.8772 22.9239C36.5025 22.7208 36.4557 22.752 35.5189 23.674L34.5353 24.6273L33.6766 23.7834C33.2082 23.3146 32.8179 22.8614 32.8179 22.7833C32.8179 22.6895 33.2082 22.2207 33.6766 21.7519L34.5353 20.8768L34.0981 19.7985L33.6454 18.7046L32.3027 18.6577L30.9443 18.6108V17.2981V15.9854L32.287 15.9386L33.6141 15.8917L34.0825 14.7978L34.5353 13.7195L33.6766 12.8444C33.2082 12.3599 32.8179 11.9067 32.8179 11.813C32.8179 11.7348 33.2082 11.2816 33.6766 10.8128L34.5353 9.96896L35.4564 10.8753L36.3932 11.7973L37.5329 11.3285L38.6727 10.8753L38.7195 9.59391L38.7664 8.31247H39.9998H41.2332L41.28 9.59391Z" fill="#05568D"/>
<path d="M38.2672 13.8916C35.5662 15.2667 35.4725 19.0642 38.0955 20.6113C38.72 20.9863 39.001 21.0488 40.0002 21.0488C40.9994 21.0488 41.2805 20.9863 41.905 20.6113C43.3414 19.783 44.0752 18.1109 43.7473 16.4857C43.3882 14.751 41.7957 13.4696 40.0002 13.4696C39.3445 13.4696 38.8917 13.579 38.2672 13.8916ZM40.5154 16.1575C41.702 16.7826 41.3273 18.5172 40.0002 18.5172C38.6887 18.5172 38.2984 16.8295 39.4538 16.1575C39.8597 15.9231 40.0939 15.9231 40.5154 16.1575Z" fill="#05568D"/>
</svg>
