<svg width="80" height="81" viewBox="0 0 80 81" fill="none" xmlns="http://www.w3.org/2000/svg">
<g clip-path="url(#clip0_1446_2240)">
<path d="M20.4688 0.510742H76.9922L77.3438 0.62793L78.0859 0.94043L78.5938 1.29199L79.0625 1.72168L79.4141 2.19043L79.7656 2.85449L79.9609 3.47949L80 3.51855V67.6201L79.9219 67.6592L79.7656 68.1279L79.4531 68.7529L79.1406 69.1826L78.7891 69.5732L78.2422 69.9639L77.6172 70.2764L76.875 70.4717L76.5625 70.5107H46.0156L45.5859 70.3545L45.2344 70.042L45 69.5732V68.9482L45.1562 68.5576L45.3906 68.2842L45.9375 68.0107L46.2109 67.9717L76.4844 67.9326L76.875 67.7764L77.0312 67.6592H77.1094L77.1875 67.5029L77.3438 67.2295L77.4219 66.9561V4.02637L77.2656 3.59668L76.9922 3.28418L76.6797 3.12793L76.25 3.0498H21.2109L20.7812 3.12793L20.4297 3.3623L20.1953 3.6748L20.0781 3.9873L20.0391 4.41699L20 14.5342L19.8438 14.8857L19.6875 15.1201L19.4141 15.3545L19.1406 15.4717L18.9453 15.5107H18.5156L18.0859 15.3545L17.7344 15.042L17.5 14.5732L17.4609 14.2607V4.14355L17.5391 3.47949L17.7344 2.85449L18.0469 2.22949L18.4375 1.72168L18.8281 1.33105L19.2188 1.05762L19.8047 0.745117L20.4688 0.510742Z" fill="#05568D"/>
<path d="M8.51562 47.9717H8.82812L9.29688 48.0889L9.60938 48.3232L9.84375 48.5967L10 48.9482V49.5732L9.76562 50.042L9.49219 50.3154L9.10156 50.4717L8.51562 50.5498L7.77344 50.6279L7.03125 50.7842L6.25 51.0576L5.58594 51.4092L5.11719 51.7217L4.6875 52.0732L4.29688 52.4248L3.94531 52.8154L3.63281 53.2451L3.32031 53.7529L3.00781 54.417L2.77344 55.0811L2.61719 55.8623L2.57812 56.2139L2.53906 57.1514V70.1982L2.5 77.9717H12.4609V73.0107H8.51562L8.08594 72.8545L7.73438 72.542L7.5 72.0732V71.4482L7.65625 71.0576L7.89062 70.7842L8.20312 70.5889L8.4375 70.5107L8.71094 70.4717H12.4609V59.1045L12.5391 58.4795L12.7344 57.8545L13.0469 57.2295L13.4375 56.7217L13.8281 56.3311L14.3359 55.9795L14.9219 55.7061L15.4688 55.5498L16.1719 55.4717H34.8828L34.5703 54.4561L34.1797 53.6357L33.7891 53.0498L33.4375 52.6201L32.8125 51.9951L32.2266 51.5654L31.5234 51.1748L30.9766 50.9404L30.3906 50.7451L29.8047 50.6279L28.5938 50.5107L28.2031 50.3936L27.8516 50.1201L27.6172 49.7295L27.5391 49.5342V48.9873L27.6953 48.5967L28.0469 48.2061L28.3203 48.0498L28.7109 47.9717L29.6484 48.0107L30.625 48.167L31.4062 48.3623L32.2266 48.6748L33.0469 49.0654L33.6719 49.4561L34.2969 49.9248L34.6875 50.2373V50.3154L34.8438 50.3936L35.3125 50.8623L35.6641 51.292L36.0938 51.8779L36.5625 52.6592L36.9141 53.4014L37.2656 54.4561L37.4609 55.3154V55.4717H38.7891L39.5312 55.5498L40.1562 55.7451L40.7031 56.0186L41.1328 56.3311L41.5234 56.6826L41.8359 57.0732L42.1875 57.6592L42.4219 58.3232L42.5 58.792V79.5342L42.3438 79.8857L42.1875 80.1201L41.9141 80.3545L41.6016 80.5107H0.859375L0.429688 80.2373L0.117188 79.8857L0 79.6514V55.6279L0.117188 55.1201L0.351562 54.1826L0.664062 53.3232L1.01562 52.5811L1.44531 51.8779L1.79688 51.4092L2.10938 51.0186L2.57812 50.5107L2.89062 50.1982L3.4375 49.7686L3.98438 49.3779L4.57031 49.0264L5.19531 48.7139L6.01562 48.4014L6.875 48.167L7.89062 48.0107L8.51562 47.9717ZM16.2109 58.0107L15.7812 58.0889L15.4297 58.3232L15.1953 58.5967L15.0391 58.9873L15 59.4561V77.9717L15.2344 78.0107L39.9609 77.9717V58.9873L39.7656 58.5186L39.4922 58.2451L39.1797 58.0889L38.75 58.0107H16.2109Z" fill="#05568D"/>
<path d="M48.6719 29.2217H68.6719L69.6484 29.2998L70.2734 29.4561L70.8594 29.6904L71.4453 30.0029L71.9141 30.3545L72.3047 30.7061L72.5781 30.9795L73.0078 31.5654L73.3594 32.2295L73.5938 32.8936L73.7109 33.4014L73.75 33.7139V34.8467L73.5938 35.6279L73.3594 36.2529L73.0469 36.8779L72.6562 37.4248L72.3047 37.8154L71.875 38.2061L71.2891 38.5967L70.5469 38.9482L69.8828 39.1436L69.4922 39.2217L69.1016 39.2607H48.3594L47.5391 39.1436L46.8359 38.9092L46.2109 38.5967L45.7422 38.2842L45.2344 37.8545L44.8047 37.3857L44.4531 36.8779L44.0625 36.1357L43.8281 35.3545L43.75 34.9248L43.7109 34.4951V34.0654L43.7891 33.3623L43.9844 32.6201L44.2188 32.0342L44.5703 31.4482L44.9219 30.9795L45.1562 30.7061L45.4688 30.4326L45.9766 30.042L46.6016 29.6904L47.1875 29.4561L47.8516 29.2998L48.6719 29.2217ZM48.6719 31.7607L48.0859 31.8389L47.5 32.0732L47.1094 32.3857L46.7578 32.7373L46.4453 33.2842L46.2891 33.8701L46.25 34.417L46.3672 35.0029L46.5625 35.4717L46.875 35.9014L47.1484 36.1748L47.5781 36.4482L48.0078 36.6436L48.3984 36.7217H69.1016L69.6875 36.5654L70.1172 36.3311L70.5078 36.0186L70.7812 35.7061L70.9766 35.3545L71.1328 34.9639L71.2109 34.6514V33.9092L71.0938 33.4014L70.7812 32.8154L70.4297 32.4248L70.0391 32.1123L69.6094 31.917L69.1797 31.7998L68.8281 31.7607H48.6719Z" fill="#05568D"/>
<path d="M48.6719 14.2217H68.7109L69.6484 14.2998L70.2734 14.4561L70.8594 14.6904L71.4453 15.0029L71.9141 15.3545L72.3047 15.7061L72.5781 15.9795L73.0078 16.5654L73.3594 17.2295L73.5938 17.8936L73.7109 18.4014L73.75 18.7139V19.8467L73.5938 20.6279L73.3594 21.2529L73.0469 21.8779L72.6562 22.4248L72.3047 22.8154L71.875 23.2061L71.2891 23.5967L70.5469 23.9482L69.7266 24.1826L69.1016 24.2607H48.3594L47.5391 24.1436L46.7188 23.8701L46.1328 23.5576L45.5859 23.167L45.0781 22.6982L44.6875 22.2295L44.3359 21.6826L44.0234 21.0186L43.8281 20.3545L43.75 19.9248L43.7109 19.4951V19.0654L43.7891 18.3623L43.9844 17.6201L44.2188 17.0342L44.5703 16.4482L44.9219 15.9795L45.5469 15.3545L46.1719 14.9248L46.7578 14.6123L47.3438 14.417L47.8516 14.2998L48.6719 14.2217ZM48.6719 16.7607L48.0859 16.8389L47.5 17.0732L47.1094 17.3857L46.7578 17.7373L46.4453 18.2842L46.3281 18.6357L46.25 19.1436L46.2891 19.6514L46.4062 20.1201L46.6797 20.667L47.1484 21.1748L47.5781 21.4482L48.0078 21.6436L48.3984 21.7217H69.1016L69.6875 21.5654L70.1172 21.3311L70.5078 21.0186L70.7812 20.7061L70.9766 20.3545L71.1328 19.9639L71.2109 19.6514V18.9092L71.0938 18.4014L70.7812 17.8154L70.4297 17.4248L70.0391 17.1123L69.6094 16.917L69.1797 16.7998L68.8281 16.7607H48.6719Z" fill="#05568D"/>
<path d="M32.4609 44.2217H57.3438L58.0078 44.2607L58.5938 44.3779L59.1797 44.6123L59.6875 44.9248L60.1172 45.2764L60.5078 45.7061L60.8594 46.2529L61.0938 46.7998L61.2109 47.2686L61.25 47.542V58.4795L61.1328 59.0654L60.8984 59.6514L60.6641 60.0811L60.3516 60.4717L60.0391 60.8232L59.4922 61.2139L58.8672 61.5264L58.125 61.7217L57.7734 61.7607H46.0156L45.5859 61.6045L45.2344 61.292L45 60.8232L44.9609 60.5107L45.0391 60.0811L45.2344 59.6904H45.3125L45.3906 59.5342L45.9375 59.2607L46.1719 59.2217L57.7344 59.1826L58.125 59.0264L58.2812 58.9092H58.3594V58.8311H58.4375L58.5156 58.6357L58.6328 58.3623L58.6719 58.2061V47.7373L58.4766 47.2686L58.1641 46.9951L57.9297 46.8779L57.5 46.7998L32.2656 46.7607L31.8359 46.6045L31.4844 46.292L31.25 45.8232V45.1982L31.4062 44.8076L31.6406 44.5342L32.1875 44.2607L32.4609 44.2217Z" fill="#05568D"/>
<path d="M14.9219 17.9717H27.3438L27.8125 18.0107L28.1641 18.167L28.4766 18.4404L28.6719 18.7139L28.75 18.9873V22.3467L28.6328 23.0889L28.4766 23.6748L28.2422 24.2998L27.8125 25.1201L27.3438 25.7451L26.9141 26.2139L26.4062 26.6826L25.7031 27.1514L25.1172 27.4639L24.2578 27.7764L23.3203 27.9717L22.8906 28.0107H9.76562L9.33594 27.8545L8.94531 27.5029L8.75 27.0732L8.71094 26.7607V24.0654L8.78906 23.2451L8.98438 22.4248L9.29688 21.6045L9.72656 20.8232L10.0781 20.3545L10.4297 19.9639L10.9766 19.417L11.5625 18.9873L12.1875 18.6357L12.7734 18.3623L13.5938 18.1279L14.3359 18.0107L14.9219 17.9717ZM14.9219 20.5107L14.1797 20.5889L13.5547 20.7842L12.9688 21.0967L12.5 21.4482V21.5264L12.3438 21.6045L11.9531 22.0732L11.6406 22.6201L11.4062 23.167L11.2891 23.792L11.25 24.3779V25.4717H22.8906L23.5156 25.3545L24.1406 25.1201L24.7266 24.7686L25.2344 24.2998L25.5469 23.9482L25.8984 23.3232L26.0938 22.7764L26.2109 22.1904V20.5107H14.9219Z" fill="#05568D"/>
<path d="M27.4609 27.9717L27.9297 28.0498L28.2422 28.2061L28.5156 28.4795L28.7109 28.8311L28.75 28.9873V36.292L28.6328 37.2295L28.4375 38.1279L28.0859 39.1826L27.8125 39.8076L27.4609 40.4717L27.0703 41.0967L26.6406 41.6826L26.2891 42.1123L25.7422 42.6982L25.2734 43.1279L24.6094 43.6357L24.0234 44.0264L23.2031 44.4951L22.3047 44.8857L21.6016 45.1201L20.625 45.3545L19.8828 45.4717L19.4531 45.5107H18.0078L17.0312 45.3936L16.1719 45.1982L15.3906 44.9639L14.4531 44.5732L13.7109 44.1826L13.1641 43.8311L12.4219 43.2842L11.875 42.7764L11.5625 42.5029L11.2109 42.1123L10.7812 41.6045L10.3516 40.9795L9.88281 40.1982L9.45312 39.2998L9.17969 38.5576L8.94531 37.6592L8.78906 36.7607L8.71094 35.8232V31.7217L8.78906 31.3311L8.94531 31.0186L9.14062 30.7842L9.53125 30.5498L9.6875 30.5107H10.3125L10.6641 30.667L10.9766 30.9404L11.1719 31.2529L11.25 31.5264L11.2891 35.5107L11.3672 36.5264L11.4844 37.1904L11.7188 38.0107L12.0703 38.8311L12.4609 39.5342L12.7734 39.9639L13.0859 40.3545L13.4375 40.7451L13.75 41.0576L14.2969 41.4873L14.6875 41.7607L15.1953 42.0732L16.0547 42.4639L16.7969 42.6982L17.5391 42.8545L18.1641 42.9326H19.3359L20.3906 42.7764L21.2109 42.542L22.0312 42.1904L22.5391 41.917L23.0859 41.5654L23.5938 41.1748L24.2188 40.5889L24.4922 40.2764L25 39.5732L25.3906 38.9092L25.6641 38.2842L25.9375 37.4639L26.0938 36.6826L26.1719 36.0186L26.2109 29.1436L26.2891 28.8311L26.4844 28.4404L26.7969 28.167L27.1875 28.0107L27.4609 27.9717Z" fill="#05568D"/>
<path d="M38.6719 5.47168H73.6719L74.1797 5.5498L74.5703 5.78418L74.8438 6.09668L75 6.4873V7.07324L74.7656 7.54199L74.4141 7.85449L74.1406 7.97168L73.9062 8.01074H38.5156L38.0859 7.85449L37.7344 7.54199L37.5 7.07324V6.44824L37.6562 6.05762L37.8906 5.78418L38.4375 5.51074L38.6719 5.47168Z" fill="#05568D"/>
<path d="M35.9766 14.2217H36.5625L37.3828 14.3389L38.0078 14.5342L38.4375 14.7295L38.9453 15.0029L39.4141 15.3545L39.8047 15.7061L40.0781 15.9795L40.5078 16.5654L40.8594 17.2295L41.0938 17.8936L41.25 18.6748V19.8857L41.1328 20.4717L40.9375 21.0967L40.625 21.7607L40.2734 22.2686L39.9609 22.6592L39.6094 23.0107L39.2188 23.3232L38.7109 23.6357L38.1641 23.9092L37.4219 24.1436L36.7188 24.2607H35.7031L35.0391 24.1436L34.2188 23.8701L33.6328 23.5576L33.0859 23.167L32.5781 22.6982L32.1875 22.2295L31.8359 21.6826L31.5234 21.0186L31.3281 20.3545L31.25 19.9248L31.2109 19.4951V18.9873L31.3281 18.167L31.5234 17.5029L31.7578 16.9561L32.1484 16.3311L32.4609 15.9404L32.5781 15.7842H32.6562L32.7344 15.6279L33.0469 15.3545L33.5938 14.9639L34.2578 14.6123L34.9609 14.3779L35.5469 14.2607L35.9766 14.2217ZM36.0938 16.7607L35.4688 16.8779L35.1172 17.0342L34.6875 17.3076L34.2578 17.7373L33.9453 18.2842L33.7891 18.8701L33.75 19.2998L33.8281 19.8467L33.9844 20.3154L34.3359 20.8623L34.6484 21.1748L35.0781 21.4482L35.5469 21.6436L35.8984 21.7217H36.5625L37.0703 21.6045L37.6172 21.3311L38.0078 21.0186L38.2812 20.7061L38.5938 20.0811L38.7109 19.6123V18.9092L38.5547 18.3232L38.2812 17.8154L37.9297 17.4248L37.5391 17.1123L37.1094 16.917L36.6797 16.7998L36.0938 16.7607Z" fill="#05568D"/>
<path d="M68.5156 44.2217H68.9844L69.6875 44.2998L70.3125 44.4561L70.9375 44.7295L71.5625 45.0811L72.1094 45.5107L72.5781 45.9795L73.0078 46.5654L73.3594 47.2295L73.5938 47.8936L73.7109 48.4014L73.75 48.7139V49.8467L73.5938 50.6279L73.3594 51.292L73.0469 51.8779L72.6562 52.4248L72.3047 52.8154L71.8359 53.2451L71.2109 53.6357L70.5469 53.9482L69.9219 54.1436L69.2188 54.2607H68.2422L67.5391 54.1436L66.7188 53.8701L66.1328 53.5576L65.5859 53.167L65.1172 52.7373L64.7656 52.3467L64.375 51.7607L64.0234 51.0186L63.8281 50.3545L63.7109 49.5342V48.9873L63.8281 48.167L64.0234 47.5029L64.2578 46.9951L64.4922 46.5654L64.8828 46.0186L65.0781 45.7842H65.1562L65.2344 45.6279L65.5469 45.3545L66.0938 44.9639L66.7578 44.6123L67.4609 44.3779L68.0469 44.2607L68.5156 44.2217ZM68.6328 46.7607L68.125 46.8389L67.6953 46.9951L67.2266 47.2686L66.7969 47.6982L66.5625 48.0498L66.3672 48.5186L66.2891 48.8701L66.25 49.3389L66.3672 50.0029L66.6016 50.5107L66.875 50.9014L67.1875 51.2139L67.7344 51.5264L68.2031 51.6826L68.3984 51.7217H69.1016L69.6875 51.5654L70.1172 51.3311L70.5469 50.9795L70.8594 50.5889L71.0938 50.1201L71.2109 49.6123V48.9092L71.0547 48.3232L70.7812 47.8154L70.4297 47.4248L70.0391 47.1123L69.6094 46.917L69.1797 46.7998L68.6328 46.7607Z" fill="#05568D"/>
<path d="M35.9766 29.2217H36.5234L37.3828 29.3389L38.0078 29.5342L38.4375 29.7295L38.9453 30.0029L39.4141 30.3545L39.8047 30.7061L40.0781 30.9795L40.5078 31.5654L40.8594 32.2295L41.0938 32.8936L41.25 33.6748V34.8857L41.1328 35.4717L40.9375 36.0967L40.625 36.7607L40.2734 37.2686L39.9609 37.6592L39.6094 38.0107L39.1016 38.4014L38.5547 38.7139L38.0469 38.9482L37.3828 39.1436L36.7188 39.2607H35.7422L35.0391 39.1436L34.2188 38.8701L33.6328 38.5576L33.0859 38.167L32.5781 37.6982L32.1875 37.2295L31.8359 36.6826L31.5234 36.0186L31.3281 35.3545L31.25 34.9248L31.2109 34.4951V33.9873L31.3281 33.167L31.5625 32.3857L31.875 31.7607L32.2656 31.1748L32.5781 30.7842H32.6562L32.7344 30.6279L33.0469 30.3545L33.5938 29.9639L34.2578 29.6123L34.9609 29.3779L35.5469 29.2607L35.9766 29.2217ZM36.0938 31.7607L35.4688 31.8779L35.1172 32.0342L34.6875 32.3076L34.2578 32.7373L33.9453 33.2842L33.7891 33.8701L33.75 34.2998L33.8281 34.8467L33.9844 35.3154L34.3359 35.8623L34.6875 36.2139L35.2344 36.5264L35.7031 36.6826L35.8984 36.7217H36.5625L37.0703 36.6045L37.6172 36.3311L38.0078 36.0186L38.2812 35.7061L38.5938 35.0811L38.7109 34.6123V33.9092L38.5547 33.3232L38.2812 32.8154L37.9297 32.4248L37.5391 32.1123L37.1094 31.917L36.6797 31.7998L36.0938 31.7607Z" fill="#05568D"/>
<path d="M39.9609 49.2217H54.9219L55.4297 49.2998L55.8203 49.5342L56.0938 49.8467L56.25 50.2373V50.8232L56.0156 51.292L55.6641 51.6045L55.3906 51.7217L55.1562 51.7607H39.7656L39.3359 51.6045L38.9844 51.292L38.75 50.8232V50.1982L38.9062 49.8076L38.9844 49.6904H39.0625L39.1406 49.5342L39.4531 49.3389L39.6875 49.2607L39.9609 49.2217Z" fill="#05568D"/>
<path d="M13.5938 47.9717H13.9844L14.4141 48.1279L14.7656 48.4014L15.2344 48.9092L15.5078 49.1826L16.1328 49.6123L16.7188 49.9248L17.3828 50.1592L17.8516 50.2764L18.5547 50.3545H19.1016L19.9219 50.2373L20.5859 50.042L21.4062 49.6514L21.9141 49.2998L22.1875 49.0654H22.2656V48.9873L22.4609 48.8311L22.5 48.7529H22.5781L22.6562 48.5967L23.0469 48.2061L23.4375 48.0107L23.5938 47.9717H24.0234L24.4531 48.1279L24.8438 48.4795L25.0391 48.8701L25.0781 48.9873V49.4951L24.9219 49.8857L24.4922 50.4326L23.9062 51.0186L23.2422 51.5264L22.6172 51.917L22.0312 52.2295L21.25 52.542L20.3516 52.7764L19.6094 52.8936L19.2578 52.9326H18.2812L17.1875 52.7764L16.3672 52.542L15.7422 52.3076L15.1172 51.9951L14.4141 51.5654L13.9062 51.1748L13.3984 50.7061L12.9688 50.2764L12.6953 49.8857L12.5391 49.5732L12.5 49.417V49.1045L12.6172 48.7139L12.8516 48.3623L13.1641 48.1279L13.5938 47.9717Z" fill="#05568D"/>
<path d="M46.2109 54.2217H54.9609L55.4297 54.2998L55.7422 54.4561L56.0156 54.7295L56.2109 55.0811L56.25 55.2373V55.8232L56.0156 56.292L55.6641 56.6045L55.3906 56.7217L55.1562 56.7607H46.0156L45.5859 56.6045L45.2344 56.292L45 55.8232V55.1982L45.1562 54.8076L45.3906 54.5342L45.9375 54.2607L46.2109 54.2217Z" fill="#05568D"/>
<path d="M27.4219 65.4717L27.9297 65.5498L28.2422 65.7061L28.5156 65.9795L28.7109 66.3311L28.75 66.4482V67.0732L28.5156 67.542L28.1641 67.8545L27.8906 67.9717L27.6953 68.0107H27.2656L26.9141 67.8936L26.6797 67.7373L26.4062 67.4248L26.25 67.0732V66.4482L26.4062 66.0576L26.6406 65.7842L27.0312 65.5498L27.4219 65.4717Z" fill="#05568D"/>
<path d="M23.4375 5.51074H24.0625L24.4141 5.66699L24.7266 5.94043L24.9609 6.33105L25 6.44824V7.07324L24.7656 7.54199L24.4141 7.85449L24.1406 7.97168L23.9453 8.01074H23.5156L23.0859 7.85449L22.7344 7.54199L22.5 7.07324L22.4609 6.76074L22.5391 6.29199L22.7734 5.90137L23.125 5.62793L23.4375 5.51074Z" fill="#05568D"/>
<path d="M28.4375 5.51074H29.0625L29.4141 5.66699L29.7266 5.94043L29.9609 6.33105L30 6.4873V7.07324L29.7656 7.54199L29.4141 7.85449L29.1406 7.97168L28.9453 8.01074H28.5156L28.0859 7.85449L27.7344 7.54199L27.5 7.07324V6.44824L27.6562 6.05762L27.8906 5.78418L28.2812 5.5498L28.4375 5.51074Z" fill="#05568D"/>
<path d="M33.4375 5.51074H34.0625L34.4141 5.66699L34.7266 5.94043L34.9609 6.33105L35 6.4873V7.07324L34.7656 7.54199L34.4141 7.85449L34.1406 7.97168L33.9453 8.01074H33.5156L33.0859 7.85449L32.7344 7.54199L32.5 7.07324V6.44824L32.6562 6.05762L32.8906 5.78418L33.2812 5.5498L33.4375 5.51074Z" fill="#05568D"/>
</g>
<defs>
<clipPath id="clip0_1446_2240">
<rect width="80" height="80" fill="white" transform="translate(0 0.510742)"/>
</clipPath>
</defs>
</svg>
