<svg width="80" height="81" viewBox="0 0 80 81" fill="none" xmlns="http://www.w3.org/2000/svg">
<path d="M0.39101 0.90152L0 1.27666V33.9914C0 51.9821 0.0469212 66.8624 0.0938424 67.0656C0.172044 67.3 2.97167 69.4102 9.13399 73.8492C14.0451 77.3817 18.2523 80.3515 18.4713 80.4453C18.7998 80.5547 18.9874 80.5391 19.3315 80.3046C20.4107 79.6169 36.5672 67.9565 36.9582 67.597L37.3805 67.1906V34.1008V0.995308L37.0364 0.760849C36.7236 0.542023 34.7217 0.510757 18.7215 0.510757H0.766379L0.39101 0.90152ZM5.94335 35.7576C5.94335 54.0297 5.91207 68.9725 5.86515 68.9725C5.83387 68.9725 4.958 68.3629 3.9101 67.6283L2.03325 66.2841V34.4134V2.54273H3.9883H5.94335V35.7576ZM29.5603 36.5235V70.5199L24.2426 74.3494C21.3022 76.4595 18.831 78.1945 18.7215 78.1945C18.6121 78.1789 16.1722 76.4752 13.2943 74.3963L8.0548 70.5981L8.00788 36.5704L7.9766 2.54273H18.7685H29.5603V36.5235ZM35.5037 34.3978V66.2528L33.7363 67.5032C32.7823 68.2066 31.8908 68.8162 31.7969 68.8787C31.6405 68.9725 31.5936 62.2983 31.5936 35.7733V2.54273H33.5486H35.5037V34.3978Z" fill="#05568D"/>
<path d="M18.0967 11.6401C17.909 11.8433 17.299 12.8124 16.7673 13.8128L15.7819 15.6259L13.952 15.9698C11.168 16.4856 11.0116 16.5481 10.7926 17.0796C10.5424 17.6735 10.6206 17.7829 12.4974 19.768L13.9363 21.2842L13.6861 23.1286C13.3576 25.692 13.3733 26.2234 13.7956 26.5204C13.9833 26.6611 14.2335 26.7705 14.343 26.7705C14.4681 26.7705 15.4535 26.3485 16.5483 25.8327C17.6588 25.3169 18.6441 24.8948 18.7379 24.8948C18.8474 24.8948 19.8328 25.3169 20.9432 25.8327C22.5073 26.5673 23.0547 26.7549 23.3831 26.6767C24.1026 26.5048 24.1652 26.0828 23.868 23.5662L23.5865 21.3155L25.1661 19.5961C26.8397 17.7673 27.0743 17.2671 26.4643 16.7201C26.3079 16.5794 25.26 16.298 23.9618 16.048L21.7409 15.6259L20.6148 13.6096C19.8328 12.1872 19.3948 11.5464 19.1289 11.437C18.5815 11.2338 18.4877 11.2494 18.0967 11.6401ZM19.7233 16.0949C20.0517 16.7201 20.4584 17.2828 20.6148 17.3609C20.7556 17.4391 21.5376 17.6266 22.3352 17.7829C23.1173 17.9393 23.7741 18.0799 23.7741 18.1268C23.7741 18.1581 23.2893 18.7052 22.6793 19.346C21.4594 20.6433 21.4437 20.6746 21.7409 22.7691C21.8347 23.3631 21.866 23.8789 21.8191 23.9258C21.7722 23.9726 21.1309 23.7226 20.3645 23.3631C19.6138 23.0035 18.8787 22.7066 18.7536 22.7066C18.6128 22.7066 17.8934 22.9879 17.1426 23.3474C16.3919 23.6913 15.735 23.9414 15.6881 23.8945C15.6411 23.8632 15.6881 23.238 15.7819 22.5346C16.0478 20.5964 16.0634 20.659 14.8435 19.3616C14.2179 18.7052 13.7487 18.1268 13.7956 18.0956C13.8269 18.0487 14.4525 17.908 15.1876 17.7829C15.907 17.6423 16.6421 17.486 16.8142 17.4078C16.9862 17.3297 17.4867 16.6419 17.909 15.8448C18.8005 14.2192 18.6754 14.2036 19.7233 16.0949Z" fill="#05568D"/>
<path d="M18.0342 31.8032C17.9403 31.9126 17.3929 32.8661 16.8298 33.9134C16.0635 35.3045 15.6881 35.8515 15.4378 35.9141C15.2502 35.9453 14.3274 36.1329 13.3733 36.3048C11.1367 36.7425 11.1367 36.7425 10.8552 37.1645C10.4955 37.7116 10.6832 38.1023 11.8718 39.3528C12.4349 39.9624 13.1387 40.697 13.4202 41.0096L13.9207 41.5567L13.6861 43.3386C13.3733 45.7144 13.389 46.3553 13.733 46.6679C14.1866 47.0743 14.5463 46.9961 16.7047 45.9801L18.7223 45.0267L20.7869 45.9801C21.913 46.5116 22.9765 46.9336 23.1329 46.9336C23.2893 46.9336 23.5865 46.8085 23.7898 46.6366L24.1495 46.3396L23.9619 44.589C23.8524 43.6199 23.7273 42.5258 23.6647 42.1663C23.5865 41.5098 23.5865 41.5098 25.1662 39.8373C26.5269 38.3837 26.7459 38.0711 26.7459 37.6178C26.7459 36.8832 26.4018 36.7112 24.1652 36.3205C23.1329 36.1329 22.1476 35.9141 21.9755 35.8515C21.7879 35.7734 21.2404 34.945 20.6617 33.8977C20.1143 32.8817 19.5669 31.9595 19.4418 31.8345C19.1603 31.5688 18.2375 31.5375 18.0342 31.8032ZM19.5044 35.961C19.8641 36.6331 20.2864 37.2896 20.4428 37.4302C20.5992 37.5709 21.3186 37.7897 22.0537 37.946C22.7888 38.0867 23.477 38.2274 23.5865 38.2743C23.7273 38.3055 23.3988 38.7588 22.695 39.5404C21.4594 40.8846 21.4438 40.9471 21.7409 43.0885C21.8348 43.6824 21.8817 44.1826 21.8661 44.2139C21.8348 44.2295 21.131 43.9325 20.302 43.5418L18.7693 42.854L17.1896 43.5574L15.5943 44.2764L15.7037 43.4167C15.7507 42.9478 15.8445 42.1819 15.8914 41.7286L15.9853 40.8846L14.8592 39.6029C14.2335 38.8995 13.7487 38.3055 13.78 38.2743C13.8112 38.2586 14.5307 38.118 15.3596 37.9617C16.2824 37.7897 16.955 37.5865 17.0957 37.4302C17.2365 37.2739 17.6275 36.6174 17.9872 35.9453C18.347 35.2888 18.6911 34.7418 18.738 34.7418C18.8005 34.7418 19.1446 35.2888 19.5044 35.961Z" fill="#05568D"/>
<path d="M18.1903 52.013C18.0026 52.1537 17.4552 52.9977 16.9703 53.8887C16.4855 54.7796 15.9693 55.6549 15.8286 55.8112C15.6409 56.0301 15.0309 56.2176 13.764 56.4521C11.3867 56.9054 11.0426 57.0304 10.7924 57.4837C10.5108 58.0151 10.6359 58.234 12.4033 60.1253L13.9204 61.7508L13.6545 63.9235C13.3574 66.3462 13.4199 66.8777 14.0299 67.1121C14.374 67.2372 14.7494 67.1121 16.5949 66.2524L18.7533 65.2521L20.5989 66.1118C23.1013 67.284 23.2108 67.3153 23.727 66.8777L24.1492 66.5025L23.8677 64.1267L23.5862 61.7508L24.1962 61.0944C26.6986 58.4215 26.7456 58.3746 26.7456 57.9057C26.7456 57.046 26.4953 56.9366 23.1952 56.3583L21.7406 56.0926L20.6302 54.0919C19.3476 51.7629 18.9879 51.4503 18.1903 52.013ZM19.6292 56.3896C20.0202 57.1086 20.4112 57.7494 20.4738 57.7963C20.552 57.8432 21.3027 58.0151 22.1473 58.1871C22.9919 58.359 23.6957 58.5309 23.7113 58.5466C23.7426 58.5778 23.2734 59.1405 22.6791 59.797C21.4591 61.1569 21.4435 61.1881 21.7406 63.2514C21.8345 63.8453 21.8814 64.3611 21.8345 64.3924C21.8032 64.4237 21.1619 64.1736 20.4112 63.8141C19.6605 63.4702 18.9097 63.1888 18.7533 63.1888C18.5969 63.1888 17.8462 63.4702 17.1111 63.8141C16.3603 64.1579 15.7191 64.408 15.6722 64.3768C15.6409 64.3299 15.6878 63.7203 15.7816 63.0169C16.0475 61.0162 16.0788 61.0944 14.8276 59.8127C14.2176 59.1718 13.7484 58.6091 13.8109 58.5622C13.8579 58.5153 14.5304 58.3434 15.3124 58.2027C16.157 58.0308 16.8608 57.8119 17.0485 57.64C17.2206 57.4837 17.6585 56.796 18.0182 56.1395C18.3779 55.4674 18.722 54.9516 18.7846 54.9984C18.8472 55.0297 19.2225 55.6549 19.6292 56.3896Z" fill="#05568D"/>
<path d="M42.5421 0.823112C42.2293 1.13572 42.2293 1.33892 42.2293 13.3744V25.6288L42.589 25.9414C42.7767 26.1133 46.4209 28.3797 50.6907 30.99L58.464 35.7417L57.7133 36.4607C56.2587 37.8675 55.9302 39.9463 56.8374 41.7595C57.072 42.2128 57.244 42.6035 57.2128 42.6348C57.1815 42.6504 56.4933 42.8536 55.68 43.0881C48.8139 45.0419 43.6682 50.622 42.1354 57.7964C41.807 59.3438 41.7601 62.9389 42.0572 64.5957C44.1374 76.3968 56.1649 83.368 67.4885 79.3509C70.0222 78.4444 72.165 77.0532 74.3077 74.9275C76.1846 73.0362 77.4827 71.1918 78.3899 69.0817C80.7046 63.736 80.5169 57.8433 77.8737 52.7165C75.9499 48.9808 72.9783 46.0735 69.2089 44.2604C67.8169 43.6039 65.2363 42.7129 64.6732 42.7129C64.5325 42.7129 64.6263 42.4003 64.9548 41.7439C65.377 40.9311 65.4552 40.6185 65.4552 39.6806C65.4396 38.3051 65.0486 37.3673 64.0633 36.4138L63.3751 35.7261L71.1327 30.9744C75.4025 28.3641 79.0624 26.0664 79.2657 25.8789L79.6098 25.535V13.3275C79.6098 1.33892 79.6098 1.13572 79.297 0.823112C78.9842 0.510498 78.7809 0.510498 60.9195 0.510498C43.0582 0.510498 42.8549 0.510498 42.5421 0.823112ZM50.8315 15.6096C50.8315 22.7996 50.7689 28.6455 50.7064 28.6142C50.6438 28.5829 49.158 27.7076 47.4219 26.6448L44.2625 24.7066V13.6245V2.54247H47.547H50.8315V15.6096ZM68.7866 16.3286L68.7397 30.0991L64.8296 32.4906C61.3575 34.6163 60.9039 34.8508 60.6067 34.6945C60.419 34.5851 58.6048 33.4909 56.5715 32.2405L52.8647 29.9741V16.2505V2.54247H60.8413H68.8179L68.7866 16.3286ZM77.5765 13.6089V24.6909L74.2139 26.7385C72.3683 27.8796 70.8199 28.8018 70.773 28.8018C70.7261 28.8018 70.6948 22.8934 70.6948 15.6721V2.54247H74.1357H77.5765V13.6089ZM62.4523 37.6018C63.203 38.1801 63.5471 38.9773 63.4689 39.9307C63.3282 41.3062 62.2959 42.244 60.9195 42.244C59.027 42.244 57.8071 40.3684 58.5578 38.6021C59.1678 37.1485 61.1698 36.6327 62.4523 37.6018ZM64.4386 44.6824C68.1767 45.4483 72.0399 47.871 74.339 50.8877C78.4055 56.1708 79.1562 63.1108 76.294 68.8941C75.0428 71.395 72.6342 74.1772 70.4915 75.584C69.0838 76.5218 66.7847 77.5378 65.1112 77.9911C63.7504 78.3662 63.2812 78.3975 60.9195 78.4131C58.5266 78.4131 58.1043 78.3662 56.7123 77.9911C48.0318 75.6465 42.6203 67.4092 44.0279 58.7186C45.2322 51.2472 51.332 45.3545 58.8081 44.4479C60.2783 44.2604 62.9059 44.3698 64.4386 44.6824Z" fill="#05568D"/>
<path d="M52.286 54.2796C51.6134 54.561 51.4257 55.3425 51.9262 55.8427C52.239 56.1553 52.4424 56.1553 60.9195 56.1553C69.3966 56.1553 69.5999 56.1553 69.9127 55.8427C70.3037 55.4519 70.3037 55.0455 69.9283 54.5766L69.6312 54.2015L61.1228 54.1702C56.415 54.1546 52.4736 54.2015 52.286 54.2796Z" fill="#05568D"/>
<path d="M52.02 60.7035C51.5351 61.0943 51.4882 61.657 51.9261 62.0946C52.2389 62.4072 52.4423 62.4072 60.8881 62.4072C65.6271 62.4072 69.5998 62.3447 69.6936 62.2822C69.8969 62.1415 70.2254 61.5632 70.2254 61.3131C70.2254 61.2193 70.0533 60.9692 69.8344 60.766L69.459 60.3753H60.9506C52.5674 60.3753 52.4266 60.3753 52.02 60.7035Z" fill="#05568D"/>
<path d="M52.0203 66.9564C51.5198 67.3472 51.5042 67.8786 51.9734 68.3163L52.3331 68.6602H60.951H69.5845L69.8973 68.2538C70.3195 67.7223 70.3039 67.4722 69.8347 67.0189L69.4593 66.6282H60.951C52.5677 66.6282 52.4269 66.6282 52.0203 66.9564Z" fill="#05568D"/>
</svg>
