<svg width="80" height="81" viewBox="0 0 80 81" fill="none" xmlns="http://www.w3.org/2000/svg">
<path d="M2.99876 0.413696L2.5957 0.800793V20.6556V40.5105L2.99876 40.8976L3.3857 41.3008H39.9998H76.614L77.0009 40.8976L77.404 40.5105V20.6556V0.800793L77.0009 0.413696L76.614 0.0104675H39.9998H3.3857L2.99876 0.413696ZM74.8244 20.6556V38.7201H39.9998H5.1753V20.6556V2.59111H39.9998H74.8244V20.6556Z" fill="#05568D"/>
<path d="M59.3467 6.46261V7.75293H60.6365H61.9263V6.46261V5.17229H60.6365H59.3467V6.46261Z" fill="#05568D"/>
<path d="M52.4136 7.83285L51.543 8.71995L52.4136 9.60704L53.2842 10.4941L54.2193 9.57479L55.1544 8.65543L54.316 7.80059C53.8485 7.33285 53.4293 6.94575 53.3809 6.94575C53.3326 6.94575 52.8973 7.34898 52.4136 7.83285Z" fill="#05568D"/>
<path d="M66.9565 7.80059L66.1182 8.65543L67.0533 9.57479L67.9884 10.4941L68.859 9.60704L69.7296 8.71995L68.859 7.83285C68.3753 7.34898 67.94 6.94575 67.8916 6.94575C67.8433 6.94575 67.4241 7.33285 66.9565 7.80059Z" fill="#05568D"/>
<path d="M58.7182 9.30138C54.6392 10.3982 52.108 14.6401 53.1398 18.6401C53.5106 20.0272 54.2684 21.3498 55.2519 22.2691L56.1225 23.0917V24.7207C56.1225 26.8498 56.3159 27.4788 57.3317 28.4788C58.2829 29.4465 58.96 29.6885 60.669 29.6885C62.3296 29.6885 63.2164 29.3498 64.0709 28.3982C64.9576 27.4143 65.1511 26.7369 65.1511 24.7369V23.1401L66.1023 22.1723C67.8274 20.382 68.6335 17.9304 68.2466 15.6078C67.4727 11.0756 63.039 8.14009 58.7182 9.30138ZM62.2168 11.882C63.4421 12.2853 64.4739 13.1562 65.1349 14.3659C65.667 15.3175 65.7153 15.5272 65.7153 16.7046C65.7153 18.2853 65.2478 19.4304 64.1837 20.4143C62.5231 21.9465 62.5715 21.882 62.5715 22.5756V23.2369H60.6368H58.7021V22.5756C58.7021 21.882 58.7343 21.9304 57.1221 20.4627C55.3002 18.8175 54.9778 16.0433 56.3643 13.9304C57.6219 12.0111 60.0241 11.1723 62.2168 11.882ZM62.5715 26.0594C62.5715 26.2046 62.3941 26.4949 62.1684 26.7046C61.8298 27.0594 61.6364 27.1078 60.6368 27.1078C59.6372 27.1078 59.4437 27.0594 59.1051 26.7046C58.3151 25.9304 58.5086 25.8175 60.6368 25.8175C62.2813 25.8175 62.5715 25.8498 62.5715 26.0594Z" fill="#05568D"/>
<path d="M16.0747 11.9625C15.6878 12.269 15.6556 12.3819 15.6556 13.6561V15.0109L15.0107 15.4141L14.3496 15.8335L13.3662 15.2528C12.0441 14.4625 11.6249 14.398 11.0929 14.8819C10.5931 15.3012 8.09412 19.5593 7.98126 20.1722C7.85228 20.7367 8.3682 21.3335 9.52902 21.9786C10.4964 22.4948 10.4964 22.5109 10.4964 23.2367C10.4964 23.9625 10.4964 23.9786 9.52902 24.4948C8.3682 25.1399 7.85228 25.7367 7.98126 26.3012C8.09412 26.9141 10.5931 31.1722 11.0929 31.5915C11.6249 32.0754 12.0602 31.9948 13.3339 31.2367L14.269 30.6722L14.93 31.027L15.5749 31.3819L15.6233 32.7851C15.6717 34.0754 15.7039 34.2206 16.0909 34.527C16.4778 34.8174 16.7358 34.8496 19.4605 34.8496C22.3464 34.8496 22.427 34.8335 22.8623 34.4625C23.2815 34.0915 23.3137 33.9948 23.3137 32.7528V31.4303L23.9586 31.0432L24.6197 30.6722L25.5225 31.2044C27.4733 32.3819 27.6023 32.3174 29.4886 29.0593C30.3109 27.6722 30.9719 26.3496 30.9719 26.1238C30.9558 25.5754 30.7139 25.3012 29.5209 24.5754C28.489 23.9464 28.4729 23.9303 28.4729 23.2367C28.4729 22.5432 28.489 22.527 29.5209 21.898C30.7139 21.1722 30.9558 20.898 30.9719 20.3496C30.9719 19.769 28.1182 14.9141 27.6346 14.7045C27.0703 14.4464 26.9574 14.4625 25.7482 15.1722L24.6519 15.8174L24.0392 15.4786L23.4266 15.1238L23.3621 13.769C23.3137 12.5109 23.2815 12.3657 22.8623 12.0109C22.4109 11.6399 22.3464 11.6238 19.4605 11.6238C16.7196 11.6238 16.4778 11.6399 16.0747 11.9625ZM20.8147 15.0754C20.8147 16.2367 21.2501 16.8496 22.6527 17.6399C24.0554 18.4625 24.8292 18.5593 25.8611 18.027L26.6188 17.6399L27.2154 18.6238C27.5378 19.1561 27.828 19.6561 27.8603 19.7206C27.8925 19.7851 27.5217 20.0754 27.0219 20.3496C26.5382 20.6238 26.0707 20.9786 25.9901 21.1238C25.7966 21.4625 25.7966 25.0109 25.9901 25.3496C26.0707 25.4948 26.5382 25.8496 27.0219 26.1238C27.5217 26.398 27.8925 26.6883 27.8603 26.7528C27.828 26.8174 27.5378 27.3174 27.2154 27.8496L26.6188 28.8335L25.8611 28.4464C24.8292 27.9141 24.0554 28.0109 22.6527 28.8335C21.2501 29.6238 20.8147 30.2367 20.8147 31.398V32.269H19.525H18.2352V31.8174C18.2352 30.398 17.5903 29.5109 15.9296 28.6561C14.6237 27.9786 14.0272 27.9303 13.0276 28.4625L12.286 28.8657L11.8507 28.1077C11.6088 27.6883 11.3025 27.1883 11.1896 27.0109C10.98 26.6722 11.0123 26.6238 11.8668 26.1399C12.3505 25.8657 12.8341 25.4948 12.9147 25.3335C13.1243 24.9464 13.1243 21.527 12.9147 21.1399C12.8341 20.9786 12.3505 20.6077 11.8668 20.3335C11.0123 19.8496 10.98 19.8012 11.1896 19.4625C11.3025 19.2851 11.6088 18.7851 11.8507 18.3657L12.286 17.6077L13.0276 18.0109C14.0272 18.5432 14.6237 18.4948 15.9296 17.8174C17.5903 16.9625 18.2352 16.0754 18.2352 14.6399V14.2045H19.525H20.8147V15.0754Z" fill="#05568D"/>
<path d="M17.3476 18.5266C16.2512 19.0589 15.3 20.0266 14.7841 21.1234C14.2682 22.2686 14.3004 24.3331 14.8808 25.4137C15.3968 26.4137 16.5576 27.5105 17.5572 27.9621C18.6051 28.4137 20.4431 28.4137 21.491 27.946C22.5551 27.4782 23.7643 26.2847 24.2157 25.2847C24.78 24.0105 24.7639 22.1879 24.1513 20.946C23.6515 19.946 22.797 19.075 21.749 18.5428C21.2331 18.2686 20.701 18.1557 19.6853 18.1234C18.4278 18.0589 18.2343 18.0911 17.3476 18.5266ZM21.1525 21.2363C22.1198 22.1395 22.3455 23.2686 21.7813 24.3492C21.1041 25.6879 19.3629 26.1234 18.0892 25.2847C16.9445 24.5266 16.6221 23.0911 17.3476 21.8653C17.8635 20.9621 18.5406 20.6234 19.7337 20.704C20.4915 20.7524 20.7494 20.8492 21.1525 21.2363Z" fill="#05568D"/>
<path d="M49.0283 15.4948V16.7852H50.3181H51.6079V15.4948V14.2045H50.3181H49.0283V15.4948Z" fill="#05568D"/>
<path d="M69.665 15.4948V16.7852H70.9548H72.2446V15.4948V14.2045H70.9548H69.665V15.4948Z" fill="#05568D"/>
<path d="M33.5508 23.236V24.5264H34.8406H36.1304V23.236V21.9457H34.8406H33.5508V23.236Z" fill="#05568D"/>
<path d="M38.71 23.236V24.5264H39.9998H41.2896V23.236V21.9457H39.9998H38.71V23.236Z" fill="#05568D"/>
<path d="M43.8691 23.236V24.5264H45.1589H46.4487V23.236V21.9457H45.1589H43.8691V23.236Z" fill="#05568D"/>
<path d="M43.8691 28.3982V29.6885H45.1589H46.4487V28.3982V27.1078H45.1589H43.8691V28.3982Z" fill="#05568D"/>
<path d="M43.8691 33.5593V34.8496H45.1589H46.4487V33.5593V32.269H45.1589H43.8691V33.5593Z" fill="#05568D"/>
<path d="M49.0283 33.5593V34.8496H50.3181H51.6079V33.5593V32.269H50.3181H49.0283V33.5593Z" fill="#05568D"/>
<path d="M54.1875 33.5593V34.8496H55.4773H56.7671V33.5593V32.269H55.4773H54.1875V33.5593Z" fill="#05568D"/>
<path d="M59.3467 33.5593V34.8496H60.6365H61.9263V33.5593V32.269H60.6365H59.3467V33.5593Z" fill="#05568D"/>
<path d="M32.5027 44.1075C31.9062 44.3656 31.3742 44.9462 31.1485 45.543C30.8744 46.2688 30.9066 54.5591 31.1968 55.2365C31.5515 56.0914 32.4544 56.672 33.5507 56.7527L34.4697 56.8172L34.0183 58.6236C33.454 60.8172 33.454 61.0591 33.9538 61.543C34.7115 62.3172 35.0017 62.172 38.4842 59.3817L41.6926 56.8172L43.2564 56.7688C44.9332 56.7043 45.3362 56.5268 46.0295 55.5914C46.352 55.172 46.3681 54.9462 46.3681 50.3494V45.543L45.9005 44.9462C45.1105 43.8978 45.0138 43.8817 38.6777 43.8817C34.2923 43.8978 32.8736 43.9462 32.5027 44.1075ZM43.8691 50.3333V54.2043H42.3536H40.8381L39.0324 55.6559C38.0328 56.4623 37.1783 57.0752 37.146 57.043C37.0977 57.0107 37.146 56.7043 37.2428 56.3494C37.5007 55.4139 37.4523 55.0268 37.017 54.6075C36.6623 54.2365 36.5011 54.2043 35.0823 54.2043H33.5507V50.3333V46.4623H38.7099H43.8691V50.3333Z" fill="#05568D"/>
<path d="M50.56 44.1075C49.9634 44.3656 49.4314 44.9462 49.2057 45.543C49.0928 45.8333 49.0283 47.6559 49.0283 50.3494C49.0283 55.2204 49.0767 55.4623 50.0924 56.2365C50.6406 56.6559 50.834 56.7043 52.2367 56.7688L53.7845 56.8172L56.9928 59.3817C60.4753 62.172 60.7655 62.3172 61.5232 61.543C62.023 61.0591 62.023 60.8172 61.4587 58.6236L61.0073 56.8172L61.9424 56.7527C62.9581 56.672 63.5063 56.3817 64.0867 55.5914C64.4092 55.172 64.4253 54.9462 64.4253 50.3494V45.543L63.9577 44.9462C63.1677 43.8978 63.071 43.8817 56.7349 43.8817C52.3495 43.8978 50.9308 43.9462 50.56 44.1075ZM61.9263 50.3333V54.2043H60.3947C58.9759 54.2043 58.8147 54.2365 58.46 54.6075C58.0247 55.0268 57.9763 55.4139 58.2343 56.3494C58.331 56.7043 58.3794 57.0107 58.331 57.043C58.2987 57.0752 57.4443 56.4623 56.4447 55.6559L54.6389 54.2043H53.1234H51.6079V50.3333V46.4623H56.7671H61.9263V50.3333Z" fill="#05568D"/>
<path d="M7.51307 55.7204C5.78797 56.2688 4.51429 57.3656 3.77266 58.9624C3.38572 59.7849 3.32123 60.1398 3.32123 61.3011C3.32123 62.543 3.3696 62.7849 3.85327 63.7688C4.1596 64.3817 4.36919 64.8817 4.33695 64.914C4.32082 64.9301 3.96613 65.0914 3.56307 65.2527C2.49898 65.7204 1.22531 67.0591 0.612654 68.3495L0.0967348 69.4462L0.0483674 74.3172L0 79.2043L0.403062 79.6075L0.806124 80.0107H16.7835H32.7609L33.1639 79.6075L33.567 79.2043L33.5186 74.3172L33.4703 69.4462L32.9543 68.3495C32.3417 67.0591 31.068 65.7204 30.0039 65.2527C29.6009 65.0914 29.2462 64.9301 29.23 64.914C29.1978 64.8817 29.4074 64.3817 29.7137 63.7688C30.1974 62.7849 30.2458 62.543 30.2458 61.3011C30.2458 60.1398 30.1813 59.7849 29.7943 58.9624C27.6662 54.3978 21.3784 54.3978 19.2502 58.9624C18.8633 59.7849 18.7988 60.1398 18.7988 61.3011C18.7988 62.543 18.8472 62.7849 19.3308 63.7688C19.6372 64.3817 19.8468 64.8817 19.8145 64.8978C19.7984 64.914 19.4115 65.1075 18.96 65.3333C18.5247 65.5591 17.8476 66.0269 17.4768 66.3978L16.7835 67.0591L16.0902 66.3978C15.7194 66.0269 15.0423 65.5591 14.607 65.3333C14.1555 65.1075 13.7686 64.914 13.7525 64.8978C13.7202 64.8817 13.9298 64.3817 14.2361 63.7688C14.7198 62.7849 14.7682 62.543 14.7682 61.3011C14.7682 60.1398 14.7037 59.7849 14.3168 58.9624C13.8331 57.914 13.0108 56.9624 12.0919 56.3817C10.8343 55.5753 8.88348 55.2849 7.51307 55.7204ZM10.5602 58.4785C13.0431 59.6559 12.64 63.6075 9.96369 64.3495C7.48083 65.0591 5.30429 62.8817 5.98144 60.3656C6.19103 59.543 7.19062 58.4785 7.94838 58.2527C8.69001 58.0269 9.81859 58.1236 10.5602 58.4785ZM26.0378 58.4785C28.5207 59.6559 28.1176 63.6075 25.4413 64.3495C22.9584 65.0591 20.7819 62.8817 21.459 60.3656C21.6686 59.543 22.6682 58.4785 23.426 58.2527C24.1676 58.0269 25.2962 58.1236 26.0378 58.4785ZM12.8174 67.3011C13.2366 67.4301 13.7847 67.8011 14.2845 68.3172C15.4131 69.4462 15.4937 69.8011 15.4937 73.9462V77.4301H9.04471H2.59572V73.9462C2.59572 71.672 2.66021 70.2204 2.78919 69.7849C3.03102 68.9624 4.38531 67.5753 5.17531 67.3172C5.98144 67.0591 11.9629 67.0591 12.8174 67.3011ZM28.2949 67.3011C28.7141 67.4301 29.2623 67.8011 29.7621 68.3172C30.8907 69.4462 30.9713 69.8011 30.9713 73.9462V77.4301H24.5223H18.0733V73.9462C18.0733 71.672 18.1378 70.2204 18.2668 69.7849C18.5086 68.9624 19.8629 67.5753 20.6529 67.3172C21.459 67.0591 27.4405 67.0591 28.2949 67.3011Z" fill="#05568D"/>
<path d="M69.4232 55.7204C67.6981 56.2688 66.4244 57.3656 65.6828 58.9624C65.2959 59.7849 65.2314 60.1398 65.2314 61.3011C65.2314 62.543 65.2798 62.7849 65.7634 63.7688C66.0698 64.3817 66.2793 64.8817 66.2471 64.914C66.231 64.9301 65.8763 65.0914 65.4732 65.2527C64.4091 65.7204 63.1355 67.0591 62.5228 68.3495L62.0069 69.4462L61.9585 74.3172L61.9102 79.2043L62.3132 79.6075L62.7163 80.0107H70.9549H79.1934L79.5965 79.6075L79.9996 79.2043L79.9512 74.3172L79.9028 69.4462L79.3869 68.3495C78.7743 67.0591 77.5006 65.7204 76.4365 65.2527C76.0334 65.0914 75.6788 64.9301 75.6626 64.914C75.6304 64.8817 75.84 64.3817 76.1463 63.7688C76.63 62.7849 76.6783 62.543 76.6783 61.3011C76.6783 60.1398 76.6139 59.7849 76.2269 58.9624C75.7432 57.914 74.921 56.9624 74.002 56.3817C72.7445 55.5753 70.7936 55.2849 69.4232 55.7204ZM72.4704 58.4785C74.9532 59.6559 74.5502 63.6075 71.8738 64.3495C69.391 65.0591 67.2145 62.8817 67.8916 60.3656C68.1012 59.543 69.1008 58.4785 69.8585 58.2527C70.6002 58.0269 71.7287 58.1236 72.4704 58.4785ZM74.7275 67.3011C75.6143 67.5591 76.9524 68.8978 77.2104 69.7849C77.3394 70.2204 77.4039 71.672 77.4039 73.9462V77.4301H70.9549H64.5059V73.9462C64.5059 71.672 64.5704 70.2204 64.6993 69.7849C64.9412 68.9624 66.2955 67.5753 67.0855 67.3172C67.8916 67.0591 73.873 67.0591 74.7275 67.3011Z" fill="#05568D"/>
</svg>
